<?xml version="1.0" standalone="no"?>
<!DOCTYPE svg PUBLIC "-//W3C//DTD SVG 1.1//EN" "http://www.w3.org/Graphics/SVG/1.1/DTD/svg11.dtd" >
<svg xmlns="http://www.w3.org/2000/svg" xmlns:xlink="http://www.w3.org/1999/xlink" version="1.1">
<metadata>
Created by FontForge 20190801 at Sat Oct 31 16:23:48 2020
 By www-data
Hamiltone Demo (c) Lemonthe. 2020. All Rights Reserved
</metadata>
<defs>
<font id="mr_HamiltoneG" horiz-adv-x="0" >
  <font-face 
    font-family="mr_HamiltoneG"
    font-weight="400"
    font-stretch="normal"
    units-per-em="2048"
    panose-1="2 0 6 0 0 0 0 0 0 0"
    ascent="1638"
    descent="-410"
    x-height="402"
    cap-height="1706.5"
    bbox="-2918.97 -2402.21 4500.89 2312.39"
    underline-thickness="150"
    underline-position="-292"
    unicode-range="U+0020-E074"
  />
<missing-glyph horiz-adv-x="1425" 
d="M854 418l2 4l1 3q4 8 -19 13q-33 4 -72 -23q-39 -26 -50 -60q-17 -47 39 -41q25 5 63 22q19 40 36 82zM494 163q-2 5 -3 8q-3 8 1.5 13t11 5t10.5 -7q2 -2 3 -5q4 -10 26 -38q9 -13 21 -27q1 -1 2 -3q5 -5 10 -11q22 -22 44 -28q28 -7 77 55q37 44 98 153l6 12
q-40 -22 -92 -11q-45 17 -44 58q-1 31 21 61q22 28 51 54q34 27 61 34q36 10 75 -2q37 -10 22 -50q-7 -16 -13 -31q-11 -28 -20 -49q22 18 49 48q16 27 35 55q16 22 48 12q32 -9 21 -39q-58 -73 -92 -169q-35 -96 1 -156q27 -18 55 -12t44 12q15 6 29 11q107 44 207 105
q99 61 181 143q25 3 18 -11q-8 -13 -36 -36t-61 -48q-34 -24 -61 -41q-27 -18 -33 -21q-75 -47 -154 -88q-79 -40 -158 -66q-79 -18 -106 27t-16 108q7 52 45 144q-17 -18 -38 -30q-2 -5 -8 -14q-14 -24 -28 -47q-9 -16 -20 -34q-22 -36 -45 -74q-21 -32 -42 -54t-47 -35
q-52 -26 -91 27q-3 3 -4 5q-23 31 -39 57q-17 25 -22 30zM381 97q-92 -37 -159.5 -14.5t-94.5 133.5q-66 -98 -142 -189q-40 -40 -82.5 -22.5t-33.5 75.5q41 182 171 316q42 43 103 69q24 9 39.5 -6t14.5 -36.5t-25 -31.5q-75 -38 -125.5 -107.5t-78.5 -150.5
q82 106 153 220q11 17 29.5 18t32 -11t12.5 -32q-20 -61 -10.5 -125.5t75.5 -90.5q99 1 200 56q28 15 34 18q10 4 17 -8q5 -10 -4 -19q-52 -33 -126 -62z" />
    <glyph glyph-name=".notdef" unicode="&#x430;&#x44f;" horiz-adv-x="1425" 
d="M854 418l2 4l1 3q4 8 -19 13q-33 4 -72 -23q-39 -26 -50 -60q-17 -47 39 -41q25 5 63 22q19 40 36 82zM494 163q-2 5 -3 8q-3 8 1.5 13t11 5t10.5 -7q2 -2 3 -5q4 -10 26 -38q9 -13 21 -27q1 -1 2 -3q5 -5 10 -11q22 -22 44 -28q28 -7 77 55q37 44 98 153l6 12
q-40 -22 -92 -11q-45 17 -44 58q-1 31 21 61q22 28 51 54q34 27 61 34q36 10 75 -2q37 -10 22 -50q-7 -16 -13 -31q-11 -28 -20 -49q22 18 49 48q16 27 35 55q16 22 48 12q32 -9 21 -39q-58 -73 -92 -169q-35 -96 1 -156q27 -18 55 -12t44 12q15 6 29 11q107 44 207 105
q99 61 181 143q25 3 18 -11q-8 -13 -36 -36t-61 -48q-34 -24 -61 -41q-27 -18 -33 -21q-75 -47 -154 -88q-79 -40 -158 -66q-79 -18 -106 27t-16 108q7 52 45 144q-17 -18 -38 -30q-2 -5 -8 -14q-14 -24 -28 -47q-9 -16 -20 -34q-22 -36 -45 -74q-21 -32 -42 -54t-47 -35
q-52 -26 -91 27q-3 3 -4 5q-23 31 -39 57q-17 25 -22 30zM381 97q-92 -37 -159.5 -14.5t-94.5 133.5q-66 -98 -142 -189q-40 -40 -82.5 -22.5t-33.5 75.5q41 182 171 316q42 43 103 69q24 9 39.5 -6t14.5 -36.5t-25 -31.5q-75 -38 -125.5 -107.5t-78.5 -150.5
q82 106 153 220q11 17 29.5 18t32 -11t12.5 -32q-20 -61 -10.5 -125.5t75.5 -90.5q99 1 200 56q28 15 34 18q10 4 17 -8q5 -10 -4 -19q-52 -33 -126 -62z" />
    <glyph glyph-name="a_f" unicode="af" horiz-adv-x="1181" 
d="M1236 341v0q-126 -106 -283.5 -218.5t-325.5 -190.5q-19 -73 -35 -144q38 -44 38 -107q-3 -51 -30.5 -94.5t-61.5 -77.5q-8 -8 -18.5 -7t-17 8.5t-5.5 18.5q14 132 39 263q-52 43 -139 68q-8 2 -10 9t1 13t11 8q58 8 114 27q28 10 54 21q38 157 92 309
q-104 -84 -219 -139q-4 -2 -8 -3q-45 -20 -95 -32t-98 9q-61 30 -89 91q-9 21 -13 44q-31 -44 -62 -87q-33 -44 -67 -88q-24 -33 -65 -41q-43 -2 -58 29.5t-3 67.5q44 172 168 300q42 43 103 69q25 8 40.5 -6.5t14 -35.5t-25.5 -32q-74 -37 -125 -107.5t-79 -151.5
q16 22 32 43q64 87 121 177q12 18 30 19t31.5 -11t12.5 -32q-21 -68 -9 -135q9 -30 34 -54.5t57 -30.5q73 1 141 32t129 69q64 42 124 94q21 54 44 107q59 144 149 272q11 14 26.5 16t29.5 -8q10 -8 14 -19q2 -3 2 -6q2 -17 -9 -32v0v0q-49 -151 -156 -272
q-87 -189 -144 -394q158 77 303.5 177.5t280.5 212.5q6 5 11.5 2t7.5 -8.5t-4 -11.5zM462 -128v0q43 -16 82 -41q7 36 15 72q-48 -18 -97 -31zM557 -398v0q48 73 23 131q-13 -66 -23 -131z" />
    <glyph glyph-name="a_h" unicode="ah" horiz-adv-x="1402" 
d="M1456 363v0q6 -5 6 -11.5t-4 -11.5q-40 -40 -81 -77q-9 -8 -19 -16q-58 -52 -123.5 -98t-141.5 -63q-48 -7 -88 20.5t-56 72.5q-23 80 0 159q-68 -47 -135.5 -104t-115.5 -121q-31 -86 -63 -169q-3 -11 -12 -13.5t-17.5 2t-8.5 15.5q-6 88 40 163q45 166 100 329
q27 75 57 153q-112 -188 -253 -355l-4 -4q-50 -58 -114 -109.5t-143 -53.5q-45 4 -79.5 33.5t-51.5 70.5q-8 21 -12 42q-30 -44 -62 -87q-33 -44 -67 -88q-24 -33 -65 -41q-42 -2 -57.5 29.5t-2.5 67.5q44 172 167 300q43 43 103 69q26 8 41 -6.5t13.5 -35.5t-25.5 -32
q-73 -35 -124 -106.5t-80 -152.5q82 107 154 220q9 15 24.5 18.5t30.5 -5.5q20 -14 18 -37q-11 -42 -14 -81q-4 -47 20 -88t73 -49q89 4 192.5 107t202 248t173.5 275q10 26 19 51q1 1 1 3q22 57 45 114q12 23 32.5 24.5t35 -13.5t7.5 -40q-48 -125 -100 -251
q-45 -108 -86 -215q-30 -79 -59 -161q62 63 129 118q66 55 134 104q14 10 30 7.5t26 -15.5q15 -25 0 -48q-35 -37 -58 -84q-30 -56 -28.5 -121t63.5 -98q61 -17 125 17t111 73q43 34 82 73q39 38 74 80q4 5 10 6t11 -3z" />
    <glyph glyph-name="a_l" unicode="al" horiz-adv-x="1072" 
d="M1183 1328v0q13 16 30.5 15t29.5 -14t8 -34q-24 -67 -59 -131q-14 -27 -27 -54q-119 -234 -252 -460q-34 -85 -68 -171q-4 -12 -9 -25q-57 -152 -104 -307.5t-62 -317.5q-4 -40 -2 -81t17 -78q10 -22 29 -33q10 -7 9.5 -16.5t-8.5 -15.5t-19 -1q-60 40 -65.5 141.5
t15 215t39.5 188.5q3 12 5 22q38 159 91 314q-87 -103 -182 -199t-207 -173q-57 -38 -107.5 -40.5t-102.5 49.5q-36 41 -46 95q-30 -44 -62 -87q-33 -44 -67 -88q-24 -33 -65 -41q-42 -2 -57 29.5t-3 67.5q44 172 168 300q42 43 102 69q26 8 41 -6.5t14 -35.5t-26 -32
q-72 -35 -123.5 -106.5t-80.5 -152.5q82 107 154 220q11 18 29 19t32 -11t12 -32q-19 -61 -11 -121t70 -92q60 -13 163 62.5t208.5 184t171.5 193.5q69 187 151 368q48 105 103 207t123 196z" />
    <glyph glyph-name="a_l_t" unicode="alt" horiz-adv-x="2018" 
d="M2055 363v0q9 -1 11.5 -8t-1 -13t-12.5 -6q-194 23 -389 22h-55h-14h-3q-68 -160 -129 -323q0 -81 -31 -156q-6 -15 -20.5 -41.5t-34 -41.5t-37.5 1q-4 5 -5 11.5t-1 12.5v4q19 75 43 146q27 80 55 158q-2 8 -4 15q-4 14 -9 27q-85 -111 -191.5 -231t-217 -215
t-206.5 -130t-160 24q-52 63 -48.5 194t45.5 298.5t102 338.5q-111 -139 -243 -258q-6 -5 -13 -11q-50 -44 -114.5 -82t-129.5 -20q-49 20 -74 56.5t-34 82.5q-31 -45 -63 -88q-32 -44 -67 -88q-15 -19 -36.5 -32t-47.5 -8q-34 9 -42.5 38t1.5 58q44 172 168 300
q42 43 103 69q25 8 40 -6.5t14 -35.5t-25 -32q-73 -35 -124.5 -106.5t-80.5 -152.5q82 107 154 220q11 18 29 19t32 -11t13 -32q-19 -59 -11.5 -120.5t67.5 -91.5q61 -17 155.5 49.5t190.5 167.5t165 190q124 326 202 474q83 173 197 329q15 19 38 14t30 -28q3 -17 -4 -33
q-59 -149 -131 -293q-14 -28 -27 -56l-34 -68q-63 -135 -145 -261q-5 -5 -10 -11q-97 -247 -164 -503q-22 -88 -36.5 -177.5t-10.5 -180.5q3 -78 44 -91t95 9.5t97 53.5q143 104 264 232.5t227 269.5q-81 124 -236 123q-7 1 -10.5 6.5t-1.5 11.5t9 8q108 21 217 23q4 0 7 1
q70 2 140 3q1 2 3 4q84 213 157 429q2 5 3 10q22 62 31 127q4 26 24 33t38 -3.5t17 -37.5q-23 -126 -72 -244q-10 -26 -20 -51q-51 -134 -107 -267q172 -1 342 -10l24 -2q44 -2 88 -6zM1245 342v0q108 -30 169 -121q35 47 69 94q15 21 29 43q-134 0 -267 -16zM1432 187v0
q6 -14 11 -29q16 44 33 88q-21 -28 -44 -59z" />
    <glyph glyph-name="a_t" unicode="at" horiz-adv-x="1174" 
d="M1218 363v0q8 -1 10.5 -8t-1 -13t-12.5 -6q-46 8 -94 10q-141 8 -283 4q-28 -1 -57 -2q-38 -101 -74 -203l2 -20q6 -88 -27.5 -178.5t-97.5 -152.5q-12 -10 -25.5 -3.5t-14.5 22.5v1v3v4v3v1q18 74 40 145q38 123 80 244q-22 41 -64 66q-53 -75 -119 -133.5t-144 -75.5
q-64 -11 -117 20t-74 92q-6 16 -10 34q-30 -44 -62 -87q-32 -44 -67 -88q-24 -33 -65 -41q-42 -2 -57 29.5t-3 67.5q44 172 168 300q42 43 102 69q26 8 41 -6.5t14 -35.5t-25 -32q-73 -35 -124.5 -106.5t-80.5 -152.5q82 107 154 220q12 18 29.5 19t31.5 -11t12 -32
q-10 -41 -13.5 -80.5t13.5 -77.5q32 -56 81.5 -62t100.5 18t88 61q50 48 95 106q-12 4 -24 7q-41 11 -83 11q-7 0 -10.5 5.5t-1.5 11.5t9 8q47 11 95 17q32 3 63 6q86 127 152 269t113 278q6 20 10 41v0l1 1v1q4 26 24 33t38 -3.5t17 -37.5q-21 -125 -66 -244l-16 -50
q-48 -139 -100 -278q214 7 428 -8zM709 452v0q-24 -41 -53 -88q30 2 61 4q55 157 106 315q-52 -118 -114 -231zM537 327v0q23 -6 44 -16q9 12 18 25q-31 -4 -62 -9zM685 40v0q7 31 7 62q-38 -107 -72 -215q26 33 42 74.5t23 78.5zM672 237v0q18 54 37 108q-34 -2 -69 -5
q-14 -23 -29 -45q36 -23 61 -58z" />
    <glyph glyph-name="a_t_h" unicode="ath" horiz-adv-x="1764" 
d="M1810 362v0q5 -4 5.5 -10.5t-4.5 -12.5q-39 -39 -81 -76l-18 -16q-58 -52 -123.5 -98t-141.5 -63q-48 -7 -88.5 20t-56.5 73q-23 79 0 159q-88 -61 -171.5 -138t-122.5 -163q-10 -45 -19 -90q-1 -12 -10.5 -16t-18.5 0.5t-10 16.5q-4 43 8 85q29 252 110 492
q58 168 135 327q-131 -123 -309 -184q-4 -10 -7 -19q-53 -154 -110 -306q-35 -93 -68 -186q-13 -130 -59 -252l-4 -10q-11 -28 -25.5 -54.5t-38.5 -46.5q-17 -9 -31 2t-10 29q19 73 41 144q52 169 111 336q-3 48 -15 94q-60 -105 -145.5 -203t-195.5 -126
q-63 -10 -116.5 20.5t-74.5 91.5q-6 17 -9 35q-30 -45 -62 -87q-33 -45 -67 -88q-24 -33 -65 -42q-42 -1 -57.5 30.5t-2.5 66.5q43 173 167 301q43 43 103 69q25 8 40.5 -6.5t14 -35.5t-25.5 -33q-73 -35 -124.5 -106t-79.5 -152q82 106 153 220q12 18 30 19t31.5 -11
t12.5 -33q-11 -40 -14 -80t14 -78q32 -55 81 -61.5t100 18t89 60.5q107 107 191 247q-18 50 -52.5 86.5t-88.5 53.5q-27 7 -55 7q-5 0 -9 4t-3 10q0 5 3.5 8.5t8.5 3.5q62 3 124 12q92 14 189 39q58 127 99 248l4 12q3 15 4 31q5 26 24.5 33.5t38 -3t17.5 -37.5
q-22 -127 -67 -247q101 37 188.5 94t149.5 139q33 65 69 129q9 15 24.5 19.5t30.5 -3.5q14 -9 18.5 -24t-3.5 -30q-141 -250 -242 -519q-57 -156 -97 -316q85 103 189 187q66 54 134 104q14 10 29.5 7.5t26.5 -16.5q15 -24 -1 -47q-35 -38 -58 -84q-30 -56 -28 -121t63 -98
q50 -16 99 5.5t91 49.5q2 1 3 2q67 47 126 105q39 39 73 81q5 5 11 5.5t11 -3.5zM552 590v0q89 -42 126 -136q50 86 92 177q-110 -28 -218 -41zM635 -58v0q18 44 30 90zM707 346v0q1 3 2 7q50 143 98 287h-1q-1 0 -2 -1q-44 -95 -95 -187q-9 -16 -19 -32q11 -36 17 -74z" />
    <glyph glyph-name="a_t_t" unicode="att" horiz-adv-x="1399" 
d="M1842 652v0q17 -20 9 -39.5t-28 -26t-39 11.5q-44 30 -184 45.5t-323 18.5v-2q-2 -5 -4 -11q-53 -154 -110 -306q-35 -93 -69 -186q23 -52 16.5 -112.5t-50.5 -129.5q-39 -60 -85 -115l-2 -2q-9 -8 -20 -8t-19 9q-11 11 -7 26q18 73 40 144q37 120 78 238
q-36 50 -86.5 89.5t-102.5 71.5q-14 9 -29 17q-12 -29 -23 -59q-100 -254 -177 -515q-6 -17 -20.5 -19.5t-26 6.5t-7.5 27q72 265 167 523q13 36 26 71q-14 8 -27 15q-49 -76 -109 -144q-44 -51 -122.5 -115t-163.5 -92.5t-149 26.5q-48 45 -58 108q-66 -98 -141 -189
q-33 -33 -72.5 -26t-46.5 57q13 94 60 183t113 156q43 43 103 69q25 8 40.5 -6.5t14 -35.5t-25.5 -33q-75 -37 -125 -107t-79 -151q82 106 153 220q14 20 32.5 22t31.5 -10.5t10 -36.5q-19 -60 -11 -122t70 -91q53 -8 111.5 20.5t101.5 59.5q140 106 236 251q-13 7 -27 14
l-78 40q-11 7 -24 15q-30 15 -56.5 35.5t-29.5 50.5v-3q-2 25 47.5 40.5t116 24.5t118.5 13q33 3 47 5q4 0 8 1h5q34 80 60 162q6 28 9 57q4 23 19 31q1 1 3 1q20 9 39.5 -1.5t18.5 -37.5q-17 -105 -53 -205q138 10 277 14q17 55 33 109l2 8q19 64 28 129q4 26 24 33
t38 -3.5t17 -36.5q-20 -122 -63 -237q183 3 366 -9q20 -2 41 -4q38 -2 75.5 -10t67.5 -31zM772 437v0l46 134q-31 -62 -69 -121q12 -6 23 -13zM724 464v0q58 89 102 186q-226 -16 -302 -47q4 -28 58.5 -61.5t109.5 -60.5q18 -10 32 -17zM1007 -101v0q45 45 68 102t10 120
q-1 2 -1 3q-1 1 -1 2q-40 -113 -76 -227zM1052 229v0l44 128q53 152 103 305q-141 0 -275 -6q-7 -22 -14 -43q-37 -105 -77 -210q63 -36 120.5 -79.5t98.5 -94.5z" />
    <glyph glyph-name="b_b" unicode="bb" horiz-adv-x="1069" 
d="M1095 360v0q6 6 13 3.5t9.5 -9t-3.5 -13.5q-57 -45 -121 -80t-130 -67l-8 -4q-93 -43 -191 -77q24 -35 27 -75q-1 -40 -14.5 -76.5t-32.5 -70.5q-36 -64 -86.5 -117t-117.5 -86q-7 -3 -14 -1.5t-13 5.5q-20 17 -24 42t-3 50v9q12 139 54 272q36 119 77 236
q-96 -64 -201 -110q-29 -12 -57 -24q-66 -29 -133 -55q37 -55 22 -117q-28 -98 -91.5 -179t-154.5 -128v0q-8 -4 -16 -1q-17 5 -26 20.5t-11 30.5q-9 131 47 307.5t115 322.5q13 33 24 61q8 20 17 40q48 117 103 231t129 218q15 20 36 37q1 0 3 1q17 8 33 9.5t26 -19.5
q4 -9 2 -17q-6 -28 -12 -52q-35 -160 -120 -298q-71 -117 -157 -223q-40 -98 -77 -197q13 5 31 3q17 -2 32 -10q101 3 232.5 61t214.5 119q45 124 96 247q68 170 153 332q8 13 15 27q37 76 97 135v0l19 8q13 5 25 0.5t18 -16.5q4 -9 2 -18q-5 -34 -13 -60
q-43 -183 -129 -350q-83 -160 -195 -302q-33 -89 -65 -178l1 1h1q38 11 68 -6q114 6 263.5 76.5t210.5 131.5zM322 830v0q-29 -46 -53 -96q-10 -19 -20 -39q-67 -133 -125 -270q119 148 180 327q12 37 18 78zM-117 -275v0v0v0v0zM43 83v0l-1 2q-7 -2 -15 -4q-22 3 -32 16
q-42 -118 -76 -240q-19 -61 -20 -122q101 70 153 184q2 5 5 12q13 29 22 62.5t-3 59.5q-5 9 -13 18t-17 12q-2 1 -3 1t0 -1zM851 872v0q-41 -79 -77 -161q-68 -151 -130 -306q151 198 223 435q2 10 5 19q11 40 17 82q-12 -21 -24 -43zM590 -81v0q2 5 5 12q13 29 22.5 62.5
t-3.5 59.5q-5 9 -13 18t-16 12q-2 1 -3 1t-1 -1v2q-8 -2 -17 -4q-23 2 -32 20q-24 -71 -46 -143q-20 -64 -35 -128q-1 -5 -3 -11q-11 -42 -10 -84q101 71 152 184z" />
    <glyph glyph-name="c_c" unicode="cc" horiz-adv-x="1269" 
d="M1296 357v0q5 5 10.5 3.5t8 -6.5t-2.5 -11q-75 -74 -198 -157.5t-257 -138.5t-241 -45q-66 10 -84 50.5t-3.5 95.5t45.5 107q-87 -76 -196 -148.5t-220 -118t-203 -40.5q-71 12 -83 66.5t13 126.5t63 136t67 97q36 44 90 79.5t113 6.5q20 -17 17.5 -37t-20 -31t-40.5 0
q-17 0 -33 -11t-30 -24q-4 -3 -7 -6q-107 -108 -161 -250q-2 -5 -4 -11q-5 -17 -10 -39.5t-4 -41t15 -25.5q68 -19 139 3t133 54q202 105 373 254q24 21 46 43l9 9q36 41 88 65.5t105 -4.5q20 -16 17.5 -36.5t-20 -31.5t-40.5 0q-31 6 -68.5 -26t-68.5 -75t-43 -70
q-9 -16 -18 -44t-9 -53.5t20 -34.5q73 -18 146.5 0.5t142.5 47.5q189 82 345 216q32 26 58 56z" />
    <glyph glyph-name="c_h" unicode="ch" horiz-adv-x="1350" 
d="M1391 363v0q5 -5 5.5 -11.5t-4.5 -11.5q-40 -40 -81 -77l-18 -16q-58 -52 -123.5 -98t-141.5 -63q-48 -7 -88.5 20.5t-56.5 72.5q-23 80 0 159q-68 -47 -135 -104t-116 -121q-30 -86 -63 -169q-3 -11 -12 -13.5t-17 2t-9 15.5q-5 88 41 163q44 166 99 329q35 96 74 196
q-196 -306 -480 -533q-7 -5 -15 -11q-43 -33 -99 -70t-115 -59t-112 -10q-64 30 -59.5 101.5t40.5 147.5t66 118q24 37 62.5 79t85 64t95.5 -3q20 -17 17.5 -37t-20 -31t-40.5 0q-36 -4 -74.5 -45t-61.5 -72q-38 -52 -68 -110t-42 -121q0 -2 -1 -5q-3 -16 -2.5 -31t14.5 -24
q26 -9 53.5 -3.5t53.5 15.5h1q137 62 284.5 195t272 290t195.5 291q4 9 9 18v1q1 1 1 2t1 3q22 57 45 114q12 23 32.5 24.5t35 -13.5t6.5 -40q-47 -125 -100 -251q-44 -108 -86 -215q-30 -79 -58 -161q61 63 129 118q66 55 134 104q14 10 29.5 7.5t25.5 -15.5q16 -25 0 -48
q-35 -37 -58 -84q-30 -56 -28 -121t63 -98q61 -17 125 17t112 73q43 34 82 73q39 38 73 80q5 5 11 6t11 -3z" />
    <glyph glyph-name="c_k" unicode="ck" horiz-adv-x="1276" 
d="M1304 360v0q7 9 16 7t13 -10t-2 -17q-127 -172 -307 -241t-389 -36q-5 0 -8 3q-26 -57 -42 -117q-4 -14 -15.5 -16.5t-21 4.5t-6.5 22q69 361 201 704q-1 -1 -1 -2l-2 -2q-117 -179 -260.5 -339t-317.5 -287l-12 -8q-49 -35 -107.5 -61t-118.5 -8q-64 38 -50.5 121.5
t60.5 168.5t85 128q36 45 89.5 80t112.5 6q21 -17 18.5 -37t-20 -31t-40.5 0q-15 1 -28.5 -7.5t-26.5 -19.5q-3 -2 -5 -5q-64 -60 -115.5 -142.5t-69.5 -168.5l-2 -8q-3 -15 -3 -30t11 -25q24 -12 51 -6t51 16q1 0 2 1q127 61 269.5 199.5t267.5 298t199 282.5q31 52 57 106
v1l1 1q6 14 13 28q13 22 34 21.5t34 -16.5t4 -40q-148 -304 -252 -625q84 110 207 208q16 14 33.5 9.5t27 -19.5t2.5 -35q-53 -93 -123 -172t-146 -153q191 -22 353 45t279 224zM767 265v0q-64 -61 -110 -138q21 23 40 47q36 44 70 91z" />
    <glyph glyph-name="d_d" unicode="dd" horiz-adv-x="1174" 
d="M1171 1060v0q11 -6 14.5 -17.5t-1.5 -22.5q-180 -429 -293 -881q-37 -151 -70 -302q-7 -25 -27.5 -30t-37.5 7.5t-13 39.5q69 305 163 604q32 101 67 200l-78 -134q-53 -90 -110.5 -178t-127.5 -167q-21 -24 -55.5 -43.5t-65.5 0.5q-25 23 -27 54q-46 -61 -108 -128
t-113 -86.5t-64 63.5q0 62 14 121q61 254 154 497q-38 -66 -77 -133q-53 -90 -110.5 -178t-127.5 -167q-22 -24 -56 -43.5t-65 0.5q-36 33 -26.5 81t39 94.5t56.5 75.5q37 41 86.5 73.5t108.5 27.5q14 -3 22 -11q76 131 146 266q35 69 72 136q44 84 88 169q7 11 19 14.5
t24 -2.5q11 -7 14.5 -18t-1.5 -22q-76 -170 -146 -343q-9 -24 -24 -62q-35 -89 -80 -211.5t-72.5 -232.5t-11.5 -160q16 -2 40 15t48 40.5t41 41.5q7 7 11 12q56 62 108 128q14 41 39.5 78t47.5 61q37 41 86.5 73.5t109.5 27.5q13 -3 21 -10q52 90 101 181l28 52
q90 168 177 337q7 11 19 14.5t24 -2.5zM58 213v0q77 93 141 195q-42 -8 -91.5 -50t-84.5 -95t-33 -93q-2 -1 -1.5 -2t3.5 -1q19 2 36 16t30 30zM638 213v0q78 92 142 195q-43 -8 -92.5 -50t-84 -95t-32.5 -93q-2 0 -2 -1t0.5 -1.5t2.5 -0.5q20 2 36.5 16t29.5 30z" />
    <glyph glyph-name="e_t" unicode="et" horiz-adv-x="1111" 
d="M1149 363v0q9 -1 11.5 -8t-1 -13t-13.5 -6q-46 8 -94 10q-141 8 -282 4l-58 -2q-37 -101 -74 -203l2 -20q6 -88 -27.5 -178.5t-97.5 -152.5q-12 -10 -25.5 -3.5t-14.5 22.5v1v3v4v3v1q18 74 40 145q38 123 80 244q-35 66 -119 88h-1v1q-32 -40 -66 -78
q-58 -68 -130.5 -123.5t-165.5 -62.5q-101 -7 -132 56t-15 149t56 147q18 30 48 53t68 20q19 -2 29 -19t13 -35q2 -44 -24 -75q-51 -61 -121 -95q-10 -43 -10 -70q-2 -56 34.5 -77t86 -15t85.5 30q88 57 158 136q29 32 57 65q-26 3 -53 4q-7 0 -10.5 5.5t-1.5 11.5t9 8
q46 11 93 16q87 110 163 227q86 131 158 270q14 49 20 100q4 26 24 33t38 -3.5t18 -37.5q-22 -125 -66 -244q-9 -25 -17 -50q-48 -139 -100 -278q214 7 428 -8zM120 392v0q-24 -13 -42.5 -43t-30.5 -68q40 35 64 81l1 1q3 7 5.5 14.5t2.5 14.5zM772 741v0
q-114 -200 -253 -383q64 6 129 10q65 186 124 373zM617 40v0q6 31 6 62q-38 -107 -72 -215q27 33 42.5 74.5t23.5 78.5zM603 237v0q18 54 37 108q-71 -4 -142 -14q-3 -3 -5 -6l-4 -4q72 -25 114 -84z" />
    <glyph glyph-name="e_t_h" unicode="eth" horiz-adv-x="1701" 
d="M1760 362v0q5 -4 5.5 -10.5t-4.5 -12.5q-40 -39 -81 -76l-18 -16q-58 -52 -123.5 -98t-141.5 -63q-48 -7 -88.5 20t-56.5 73q-23 79 0 159q-88 -61 -171.5 -138t-123.5 -163l-18 -90q-2 -12 -11 -16t-18 0.5t-10 16.5q-4 43 8 85q29 252 110 492q58 168 135 327
q-131 -123 -309 -184q-4 -10 -7 -19q-53 -154 -110 -306q-35 -93 -68 -186q-13 -130 -59 -252l-4 -10q-11 -28 -25.5 -54.5t-38.5 -46.5q-17 -9 -31 2t-10 29q19 73 41 144q52 169 111 336q-5 89 -41 163q-89 -127 -190 -243q-59 -68 -131.5 -124t-165.5 -62
q-101 -7 -132 56t-14.5 148.5t55.5 147.5q18 29 48 52.5t68 20.5q19 -3 29.5 -19.5t12.5 -34.5q2 -44 -24 -75q-50 -61 -121 -95q-10 -43 -10 -70q-1 -56 35.5 -77t85.5 -15t86 29q87 57 157 137q107 117 197 248q-38 59 -113 83q-27 7 -55 7q-6 0 -9.5 4t-2.5 10
q0 5 3.5 8.5t8.5 3.5q62 3 124 12q71 11 147 28q79 125 142 259q5 21 7 43q4 26 24 33.5t38 -3t18 -37.5q-22 -127 -67 -247q101 37 188.5 94t149.5 139q33 65 69 129q9 15 24.5 19.5t30.5 -3.5q14 -9 18.5 -24t-3.5 -30q-142 -250 -243 -519q-56 -156 -96 -316
q85 103 189 187q66 54 134 104q14 10 29.5 7.5t25.5 -16.5q16 -24 0 -47q-35 -38 -58 -84q-30 -56 -28 -121t63 -98q50 -16 99 5.5t91 49.5q1 1 3 2q67 47 126 105q39 39 73 81q5 5 11 5.5t11 -3.5zM122 391v0q-24 -12 -42.5 -42.5t-30.5 -67.5q40 35 65 81v1q3 6 5.5 13.5
t2.5 14.5zM804 794v0q-38 -70 -79 -137q20 5 40 11q21 63 39 126zM502 590v0q61 -27 97 -82q25 36 49 73q12 19 25 38q-87 -18 -171 -29zM585 -58v0q18 44 30 90zM657 346v0q1 3 2 7q50 143 98 287q-25 -7 -50 -13q-45 -72 -94 -143q33 -63 44 -138z" />
    <glyph glyph-name="e_t_t" unicode="ett" horiz-adv-x="1286" 
d="M1758 652v0q16 -20 8 -39.5t-27.5 -26t-39.5 11.5q-44 30 -183.5 45.5t-322.5 18.5l-1 -1l-4 -12q-53 -154 -110 -306q-35 -93 -68 -186q23 -52 16.5 -112.5t-51.5 -129.5q-38 -60 -85 -115l-2 -2q-8 -8 -19 -8t-20 9q-10 11 -7 26q19 73 41 144q37 120 77 238
q-36 50 -86 89.5t-102 71.5q-15 9 -30 17q-11 -29 -22 -59q-100 -254 -178 -515q-5 -17 -19.5 -19.5t-26 6.5t-8.5 27q73 265 168 523q13 36 25 71q-38 21 -77 41q-38 -54 -78 -107q-11 -12 -21 -25q-49 -62 -108 -126t-128 -110t-147 -53q-30 -3 -61 2t-55 25
q-39 39 -42.5 100.5t16 123.5t47.5 105q18 30 51 51.5t63.5 17t40.5 -53.5q2 -48 -28 -82t-67 -59q-24 -16 -50 -29q-8 -35 -9 -59q-5 -76 47.5 -95.5t115.5 1.5q112 51 212 161.5t178 222.5q-28 15 -57 30q-11 7 -25 15q-30 15 -56.5 35.5t-28.5 50.5v-3q-2 25 47 40.5
t116 24.5t118 13q12 1 22 2q34 58 65 118q22 42 40 85q2 10 3 20q4 26 24 33t38 -3.5t18 -36.5q-17 -105 -54 -205q139 10 277 14q17 55 33 109l2 8q20 64 28 129q4 26 24 33t38.5 -3.5t17.5 -36.5q-21 -122 -63 -237q183 3 366 -9l40 -4q39 -2 76.5 -10t67.5 -31zM121 391
v0q-23 -13 -41.5 -43.5t-30.5 -66.5q26 24 49.5 55.5t22.5 54.5zM796 768v0q-23 -43 -48 -85q8 0 16 1h6q14 42 26 84zM440 603v0q2 -26 51 -57t102 -58q15 20 28 40q2 3 5 6q37 55 72 113q-192 -16 -258 -44zM658 453v0q15 -7 29 -16q35 100 68 200q2 7 5 14q-16 -1 -31 -2
q-54 -88 -113 -173q28 -14 42 -23zM1000 121v0q0 2 -1 3v2q-41 -113 -76 -227q44 45 67 102t10 120zM968 229v0q21 64 44 128q53 152 103 305q-142 0 -275 -6q-8 -22 -15 -43q-37 -105 -76 -210q62 -36 119.5 -79.5t99.5 -94.5z" />
    <glyph glyph-name="f_f" unicode="ff" horiz-adv-x="970" 
d="M1008 341v0q-127 -105 -284.5 -218t-324.5 -191q-20 -72 -35 -144q38 -43 38 -106q-4 -52 -31 -95t-62 -78q-8 -8 -18 -7t-17 8.5t-5 18.5q14 133 39 263q-52 43 -139 68q-8 2 -10.5 9t1 13.5t11.5 7.5q58 8 114 28q27 9 54 20q40 165 97 324q-110 -61 -232 -103
t-230 -66q-12 -38 -23 -76q23 -47 29 -101.5t1 -101.5q-20 -168 -138 -289q-8 -8 -18.5 -7t-17.5 8.5t-5 18.5q16 152 46 301q21 99 47 196q-17 21 -43 29q-8 2 -10.5 9t0.5 13.5t11 7.5q29 5 62 11q47 161 115 317q59 143 149 272q11 13 26.5 15.5t29.5 -7.5
q14 -11 16 -27.5t-9 -29.5q-161 -231 -257 -526q114 25 236.5 69t229.5 107q22 56 45 111q60 143 150 272q10 13 26 15.5t30 -7.5q43 -38 22.5 -107.5t-75 -141.5t-113.5 -117q-76 -173 -127 -358q158 78 303 178t281 213q6 4 11.5 1.5t7.5 -8.5t-4 -12zM-138 -380v0
q53 74 73.5 162.5t-0.5 176.5q-47 -173 -73 -339zM-95 77v0v1v1h-2v-1h1zM693 613v0q-73 -107 -132 -231q81 70 117 160q13 34 15 71zM328 -397v0q49 73 24 130q-13 -66 -24 -130zM315 -169v0q8 37 16 73q-49 -19 -97 -31q43 -16 81 -42z" />
    <glyph glyph-name="i_t" unicode="it" horiz-adv-x="1023" 
d="M69 468v0q-25 1 -36 22t3 42q12 19 28.5 26.5t37.5 -5.5q13 -10 15.5 -26t-7.5 -30q-7 -12 -17.5 -20.5t-23.5 -8.5zM1058 373v0q9 -1 11.5 -8t-1 -13t-12.5 -6q-47 8 -95 10q-141 8 -282 4l-58 -2q-37 -101 -74 -203l2 -20q6 -88 -27.5 -178.5t-97.5 -152.5
q-12 -10 -25.5 -3.5t-14.5 22.5v1v3v4v3v1q18 74 41 145q37 123 79 244q-35 66 -119 88q-2 1 -4 1q-1 1 -2 1q-145 -140 -252 -206q-7 -4 -16 -9q-38 -24 -85 -40t-77 20q-29 61 -6.5 150.5t63.5 142.5q18 19 38 14t29.5 -23.5t-5.5 -40.5q-32 -45 -54.5 -105.5
t-18.5 -115.5q0 -1 1 -2.5t3 -1.5q73 2 156 59.5t145 112.5q11 9 20 17q17 16 35 33q-26 3 -53 4q-7 0 -10 5.5t-1.5 11.5t8.5 8q47 11 95 17h5q3 0 5 1q141 133 248 293q27 82 51 164q1 5 2 9q19 64 28 129q4 26 24 33t38 -3.5t18 -37.5q-22 -125 -66 -244q-9 -25 -17 -50
q-48 -139 -100 -278q214 7 428 -8zM632 598v0q-87 -117 -197 -229q61 6 122 9q38 110 75 220zM526 50v0q6 31 6 62q-38 -107 -71 -215q26 33 41.5 74.5t23.5 78.5zM512 247v0q18 54 37 108q-71 -4 -142 -14l-10 -10q73 -25 115 -84z" />
    <glyph glyph-name="i_t_h" unicode="ith" horiz-adv-x="1585" 
d="M61 457v0q-25 1 -35.5 22.5t3.5 41.5q11 20 27.5 27t37.5 -5q13 -11 15.5 -26.5t-7.5 -29.5q-6 -12 -16.5 -21t-24.5 -9zM1621 362v0q5 -4 5.5 -10.5t-4.5 -12.5q-40 -39 -81 -76l-18 -16q-58 -52 -123.5 -98t-142.5 -63q-47 -7 -87.5 20t-56.5 73q-23 79 0 159
q-89 -61 -172 -138t-123 -163l-18 -90q-2 -12 -11 -16t-18 0.5t-10 16.5q-4 43 8 85q29 252 110 492q58 168 135 327q-131 -123 -310 -184q-3 -10 -6 -19q-53 -154 -110 -306q-35 -93 -68 -186q-13 -130 -59 -252l-4 -10q-11 -28 -25.5 -54.5t-38.5 -46.5q-17 -9 -31 2
t-10 29q19 73 41 144q52 169 110 336q-4 97 -47 175q-145 -195 -326 -356q-11 -8 -21 -16q-26 -22 -55.5 -40.5t-63.5 -23.5q-54 5 -62 59t8 117.5t34 96.5q11 23 28 45q18 19 38.5 14t29.5 -23.5t-6 -40.5q-65 -92 -74 -205q0 -6 1 -11q0 -3 1 -5v-2t1 -2q12 -2 24 1.5
t23 8.5q1 1 2 1q54 27 100 67t89 83q10 9 19 18q106 109 200 230q-38 56 -110 79q-27 7 -55 7q-6 0 -9.5 4t-3.5 10q1 5 4.5 8.5t8.5 3.5q62 3 124 12q75 11 154 30q78 109 130 233q8 33 12 67q4 26 24 33.5t38 -3t18 -37.5q-22 -127 -67 -247q101 37 188.5 94t149.5 139
q33 65 69 129q9 15 24.5 19.5t30.5 -3.5q14 -9 18.5 -24t-3.5 -30q-142 -250 -243 -519q-56 -156 -96 -316q85 103 189 187q66 54 134 104q14 10 29.5 7.5t25.5 -16.5q16 -24 0 -47q-35 -38 -58 -84q-30 -56 -28 -121t63 -98q50 -16 99 5.5t91 49.5q1 1 3 2q67 47 126 105
q39 39 73 81q5 5 11 5.5t11 -3.5zM659 774v0q-35 -60 -75 -118l42 12q17 53 33 106zM363 590v0q60 -26 95 -79q40 51 77 103q1 2 2 3l2 4q-89 -20 -176 -31zM446 -58v0q18 44 30 90q-16 -45 -30 -90zM518 346v0q1 3 2 7q50 143 98 287l-54 -14q-7 -11 -15 -22
q-40 -55 -81 -109q38 -67 50 -149z" />
    <glyph glyph-name="l_l" unicode="ll" horiz-adv-x="1318" 
d="M1287 204v0q7 10 17 9t15.5 -9.5t-0.5 -19.5q-70 -104 -180 -227.5t-236.5 -225t-244.5 -141.5q-71 -22 -132.5 -2t-84.5 97q-25 106 -6 229.5t49 234.5q4 18 9 36q17 62 36 123q-80 -132 -173.5 -243t-194.5 -165q-42 -22 -93 -21t-83 43q-55 86 -20.5 268.5t116 397
t169.5 398.5t142 273q15 24 40 19t32 -32q1 -16 -5.5 -36t-14.5 -39q-5 -14 -9 -25q-80 -202 -175 -398q-9 -17 -17 -33q-26 -56 -62 -106q-44 -114 -82 -231q-48 -143 -67 -291q0 -10 -1 -23q-5 -42 1 -85t46 -49q94 5 192.5 103t180 221t125.5 203q1 2 2 3q0 1 1 3
q127 372 321 713q45 78 101 152q12 15 30 15t30 -14q6 -7 8 -16t0 -17q-10 -37 -26 -72q-6 -13 -11 -25q-100 -225 -214 -443q-10 -18 -20 -37q-33 -66 -79 -125q-117 -293 -186 -601q-9 -41 -19.5 -112t-8 -137.5t31.5 -96.5q62 -32 132.5 -5t126.5 63q2 1 3 2
q128 85 237.5 193.5t202.5 231.5q26 35 48 72z" />
    <glyph glyph-name="l_t" unicode="lt" horiz-adv-x="1304" 
d="M1345 363v0q9 -1 11.5 -8t-1 -13t-12.5 -6q-194 23 -389 22h-55h-14h-4q-67 -160 -128 -323q-1 -81 -31 -156q-6 -15 -21 -41.5t-34 -41.5t-37 1q-5 5 -5.5 11.5t-0.5 12.5v4q19 75 43 146q26 80 55 158q-2 8 -4 15q-4 14 -9 27q-85 -111 -191.5 -231t-217 -215
t-206.5 -130t-160 24q-54 64 -49 199.5t49 307t106 345t122.5 314t98.5 214.5q84 173 197 329q16 19 38.5 14t29.5 -28q4 -17 -3 -33q-59 -149 -131 -293q-14 -28 -27 -56l-34 -68q-63 -135 -146 -261q-4 -5 -9 -11q-97 -247 -164 -503q-22 -88 -36.5 -177.5t-10.5 -180.5
q3 -78 43.5 -91t95 9.5t97.5 53.5q142 104 263 232.5t228 269.5q-81 124 -236 123q-8 1 -11 6.5t-1.5 11.5t8.5 8q109 21 218 23q3 0 6 1q71 2 141 3q1 2 3 4q84 213 157 429q2 5 3 10q22 62 31 127q4 26 23.5 33t38 -3.5t17.5 -37.5q-23 -126 -73 -244q-9 -26 -19 -51
q-52 -134 -107 -267q171 -1 342 -10q12 -1 23 -2q44 -2 89 -6zM535 342v0q108 -30 169 -121q35 47 69 94q15 21 29 43q-134 0 -267 -16zM722 187v0q6 -14 11 -29q16 44 33 88q-21 -28 -44 -59z" />
    <glyph glyph-name="l_z" unicode="lz" horiz-adv-x="1217" 
d="M1079 -155v0q3 -1 4 -3.5t0 -5t-5 -2.5q-31 -2 -61 -11q-31 -81 -96 -171.5t-143.5 -157t-148.5 -74.5v0q-9 -2 -14.5 4.5t-3.5 14.5q30 76 78 143q80 115 210 203q8 14 15 29q21 43 31 93.5t-21 88.5l-2.5 3t-6 6t-6 6l-2.5 3q-3 2 -7 7l-8 8q-14 11 -16 27.5t10 29.5v0
l24 26q40 39 73.5 83t41.5 98q3 23 -3 51.5t-27 40.5q-16 3 -31.5 -4.5t-28.5 -19.5t-21 -22t-9 -11q-36 -56 -123 -161.5t-202.5 -224.5t-237.5 -215t-227 -132t-171 23q-54 64 -49.5 199.5t48.5 307t106 345.5t122.5 314.5t99.5 213.5q83 174 197 330q15 19 38 14t30 -28
q3 -17 -4 -33q-59 -149 -131 -293q-14 -28 -27 -56q-17 -34 -34 -67q-63 -136 -145 -262q-5 -5 -10 -11q-97 -247 -164 -503q-12 -46 -30.5 -144.5t-18.5 -189.5t44 -114q74 -19 181.5 41t220.5 159.5t206 198t140 157.5q36 45 71 96q23 33 45 62q60 77 105.5 76t70.5 -45
t24 -97q-1 -40 -15 -76q-35 -81 -93 -147v0v0q43 -34 57 -84.5t3 -101.5q-3 -20 -10 -43q28 7 57 8zM661 -514v0q129 119 220 267q-145 -114 -220 -267z" />
    <glyph glyph-name="o_m" unicode="om" horiz-adv-x="1665" 
d="M1710 357v0q3 -3 3 -7.5t-3 -8.5q-45 -40 -96 -70q-104 -60 -223 -77q-34 -5 -63 1t-51 34q-20 24 -35 49l-4 8q-10 18 -24 34.5t-34 17.5q-33 -22 -56 -57l-10 -14q-16 -21 -32 -43q-35 -54 -82 -99q-37 -20 -57.5 12t-29 92t-8.5 125q-56 -73 -110 -148
q-48 -66 -97 -132q-8 -11 -16 -21q-27 -38 -58 -73l-2 -2q-3 -2 -5.5 -4.5t-7.5 -3.5q-7 -2 -14 2t-8 11q-1 17 4 32q1 3 1 6q19 61 46 120q32 66 50 137q6 29 -2 50q-20 33 -107.5 50.5t-194 23t-182.5 3.5q39 -62 22 -157t-58 -145q-45 -60 -119 -77q-56 0 -80.5 38.5
t-25.5 91.5t12 94q17 63 57 115.5t99 81.5q29 11 45 -8l-1 -1h1h2v0v0v0h36q79 3 189.5 0.5t206.5 -22t133 -68.5q18 -31 13.5 -72t-19.5 -82l28 48q84 147 178 288q17 20 38.5 19t36 -16.5t11.5 -41.5q-13 -57 -17.5 -128t4.5 -136q9 10 18 22q34 44 73.5 85t76.5 53.5
t65 -28.5q17 -35 36 -69q1 -1 2 -3q18 -37 47 -63q24 -16 59 -14t65 9l10 2q143 34 249 136q3 3 7.5 3t7.5 -3zM42 72v0q74 17 110.5 84t38.5 140q1 26 -3.5 54t-23.5 45q-5 -12 -20 -20q-55 -29 -89 -81.5t-43 -113.5q-3 -16 -3 -40.5t7 -44t26 -23.5zM154 439v0
q1 1 1.5 0.5t0.5 -1.5q-1 1 -2 1z" />
    <glyph glyph-name="o_n" unicode="on" horiz-adv-x="1542" 
d="M1583 360v0q11 -7 -5.5 -24.5t-47 -39t-62 -41t-49.5 -30.5q-8 -5 -11 -7q-81 -50 -172 -78q-67 -19 -132 -6.5t-88 87.5q-14 58 -7 117q2 10 3 24q1 4 1 9q-135 -106 -245 -237q-38 -45 -66 -96q-3 -7 -5 -13h-1l-2 -2q-1 -4 -3 -7q-7 -16 -21.5 -21.5t-30.5 0.5
q-19 9 -23 27.5t8 35.5q19 35 35 70q34 69 35 143q-1 19 -4.5 37t-14.5 33q-21 21 -106.5 36t-189 23t-177.5 6q39 -62 22 -157t-58 -145q-45 -60 -118 -77q-56 0 -80.5 38.5t-26 91.5t11.5 94q17 63 57 115.5t100 81.5q28 11 45 -7l-2 -2h3v0v0v0v0q67 1 184 -2.5
t224 -20.5t142 -56q33 -45 38 -97.5t-7 -106.5q49 47 95 95q55 57 110 108q51 49 105 97q25 20 45 -15q10 -21 6 -42.5t-13 -42.5q-6 -16 -9 -31q-1 -1 -1 -3q-15 -46 -16 -93q3 -48 37.5 -64t79.5 -13t80 14q150 55 275 156q20 16 36 35q3 4 7.5 5t8.5 -2zM42 73v0
q74 17 110.5 84.5t39.5 139.5q0 26 -4.5 54.5t-23.5 44.5q-5 -12 -19 -20q-56 -28 -90 -80.5t-43 -114.5q-3 -17 -3 -40.5t7 -43.5t26 -24zM155 441v0l0.5 -0.5t0.5 -1.5q-1 1 -1 2z" />
    <glyph glyph-name="o_h" unicode="oh" horiz-adv-x="1353" 
d="M1397 363v0q6 -5 6 -11.5t-5 -11.5q-39 -40 -80 -77q-9 -8 -19 -16q-58 -52 -123.5 -98t-141.5 -63q-48 -7 -88 20.5t-56 72.5q-23 80 0 159q-68 -47 -135.5 -104t-115.5 -121q-31 -86 -63 -169q-4 -11 -13 -13.5t-17 2t-9 15.5q-5 88 41 163q45 166 100 329
q38 105 80 213q-72 -98 -164 -176t-206 -124q-38 -13 -80 -21t-83 -1q7 -87 -25 -169q-28 -76 -98 -117q-34 -19 -66 -18t-59 32q-37 53 -32.5 121t36 131t77.5 101q26 22 56 36q28 11 45 -8q7 7 18 5q13 -6 20 -17.5t12 -24.5l4 -10q5 -16 8 -32q19 -4 38 -4.5t32 1.5
q161 28 286.5 136t215.5 250q10 25 19 49q1 1 1 2q22 58 45 115q12 23 32.5 24.5t35 -13.5t7.5 -40q-48 -125 -100 -251q-45 -108 -87 -215q-29 -79 -58 -161q62 63 129 118q66 55 134 104q14 10 29.5 7.5t26.5 -15.5q15 -25 0 -48q-35 -37 -58 -84q-30 -56 -28.5 -121
t62.5 -98q61 -17 125.5 17t111.5 73q43 34 82 73q39 38 74 80q4 5 10 6t11 -3zM174 404v0q-1 -15 9 -25q-3 13 -9 25zM47 73v0q79 17 116 99.5t28 168.5q-11 5 -21 11q-13 10 -20 25h-1v-1q-56 -28 -90 -80.5t-43 -114.5q-2 -17 -2.5 -40.5t6.5 -43.5t27 -24z" />
    <glyph glyph-name="o_o" unicode="oo" horiz-adv-x="1287" 
d="M1339 356v0q1 -4 -0.5 -8.5t-5.5 -6.5q-32 -13 -66 -22q-99 -26 -203 -27q-35 -1 -93 3.5t-111 21.5q0 -36 -5 -71q-8 -64 -40.5 -121t-92.5 -85q-65 -31 -112 21q-32 45 -32.5 101.5t19.5 111.5q-70 -46 -150 -73q-52 -19 -117 -26t-126 7q-6 -17 -13 -33
q-30 -68 -96 -104q-57 -30 -97.5 -4.5t-52.5 85.5q-15 133 65 241q41 53 101 83q31 11 48 -11q10 5 20 2q14 -4 20.5 -16.5t9.5 -25.5q0 -2 1 -4q11 -34 13 -68q3 -61 -12 -120q31 -8 63 -9q92 -2 177.5 29t161.5 85q15 30 33 55q41 53 101 83q29 10 45 -8q14 11 30 -3
q30 -41 35 -91q43 -15 74 -21h1q132 -22 265 0q66 10 127 35q4 2 8.5 0.5t6.5 -6.5zM177 219v0q26 101 -3 186q-1 4 -3 7v0h-1t-2 -1q-1 -20 -22 -33q-23 -11 -42 -27q-21 -42 1.5 -77t71.5 -55zM172 412v0v0v0v0zM44 75v0q45 9 76 41t48 77q-60 22 -93 79q-9 18 -9 38
q-42 -57 -53 -127q-2 -17 -2.5 -41t6.5 -43.5t27 -23.5zM807 406v0q-2 -20 12 -34q-4 18 -12 34zM811 419v0v0v0v0zM680 75v0q76 15 113.5 93.5t31.5 163.5q-32 17 -43 46q-56 -29 -89.5 -81.5t-43.5 -113.5q-2 -17 -2.5 -41t7 -43.5t26.5 -23.5z" />
    <glyph glyph-name="s_s" unicode="ss" horiz-adv-x="1098" 
d="M1138 363v0q8 4 14 -0.5t7 -12t-7 -12.5q-136 -69 -275 -129q-105 -47 -208 -96q-18 -62 -74.5 -99t-120.5 -47q-46 -6 -55.5 2.5t4 24.5t36 32.5t40.5 27.5q46 26 93 51q18 33 -2 70q-34 49 -55 108q-90 -60 -170 -104q-29 -16 -52 -29q-64 -35 -129 -70l-46 -24
q-31 -97 -144 -136q-15 -6 -40 -11t-46 -4.5t-24.5 11t25.5 35.5q74 53 154 96q18 37 -8 78q-32 44 -48.5 97t-10.5 108q5 43 28.5 80t65.5 54q11 4 28.5 7t30.5 -1.5t13 -22.5q-3 -11 -13 -15q-72 -41 -72.5 -117.5t39.5 -140.5q26 -44 26 -85l20 10q70 36 138 75
q21 13 49 29q85 46 179 109q-9 46 11 92q19 39 57.5 56.5t79.5 9.5q11 -2 15 -12q2 -4 1 -10q0 -5 -3 -9q-23 -52 -82 -101q5 -41 33 -90q29 -43 34 -94v-8q101 48 205 94q85 38 169 78q46 21 90 45zM-35 -41v0q20 9 38 22q-1 -1 -2 -1q-1 -1 -2 -1q-11 -7 -21 -13
q-6 -4 -13 -7zM635 406v0q-10 -9 -16 -19q9 10 16 19zM513 31v0q-5 -4 -11 -8t-13 -8q26 13 49 30q-12 -7 -25 -14z" />
    <glyph glyph-name="s_t" unicode="st" horiz-adv-x="1107" 
d="M1148 363v0q9 -1 11.5 -8t-1 -13t-12.5 -6q-46 8 -94 10q-141 8 -283 4q-28 -1 -57 -2q-38 -101 -75 -203q2 -10 3 -20q6 -88 -27.5 -178.5t-97.5 -152.5q-13 -10 -26.5 -3.5t-13.5 22.5v1v3v4v3v1q18 74 40 145q38 123 80 244q-23 41 -64 66q-91 -79 -195.5 -144
t-216.5 -121q-36 -55 -100.5 -84.5t-125.5 -24.5q-7 1 -10 6t-2 10.5t8 8.5l130 64q33 27 45 60.5t-11 69.5q-32 44 -49 97t-10 108q4 43 28 80t65 54q12 4 29 7t30 -1.5t13 -22.5q-2 -11 -12 -15q-53 -27 -66.5 -79.5t1.5 -105.5q10 -34 27 -65q16 -28 25.5 -57t2.5 -63
q0 -4 -1 -7q42 22 83 45q153 82 286 193q-14 6 -29 9q-41 11 -83 11q-8 0 -11 5.5t-1.5 11.5t8.5 8q48 11 96 17q47 5 95 9q66 67 117 147q51 150 96 302q1 5 3 9q19 64 27 129q5 26 24.5 33t38 -3.5t17.5 -37.5q-21 -125 -66 -244l-16 -50q-49 -139 -100 -278q214 7 427 -8
zM666 420v0q-23 -28 -46 -54l28 2zM468 327v0q28 -8 53 -20q17 15 34 31q-44 -4 -87 -11zM616 40v0q7 31 6 62q-38 -107 -71 -215q26 33 42 74.5t23 78.5zM602 237v0l38 108q-22 -2 -44 -3q-25 -25 -51 -49q34 -23 57 -56z" />
    <glyph glyph-name="t_h" unicode="th" horiz-adv-x="1076" 
d="M1101 360v0q6 7 14 5t12 -9t-2 -15q-40 -40 -82 -78q-11 -10 -22 -19q-58 -52 -122 -96.5t-140 -61.5q-48 -7 -88 20t-56 73q-23 79 0 158q-91 -61 -175.5 -139t-121.5 -167q-9 -42 -16 -84q-2 -12 -11 -16t-18.5 0.5t-9.5 16.5q-5 43 7 85q29 252 111 492
q57 168 134 327q-131 -124 -309 -184q-3 -10 -6 -19q-53 -154 -111 -306q-35 -94 -69 -188q-9 -101 -40 -204.5t-86 -156.5q-16 -9 -30 2t-10 29q18 73 40 144q53 169 111 336q-4 91 -42 165.5t-126 104.5q-26 7 -54 7q-6 0 -9.5 4t-3.5 10q0 5 3.5 8.5t8.5 3.5q62 3 124 12
q109 16 222 48q23 72 45 145q1 4 2 9q19 63 28 128q3 26 23.5 33t39 -3.5t16.5 -36.5q-22 -127 -66 -247q101 37 188.5 94t149.5 140q33 65 69 128q8 15 23.5 19.5t30.5 -3.5q15 -9 19 -24t-3 -30q-227 -397 -340 -837q67 86 151 157t172 136q19 13 36.5 5.5t25 -25.5
t-5.5 -36q-73 -77 -87 -182q-4 -38 12.5 -71t51.5 -50q36 -13 74.5 -1.5t71.5 29.5q142 86 246 215zM-54 -62v0q20 46 32 95q-16 -47 -32 -95zM19 346v0q2 3 3 7q50 143 97 287q-127 -34 -254 -49q69 -32 106 -98.5t48 -146.5z" />
    <glyph glyph-name="t_t" unicode="tt" horiz-adv-x="641" 
d="M1104 652v0q17 -20 9 -39.5t-28 -26t-39 11.5q-45 30 -184.5 45.5t-322.5 18.5q0 -1 -1 -2q-2 -5 -3 -11q-54 -154 -111 -306l-68 -186q23 -52 16.5 -112.5t-51.5 -129.5q-38 -60 -84 -115l-2 -2q-9 -8 -20 -8t-20 9q-10 11 -6 26q18 73 40 144q37 120 77 238
q-36 50 -86 89.5t-102 71.5q-15 9 -30 17q-11 -29 -22 -59q-100 -254 -178 -515q-5 -17 -19.5 -19.5t-26 6.5t-8.5 27q73 265 168 523q13 36 25 71q-40 22 -80 43q-39 19 -77 39q-11 7 -25 15q-29 15 -55.5 35.5t-29.5 50.5v-3q-2 25 47 40.5t116 24.5t118 13q34 3 48 5
q10 1 19 2h8q38 107 55 218q4 26 24 33t38.5 -3.5t17.5 -36.5q-17 -105 -53 -205q138 10 277 14q17 55 32 109q2 4 3 8q19 64 28 129q4 26 23.5 33t38 -3.5t17.5 -36.5q-20 -122 -63 -237q183 3 366 -9q20 -2 41 -4q38 -2 75.5 -10t67.5 -31zM4 453v0q15 -7 30 -16
q35 100 67 200q3 7 5 14q-240 -15 -320 -48q3 -28 57.5 -61.5t110.5 -60.5q34 -18 50 -28zM346 121v0q0 2 -1 3v2q-40 -113 -76 -227q44 45 67 102t10 120zM314 229v0l44 128q53 152 103 305q-141 0 -275 -6q-8 -22 -15 -43q-37 -105 -76 -210q62 -36 119.5 -79.5
t99.5 -94.5z" />
    <glyph glyph-name="u_l" unicode="ul" horiz-adv-x="1112" 
d="M1211 1328v0q14 16 31.5 15t29 -14t8.5 -34q-25 -67 -59 -131l-28 -54q-118 -234 -251 -460q-35 -85 -68 -171q-5 -12 -9 -25q-57 -152 -104 -307.5t-63 -317.5q-3 -40 -1 -81t17 -78q9 -22 29 -33q10 -7 9 -16.5t-8.5 -15.5t-18.5 -1q-60 40 -66 141.5t14.5 215
t39.5 188.5q3 12 6 22q33 142 79 280q-38 -50 -78 -99q-100 -130 -217 -244q-60 -59 -134 -99q-64 -31 -114 -8.5t-57 96.5q-3 68 14 134q-48 -59 -109 -107q-28 -21 -61 -22t-58 27q-24 35 -23.5 76t11.5 80q18 62 42 81t44 10t24.5 -30.5t-16.5 -39.5h1h-0.5h-0.5v0v0
l-3 -3l1.5 1.5l1.5 1.5q-28 -42 -38 -92q-12 -62 11.5 -66t62.5 36q64 71 114 153q20 31 41 61l2 1.5t5 3.5l6 4q1 1 2 1.5l1 0.5q13 9 28 6t24 -16q7 -10 6.5 -22.5t-8.5 -22.5q-4 -4 -7 -9v-1l-2 -2l-2 -2q-19 -25 -32 -53q-18 -36 -28 -74q-38 -131 7 -175.5t164 39.5
q118 98 216.5 216t187.5 243q72 198 159 389q48 105 102.5 207t122.5 196zM66 306v0v0v0v0v0v0v0v0v0v0z" />
    <glyph glyph-name="u_l_t" unicode="ult" horiz-adv-x="2069" 
d="M2104 363v0q8 -1 10.5 -8t-1 -13t-12.5 -6q-193 23 -389 22h-54h-14h-4q-68 -160 -129 -323q0 -81 -31 -156q-5 -15 -20 -41.5t-34 -41.5t-38 1q-4 5 -5 11.5t0 12.5v4q18 75 42 146q27 80 56 158q-2 8 -5 15q-3 14 -8 27q-85 -111 -191.5 -231t-217 -215t-207 -130
t-159.5 24q-52 62 -49 190.5t43 292.5t99 333q-32 -42 -65 -83q-64 -80 -132.5 -156.5t-148.5 -141.5q-49 -41 -112 -60q-55 -12 -90.5 18t-38.5 85q-3 68 14 134q-49 -59 -110 -107q-28 -21 -61 -22t-58 27q-24 35 -23.5 76t11.5 80q18 62 42 81t44 10t25 -30.5t-16 -39.5
v0v0v0v0h-1q-1 -2 -3 -3l1.5 1.5t1.5 0.5v1q-28 -42 -38 -92q-11 -62 12 -66t62 36q65 71 115 153q19 31 40 61l2 1t5 3t5 4q2 1 3.5 2l1.5 1q13 9 27.5 6t23.5 -16q8 -10 7 -22.5t-9 -22.5q-4 -4 -7 -9l1 -1v0q-2 -1 -3 -2l-2 -2q-18 -25 -32 -53q-17 -36 -28 -74l-2 -8
q-11 -41 -15 -88t23 -79q56 -34 137 20t159 139.5t126 145.5q12 14 21 25q59 74 115 151q125 330 204 480q83 173 197 329q16 19 38.5 14t29.5 -28q3 -17 -3 -33q-60 -149 -132 -293q-13 -28 -27 -56q-17 -34 -33 -68q-64 -135 -146 -261q-4 -5 -10 -11q-97 -247 -163 -503
q-23 -88 -37.5 -177.5t-10.5 -180.5q4 -78 44.5 -91t94.5 9.5t98 53.5q142 104 263 232.5t227 269.5q-80 124 -236 123q-7 1 -10.5 6.5t-1.5 11.5t9 8q108 21 218 23q3 0 6 1q70 2 140 3q2 2 3 4q85 213 158 429q1 5 3 10q21 62 30 127q4 26 24 33t38 -3.5t18 -37.5
q-23 -126 -73 -244q-10 -26 -19 -51q-52 -134 -108 -267q172 -1 343 -10q11 -1 23 -2q44 -2 89 -6zM1294 342v0q107 -30 168 -121l70 94q14 21 29 43q-135 0 -267 -16zM1480 187v0q7 -14 11 -29q17 44 33 88q-20 -28 -44 -59zM66 306v0v0v0h1v0v0v0v0h-1z" />
    <glyph glyph-name="u_t" unicode="ut" horiz-adv-x="1257" 
d="M1294 364v0q9 -1 11.5 -8t-1 -13t-13.5 -6q-46 8 -94 11q-141 7 -282 3l-58 -2q-37 -101 -74 -203l2 -20q6 -87 -27.5 -178t-97.5 -153q-12 -9 -25.5 -3t-14.5 22v1v3v4v3.5v1.5q18 73 40 144q38 123 80 244q-25 46 -73 72q-77 -94 -164 -178q-60 -59 -134 -99
q-64 -31 -113.5 -8.5t-57.5 96.5q-3 69 14 134q-48 -59 -109 -107q-28 -21 -61 -22t-58 28q-24 34 -23.5 75t11.5 80q18 62 42 81t44 10t24.5 -30.5t-16.5 -39.5q-28 -42 -38 -92q-12 -61 11.5 -65t62.5 36q64 70 114 152q20 31 41 61l2 1.5t5 3.5l6 4q1 1 2 1.5l1 0.5
q14 9 28.5 6.5t23.5 -15.5q7 -11 6.5 -23.5t-8.5 -21.5q-4 -5 -7 -10v0q-1 -2 -2 -3l-2 -2q-18 -25 -32 -53q-18 -36 -28 -74q-38 -131 6.5 -175t164.5 40q120 98 220 218q-11 4 -22 7q-41 10 -83 10q-7 0 -10.5 5.5t-1.5 11.5t9 8q47 11 95 17q33 4 66 6q91 116 175 236
q36 108 68 217l2 8q19 64 28 129q4 26 24 33t38 -3.5t18 -37.5q-22 -125 -66 -244q-9 -25 -17 -49q-48 -140 -100 -278q214 6 428 -9zM66 307v0q1 0 1 0.5t-0.5 0l-0.5 -0.5v0v0v0v0zM66 307v0q-2 -1 -3 -3zM841 509v0q-54 -72 -111 -144q32 3 63 4zM614 328v0q22 -6 42 -15
l20 24q-32 -4 -62 -9zM762 41v0q6 32 6 62q-38 -106 -72 -215q27 33 42.5 74.5t23.5 78.5zM748 238v0q18 54 37 108q-37 -2 -75 -6q-15 -19 -31 -39q42 -24 69 -63z" />
    <glyph glyph-name="u_t_h" unicode="uth" horiz-adv-x="1842" 
d="M1881 364v0q5 -5 5.5 -11.5t-4.5 -11.5q-40 -39 -81 -77l-16 -14q-58 -52 -125 -99t-143 -63q-48 -7 -88 20t-56 72q-23 80 0 159q-69 -47 -137 -105t-117 -123q-29 -86 -61 -168q-4 -10 -13 -12t-16.5 3t-7.5 16q-5 89 42 165q106 402 257 790q-68 -83 -159.5 -140.5
t-196.5 -95.5l-6 -18q-53 -154 -110 -306q-35 -93 -69 -186q-12 -130 -59 -253l-4 -10q-11 -28 -25 -54.5t-39 -46.5q-16 -8 -30 3t-10 29q18 73 40 144q53 169 111 335q-3 44 -12 85l-30 -38q-100 -129 -218 -244q-59 -59 -134 -99q-64 -31 -113.5 -8.5t-56.5 96.5
q-3 69 14 134q-49 -59 -110 -107q-28 -21 -61 -22t-58 28q-24 34 -23.5 75t11.5 80q18 62 42.5 81t44 10t24.5 -30.5t-17 -39.5q-28 -42 -38 -92q-11 -61 12 -65t62 36q65 70 115 152q19 31 40 61l2.5 1.5t5.5 3.5t5 4l3 1.5l1 0.5q13 9 27.5 6.5t23.5 -15.5q8 -11 7 -23.5
t-9 -21.5q-4 -5 -7 -10h1l-3 -3l-2 -2q-18 -25 -32 -53q-17 -36 -28 -74q-37 -131 7.5 -175t163.5 40q180 151 319 343q-17 55 -52.5 96t-94.5 58q-26 7 -54 8q-6 0 -9.5 4t-3.5 9q1 6 4.5 9t8.5 4q62 3 123 12q108 15 222 47q23 73 45 146l2 8q19 64 28 129q4 26 24 33
t38 -3.5t17 -37.5q-21 -126 -66 -246q134 48 241 132t159 216l2 4q1 1 1 2q1 2 2 3q11 24 32 25t35 -14t7 -40q-32 -83 -64 -165q-74 -185 -140 -372q-29 -83 -58 -168q-12 -35 -24 -71l8 8q121 121 259 219q14 10 30 7.5t26 -15.5q16 -24 0 -47q-35 -38 -58 -85
q-30 -56 -28 -121t63 -97q50 -16 99.5 5.5t90.5 49.5q2 1 3 2q67 47 125 105q39 38 74 81q4 5 10 5.5t12 -3.5zM67 307v0v0.5v0v-0.5v0h-1h1v0zM66 307v0l-3 -3q1 1 2 1.5t1 1.5zM765 408v0q8 -30 12 -61q1 3 3 7q23 67 46 135q-30 -40 -61 -81zM706 -56v0q18 43 30 90
q-16 -45 -30 -90zM856 576v0q11 33 21 66q-128 -35 -254 -50q97 -47 132 -154q51 69 101 138z" />
    <glyph glyph-name="u_l_l" unicode="ull" horiz-adv-x="2083" 
d="M2055 206v0q7 10 17 8.5t15.5 -9.5t-0.5 -19q-71 -104 -180.5 -227.5t-235.5 -225t-246 -141.5q-70 -22 -131.5 -2t-84.5 97q-26 105 0 267.5t85 350.5q-80 -131 -172 -240t-193 -163q-42 -22 -93 -21t-83 43q-45 69 -29.5 205.5t70.5 305.5q-31 -41 -64 -81
q-100 -130 -217 -244q-60 -59 -134 -99q-64 -31 -114 -8.5t-57 95.5q-3 69 14 135q-48 -60 -109 -107q-28 -21 -61 -22t-58 27q-24 35 -23.5 76t11.5 79q17 62 41.5 81t44.5 10.5t24.5 -30t-16.5 -39.5q1 0 0.5 0h-0.5v0v0l-3 -3l1.5 1.5l1.5 1.5q-28 -42 -38 -93
q-12 -60 11.5 -64.5t62.5 35.5q64 71 114 153q20 30 41 60l2 2t5 4l6 4q1 1 2 1.5l1 0.5q13 8 28 5.5t24 -15.5q7 -11 6.5 -23t-8.5 -22q-4 -4 -7 -9v-1l-2 -2l-2 -2q-19 -26 -32 -53q-18 -36 -28 -74q-38 -131 7 -175.5t164 39.5q113 93 208 205t181 232q83 233 181 439.5
t157 305.5q15 24 40.5 19t31.5 -32q1 -17 -5.5 -36.5t-13.5 -37.5q-6 -15 -10 -27q-80 -202 -175 -397q-9 -17 -17 -34q-26 -55 -62 -105q-44 -114 -82 -231q-48 -143 -67 -292q0 -10 -1 -23q-5 -42 1 -84.5t46 -48.5q94 5 192.5 103t179.5 220.5t126 203.5q0 1 1 2t1 2
q172 466 322 715q45 78 101 152q11 14 29.5 14.5t30.5 -13.5q9 -12 9 -26q-7 -39 -25 -74q-7 -15 -13 -31q-100 -224 -214 -442q-10 -18 -20 -37q-33 -66 -79 -125q-118 -294 -187 -601q-8 -41 -18.5 -112t-8 -137.5t31.5 -96.5q61 -32 131 -5.5t126 62.5q3 1 5 3
q128 85 237.5 193.5t201.5 231.5q27 35 49 72zM76 308v0v0v0v0v0v0v0v0v0z" />
    <glyph glyph-name="a_l_l" unicode="all" horiz-adv-x="2061" 
d="M2023 204v0q7 10 17 9t15.5 -9.5t-0.5 -19.5q-71 -104 -180.5 -227.5t-235.5 -225t-245 -141.5q-71 -22 -132.5 -2t-84.5 97q-26 105 0 267.5t85 350.5q-79 -131 -171.5 -240t-193.5 -163q-42 -22 -93 -21t-83 43q-48 74 -27.5 222.5t82.5 330.5q-85 -100 -178 -193.5
t-202 -168.5q-57 -38 -107.5 -41t-102.5 50q-36 41 -46 95q-63 -93 -134 -181q-33 -38 -75 -34.5t-51 57.5q13 93 60.5 183t113.5 156q42 43 102 69q26 8 41 -6.5t14 -35.5t-26 -32q-73 -36 -124 -107t-80 -152q82 107 154 220q11 18 29 19t32 -11t12 -32q-19 -61 -11 -121
t70 -92q59 -13 158.5 59t203 177.5t171.5 190.5q83 226 177 423t151 292q15 24 40.5 19t31.5 -32q1 -17 -5 -36.5t-14 -37.5q-6 -14 -10 -27q-80 -202 -175 -397q-9 -17 -17 -34q-26 -55 -62 -105q-44 -114 -82 -231q-48 -143 -67 -292q0 -10 -1 -23q-5 -42 1 -84.5
t46 -48.5q94 5 192.5 103t180 221t125.5 203q1 1 1 2q1 1 1 2q172 466 322 715q45 78 101 152q12 14 30 14.5t30 -13.5q9 -12 9 -26q-7 -38 -25 -74q-7 -15 -13 -30q-100 -225 -214 -443q-10 -18 -20 -37q-33 -66 -79 -125q-117 -293 -186 -601q-9 -41 -19.5 -112t-8 -137.5
t31.5 -96.5q62 -32 131.5 -5.5t126.5 62.5q2 2 4 3q128 85 237.5 193.5t202.5 231.5q26 35 48 72z" />
    <glyph glyph-name="e_l" unicode="el" horiz-adv-x="1092" 
d="M1149 1326v0q14 16 31.5 15t29 -14t8.5 -33q-25 -68 -59 -131l-28 -54q-118 -234 -251 -460q-35 -86 -68 -171q-5 -13 -9 -25q-57 -152 -104 -308t-63 -317q-3 -40 -1 -81t17 -78q9 -22 29 -34q10 -6 9 -16t-8.5 -15.5t-18.5 -0.5q-60 39 -66 141t14.5 215.5t39.5 187.5
q3 12 6 23q36 153 86 302q-109 -131 -241 -238q-78 -64 -175 -124t-198 -72q-35 -4 -70 5t-58 38q-41 70 -22 163.5t65 158.5q19 29 56.5 50.5t70.5 0.5q25 -26 22 -60.5t-24 -60.5q-51 -61 -122 -95q-20 -84 5 -128q48 -49 127.5 -29.5t168.5 76t163.5 119t111.5 100.5
q82 80 148 174q69 190 153 374q48 105 102.5 206.5t122.5 195.5zM124 403v0v0v0v0zM132 390v0q-45 -29 -73 -111q41 36 65 82q1 0 1 1q3 6 5.5 13.5t1.5 14.5z" />
    <glyph glyph-name="i_l" unicode="il" horiz-adv-x="906" 
d="M996 1326v0q14 16 31.5 15t29 -14t8.5 -33q-25 -68 -59 -131l-28 -54q-118 -234 -251 -460q-35 -86 -68 -171q-5 -13 -9 -25q-57 -152 -104 -308t-63 -317q-3 -40 -1 -81t17 -78q9 -22 29 -34q10 -6 9 -16t-8.5 -15.5t-18.5 -0.5q-60 39 -66 141t14.5 215.5t39.5 187.5
q3 12 6 23q41 174 101 343q-109 -137 -250 -259t-259 -180q-6 -3 -14 -6q-29 -14 -64.5 -22.5t-59.5 12.5q-28 35 -24.5 94t25.5 117.5t48 91.5q17 19 37.5 14t30 -24t-5.5 -40q-31 -43 -55 -108t-17 -116q67 -5 141.5 38.5t132.5 87.5l14 10q197 151 342 351
q65 177 144 350q48 105 102.5 206.5t122.5 195.5zM46 464v0q-14 11 -16.5 26.5t7.5 29.5l10 13q10 13 26 15.5t30 -6.5q13 -11 15.5 -26.5t-7.5 -29.5l-9 -13q-14 -17 -33 -17q-12 0 -23 8z" />
    <glyph glyph-name="i_l_l" unicode="ill" horiz-adv-x="1842" 
d="M1808 204v0q7 10 17 9t15.5 -9.5t-1.5 -18.5q-71 -105 -180 -228t-235 -224.5t-246 -142.5q-70 -21 -132 -1.5t-85 96.5q-25 106 0.5 268t84.5 350q-79 -130 -171 -239t-193 -164q-43 -22 -93.5 -21t-82.5 43q-49 76 -27 229.5t87 340.5q-107 -126 -224 -233t-205 -161
q-7 -4 -17 -9q-38 -25 -84.5 -40.5t-75.5 20.5q-30 62 -7 150.5t63 142.5q18 20 38.5 15t30 -24t-5.5 -41q-33 -46 -55 -105t-18 -116q0 -1 1 -2.5t2 -1.5q74 3 154.5 58t142.5 111q13 11 24 20q135 121 253 263q83 227 177.5 425.5t152.5 294.5q15 24 40 19t31 -32
q0 -35 -18 -74q-6 -14 -11 -26q-80 -202 -175 -398q-8 -16 -17 -33q-25 -56 -62 -106q-43 -114 -81 -230q-48 -144 -67 -292q-1 -11 -2 -25q-4 -42 2 -83.5t45 -48.5q95 6 193 103.5t179.5 220.5t126.5 203q0 1 1 2q0 1 1 2q171 465 322 715q45 78 100 152q12 15 30.5 15
t30.5 -14q9 -11 9 -25q-7 -39 -25 -74q-7 -16 -13 -31q-100 -225 -214 -443q-11 -18 -20 -37q-33 -66 -79 -125q-118 -293 -187 -601q0 -2 -1 -5q-9 -44 -18.5 -113t-7 -133.5t30.5 -94.5q62 -32 131 -6t125 62q4 2 7 4q128 85 237.5 193.5t201.5 231.5q26 35 49 72zM79 458
v0q-25 1 -35.5 22t3.5 42q11 19 28 26.5t37 -5.5q14 -10 16 -26t-7 -30q-7 -11 -17.5 -20t-24.5 -9z" />
    <glyph glyph-name="e_l_l" unicode="ell" horiz-adv-x="1877" 
d="M1844 204v0q6 10 16 9t15.5 -9.5t-0.5 -18.5q-71 -105 -180.5 -228t-235 -224.5t-245.5 -142.5q-70 -21 -132 -1.5t-85 96.5q-25 106 0.5 268t84.5 350q-79 -130 -171.5 -239t-192.5 -164q-43 -22 -94 -21t-83 43q-45 69 -29.5 204t69.5 302q-76 -105 -161 -203
q-59 -68 -131.5 -123.5t-165.5 -62.5q-101 -7 -132 56t-14.5 149t55.5 147q17 31 50.5 54.5t65 19.5t42.5 -54q2 -48 -28.5 -82t-66.5 -59q-24 -17 -50 -30q-10 -42 -10 -69q-1 -69 52 -86t109 2q72 28 128 83q161 154 285 341q83 234 181.5 441.5t157.5 306.5q16 24 41 19
t31 -32q-1 -35 -19 -74q-6 -14 -10 -26q-80 -202 -175 -398q-9 -16 -17 -33q-26 -56 -62 -106q-44 -114 -81 -230q-49 -144 -68 -292q0 -11 -1 -25q-4 -42 1.5 -83.5t45.5 -48.5q95 6 193 103.5t179.5 220.5t125.5 203q1 1 1 2q1 1 1 2q172 465 322 715q45 78 101 152
q12 15 30 15t30 -14q9 -11 9 -25q-7 -39 -25 -74q-7 -16 -13 -31q-100 -225 -214 -443q-10 -18 -20 -37q-33 -66 -79 -125q-117 -293 -186 -601q-1 -2 -1 -5q-9 -44 -19 -113t-7 -133.5t31 -94.5q62 -32 131 -6t125 62l6 4q128 85 238 193.5t202 231.5q26 35 49 72zM129 391
v0q-23 -13 -41.5 -43t-30.5 -67q26 25 49.5 56.5t22.5 53.5z" />
    <glyph glyph-name="s_h" unicode="sh" horiz-adv-x="1379" 
d="M1412 387v0q5 -4 5.5 -10.5t-4.5 -11.5q-40 -40 -81 -77q-62 -57 -130 -105q-35 -25 -73 -44.5t-81 -27.5q-47 -7 -87.5 20.5t-56.5 72.5q-23 80 1 160q-77 -54 -149 -117t-124 -141q-21 -67 -41 -135q-3 -12 -12 -15.5t-17.5 1t-9.5 16.5q-5 66 22 125q14 65 31 129
q50 186 118 367q-110 -171 -261 -306t-327 -236q-22 -45 -67 -73.5t-91.5 -40.5t-71.5 -7.5t-8 25.5q70 34 137 70q72 60 22 131q-37 55 -50.5 121.5t11.5 129.5q17 41 53.5 67t81.5 20q9 -2 13.5 -9.5t2.5 -15.5t-10 -13q-53 -25 -68 -77q-13 -46 -2.5 -93t34.5 -88
q32 -50 25 -108q220 128 393.5 314t277.5 419q26 59 57 115q14 22 35 21t33.5 -17.5t2.5 -40.5q-80 -155 -145 -318.5t-121 -329.5q131 138 286 247q14 10 29.5 7.5t25.5 -15.5q16 -25 0 -48q-35 -38 -58 -84q-38 -70 -25 -147q17 -56 61.5 -72t96.5 6q63 26 117.5 67.5
t102.5 88.5q40 39 74 81q5 5 11 5.5t11 -3.5z" />
    <glyph glyph-name="o_u" unicode="ou" horiz-adv-x="1408" 
d="M1447 361v0q5 -4 6 -10t-3 -11q-20 -27 -43 -49q-115 -114 -247 -206q-11 -7 -21 -14q-43 -29 -90 -53t-99 -28q-54 4 -76 46t-18 90q2 53 15 104q-26 -30 -52 -56q-34 -39 -81 -65q-60 -22 -87 12.5t-17 91.5q3 19 10 48q9 33 14.5 64.5t-2.5 46.5q-55 49 -162.5 51
t-211.5 -10q-39 -4 -71 -6q32 -49 26.5 -120.5t-26.5 -120.5q-20 -51 -60 -89t-95 -50q-56 0 -80.5 39t-25.5 91.5t12 93.5q17 63 57 115.5t99 81.5q31 11 47 -9q26 1 66 3t74 4q19 1 30 2q24 1 55 2q56 5 119.5 4t117 -17.5t79.5 -60.5l4.5 -9t4 -9.5l1.5 -4.5
q9 -48 -3 -96q-3 -11 -4 -22q-3 -15 -8 -29q-9 -28 -9 -54q0 -1 2.5 -3t5.5 -2.5t6 -0.5q44 17 88.5 74.5t81.5 117.5q22 35 39 58l12 13q14 9 30.5 5.5t25.5 -16.5q8 -11 7 -23t-9 -22q-4 -5 -7 -9l-0.5 -1t-1 -1.5t-1 -1.5t-1.5 -1q-13 -19 -24 -38q-15 -28 -25 -57
q-22 -59 -27 -120.5t25.5 -90t116.5 10.5q99 50 186.5 118.5t164.5 147.5q22 23 39 47q4 5 10 6.5t11 -2.5zM162 439v0v2t0 0.5v-1v-1.5v0zM51 73v0q75 17 111.5 85.5t38.5 142.5q0 25 -5 52t-23 43q-5 -12 -20 -20q-55 -28 -89 -80.5t-43 -114.5q-3 -16 -3 -40t7 -44
t26 -24z" />
    <glyph glyph-name="one.swsh" unicode="&#x31;_&#x31;" 
d="M2847 -133v0q42 -2 56.5 -31t1.5 -58.5t-54 -34.5l-476 -51q-21 -2 -36.5 10.5t-18.5 33.5q-1 26 14.5 40.5t40.5 16.5q-389 29 -781.5 27.5t-782.5 -15.5q-1503 -55 -2991 -270q-55 -8 -124 -19q-125 -19 -225 -36q-57 -10 -147 -26q-69 -12 -114 -20q-37 -3 -52.5 20.5
t-7.5 50.5t41 36q705 93 1411 156q943 89 1897.5 127.5t1903.5 36.5q90 2 183 2q133 0 261 4z" />
    <glyph glyph-name="two.swsh" unicode="&#x32;_&#x32;" 
d="M1972 -217v0q16 -2 25 -13.5t8 -27.5q-2 -16 -14.5 -25.5t-28.5 -6.5q-297 49 -598 69.5t-602 22.5q-738 5 -1470 -88q-365 -45 -722 -133q-112 -29 -222 -65.5t-213 -87.5q-44 -22 -96.5 -57t-83 -81t-8.5 -100q12 -33 -6.5 -53t-45 -18t-41.5 33q-34 111 26.5 189
t161 128.5t187.5 79.5q322 103 656 153.5t670 81.5q804 71 1611 52q404 -8 806 -53zM2241 -330v0q7 15 53 13.5t102.5 -14.5t96 -33.5t33.5 -45.5q-10 -23 -35.5 -25.5t-56.5 5.5t-56 18q-9 3 -16 6q-24 7 -53 19.5t-49.5 27t-18.5 29.5z" />
    <glyph glyph-name="three.swsh" unicode="&#x33;_&#x33;" 
d="M2382 -372v0q85 -97 50.5 -178t-137.5 -138q-149 -85 -396 -157t-535 -142q-283 -69 -551.5 -146.5t-469.5 -172.5t-279 -218q-25 -47 -20 -97q1 -21 -11.5 -36.5t-33.5 -18.5q-21 -1 -36.5 11.5t-18.5 33.5q-3 41 7 81q14 55 47.5 101t74.5 80q107 85 231 138
q240 103 492 168q257 68 516 127q305 69 606 153q14 5 31 10q74 22 168.5 56.5t172.5 82t102 108.5q7 126 -145.5 200t-422.5 105.5t-615 31.5t-724.5 -23t-751.5 -58.5t-694.5 -74t-554 -71t-331.5 -47.5q-508 -75 -1012 -170q-21 -3 -38 8t-21 32q-4 22 8.5 39t33.5 20
q637 83 1276.5 158.5t1278.5 134.5q73 6 175 15q207 18 494 38.5t602.5 30.5t608.5 -3.5t511.5 -63t311.5 -148.5z" />
    <glyph glyph-name="uni0431_uni044F" unicode="&#x431;&#x44f;" horiz-adv-x="1272" 
d="M626 223l-1 -1q1 0 1 -1v2zM536 157l-1 -1q1 0 1 -1v2zM701 418l2 4l1 3q4 8 -19 13q-33 4 -72 -23q-39 -26 -50 -60q-17 -47 39 -41q25 5 63 22q19 40 36 82zM345 159q-55 -28 -133 -64q-45 -20 -86 -34q-4 -3 -7 -5q-60 -43 -110 -24t-64 91q-15 132 65 241
q32 43 51 54q32 20 52 2q30 -37 -4 -65q-20 -14 -53 -64t-43 -111q0 -4 -1 -8q-3 -29 0.5 -60t31.5 -40q77 18 114.5 95t30.5 162q-1 1 -4.5 22t-3.5 20l-2 8q-2 7 -11 25l-9 17l-4 8l-17 34q-20 40 -64 92q-30 32 -91 70q-49 20 -78 72q-25 54 -16 98q8 62 82 95
q19 9 51 15q23 6 98 7h70l50 -3q54 -8 75 -7q26 -2 57.5 10.5t52.5 31.5q34 31 48 32q11 -10 7 -25l-11 -14q-53 -39 -91 -54.5t-129 -3.5l-35 3l-78 1q-56 -4 -98 -26q-45 -22 -68 -84q-22 -53 1 -86.5t60.5 -55t79.5 -71.5q44 -60 57 -91l17 -30l3 -6q4 -8 8 -14
q20 -31 26 -75q2 -13 3 -31q2 -76 -26 -148q-13 -31 -29 -56q5 3 11 5q91 37 156 70q3 2 5 2q4 3 9 3q6 0 10 -7q2 -2 3 -5q4 -10 26 -38q9 -13 21 -27q1 -1 2 -3q5 -5 10 -11q22 -22 44 -28q28 -7 77 55q37 44 98 153l6 12q-40 -22 -92 -11q-45 17 -44 58q-1 31 21 61
q22 28 51 54q34 27 61 34q36 10 75 -2q37 -10 22 -50q-7 -16 -13 -31q-11 -28 -20 -49q22 18 49 48q16 27 35 55q16 22 48 12q32 -9 21 -39q-58 -73 -92 -169q-35 -96 1 -156q27 -18 55 -12t44 12q15 6 29 11q107 44 207 105q99 61 181 143q25 3 18 -11q-8 -13 -36 -36
t-61 -48q-34 -24 -61 -41q-27 -18 -33 -21q-75 -47 -154 -88q-79 -40 -158 -66q-79 -18 -106 27t-16 108q7 52 45 144q-17 -18 -38 -30q-2 -5 -8 -14q-14 -24 -28 -47q-9 -16 -20 -34q-22 -36 -45 -74q-21 -32 -42 -54t-47 -35q-52 -26 -91 27q-3 3 -4 5q-23 31 -39 57
q-12 18 -18 26z" />
    <glyph glyph-name="uni0432_uni044F" unicode="&#x432;&#x44f;" horiz-adv-x="1294" 
d="M366 946q-48 -80 -85 -166q-16 -34 -33 -68q-69 -154 -130 -310q155 203 226 442q2 8 4 17q13 42 18 85zM55 85l-1 1q-8 -2 -17 -4q-22 2 -30 19q-10 -29 -19 -59q-12 -40 -25 -80q-19 -56 -33 -112.5t-15 -113.5q65 44 110 109t66 138q7 25 6 49q-3 16 -15.5 33
t-26.5 20zM723 418l2 4l1 3q4 8 -19 13q-33 4 -72 -23q-39 -26 -50 -60q-17 -47 39 -41q25 5 63 22q19 40 36 82zM346 201q-73 -35 -156 -67q-23 -8 -48 -18h-1q20 -30 26 -64q-1 -76 -39.5 -146t-91.5 -127l-3 -3q-17 -17 -46.5 -42t-59 -39t-46.5 4q-34 70 1 233
t106.5 359t146 365t117.5 251q9 15 17 30q21 40 46 77.5t62 65.5q19 14 37 4t16 -32q-22 -110 -57 -215q-72 -199 -191 -377q-1 -2 -5 -7q-11 -16 -35.5 -51.5t-51.5 -69.5q-33 -87 -64 -175l6 2q38 11 68 -6q110 5 246 68q5 4 11 4t10 -7q2 -2 3 -5q4 -10 42 -74
q9 -13 21 -27q1 -1 2 -3q5 -5 10 -11q22 -22 44 -28q28 -7 77 55q37 44 98 153l6 12q-40 -22 -92 -11q-45 17 -44 58q-1 31 21 61q22 28 51 54q34 27 61 34q36 10 75 -2q37 -10 22 -50q-7 -16 -13 -31q-11 -28 -20 -49q22 18 49 48q16 27 35 55q16 22 48 12q32 -9 21 -39
q-58 -73 -92 -169q-35 -96 1 -156q27 -18 55 -12t44 12q15 6 29 11q107 44 207 105q99 61 181 143q25 3 18 -11q-8 -13 -36 -36t-61 -48q-34 -24 -61 -41q-27 -18 -33 -21q-75 -47 -154 -88q-79 -40 -158 -66q-79 -18 -106 27t-16 108q7 52 45 144q-17 -18 -38 -30
q-2 -5 -8 -14q-14 -24 -28 -47q-9 -16 -20 -34q-22 -36 -45 -74q-21 -32 -42 -54t-47 -35q-52 -26 -91 27q-3 3 -4 5q-23 31 -39 57q-33 61 -38 66q0 1 -1 2z" />
    <glyph glyph-name="uni0433_uni044F" unicode="&#x433;&#x44f;" horiz-adv-x="1334" 
d="M-733 156l-1 -1q1 0 1 -1v2zM763 418l2 4l1 3q4 8 -19 13q-33 4 -72 -23q-39 -26 -50 -60q-17 -47 39 -41q25 5 63 22q19 40 36 82zM405 160l-1 -1q-81 -61 -177 -80q-104 5 -132 87t55 247q5 11 -1.5 12t-38 -16t-81.5 -73l-17 -15l-10 -10q-11 -7 -19.5 -2.5t3.5 15.5
l24 25l7 8q21 22 62 59q44 39 76 58q19 8 36.5 2t24.5 -22.5t-5 -35.5q-43 -49 -69 -110t-15 -123q20 -69 79.5 -78t120.5 28q44 25 73 47q0 1 2 2q4 5 10.5 5t10.5 -7q2 -2 3 -5q4 -10 26 -38q9 -13 21 -27q1 -1 2 -3q5 -5 10 -11q22 -22 44 -28q28 -7 77 55q37 44 98 153
l6 12q-40 -22 -92 -11q-45 17 -44 58q-1 31 21 61q22 28 51 54q34 27 61 34q36 10 75 -2q37 -10 22 -50q-7 -16 -13 -31q-11 -28 -20 -49q22 18 49 48q16 27 35 55q16 22 48 12q32 -9 21 -39q-58 -73 -92 -169q-35 -96 1 -156q27 -18 55 -12t44 12q15 6 29 11
q107 44 207 105q99 61 181 143q25 3 18 -11q-8 -13 -36 -36t-61 -48q-34 -24 -61 -41q-27 -18 -33 -21q-75 -47 -154 -88q-79 -40 -158 -66q-79 -18 -106 27t-16 108q7 52 45 144q-17 -18 -38 -30q-2 -5 -8 -14q-14 -24 -28 -47q-9 -16 -20 -34q-22 -36 -45 -74
q-21 -32 -42 -54t-47 -35q-52 -26 -91 27q-3 3 -4 5q-23 31 -39 57q-14 20 -20 27z" />
    <glyph glyph-name="uni0435_uni044F" unicode="&#x435;&#x44f;" horiz-adv-x="1351" 
d="M112 388q-45 -31 -65 -102q25 23 46 51.5t19 50.5zM780 418l2 4l1 3q4 8 -19 13q-33 4 -72 -23q-39 -26 -50 -60q-17 -47 39 -41q25 5 63 22q19 40 36 82zM424 158q-55 -32 -127 -64q-105 -48 -192 -58t-122 47q-33 84 -14.5 175.5t72.5 162.5q32 38 77 42t56 -54
q7 -29 -17 -63.5t-59.5 -63.5t-61.5 -40q-12 -63 -7 -107q8 -64 76.5 -62t160.5 40q89 36 154 72q4 4 10 4t10 -7q2 -2 3 -5q4 -10 26 -38q9 -13 21 -27q1 -1 2 -3q5 -5 10 -11q22 -22 44 -28q28 -7 77 55q37 44 98 153l6 12q-40 -22 -92 -11q-45 17 -44 58q-1 31 21 61
q22 28 51 54q34 27 61 34q36 10 75 -2q37 -10 22 -50q-7 -16 -13 -31q-11 -28 -20 -49q22 18 49 48q16 27 35 55q16 22 48 12q32 -9 21 -39q-58 -73 -92 -169q-35 -96 1 -156q27 -18 55 -12t44 12q15 6 29 11q107 44 207 105q99 61 181 143q25 3 18 -11q-8 -13 -36 -36
t-61 -48q-34 -24 -61 -41q-27 -18 -33 -21q-75 -47 -154 -88q-79 -40 -158 -66q-79 -18 -106 27t-16 108q7 52 45 144q-17 -18 -38 -30q-2 -5 -8 -14q-14 -24 -28 -47q-9 -16 -20 -34q-22 -36 -45 -74q-21 -32 -42 -54t-47 -35q-52 -26 -91 27q-3 3 -4 5q-23 31 -39 57
q-12 17 -18 25z" />
    <glyph glyph-name="uni0436_uni044F" unicode="&#x436;&#x44f;" horiz-adv-x="1944" 
d="M-733 155l-1 -1q1 0 1 -1v2zM1373 418l2 4l1 3q4 8 -19 13q-33 4 -72 -23q-39 -26 -50 -60q-17 -47 39 -41q25 5 63 22q19 40 36 82zM1013 163l-2 -2q-123 -94 -189 -118q-70 -30 -175 -31q-93 3 -125 46q-42 51 -33 149q-81 -99 -115 -164q-13 -15 -26.5 -13t-11.5 14.5
t6 32.5q13 60 24 92q3 11 7 23q6 17 11 33q-50 -46 -127 -125q-10 -15 -21 -30q-23 -31 -45 -45q-30 -25 -109 -25q-83 10 -139 103q-23 50 15 75q35 16 42 -29q28 -66 94 -75q49 -11 100 63q22 29 38 65q36 64 53 110l6 21q12 33 13 65q1 31 -37 42q-55 16 -97 0
q-18 -8 -53 -31q-39 -25 -83 -70l-21 -18l-12 -12q-11 -6 -17 1q-4 3 4 15l29 31l13 12q15 17 29 32q24 25 55 43q33 23 75 33q52 7 96 -6q68 -21 74 -88q7 -68 -31 -154q-4 -10 -9 -20q66 76 96 109q13 15 31 14t1 -48q-8 -36 -34 -111q-2 -7 -5 -16q51 54 109 144
q12 18 25 36q54 72 95 99q27 20 63 28q35 8 67 -12q20 -15 17 -35q-3 -21 -20 -32q-18 -12 -40 -1q-49 -12 -95 -64q-47 -52 -83 -116q-21 -67 21 -122q30 -31 83 -37q61 -9 172 21q23 10 81 44q9 6 17 11q52 34 91 63l1 1q4 5 10.5 5t10.5 -7q2 -2 3 -5q4 -10 26 -38
q9 -13 21 -27q1 -1 2 -3q5 -5 10 -11q22 -22 44 -28q28 -7 77 55q37 44 98 153l6 12q-40 -22 -92 -11q-45 17 -44 58q-1 31 21 61q22 28 51 54q34 27 61 34q36 10 75 -2q37 -10 22 -50q-7 -16 -13 -31q-11 -28 -20 -49q22 18 49 48q16 27 35 55q16 22 48 12q32 -9 21 -39
q-58 -73 -92 -169q-35 -96 1 -156q27 -18 55 -12t44 12q15 6 29 11q107 44 207 105q99 61 181 143q25 3 18 -11q-8 -13 -36 -36t-61 -48q-34 -24 -61 -41q-27 -18 -33 -21q-75 -47 -154 -88q-79 -40 -158 -66q-79 -18 -106 27t-16 108q7 52 45 144q-17 -18 -38 -30
q-2 -5 -8 -14q-14 -24 -28 -47q-9 -16 -20 -34q-22 -36 -45 -74q-21 -32 -42 -54t-47 -35q-52 -26 -91 27q-3 3 -4 5q-23 31 -39 57q-17 24 -22 30z" />
    <glyph glyph-name="uni0437_uni044F" unicode="&#x437;&#x44f;" horiz-adv-x="1483" 
d="M36 -228l13 32q36 74 38 136q0 13 -2 25q-71 -55 -124 -136q-71 -107 -97 -214q-1 -1 -1 -3q-5 -30 -7 -67t12 -65q119 171 168 292zM912 418l2 4l1 3q4 8 -19 13q-33 4 -72 -23q-39 -26 -50 -60q-17 -47 39 -41q25 5 63 22q19 40 36 82zM556 158q-57 -32 -125 -64
q-105 -48 -192 -58q-5 -1 -24 -5t-48 -17q6 -16 9 -34q8 -61 -14 -127l-5 -13q-16 -43 -37 -86q-15 -33 -30 -59q-79 -149 -183 -289q-12 -15 -31 -17q-18 -1 -32 11q-23 25 -29 90q-5 66 14 130q35 118 118 235q57 80 131 135q-12 30 -43 53q-27 21 -12 47t49 59
q33 32 62.5 72t35.5 90q5 66 -23 87t-87 -26q-14 -11 -25 -23q-4 -4 -9 -3t-7 5.5t2 9.5q56 71 104.5 76t75 -40t16.5 -122q-11 -52 -39.5 -98.5t-62.5 -88.5q26 -24 41 -50q38 20 87 27q65 10 157 47q88 36 153 74q1 1 3 2q3 1 6 1q6 0 10 -7q2 -2 3 -5q4 -10 26 -38
q9 -13 21 -27q1 -1 2 -3q5 -5 10 -11q22 -22 44 -28q28 -7 77 55q37 44 98 153l6 12q-40 -22 -92 -11q-45 17 -44 58q-1 31 21 61q22 28 51 54q34 27 61 34q36 10 75 -2q37 -10 22 -50q-7 -16 -13 -31q-11 -28 -20 -49q22 18 49 48q16 27 35 55q16 22 48 12q32 -9 21 -39
q-58 -73 -92 -169q-35 -96 1 -156q27 -18 55 -12t44 12q15 6 29 11q107 44 207 105q99 61 181 143q25 3 18 -11q-8 -13 -36 -36t-61 -48q-34 -24 -61 -41q-27 -18 -33 -21q-75 -47 -154 -88q-79 -40 -158 -66q-79 -18 -106 27t-16 108q7 52 45 144q-17 -18 -38 -30
q-2 -5 -8 -14q-14 -24 -28 -47q-9 -16 -20 -34q-22 -36 -45 -74q-21 -32 -42 -54t-47 -35q-52 -26 -91 27q-3 3 -4 5q-23 31 -39 57q-12 17 -18 25z" />
    <glyph glyph-name="uni0438_uni044F" unicode="&#x438;&#x44f;" horiz-adv-x="1528" 
d="M72 305q0 -1 -1 -1q1 0 1 1zM957 418l2 4l1 3q4 8 -19 13q-33 4 -72 -23q-39 -26 -50 -60q-17 -47 39 -41q25 5 63 22q19 40 36 82zM70 302v1q1 0 1 1q-1 -1 -1 -2zM595 184h1q4 5 10.5 5t10.5 -7q2 -2 3 -5q4 -10 26 -38q9 -13 21 -27q1 -1 2 -3q5 -5 10 -11
q22 -22 44 -28q28 -7 77 55q37 44 98 153l6 12q-40 -22 -92 -11q-45 17 -44 58q-1 31 21 61q22 28 51 54q34 27 61 34q36 10 75 -2q37 -10 22 -50q-7 -16 -13 -31q-11 -28 -20 -49q22 18 49 48q16 27 35 55q16 22 48 12q32 -9 21 -39q-58 -73 -92 -169q-35 -96 1 -156
q27 -18 55 -12t44 12q15 6 29 11q107 44 207 105q99 61 181 143q25 3 18 -11q-8 -13 -36 -36t-61 -48q-34 -24 -61 -41q-27 -18 -33 -21q-75 -47 -154 -88q-79 -40 -158 -66q-79 -18 -106 27t-16 108q7 52 45 144q-17 -18 -38 -30q-2 -5 -8 -14q-14 -24 -28 -47
q-9 -16 -20 -34q-22 -36 -45 -74q-21 -32 -42 -54t-47 -35q-52 -26 -91 27q-3 3 -4 5q-23 31 -39 57q-11 16 -17 23q-19 -14 -39 -30q-60 -48 -125 -87.5t-141 -48.5q-57 7 -77 47t-17 93t15 100q-49 -60 -110 -108q-60 -36 -95 -14t-44 73t9 102q16 61 40.5 80t45 11
t25 -29.5t-20.5 -42.5h2q-1 0 -1 -1q-19 -32 -32.5 -73.5t1.5 -76.5q23 -10 53 15.5t59 65t50 71.5q12 18 19 28q8 11 16 25q17 33 44 52q18 11 34.5 3.5t22.5 -25t-7 -33.5q-4 -5 -7 -9h-1l1 -1l-3 -3q-1 -1 -1 -2q-14 -18 -24 -37q-44 -83 -53 -176q-2 -108 68.5 -102
t170.5 74q66 46 115 87z" />
    <glyph glyph-name="uni0439_uni044F" unicode="&#x439;&#x44f;" horiz-adv-x="1527" 
d="M72 305q0 -1 -1 -1q1 0 1 1zM70 786v1q1 0 1 1q-1 -1 -1 -2zM260 464q-60 -36 -95 -14t-44 73q-1 5 -1 9q-4 22 28 32q33 5 35 -19q-3 -28 7 -52q23 -10 53 16q15 13 31 30q14 9 29 -3q15 -16 0 -35q-21 -19 -43 -37zM70 304q1 0 1 1q0 -1 -1 -1zM920 336
q-38 -17 -63 -22q-56 -6 -39 41q11 34 50 60q39 27 72 23q23 -5 19 -13l-1 -3l-2 -4q-17 -42 -36 -82zM69 302l1 2q0 -1 -1 -1v-1zM594 184q-49 -41 -115 -87q-100 -68 -171 -74q-70 -6 -68 102q9 93 53 176q10 19 24 37l1 2l3 3l-1 1h1q3 4 7 9q13 16 7 33q-6 18 -22 26
q-17 7 -35 -4q-27 -19 -44 -52q-8 -14 -16 -25q-7 -10 -19 -28q-21 -32 -50 -71q-29 -40 -59 -66q-30 -25 -53 -15q-15 35 -2 77q14 41 33 73q0 1 1 1h-2q25 21 20 43q-4 21 -24 29q-21 8 -46 -11q-24 -19 -40 -80q-18 -51 -9 -102t44 -73t95 14q61 48 110 108
q-12 -47 -15 -100t17 -93t77 -47q76 9 141 48q65 40 125 88q20 16 39 30q6 -7 17 -23q16 -26 39 -57q1 -2 4 -5q39 -53 91 -27q26 13 47 35t42 54q24 40 45 74q11 18 20 34l28 47q6 9 8 14q21 12 38 30q-38 -92 -45 -144q-11 -63 16 -108t106 -27q79 26 158 66q79 41 154 88
q6 3 33 21q27 17 61 41q33 25 61 48t36 36q7 14 -18 11q-82 -82 -181 -143q-100 -61 -207 -105q-14 -5 -29 -11q-16 -6 -44 -12t-55 12q-36 60 -1 156q34 96 92 169q11 30 -21 39q-32 10 -48 -12q-19 -28 -35 -55q-27 -30 -49 -48q9 21 20 49q6 15 13 31q15 40 -22 50
q-39 12 -75 2q-27 -7 -61 -34q-29 -26 -51 -54q-22 -30 -21 -61q-1 -41 44 -58q52 -11 92 11l-6 -12q-61 -109 -98 -153q-49 -62 -77 -55q-22 6 -44 28l-10 11l-2 3q-12 14 -21 27q-22 28 -26 38q-1 3 -3 5q-4 7 -11 7q-6 0 -10 -5h-1z" />
    <glyph glyph-name="uni043A_uni044F" unicode="&#x43a;&#x44f;" horiz-adv-x="1422" 
d="M134 267q-70 -68 -120 -151q21 25 43 51q40 48 77 100zM106 314q1 0 1 1q0 -1 -1 -1zM105 796l1 2q0 -1 -1 -1v-1zM106 315q0 -1 -1 -1q1 0 1 1zM104 313q1 0 1 1l-1 -2v1zM851 418l2 4l1 3q4 8 -19 13q-33 4 -72 -23q-39 -26 -50 -60q-17 -47 39 -41q25 5 63 22
q19 40 36 82zM500 151q-55 -36 -124 -62q-95 -35 -192 -41t-192 8q-5 0 -8 4q-10 -22 -19 -45q-10 -36 -21 -72q-2 -10 -10.5 -15t-17.5 -4q-18 8 -16 28t11 42q6 17 8 30q3 12 7 24l90 313q17 47 35.5 54t32 -7.5t4.5 -37.5l-50 -113q40 51 86 95q42 39 83 74q16 14 31 27
q17 15 34.5 11t26.5 -19t0 -35q-53 -92 -123 -172t-146 -154q181 -23 349 43q68 27 111 57q4 5 10 5q7 0 11 -7q2 -2 3 -5q4 -10 26 -38q9 -13 21 -27l2 -3l10 -11q22 -22 44 -28q28 -7 77 55q37 44 98 153l6 12q-40 -22 -92 -11q-45 17 -44 58q-1 31 21 61q22 28 51 54
q34 27 61 34q36 10 75 -2q37 -10 22 -50q-7 -16 -13 -31q-11 -28 -20 -49q22 18 49 48q16 27 35 55q16 22 48 12q32 -9 21 -39q-58 -73 -92 -169q-35 -96 1 -156q27 -18 55 -12t44 12q15 6 29 11q107 44 207 105q99 61 181 143q25 3 18 -11q-8 -13 -36 -36t-61 -48
q-34 -24 -61 -41q-27 -18 -33 -21q-75 -47 -154 -88q-79 -40 -158 -66q-79 -18 -106 27t-16 108q7 52 45 144q-17 -18 -38 -30q-2 -5 -8 -14l-28 -47q-9 -16 -20 -34q-21 -34 -45 -74q-21 -32 -42 -54t-47 -35q-52 -26 -91 27q-3 3 -4 5q-23 31 -39 57q-8 12 -13 18z" />
    <glyph glyph-name="uni043B_uni044F" unicode="&#x43b;&#x44f;" horiz-adv-x="1534" 
d="M100 368q1 0 1 1q0 -1 -1 -1zM963 418l2 4l1 3q4 8 -19 13q-33 4 -72 -23q-39 -26 -50 -60q-17 -47 39 -41q25 5 63 22q19 40 36 82zM604 166q-45 -21 -97 -33q-99 -25 -169 32q-26 27 -30 87q-4 49 13 110q-68 -106 -127 -192q-50 -64 -111 -112q-60 -36 -95 -14t-44 73
t11 126q36 101 61 120q24 19 44 11q21 -8 26 -30q4 -21 -21 -42h2l-1 -1q-36 -72 -56 -127q-12 -52 3 -87q23 -10 53 16q30 25 59 64q29 40 50 72q12 18 19 28q8 11 16 25q68 102 130 163q12 10 22.5 3t17.5 -23q6 -20 -15 -91q-11 -46 -15 -86.5t13 -71.5q44 -41 103.5 -37
t120.5 30q13 6 18 8q3 2 7 2q7 0 11 -7q2 -2 3 -5q4 -10 26 -38q9 -13 21 -27l2 -3l10 -11q22 -22 44 -28q28 -7 77 55q37 44 98 153l6 12q-40 -22 -92 -11q-45 17 -44 58q-1 31 21 61q22 28 51 54q34 27 61 34q36 10 75 -2q37 -10 22 -50q-7 -16 -13 -31q-11 -28 -20 -49
q22 18 49 48q16 27 35 55q16 22 48 12q32 -9 21 -39q-58 -73 -92 -169q-35 -96 1 -156q27 -18 55 -12t44 12q15 6 29 11q107 44 207 105q99 61 181 143q25 3 18 -11q-8 -13 -36 -36t-61 -48q-34 -24 -61 -41q-27 -18 -33 -21q-75 -47 -154 -88q-79 -40 -158 -66
q-79 -18 -106 27t-16 108q7 52 45 144q-17 -18 -38 -30q-2 -5 -8 -14l-28 -47q-9 -16 -20 -34q-21 -34 -45 -74q-21 -32 -42 -54t-47 -35q-52 -26 -91 27q-3 3 -4 5q-23 31 -39 57q-11 16 -16 25z" />
    <glyph glyph-name="uni043C_uni044F" unicode="&#x43c;&#x44f;" horiz-adv-x="1772" 
d="M100 368q1 0 1 1q0 -1 -1 -1zM1161 369q0 -1 -1 -1q1 0 1 1zM1201 418l2 4l1 3q4 8 -19 13q-33 4 -72 -23q-39 -26 -50 -60q-17 -47 39 -41q25 5 63 22q19 40 36 82zM842 164q-44 -19 -97 -32q-98 -24 -168 33q-26 27 -30 87q-4 49 13 110q-25 -46 -47 -81l-12 -19
q-13 -17 -26 -36q-26 -39 -56 -77q-26 -36 -53 -35q-27 2 -42 47q-6 27 -13 56q-3 24 -3 35q-4 49 13 110q-68 -106 -127 -192q-50 -64 -111 -112q-60 -36 -95 -14t-44 73t11 126q36 101 61 120q24 19 44 11q21 -8 26 -30q4 -21 -21 -42h2l-1 -1q-36 -72 -56 -127
q-12 -52 3 -87q23 -10 53 16q30 25 59 64q29 40 50 72q12 18 19 28q8 11 16 25q68 102 130 163q12 10 22.5 3t17.5 -23q6 -20 -15 -91q-16 -116 2 -144q39 46 58 68q15 17 37 46q67 90 117 141q12 10 22 3q11 -7 18 -23q6 -20 -15 -91q-11 -46 -15 -86q-4 -41 13 -72
q44 -41 103 -37q60 4 120 30q10 5 17 7q4 3 8 3q7 0 11 -7q2 -2 3 -5q4 -10 26 -38q9 -13 21 -27l2 -3l10 -11q22 -22 44 -28q28 -7 77 55q37 44 98 153l6 12q-40 -22 -92 -11q-45 17 -44 58q-1 31 21 61q22 28 51 54q34 27 61 34q36 10 75 -2q37 -10 22 -50q-7 -16 -13 -31
q-11 -28 -20 -49q22 18 49 48q16 27 35 55q16 22 48 12q32 -9 21 -39q-58 -73 -92 -169q-35 -96 1 -156q27 -18 55 -12t44 12q15 6 29 11q107 44 207 105q99 61 181 143q25 3 18 -11q-8 -13 -36 -36t-61 -48q-34 -24 -61 -41q-27 -18 -33 -21q-75 -47 -154 -88
q-79 -40 -158 -66q-79 -18 -106 27t-16 108q7 52 45 144q-17 -18 -38 -30q-2 -5 -8 -14l-28 -47q-9 -16 -20 -34q-21 -34 -45 -74q-21 -32 -42 -54t-47 -35q-52 -26 -91 27q-3 3 -4 5q-23 31 -39 57q-11 16 -17 23z" />
    <glyph glyph-name="uni043D_uni044F" unicode="&#x43d;&#x44f;" horiz-adv-x="1503" 
d="M123 314q1 0 1 1q0 -1 -1 -1zM-41 29q-1 0 -1 1zM932 418l2 4l1 3q4 8 -19 13q-33 4 -72 -23q-39 -26 -50 -60q-17 -47 39 -41q25 5 63 22q19 40 36 82zM575 160q-81 -61 -177 -80q-104 5 -131 82q-21 61 -10 133q-25 -17 -54 -37q-86 -77 -163 -170q-42 -51 -58 -69
q-14 -14 -32 -12t-29 17q-11 14 -5 34q24 79 57 157l23 62v1q14 34 25 70q9 24 30 27t37 -11t9 -39q-22 -71 -50 -141q-10 -32 -32 -86q30 36 62 70q21 22 40 44q5 5 31 30q25 26 60 58q33 31 64 54q28 76 55 108q18 21 35 15q18 -6 25 -22q1 -2 1 -4q14 -41 -15 -71
q-17 -13 -40 -31q-11 -19 -20 -40q-26 -61 -15 -123q20 -69 79 -78q60 -9 121 28q48 28 73 48q4 5 10 5q7 0 11 -7q2 -2 3 -5q4 -10 26 -38q9 -13 21 -27l2 -3l10 -11q22 -22 44 -28q28 -7 77 55q37 44 98 153l6 12q-40 -22 -92 -11q-45 17 -44 58q-1 31 21 61q22 28 51 54
q34 27 61 34q36 10 75 -2q37 -10 22 -50q-7 -16 -13 -31q-11 -28 -20 -49q22 18 49 48q16 27 35 55q16 22 48 12q32 -9 21 -39q-58 -73 -92 -169q-35 -96 1 -156q27 -18 55 -12t44 12q15 6 29 11q107 44 207 105q99 61 181 143q25 3 18 -11q-8 -13 -36 -36t-61 -48
q-34 -24 -61 -41q-27 -18 -33 -21q-75 -47 -154 -88q-79 -40 -158 -66q-79 -18 -106 27t-16 108q7 52 45 144q-17 -18 -38 -30q-2 -5 -8 -14l-28 -47q-9 -16 -20 -34q-21 -34 -45 -74q-21 -32 -42 -54t-47 -35q-52 -26 -91 27q-3 3 -4 5q-23 31 -39 57q-11 16 -17 23z" />
    <glyph glyph-name="uni043E_uni044F" unicode="&#x43e;&#x44f;" horiz-adv-x="1419" 
d="M181 371q-3 15 -9 29q0 -16 9 -29zM44 72q77 18 114.5 95t30.5 162q-31 17 -43 46q-56 -29 -89.5 -81.5t-43.5 -113.5q0 -4 -1 -8q-3 -29 0.5 -60t31.5 -40zM848 418l2 4l1 3q4 8 -19 13q-33 4 -72 -23q-39 -26 -50 -60q-17 -47 39 -41q25 5 63 22q19 40 36 82zM440 313
q6 -1 9 -7q2 -2 3 -5q5 -14 15 -36q16 -37 76 -132l17 -24l10 -11q22 -22 44 -28q28 -7 77 55q37 44 98 153l6 12q-40 -22 -92 -11q-45 17 -44 58q-1 31 21 61q22 28 51 54q34 27 61 34q36 10 75 -2q37 -10 22 -50q-7 -16 -13 -31q-11 -28 -20 -49q22 18 49 48q16 27 35 55
q16 22 48 12q32 -9 21 -39q-58 -73 -92 -169q-35 -96 1 -156q27 -18 55 -12t44 12q15 6 29 11q107 44 207 105q99 61 181 143q25 3 18 -11q-8 -13 -36 -36t-61 -48q-34 -24 -61 -41q-27 -18 -33 -21q-75 -47 -154 -88q-79 -40 -158 -66q-79 -18 -106 27t-16 108q7 52 45 144
q-17 -18 -38 -30q-2 -5 -8 -14l-28 -47q-9 -16 -20 -34q-21 -34 -45 -74q-21 -32 -42 -54t-47 -35q-52 -26 -91 27q-3 3 -4 5q-23 31 -39 57q-68 114 -75 143l-7 13h-10q-39 1 -92 5t-101 19q2 -76 -26.5 -148t-79.5 -109q-60 -43 -110 -24t-64 91q-15 132 65 241
q41 53 101 83q28 11 45 -8q9 9 23 2q34 -39 43 -97q50 -20 112 -25.5t94 -5.5h12z" />
    <glyph glyph-name="uni043F_uni044F" unicode="&#x43f;&#x44f;" horiz-adv-x="1536" 
d="M965 418l2 4l1 3q4 8 -19 13q-33 4 -72 -23q-39 -26 -50 -60q-17 -47 39 -41q25 5 63 22q19 40 36 82zM605 166q-46 -20 -98 -33q-99 -25 -169 32q-26 27 -34.5 86.5t-0.5 115.5q-95 -72 -182.5 -164.5t-137.5 -188.5q-13 -15 -31 -14t-30 14.5t-8 33.5q18 81 45 161
q10 32 19 64v1q11 35 19 71q7 25 28 29.5t38 -8t12 -38.5q-17 -72 -40 -144q-6 -17 -11 -33q68 63 133 130q88 92 183 174q12 10 22.5 3t17.5 -23q11 -27 5.5 -57t-16.5 -60q-12 -34 -17.5 -67.5t11.5 -64.5q44 -41 103.5 -37t120.5 30q15 7 21 9q3 1 6 1q7 0 11 -7
q2 -2 3 -5q4 -10 26 -38q9 -13 21 -27l2 -3l10 -11q22 -22 44 -28q28 -7 77 55q37 44 98 153l6 12q-40 -22 -92 -11q-45 17 -44 58q-1 31 21 61q22 28 51 54q34 27 61 34q36 10 75 -2q37 -10 22 -50q-7 -16 -13 -31q-11 -28 -20 -49q22 18 49 48q16 27 35 55q16 22 48 12
q32 -9 21 -39q-58 -73 -92 -169q-35 -96 1 -156q27 -18 55 -12t44 12q15 6 29 11q107 44 207 105q99 61 181 143q25 3 18 -11q-8 -13 -36 -36t-61 -48q-34 -24 -61 -41q-27 -18 -33 -21q-75 -47 -154 -88q-79 -40 -158 -66q-79 -18 -106 27t-16 108q7 52 45 144
q-17 -18 -38 -30q-2 -5 -8 -14l-28 -47q-9 -16 -20 -34q-21 -34 -45 -74q-21 -32 -42 -54t-47 -35q-52 -26 -91 27q-3 3 -4 5q-23 31 -39 57q-11 16 -17 23z" />
    <glyph glyph-name="uni0440_uni044F" unicode="&#x440;&#x44f;" horiz-adv-x="1451" 
d="M51 154q0 1 -1 1l1 1v-2zM-180 -383q65 147 95 306l8 42q-78 -167 -103 -348zM50 155q-2 -2 -1 -4l2 3q9 -7 20 -14q31 -3 64 8q10 3 21 5q49 13 108.5 47t80.5 79t-45 93q-34 13 -71.5 -7t-70.5 -52.5t-54 -56.5q-35 -44 -67 -91q3 -1 6 -3q3 -4 7 -7zM880 418l2 4l1 3
q4 8 -19 13q-33 4 -72 -23q-39 -26 -50 -60q-17 -47 39 -41q25 5 63 22q19 40 36 82zM520 166q-39 -18 -85 -34q-203 -72 -419 -48l1 1h-1v1q-32 -153 -77.5 -300.5t-129.5 -279.5q-4 -7 -12.5 -9t-15.5 2q-9 5 -10 30t2.5 56t6.5 54l3 18q43 245 169 460q21 115 46 229
q8 25 29 29t37.5 -9t11.5 -40l-14 -48q57 72 126.5 118.5t137.5 14.5q85 -66 68.5 -126t-85.5 -104.5t-140 -65.5q140 -6 279 43q46 16 76 30q2 1 5 1q7 0 11 -7q2 -2 3 -5q4 -10 26 -38q9 -13 21 -27l2 -3l10 -11q22 -22 44 -28q28 -7 77 55q37 44 98 153l6 12
q-40 -22 -92 -11q-45 17 -44 58q-1 31 21 61q22 28 51 54q34 27 61 34q36 10 75 -2q37 -10 22 -50q-7 -16 -13 -31q-11 -28 -20 -49q22 18 49 48q16 27 35 55q16 22 48 12q32 -9 21 -39q-58 -73 -92 -169q-35 -96 1 -156q27 -18 55 -12t44 12q15 6 29 11q107 44 207 105
q99 61 181 143q25 3 18 -11q-8 -13 -36 -36t-61 -48q-34 -24 -61 -41q-27 -18 -33 -21q-75 -47 -154 -88q-79 -40 -158 -66q-79 -18 -106 27t-16 108q7 52 45 144q-17 -18 -38 -30q-2 -5 -8 -14l-28 -47q-9 -16 -20 -34q-21 -34 -45 -74q-21 -32 -42 -54t-47 -35
q-52 -26 -91 27q-3 3 -4 5q-23 31 -39 57q-11 16 -17 23z" />
    <glyph glyph-name="uni0441_uni044F" unicode="&#x441;&#x44f;" horiz-adv-x="1397" 
d="M826 418l2 4l1 3q4 8 -19 13q-33 4 -72 -23q-39 -26 -50 -60q-17 -47 39 -41q25 5 63 22q19 40 36 82zM467 164l-8 -6q-123 -94 -257.5 -160t-249.5 -61q-79 16 -85.5 83.5t31.5 153.5t92 158.5t95 99.5q27 20 62.5 28t67.5 -12q20 -15 17 -35.5t-20.5 -32t-39.5 -0.5
q-49 -12 -95.5 -64t-82.5 -116t-53 -110q-3 -10 -6 -21q-12 -33 -13 -64.5t35 -37.5q107 -7 206 37.5t188 101.5q9 6 17 11q58 38 97 67q4 5 10 5q7 0 11 -7q2 -2 3 -5q4 -10 26 -38q9 -13 21 -27l2 -3l10 -11q22 -22 44 -28q28 -7 77 55q37 44 98 153l6 12q-40 -22 -92 -11
q-45 17 -44 58q-1 31 21 61q22 28 51 54q34 27 61 34q36 10 75 -2q37 -10 22 -50q-7 -16 -13 -31q-11 -28 -20 -49q22 18 49 48q16 27 35 55q16 22 48 12q32 -9 21 -39q-58 -73 -92 -169q-35 -96 1 -156q27 -18 55 -12t44 12q15 6 29 11q107 44 207 105q99 61 181 143
q25 3 18 -11q-8 -13 -36 -36t-61 -48q-34 -24 -61 -41q-27 -18 -33 -21q-75 -47 -154 -88q-79 -40 -158 -66q-79 -18 -106 27t-16 108q7 52 45 144q-17 -18 -38 -30q-2 -5 -8 -14l-28 -47q-9 -16 -20 -34q-21 -34 -45 -74q-21 -32 -42 -54t-47 -35q-52 -26 -91 27q-3 3 -4 5
q-23 31 -39 57q-11 16 -17 23z" />
    <glyph glyph-name="uni0442_uni044F" unicode="&#x442;&#x44f;" horiz-adv-x="1802" 
d="M1231 418l2 4l1 3q4 8 -19 13q-33 4 -72 -23q-39 -26 -50 -60q-17 -47 39 -41q25 5 63 22q19 40 36 82zM840 220q-48 -18 -113 -27q-23 -3 -47 -2t-44 15q-37 30 -59 71q-4 6 -9 14q-10 17 -22.5 33t-27.5 19q-34 -21 -58 -58q-6 -9 -12 -17q-16 -21 -31 -43
q-26 -39 -56 -77q-26 -36 -53 -34.5t-42 46.5q-23 106 -18 214q-77 -101 -150 -205q-33 -45 -65 -90q-5 -8 -11 -15q-26 -37 -54 -73q-2 -3 -4 -5q-6 -9 -17 -15q-10 -4 -18 2t-7 17q4 28 8 57q4 30 9 60q9 48 21 96q4 12 7 25q2 10 5 21q14 53 27 98q9 26 30 29t37 -11
t9 -41q-25 -74 -54 -152q-4 -12 -8 -23q-10 -32 -25 -64l-2 -6q7 12 14 23q91 147 182 300l10 18q6 10 13 21q27 46 54 87q16 20 36 19.5t34 -16t11 -39.5q-18 -46 -22 -125.5t9 -143.5q21 22 40 44q36 43 79 82q34 32 67 35.5t56 -43.5q7 -13 16 -28q17 -35 41 -66.5
t57 -34.5q68 -1 134 20l24 8q3 3 8 3q7 0 11 -7q2 -2 3 -5q4 -10 17 -30q28 -51 63 -92l10 -11q22 -22 44 -28q28 -7 77 55q37 44 98 153l6 12q-40 -22 -92 -11q-45 17 -44 58q-1 31 21 61q22 28 51 54q34 27 61 34q36 10 75 -2q37 -10 22 -50q-7 -16 -13 -31
q-11 -28 -20 -49q22 18 49 48q16 27 35 55q16 22 48 12q32 -9 21 -39q-58 -73 -92 -169q-35 -96 1 -156q27 -18 55 -12t44 12q15 6 29 11q107 44 207 105q99 61 181 143q25 3 18 -11q-8 -13 -36 -36t-61 -48q-34 -24 -61 -41q-27 -18 -33 -21q-75 -47 -154 -88
q-79 -40 -158 -66q-79 -18 -106 27t-16 108q7 52 45 144q-17 -18 -38 -30q-2 -5 -8 -14l-28 -47q-9 -16 -20 -34q-21 -34 -45 -74q-21 -32 -42 -54t-47 -35q-52 -26 -91 27q-3 3 -4 5q-36 49 -68 104q-13 23 -19 30z" />
    <glyph glyph-name="uni0444_uni044F" unicode="&#x444;&#x44f;" horiz-adv-x="1680" 
d="M251 154q0 1 -1 1l1 1v-2zM40 -383q65 147 95 306l8 42q-78 -167 -103 -348zM270 155q-2 -2 -1 -4l2 3q9 -7 20 -14q31 -3 64 8q10 3 21 5q49 13 108.5 47t80.5 79t-45 93q-34 13 -71.5 -7t-70.5 -52.5t-54 -56.5q-35 -44 -67 -91q3 -1 6 -3q3 -4 7 -7zM1109 418l2 4l1 3
q4 8 -19 13q-33 4 -72 -23q-39 -26 -50 -60q-17 -47 39 -41q25 5 63 22q19 40 36 82zM749 166q-38 -17 -84 -34q-203 -72 -419 -48l1 1h-1v1q-32 -153 -77.5 -300.5t-129.5 -279.5q-4 -7 -12.5 -9t-15.5 2q-9 5 -10 30t2.5 56t6.5 54l3 18q43 245 169 460q5 26 20 117
q-68 -87 -128 -130q-68 -49 -137 -19q-87 63 -72.5 123.5t82 107.5t138.5 70q47 16 89 5q31 -12 29 -29q-9 -19 -28 -9q-36 10 -76 -5q-49 -14 -107 -50t-77.5 -81.5t47.5 -91.5q35 -12 71.5 9t68.5 55t52 58q28 36 49 66q10 12 25 33q8 25 29 29t37.5 -9t11.5 -40l-14 -48
q57 72 126.5 118.5t137.5 14.5q85 -66 68.5 -126t-85.5 -104.5t-140 -65.5q140 -6 279 43q44 16 72 28q4 3 8 3q7 0 11 -7q2 -2 3 -5q4 -10 26 -38q9 -13 21 -27l2 -3l10 -11q22 -22 44 -28q28 -7 77 55q37 44 98 153l6 12q-40 -22 -92 -11q-45 17 -44 58q-1 31 21 61
q22 28 51 54q34 27 61 34q36 10 75 -2q37 -10 22 -50q-7 -16 -13 -31q-11 -28 -20 -49q22 18 49 48q16 27 35 55q16 22 48 12q32 -9 21 -39q-58 -73 -92 -169q-35 -96 1 -156q27 -18 55 -12t44 12q15 6 29 11q107 44 207 105q99 61 181 143q25 3 18 -11q-8 -13 -36 -36
t-61 -48q-34 -24 -61 -41q-27 -18 -33 -21q-75 -47 -154 -88q-79 -40 -158 -66q-79 -18 -106 27t-16 108q7 52 45 144q-17 -18 -38 -30q-2 -5 -8 -14l-28 -47q-9 -16 -20 -34q-21 -34 -45 -74q-21 -32 -42 -54t-47 -35q-52 -26 -91 27q-3 3 -4 5q-23 31 -39 57
q-11 16 -17 23z" />
    <glyph glyph-name="uni0445_uni044F" unicode="&#x445;&#x44f;" horiz-adv-x="1576" 
d="M1005 418l2 4l1 3q4 8 -19 13q-33 4 -72 -23q-39 -26 -50 -60q-17 -47 39 -41q25 5 63 22q19 40 36 82zM650 157q-94 -60 -203 -100q-118 -44 -238 -4q-45 16 -85 43q-43 -55 -81 -113q-10 -14 -25.5 -17.5t-30.5 5.5q-27 19 -1.5 67t79.5 109q-16 19 -28 41
q-38 70 -33 148q3 25 22 32.5t38 -1t20 -32.5q4 -73 34 -131q68 69 129 123t84 71q16 11 30 4t18 -22.5t-10 -28.5q-113 -95 -207 -208q45 -46 108.5 -63.5t139.5 3.5q134 38 235 102q4 4 9 4q7 0 11 -7q2 -2 3 -5q4 -10 26 -38q9 -13 21 -27l2 -3l10 -11q22 -22 44 -28
q28 -7 77 55q37 44 98 153l6 12q-40 -22 -92 -11q-45 17 -44 58q-1 31 21 61q22 28 51 54q34 27 61 34q36 10 75 -2q37 -10 22 -50q-7 -16 -13 -31q-11 -28 -20 -49q22 18 49 48q16 27 35 55q16 22 48 12q32 -9 21 -39q-58 -73 -92 -169q-35 -96 1 -156q27 -18 55 -12t44 12
q15 6 29 11q107 44 207 105q99 61 181 143q25 3 18 -11q-8 -13 -36 -36t-61 -48q-34 -24 -61 -41q-27 -18 -33 -21q-75 -47 -154 -88q-79 -40 -158 -66q-79 -18 -106 27t-16 108q7 52 45 144q-17 -18 -38 -30q-2 -5 -8 -14l-28 -47q-9 -16 -20 -34q-21 -34 -45 -74
q-21 -32 -42 -54t-47 -35q-52 -26 -91 27q-3 3 -4 5q-23 31 -39 57q-11 16 -17 23v1z" />
    <glyph glyph-name="uni0446_uni044F" unicode="&#x446;&#x44f;" horiz-adv-x="1529" 
d="M72 305q0 -1 -1 -1q1 0 1 1zM70 302v1q1 0 1 1q-1 -1 -1 -2zM234 -183q-7 -48 4 -54q40 70 54 176q-10 -5 -30 -35q-21 -39 -28 -87zM958 418l2 4l1 3q4 8 -19 13q-33 4 -72 -23q-39 -26 -50 -60q-17 -47 39 -41q25 5 63 22q19 40 36 82zM603 157q-20 -15 -40 -31
q-48 -38 -77 -54q-9 -7 -17 -11q-78 -51 -121 -83q-19 -110 -46 -190q-16 -53 -46 -101q-14 -8 -24 2q-10 9 -16 24q-6 16 -8 25q-14 81 18 156q28 59 65 82q5 33 5 83q-5 -11 -46 -7q-59 16 -48 81q8 64 16 97q-49 -60 -110 -108q-15 -9 -28 -14q-24 -10 -43 -8
q-13 1 -24 8q-35 22 -44 73t9 102q16 61 40.5 80t45 11t25 -29.5t-20.5 -42.5h2q-1 0 -1 -1q-19 -32 -32.5 -73.5t1.5 -76.5q23 -10 53 15.5t59 65t50 71.5q12 18 19 28q8 11 16 25q17 33 44 52q18 11 34.5 3.5t22.5 -25t-7 -33.5q-4 -5 -7 -9h-1l1 -1l-3 -3q-1 -1 -1 -2
q-14 -18 -24 -37q-31 -59 -45 -172q1 -53 45 -9q19 26 27 37q24 20 29 -7q11 -87 2 -138q49 35 126 84q71 49 121 90l1 1q3 2 7 2q7 0 11 -7q2 -2 3 -5q4 -10 26 -38q9 -13 21 -27l2 -3l10 -11q22 -22 44 -28q28 -7 77 55q37 44 98 153l6 12q-40 -22 -92 -11q-45 17 -44 58
q-1 31 21 61q22 28 51 54q34 27 61 34q36 10 75 -2q37 -10 22 -50q-7 -16 -13 -31q-11 -28 -20 -49q22 18 49 48q16 27 35 55q16 22 48 12q32 -9 21 -39q-58 -73 -92 -169q-35 -96 1 -156q27 -18 55 -12t44 12q15 6 29 11q107 44 207 105q99 61 181 143q25 3 18 -11
q-8 -13 -36 -36t-61 -48q-34 -24 -61 -41q-27 -18 -33 -21q-75 -47 -154 -88q-79 -40 -158 -66q-79 -18 -106 27t-16 108q7 52 45 144q-17 -18 -38 -30q-2 -5 -8 -14l-28 -47q-9 -16 -20 -34q-21 -34 -45 -74q-21 -32 -42 -54t-47 -35q-52 -26 -91 27q-3 3 -4 5
q-23 31 -39 57q-11 16 -17 23v1z" />
    <glyph glyph-name="uni0447_uni044F" unicode="&#x447;&#x44f;" horiz-adv-x="1663" 
d="M1092 418l2 4l1 3q4 8 -19 13q-33 4 -72 -23q-39 -26 -50 -60q-17 -47 39 -41q25 5 63 22q19 40 36 82zM736 158q-55 -31 -126 -64q-105 -48 -192 -58q-97 -13 -133 69q-9 34 -2 76q6 53 25 101q-32 -21 -71 -4q-40 16 -81 128q-5 18 -12.5 19t-31.5 -14q-33 -23 -84 -78
l-14 -15l-9 -8q-8 -9 -19 -3t-3 18l27 31l10 11q6 9 34 33q48 45 73 57q46 24 55 -18q13 -42 25 -64q40 -100 104 -55l41 41q17 19 38 13q20 -5 30 -24q10 -18 -5 -39q-33 -47 -55 -104q-16 -43 -16 -86q6 -50 75 -48q68 2 160 39q88 37 153 74q4 3 9 3q7 0 11 -7q2 -2 3 -5
q4 -10 26 -38q9 -13 21 -27l2 -3l10 -11q22 -22 44 -28q28 -7 77 55q37 44 98 153l6 12q-40 -22 -92 -11q-45 17 -44 58q-1 31 21 61q22 28 51 54q34 27 61 34q36 10 75 -2q37 -10 22 -50q-7 -16 -13 -31q-11 -28 -20 -49q22 18 49 48q16 27 35 55q16 22 48 12q32 -9 21 -39
q-58 -73 -92 -169q-35 -96 1 -156q27 -18 55 -12t44 12q15 6 29 11q107 44 207 105q99 61 181 143q25 3 18 -11q-8 -13 -36 -36t-61 -48q-34 -24 -61 -41q-27 -18 -33 -21q-75 -47 -154 -88q-79 -40 -158 -66q-79 -18 -106 27t-16 108q7 52 45 144q-17 -18 -38 -30
q-2 -5 -8 -14l-28 -47q-9 -16 -20 -34q-21 -34 -45 -74q-21 -32 -42 -54t-47 -35q-52 -26 -91 27q-3 3 -4 5q-23 31 -39 57q-11 16 -17 23z" />
    <glyph glyph-name="uni0448_uni044F" unicode="&#x448;&#x44f;" horiz-adv-x="1757" 
d="M72 305q0 -1 -1 -1q1 0 1 1zM70 302v1q1 0 1 1q-1 -1 -1 -2zM1186 418l2 4l1 3q4 8 -19 13q-33 4 -72 -23q-39 -26 -50 -60q-17 -47 39 -41q25 5 63 22q19 40 36 82zM831 157q-20 -15 -40 -31q-60 -48 -125 -87.5t-141 -48.5q-57 7 -77 47t-17 93t15 100
q-49 -60 -110 -108q-60 -36 -95 -14t-44 73q-2 11 -3 22q-39 -44 -86 -81q-60 -36 -95 -14t-44 73t9 102q16 61 40.5 80t45 11t25 -29.5t-20.5 -42.5h2q-1 0 -1 -1q-19 -32 -32.5 -73.5t1.5 -76.5q23 -10 53 15.5t59 65t50 71.5q12 18 19 28q8 11 16 25q17 33 44 52
q18 11 34.5 3.5t22.5 -25t-7 -33.5q-4 -5 -7 -9h-1l1 -1l-3 -3q-1 -1 -1 -2q-14 -18 -24 -37q-7 -14 -13 -27q-30 -88 -15 -123q23 -10 53 15.5t59 65t50 71.5q12 18 19 28q8 11 16 25q17 33 44 52q18 11 34.5 3.5t22.5 -25t-7 -33.5q-4 -5 -7 -9h-1l1 -1l-3 -3q-1 -1 -1 -2
q-14 -18 -24 -37q-44 -83 -53 -176q-2 -108 68.5 -102t170.5 74q66 45 117 87q4 5 10 5q7 0 11 -7q2 -2 3 -5q4 -10 26 -38q9 -13 21 -27l2 -3l10 -11q22 -22 44 -28q28 -7 77 55q37 44 98 153l6 12q-40 -22 -92 -11q-45 17 -44 58q-1 31 21 61q22 28 51 54q34 27 61 34
q36 10 75 -2q37 -10 22 -50q-7 -16 -13 -31q-11 -28 -20 -49q22 18 49 48q16 27 35 55q16 22 48 12q32 -9 21 -39q-58 -73 -92 -169q-35 -96 1 -156q27 -18 55 -12t44 12q15 6 29 11q107 44 207 105q99 61 181 143q25 3 18 -11q-8 -13 -36 -36t-61 -48q-34 -24 -61 -41
q-27 -18 -33 -21q-75 -47 -154 -88q-79 -40 -158 -66q-79 -18 -106 27t-16 108q7 52 45 144q-17 -18 -38 -30q-2 -5 -8 -14l-28 -47q-9 -16 -20 -34q-21 -34 -45 -74q-21 -32 -42 -54t-47 -35q-52 -26 -91 27q-3 3 -4 5q-23 31 -39 57q-11 16 -17 23v1z" />
    <glyph glyph-name="uni0449_uni044F" unicode="&#x449;&#x44f;" horiz-adv-x="1756" 
d="M72 305q0 -1 -1 -1q1 0 1 1zM70 302v1q1 0 1 1q-1 -1 -1 -2zM360 305q1 0 1 1q0 -1 -1 -1zM359 303l1 2q0 -1 -1 -1v-1zM463 -182q-7 -48 4 -54q40 70 54 176q-10 -5 -30 -35q-21 -39 -28 -87zM1185 418l2 4l1 3q4 8 -19 13q-33 4 -72 -23q-39 -26 -50 -60
q-17 -47 39 -41q25 5 63 22q19 40 36 82zM792 127q-48 -38 -77 -54q-9 -7 -17 -11q-78 -51 -121 -83q-13 -110 -46 -197q-16 -46 -46 -94q-14 -8 -24 2q-10 9 -16 24q-6 16 -8 25q-14 81 18 156q28 59 65 82q5 33 5 83q-5 -11 -46 -7q-59 16 -48 81q8 64 16 97
q-37 -45 -81 -84q-15 -13 -30 -25q-60 -36 -95 -14t-44 73q-2 11 -3 22q-39 -44 -86 -81q-60 -36 -95 -14t-44 73t9 102q16 61 40.5 80t45 11t25 -29.5t-20.5 -42.5h2q-1 0 -1 -1q-19 -32 -32.5 -73.5t1.5 -76.5q23 -10 53 15.5t59 65t50 71.5q12 18 19 28q8 11 16 25
q17 33 44 52q18 11 34.5 3.5t22.5 -25t-7 -33.5q-4 -5 -7 -9h-1l1 -1l-3 -3q-1 -1 -1 -2q-14 -18 -24 -37q-7 -14 -13 -27q-30 -88 -15 -123q23 -10 53 15.5t59 65.5q10 13 19 26v-1q18 25 32 47q12 18 19 28q8 11 16 25q17 33 44 52q18 11 34 3q17 -7 23 -25q6 -17 -7 -33
q-4 -6 -7 -9h-1l1 -1l-3 -3l-1 -2q-14 -18 -24 -37q-31 -59 -45 -172q1 -53 45 -9q20 26 27 37q24 20 29 -7q11 -87 2 -138q49 34 126 84q69 48 119 89l1 1q3 2 7 2q7 0 11 -7q2 -2 3 -5q4 -10 26 -38q9 -13 21 -27l2 -3l10 -11q22 -22 44 -28q28 -7 77 55q37 44 98 153
l6 12q-40 -22 -92 -11q-45 17 -44 58q-1 31 21 61q22 28 51 54q34 27 61 34q36 10 75 -2q37 -10 22 -50q-7 -16 -13 -31q-11 -28 -20 -49q22 18 49 48q16 27 35 55q16 22 48 12q32 -9 21 -39q-58 -73 -92 -169q-35 -96 1 -156q27 -18 55 -12t44 12q15 6 29 11
q107 44 207 105q99 61 181 143q25 3 18 -11q-8 -13 -36 -36t-61 -48q-34 -24 -61 -41q-27 -18 -33 -21q-75 -47 -154 -88q-79 -40 -158 -66q-79 -18 -106 27t-16 108q7 52 45 144q-17 -18 -38 -30q-2 -5 -8 -14l-28 -47q-9 -16 -20 -34q-21 -34 -45 -74q-21 -32 -42 -54
t-47 -35q-52 -26 -91 27q-3 3 -4 5q-23 31 -39 57q-11 16 -17 23q-19 -14 -38 -29z" />
    <glyph glyph-name="uni044A_uni044F" unicode="&#x44a;&#x44f;" horiz-adv-x="1650" 
d="M-44 419l-1 -1q1 0 1 -1v2zM-212 417q0 1 -1 1l1 1v-2zM450 265h-1q-25 5 -48 6l-15 -38l-21 -52q-17 -37 -28 -73t-10 -72q63 32 105 76q41 44 59 92q6 16 4 31q-4 10 -18 19q-13 10 -27 11zM1079 418l2 4l1 3q4 8 -19 13q-33 4 -72 -23q-39 -26 -50 -60q-17 -47 39 -41
q25 5 63 22q19 40 36 82zM711 181q-58 -34 -125 -69q-68 -34 -142 -56q-1 -1 -3 -1q-6 -2 -49 -19q-25 -15 -50 -25q-28 -11 -47 -1q-37 42 -10 146q17 64 46 136l-13 -9q-41 -22 -80 -5q-40 16 -81 128q-5 18 -12 19q-8 1 -32 -14q-33 -23 -84 -78l-14 -15l-9 -8
q-8 -9 -19 -3t-3 18l27 31l10 11q6 9 34 33q48 45 73 57q46 24 55 -18q13 -42 25 -64q40 -100 104 -55q38 30 55 62t28 32q15 4 32 -8.5t9 -38.5q-10 -36 -19 -59h1l5 1q38 10 69 2l43 -20h-1q22 -18 30 -38q2 -47 -33 -94q-27 -37 -64 -69q15 4 30 10q16 6 28 9
q103 42 187 94l3 2q1 1 5 1q7 0 11 -7q2 -2 3 -5q4 -10 34 -55q9 -13 21 -27l2 -3l10 -11q22 -22 44 -28q28 -7 77 55q37 44 98 153l6 12q-40 -22 -92 -11q-45 17 -44 58q-1 31 21 61q22 28 51 54q34 27 61 34q36 10 75 -2q37 -10 22 -50q-7 -16 -13 -31q-11 -28 -20 -49
q22 18 49 48q16 27 35 55q16 22 48 12q32 -9 21 -39q-58 -73 -92 -169q-35 -96 1 -156q27 -18 55 -12t44 12q15 6 29 11q107 44 207 105q99 61 181 143q25 3 18 -11q-8 -13 -36 -36t-61 -48q-34 -24 -61 -41q-27 -18 -33 -21q-75 -47 -154 -88q-79 -40 -158 -66
q-79 -18 -106 27t-16 108q7 52 45 144q-17 -18 -38 -30q-2 -5 -8 -14l-28 -47q-9 -16 -20 -34q-21 -34 -45 -74q-21 -32 -42 -54t-47 -35q-52 -26 -91 27q-3 3 -4 5q-23 31 -39 57q-18 29 -25 40z" />
    <glyph glyph-name="uni044B_uni044F" unicode="&#x44b;&#x44f;" horiz-adv-x="1528" 
d="M-871 419l-1 -1q1 0 1 -1v2zM113 417q0 1 -1 1l1 1v-2zM117 265h-1q-25 5 -48 6l-15 -38l-21 -52q-17 -37 -28 -73t-10 -72q63 32 105 76q41 44 59 92q6 16 4 31q-4 10 -18 19q-13 10 -27 11zM957 418l2 4l1 3q4 8 -19 13q-33 4 -72 -23q-39 -26 -50 -60q-17 -47 39 -41
q25 5 63 22q19 40 36 82zM596 184q4 5 10 5q7 0 11 -7q2 -2 3 -5q4 -10 26 -38q9 -13 21 -27l2 -3l10 -11q22 -22 44 -28q28 -7 77 55q37 44 98 153l6 12q-40 -22 -92 -11q-45 17 -44 58q-1 31 21 61q22 28 51 54q34 27 61 34q36 10 75 -2q37 -10 22 -50q-7 -16 -13 -31
q-11 -28 -20 -49q22 18 49 48q16 27 35 55q16 22 48 12q32 -9 21 -39q-58 -73 -92 -169q-35 -96 1 -156q27 -18 55 -12t44 12q15 6 29 11q107 44 207 105q99 61 181 143q25 3 18 -11q-8 -13 -36 -36t-61 -48q-34 -24 -61 -41q-27 -18 -33 -21q-75 -47 -154 -88
q-79 -40 -158 -66q-79 -18 -106 27t-16 108q7 52 45 144q-17 -18 -38 -30q-2 -5 -8 -14l-28 -47q-9 -16 -20 -34q-21 -34 -45 -74q-21 -32 -42 -54t-47 -35q-52 -26 -91 27q-3 3 -4 5q-23 31 -39 57q-11 16 -17 23l-3 5l-2 -2q-87 -72 -177 -80q-75 4 -110 44q-12 16 -18 38
q-2 7 -3 14q-57 -106 -170 -124q-33 -2 -60 -15q-25 -15 -50 -25q-28 -11 -47 -1q-37 42 -10 146q20 77 59 167q26 68 34 96q9 24 30 27q22 3 38 -10q16 -14 9 -40q-6 -17 -12 -31q-18 -42 -25 -57l5 1q38 10 69 2l43 -20h-1q22 -18 30 -38q2 -47 -33 -94q-27 -37 -74 -77
q9 2 25 7t32 11q65 36 104 132q2 47 20 101q28 75 74 132q18 17 35 11t23 -22q5 -17 -8 -36q-47 -49 -79 -110q-31 -61 -25 -123q3 -23 16 -45q22 -27 58 -33q60 -9 121 28q44 25 76 49z" />
    <glyph glyph-name="uni044C_uni044F" unicode="&#x44c;&#x44f;" horiz-adv-x="1308" 
d="M-871 419l-1 -1q1 0 1 -1v2zM104 265h-1q-25 5 -48 6q-8 -19 -15 -38l-21 -52q-17 -37 -28 -73t-10 -72q63 32 105 76q41 44 59 92q6 16 4 31q-4 10 -18 19q-13 10 -27 11zM737 418l2 4l1 3q4 8 -19 13q-33 4 -72 -23q-39 -26 -50 -60q-17 -47 39 -41q25 5 63 22
q19 40 36 82zM366 184q-58 -36 -126 -72q-68 -34 -142 -56q-1 -1 -3 -1q-6 -2 -49 -19q-25 -15 -50 -25q-28 -11 -47 -1q-37 42 -10 146q20 77 59 167q26 68 34 96q9 24 30.5 27t37.5 -10.5t9 -39.5q-6 -17 -12 -31q-18 -42 -25 -57l5 1q38 10 69 2l43 -20h-1q22 -18 30 -38
q2 -47 -33 -94q-27 -37 -64 -69q15 4 30 10q16 6 28 9q104 43 190 94l2 2q2 1 5 1q7 0 11 -7q2 -2 3 -5q14 -27 36 -55q9 -13 21 -27l2 -3l10 -11q22 -22 44 -28q28 -7 77 55q37 44 98 153l6 12q-40 -22 -92 -11q-45 17 -44 58q-1 31 21 61q22 28 51 54q34 27 61 34
q36 10 75 -2q37 -10 22 -50q-7 -16 -13 -31q-11 -28 -20 -49q22 18 49 48q16 27 35 55q16 22 48 12q32 -9 21 -39q-58 -73 -92 -169q-35 -96 1 -156q27 -18 55 -12t44 12q15 6 29 11q107 44 207 105q99 61 181 143q25 3 18 -11q-8 -13 -36 -36t-61 -48q-34 -24 -61 -41
q-27 -18 -33 -21q-75 -47 -154 -88q-79 -40 -158 -66q-79 -18 -106 27t-16 108q7 52 45 144q-17 -18 -38 -30q-2 -5 -8 -14l-28 -47q-9 -16 -20 -34q-21 -34 -45 -74q-21 -32 -42 -54t-47 -35q-52 -26 -91 27q-3 3 -4 5q-23 31 -39 57q-11 16 -27 40z" />
    <glyph glyph-name="uni044E_uni044F" unicode="&#x44e;&#x44f;" horiz-adv-x="1616" 
d="M105 314q1 0 1 1q0 -1 -1 -1zM-59 29q-1 0 -1 1zM369 400q6 -14 9 -29q-9 13 -9 29zM210 112q-4 31 -1 60l1 8q10 61 44 114q33 52 89 81q12 -29 43 -46q7 -85 -30 -162q-38 -77 -115 -95q-28 9 -31 40zM1009 336q-38 -17 -63 -22q-56 -6 -39 41q11 34 50 60q39 27 72 23
q23 -5 19 -13l-1 -3l-2 -4q-17 -42 -36 -82zM142 123q14 -72 64 -91t110 24q51 37 80 109q28 72 26 148q48 -15 101 -19t92 -5h10l7 -13q7 -29 75 -143q16 -26 39 -57q1 -2 4 -5q39 -53 91 -27q26 13 47 35t42 54q25 41 45 74q12 18 20 34l28 47q6 9 8 14q21 12 38 30
q-38 -92 -45 -144q-11 -63 16 -108t106 -27q79 26 158 66q79 41 154 88q6 3 33 21q27 17 61 41q33 25 61 48t36 36q7 14 -18 11q-82 -82 -181 -143q-100 -61 -207 -105q-14 -5 -29 -11q-16 -6 -44 -12t-55 12q-36 60 -1 156q34 96 92 169q11 30 -21 39q-32 10 -48 -12
q-19 -28 -35 -55q-27 -30 -49 -48q9 21 20 49q6 15 13 31q15 40 -22 50q-39 12 -75 2q-27 -7 -61 -34q-29 -26 -51 -54q-22 -30 -21 -61q-1 -41 44 -58q52 -11 92 11l-6 -12q-61 -109 -98 -153q-49 -62 -77 -55q-22 6 -44 28l-10 11l-17 24q-60 95 -76 132q-10 22 -15 36
q-1 3 -3 5q-3 6 -9 7h-12q-32 0 -94 5q-62 6 -112 26q-9 58 -43 97q-14 7 -23 -2q-17 19 -45 8q-60 -30 -101 -83q-34 -46 -50 -95q-15 -14 -27 -27q-26 -25 -31 -30q-19 -22 -40 -44q-32 -34 -62 -70q22 54 32 86q28 70 50 141q7 25 -9 39t-37 11t-30 -27q-11 -36 -25 -70
v-1l-23 -62q-33 -78 -57 -157q-6 -20 5 -34q11 -15 29 -17t32 12q16 18 58 69q59 71 122 132q-1 -7 -2 -13q-5 -41 0 -84z" />
    <glyph glyph-name="uni044F_uni044F" unicode="&#x44f;&#x44f;" horiz-adv-x="1511" 
d="M189 411l2 4l1 3q4 8 -19 13q-33 4 -72 -23q-39 -26 -50 -60q-17 -47 39 -41q25 5 63 22q19 40 36 82zM940 418l2 4l1 3q4 8 -19 13q-33 4 -72 -23q-39 -26 -50 -60q-17 -47 39 -41q25 5 63 22q19 40 36 82zM572 181q-58 -34 -124 -68q-79 -41 -158 -67q-79 -18 -106 27
t-16 108q7 52 45 144q-17 -18 -38 -30q-2 -5 -8 -14l-48 -81q-25 -41 -45 -74q-21 -32 -42 -54t-47 -35q-52 -26 -91 27q-3 3 -4 5q-4 7 -9 14q-6 12 5 23q9 6 16 -5q3 -3 5 -7q2 -2 4 -3q22 -22 44 -28q28 -7 77 55q37 44 98 153l6 12q-40 -22 -92 -11q-45 17 -44 58
q-1 31 21 61q22 28 51 54q34 27 61 34q36 10 75 -2q37 -10 22 -50q-7 -16 -13 -31q-11 -28 -20 -49q22 18 49 48q16 27 35 55q16 22 48 12.5t21 -39.5q-58 -73 -92.5 -169t1.5 -156q27 -18 55 -12t44 12q15 6 29 11q104 43 187 93q3 2 7 2q7 0 11 -7q2 -2 3 -5
q12 -25 34 -53q9 -13 21 -27l2 -3l10 -11q22 -22 44 -28q28 -7 77 55q37 44 98 153l6 12q-40 -22 -92 -11q-45 17 -44 58q-1 31 21 61q22 28 51 54q34 27 61 34q36 10 75 -2q37 -10 22 -50q-7 -16 -13 -31q-11 -28 -20 -49q22 18 49 48q16 27 35 55q16 22 48 12
q32 -9 21 -39q-58 -73 -92 -169q-35 -96 1 -156q27 -18 55 -12t44 12q15 6 29 11q107 44 207 105q99 61 181 143q25 3 18 -11q-8 -13 -36 -36t-61 -48q-34 -24 -61 -41q-27 -18 -33 -21q-75 -47 -154 -88q-79 -40 -158 -66q-79 -18 -106 27t-16 108q7 52 45 144
q-17 -18 -38 -30q-2 -5 -8 -14l-28 -47q-9 -16 -20 -34q-21 -34 -45 -74q-21 -32 -42 -54t-47 -35q-52 -26 -91 27q-3 3 -4 5q-23 31 -39 57q-11 16 -25 38z" />
    <glyph glyph-name="uni0451_uni044F" unicode="&#x451;&#x44f;" horiz-adv-x="1350" 
d="M98 483v0q-23 3 -23.5 18t12 26.5t31.5 2.5q10 -8 9 -18.5t-9.5 -19t-19.5 -9.5zM160 483v0q-23 3 -23.5 18t12 26.5t31.5 2.5q10 -8 9 -18.5t-9.5 -19t-19.5 -9.5zM92 338q-21 -29 -46 -52q20 71 65 102q2 -22 -19 -50zM743 336q-38 -17 -63 -22q-56 -6 -39 41
q11 34 50 60q39 27 72 23q23 -5 19 -13l-1 -3l-2 -4q-17 -42 -36 -82zM441 133q16 -26 39 -57q1 -2 4 -5q39 -53 91 -27q26 13 47 35t42 54q24 40 45 74q11 18 20 34l28 47q6 9 8 14q21 12 38 30q-38 -92 -45 -144q-11 -63 16 -108t106 -27q79 26 158 66q79 41 154 88
q6 3 33 21q27 17 61 41q33 25 61 48t36 36q7 14 -18 11q-82 -82 -181 -143q-100 -61 -207 -105q-14 -5 -29 -11q-16 -6 -44 -12t-55 12q-36 60 -1 156q34 96 92 169q11 30 -21 39q-32 10 -48 -12q-19 -28 -35 -55q-27 -30 -49 -48q9 21 20 49q6 15 13 31q15 40 -22 50
q-39 12 -75 2q-27 -7 -61 -34q-29 -26 -51 -54q-22 -30 -21 -61q-1 -41 44 -58q52 -11 92 11l-6 -12q-61 -109 -98 -153q-49 -62 -77 -55q-22 6 -44 28l-10 11l-2 3q-12 14 -21 27q-22 28 -26 38q-1 3 -3 5q-4 7 -10 7t-10 -4q-65 -36 -154 -72q-92 -38 -160 -40
q-69 -2 -77 62q-5 44 7 107q26 11 62 40q35 29 59 63q24 35 17 64q-11 58 -56 54t-77 -42q-54 -71 -72 -163q-19 -91 14 -175q35 -57 122 -47t192 58q72 32 127 64q6 -8 18 -25z" />
    <glyph glyph-name="uni0432_uni0432" unicode="&#x432;&#x432;" horiz-adv-x="1069" 
d="M1095 360v0q6 6 13 3.5t9.5 -9t-3.5 -13.5q-57 -45 -121 -80t-130 -67l-8 -4q-93 -43 -191 -77q24 -35 27 -75q-1 -40 -14.5 -76.5t-32.5 -70.5q-36 -64 -86.5 -117t-117.5 -86q-7 -3 -14 -1.5t-13 5.5q-20 17 -24 42t-3 50v9q12 139 54 272q36 119 77 236
q-96 -64 -201 -110q-29 -12 -57 -24q-66 -29 -133 -55q37 -55 22 -117q-28 -98 -91.5 -179t-154.5 -128v0q-8 -4 -16 -1q-17 5 -26 20.5t-11 30.5q-9 131 47 307.5t115 322.5q13 33 24 61q8 20 17 40q48 117 103 231t129 218q15 20 36 37q1 0 3 1q17 8 33 9.5t26 -19.5
q4 -9 2 -17q-6 -28 -12 -52q-35 -160 -120 -298q-71 -117 -157 -223q-40 -98 -77 -197q13 5 31 3q17 -2 32 -10q101 3 232.5 61t214.5 119q45 124 96 247q68 170 153 332q8 13 15 27q37 76 97 135v0l19 8q13 5 25 0.5t18 -16.5q4 -9 2 -18q-5 -34 -13 -60
q-43 -183 -129 -350q-83 -160 -195 -302q-33 -89 -65 -178l1 1h1q38 11 68 -6q114 6 263.5 76.5t210.5 131.5zM322 830v0q-29 -46 -53 -96q-10 -19 -20 -39q-67 -133 -125 -270q119 148 180 327q12 37 18 78zM-117 -275v0v0v0v0zM43 83v0l-1 2q-7 -2 -15 -4q-22 3 -32 16
q-42 -118 -76 -240q-19 -61 -20 -122q101 70 153 184q2 5 5 12q13 29 22 62.5t-3 59.5q-5 9 -13 18t-17 12q-2 1 -3 1t0 -1zM851 872v0q-41 -79 -77 -161q-68 -151 -130 -306q151 198 223 435q2 10 5 19q11 40 17 82q-12 -21 -24 -43zM590 -81v0q2 5 5 12q13 29 22.5 62.5
t-3.5 59.5q-5 9 -13 18t-16 12q-2 1 -3 1t-1 -1v2q-8 -2 -17 -4q-23 2 -32 20q-24 -71 -46 -143q-20 -64 -35 -128q-1 -5 -3 -11q-11 -42 -10 -84q101 71 152 184z" />
    <glyph glyph-name="uni0441_uni0441" unicode="&#x441;&#x441;" horiz-adv-x="1269" 
d="M1296 357v0q5 5 10.5 3.5t8 -6.5t-2.5 -11q-75 -74 -198 -157.5t-257 -138.5t-241 -45q-66 10 -84 50.5t-3.5 95.5t45.5 107q-87 -76 -196 -148.5t-220 -118t-203 -40.5q-71 12 -83 66.5t13 126.5t63 136t67 97q36 44 90 79.5t113 6.5q20 -17 17.5 -37t-20 -31t-40.5 0
q-17 0 -33 -11t-30 -24q-4 -3 -7 -6q-107 -108 -161 -250q-2 -5 -4 -11q-5 -17 -10 -39.5t-4 -41t15 -25.5q68 -19 139 3t133 54q202 105 373 254q24 21 46 43l9 9q36 41 88 65.5t105 -4.5q20 -16 17.5 -36.5t-20 -31.5t-40.5 0q-31 6 -68.5 -26t-68.5 -75t-43 -70
q-9 -16 -18 -44t-9 -53.5t20 -34.5q73 -18 146.5 0.5t142.5 47.5q189 82 345 216q32 26 58 56z" />
    <glyph glyph-name="uni043E_uni0442" unicode="&#x43e;&#x442;" horiz-adv-x="1665" 
d="M1710 357v0q3 -3 3 -7.5t-3 -8.5q-45 -40 -96 -70q-104 -60 -223 -77q-34 -5 -63 1t-51 34q-20 24 -35 49l-4 8q-10 18 -24 34.5t-34 17.5q-33 -22 -56 -57l-10 -14q-16 -21 -32 -43q-35 -54 -82 -99q-37 -20 -57.5 12t-29 92t-8.5 125q-56 -73 -110 -148
q-48 -66 -97 -132q-8 -11 -16 -21q-27 -38 -58 -73l-2 -2q-3 -2 -5.5 -4.5t-7.5 -3.5q-7 -2 -14 2t-8 11q-1 17 4 32q1 3 1 6q19 61 46 120q32 66 50 137q6 29 -2 50q-20 33 -107.5 50.5t-194 23t-182.5 3.5q39 -62 22 -157t-58 -145q-45 -60 -119 -77q-56 0 -80.5 38.5
t-25.5 91.5t12 94q17 63 57 115.5t99 81.5q29 11 45 -8l-1 -1h1h2v0v0v0h36q79 3 189.5 0.5t206.5 -22t133 -68.5q18 -31 13.5 -72t-19.5 -82l28 48q84 147 178 288q17 20 38.5 19t36 -16.5t11.5 -41.5q-13 -57 -17.5 -128t4.5 -136q9 10 18 22q34 44 73.5 85t76.5 53.5
t65 -28.5q17 -35 36 -69q1 -1 2 -3q18 -37 47 -63q24 -16 59 -14t65 9l10 2q143 34 249 136q3 3 7.5 3t7.5 -3zM42 72v0q74 17 110.5 84t38.5 140q1 26 -3.5 54t-23.5 45q-5 -12 -20 -20q-55 -29 -89 -81.5t-43 -113.5q-3 -16 -3 -40.5t7 -44t26 -23.5zM154 439v0
q1 1 1.5 0.5t0.5 -1.5q-1 1 -2 1z" />
    <glyph glyph-name="uni043E_uni043F" unicode="&#x43e;&#x43f;" horiz-adv-x="1542" 
d="M1583 360v0q11 -7 -5.5 -24.5t-47 -39t-62 -41t-49.5 -30.5q-8 -5 -11 -7q-81 -50 -172 -78q-67 -19 -132 -6.5t-88 87.5q-14 58 -7 117q2 10 3 24q1 4 1 9q-135 -106 -245 -237q-38 -45 -66 -96q-3 -7 -5 -13h-1l-2 -2q-1 -4 -3 -7q-7 -16 -21.5 -21.5t-30.5 0.5
q-19 9 -23 27.5t8 35.5q19 35 35 70q34 69 35 143q-1 19 -4.5 37t-14.5 33q-21 21 -106.5 36t-189 23t-177.5 6q39 -62 22 -157t-58 -145q-45 -60 -118 -77q-56 0 -80.5 38.5t-26 91.5t11.5 94q17 63 57 115.5t100 81.5q28 11 45 -7l-2 -2h3v0v0v0v0q67 1 184 -2.5
t224 -20.5t142 -56q33 -45 38 -97.5t-7 -106.5q49 47 95 95q55 57 110 108q51 49 105 97q25 20 45 -15q10 -21 6 -42.5t-13 -42.5q-6 -16 -9 -31q-1 -1 -1 -3q-15 -46 -16 -93q3 -48 37.5 -64t79.5 -13t80 14q150 55 275 156q20 16 36 35q3 4 7.5 5t8.5 -2zM42 73v0
q74 17 110.5 84.5t39.5 139.5q0 26 -4.5 54.5t-23.5 44.5q-5 -12 -19 -20q-56 -28 -90 -80.5t-43 -114.5q-3 -17 -3 -40.5t7 -43.5t26 -24zM155 441v0l0.5 -0.5t0.5 -1.5q-1 1 -1 2z" />
    <glyph glyph-name="uni043E_uni043E" unicode="&#x43e;&#x43e;" horiz-adv-x="1287" 
d="M1339 356v0q1 -4 -0.5 -8.5t-5.5 -6.5q-32 -13 -66 -22q-99 -26 -203 -27q-35 -1 -93 3.5t-111 21.5q0 -36 -5 -71q-8 -64 -40.5 -121t-92.5 -85q-65 -31 -112 21q-32 45 -32.5 101.5t19.5 111.5q-70 -46 -150 -73q-52 -19 -117 -26t-126 7q-6 -17 -13 -33
q-30 -68 -96 -104q-57 -30 -97.5 -4.5t-52.5 85.5q-15 133 65 241q41 53 101 83q31 11 48 -11q10 5 20 2q14 -4 20.5 -16.5t9.5 -25.5q0 -2 1 -4q11 -34 13 -68q3 -61 -12 -120q31 -8 63 -9q92 -2 177.5 29t161.5 85q15 30 33 55q41 53 101 83q29 10 45 -8q14 11 30 -3
q30 -41 35 -91q43 -15 74 -21h1q132 -22 265 0q66 10 127 35q4 2 8.5 0.5t6.5 -6.5zM177 219v0q26 101 -3 186q-1 4 -3 7v0h-1t-2 -1q-1 -20 -22 -33q-23 -11 -42 -27q-21 -42 1.5 -77t71.5 -55zM172 412v0v0v0v0zM44 75v0q45 9 76 41t48 77q-60 22 -93 79q-9 18 -9 38
q-42 -57 -53 -127q-2 -17 -2.5 -41t6.5 -43.5t27 -23.5zM807 406v0q-2 -20 12 -34q-4 18 -12 34zM811 419v0v0v0v0zM680 75v0q76 15 113.5 93.5t31.5 163.5q-32 17 -43 46q-56 -29 -89.5 -81.5t-43.5 -113.5q-2 -17 -2.5 -41t7 -43.5t26.5 -23.5z" />
    <glyph glyph-name="uni043E_uni0438" unicode="&#x43e;&#x438;" horiz-adv-x="1408" 
d="M1447 361v0q5 -4 6 -10t-3 -11q-20 -27 -43 -49q-115 -114 -247 -206q-11 -7 -21 -14q-43 -29 -90 -53t-99 -28q-54 4 -76 46t-18 90q2 53 15 104q-26 -30 -52 -56q-34 -39 -81 -65q-60 -22 -87 12.5t-17 91.5q3 19 10 48q9 33 14.5 64.5t-2.5 46.5q-55 49 -162.5 51
t-211.5 -10q-39 -4 -71 -6q32 -49 26.5 -120.5t-26.5 -120.5q-20 -51 -60 -89t-95 -50q-56 0 -80.5 39t-25.5 91.5t12 93.5q17 63 57 115.5t99 81.5q31 11 47 -9q26 1 66 3t74 4q19 1 30 2q24 1 55 2q56 5 119.5 4t117 -17.5t79.5 -60.5l4.5 -9t4 -9.5l1.5 -4.5
q9 -48 -3 -96q-3 -11 -4 -22q-3 -15 -8 -29q-9 -28 -9 -54q0 -1 2.5 -3t5.5 -2.5t6 -0.5q44 17 88.5 74.5t81.5 117.5q22 35 39 58l12 13q14 9 30.5 5.5t25.5 -16.5q8 -11 7 -23t-9 -22q-4 -5 -7 -9l-0.5 -1t-1 -1.5t-1 -1.5t-1.5 -1q-13 -19 -24 -38q-15 -28 -25 -57
q-22 -59 -27 -120.5t25.5 -90t116.5 10.5q99 50 186.5 118.5t164.5 147.5q22 23 39 47q4 5 10 6.5t11 -2.5zM162 439v0v2t0 0.5v-1v-1.5v0zM51 73v0q75 17 111.5 85.5t38.5 142.5q0 25 -5 52t-23 43q-5 -12 -20 -20q-55 -28 -89 -80.5t-43 -114.5q-3 -16 -3 -40t7 -44
t26 -24z" />
    <glyph glyph-name="uni043E_uni0436" unicode="&#x43e;&#x436;" horiz-adv-x="1713" 
d="M51 73q75 17 111.5 85.5t38.5 142.5q0 25 -5 52t-23 43q-5 -12 -20 -20q-55 -28 -89 -80.5t-43 -114.5q-3 -16 -3 -40t7 -44t26 -24zM699 448q-170 -18 -201 -20q-112 -3 -216 -15q-39 -4 -71 -6q32 -49 26.5 -120.5t-26.5 -120.5q-20 -51 -60 -89t-95 -50
q-56 0 -80.5 39t-25.5 91.5t12 93.5q17 63 57 115.5t99 81.5q31 11 47 -9q26 1 66 3t74 4q19 1 30 2q24 1 55 2q56 5 127 10l201 18h1q52 5 96 -8q68 -21 74 -88q7 -68 -31 -154l-9 -20q66 76 96 109q13 15 31 14t1 -48q-8 -36 -34 -111q-2 -7 -5 -16q51 54 109 144l25 36
q54 72 95 99q27 20 63 28q35 8 67 -12q20 -15 17 -35q-3 -21 -20 -32q-18 -12 -40 -1q-49 -12 -95 -64q-47 -52 -83 -116q-21 -67 21 -122q30 -31 83 -37q61 -9 172 21q23 10 81 44q9 6 17 11q116 74 216 165q34 30 64 64q5 5 11 3q5 -2 7 -7t-2 -11q-82 -79 -205 -173
t-189 -118q-70 -30 -175 -31q-93 3 -125 46q-42 51 -33 149q-81 -99 -115 -164q-13 -15 -27 -13q-13 2 -11 15q2 12 6 32q13 60 24 92q3 11 7 23q6 17 11 33q-50 -46 -127 -125l-21 -30q-23 -31 -45 -45q-30 -25 -109 -25q-83 10 -139 103q-23 50 15 75q35 16 42 -29
q28 -66 94 -75q49 -11 100 63q22 29 38 65q36 64 53 110l6 21q12 33 13 65q1 31 -37 42q-55 16 -98 8z" />
    <glyph glyph-name="uni043E_uni0437" unicode="&#x43e;&#x437;" horiz-adv-x="1252" 
d="M25 97q-7 20 -7 44t3 40q9 62 43 114.5t89 80.5q15 8 20 20q18 -16 23 -43t5 -52q-2 -74 -38.5 -142.5t-111.5 -85.5q-19 4 -26 24zM351 -521q-14 28 -12 65t7 67q0 2 1 3q26 107 97 214q53 81 124 136q2 -12 2 -25q-2 -62 -38 -136l-13 -32q-49 -121 -168 -292zM630 397
q28 -21 23 -87q-6 -50 -35 -90q-30 -40 -63 -72q-34 -33 -49 -59t12 -47q31 -23 43 -53q-74 -55 -131 -135q-83 -117 -118 -235q-19 -64 -14 -130q6 -65 29 -90q14 -12 32 -11q19 2 31 17q104 140 183 289q15 26 30 59q21 43 37 86l5 13q22 66 14 127q-3 18 -9 34
q29 13 48 17t24 5q87 10 192 58t193 104t126 90q5 6 17 16q17 14 30 29q12 15 2 27q-4 3 -9 2q-6 0 -10 -5q-44 -54 -101 -94q-30 -23 -109 -68t-170 -83q-92 -37 -157 -47q-49 -7 -87 -27q-15 26 -41 50q34 42 63 89q28 46 39 98q10 77 -16 122q-20 34 -55 42
q-61 15 -119 16q-64 1 -120 -4q-31 -1 -55 -2q-11 -1 -30 -2q-34 -2 -74 -4t-66 -3q-16 20 -47 9q-59 -29 -99 -81.5t-57 -115.5q-13 -41 -12 -93.5t25.5 -91.5t80.5 -39q55 12 95 50t60 89q21 49 26.5 120.5t-26.5 120.5q32 2 71 6q104 12 212 10q45 -1 76 -7q42 -5 60 -19
z" />
    <glyph glyph-name="uni043E_uni0447" unicode="&#x43e;&#x447;" horiz-adv-x="1328" 
d="M51 73q75 17 111.5 85.5t38.5 142.5q0 25 -5 52t-23 43q-5 -12 -20 -20q-55 -28 -89 -80.5t-43 -114.5q-3 -16 -3 -40t7 -44t26 -24zM524 425l-32 2q-106 -2 -210 -14q-39 -4 -71 -6q32 -49 26.5 -120.5t-26.5 -120.5q-20 -51 -60 -89t-95 -50q-56 0 -80.5 39t-25.5 91.5
t12 93.5q17 63 57 115.5t99 81.5q31 11 47 -9q26 1 66 3t74 4q19 1 30 2q24 1 55 2q76 4 115 9q52 9 60 -31q10 -31 22 -53q40 -100 104 -55l41 41q17 19 38 13q20 -5 30 -24q10 -18 -5 -39q-33 -47 -55 -104q-16 -43 -16 -86q6 -50 75 -48q68 2 160 39q91 38 170 83t109 68
q57 40 101 94q4 5 10 5q5 1 9 -2q10 -12 -2 -27q-13 -15 -30 -29q-12 -10 -17 -16q-38 -34 -126 -90t-193 -104t-192 -58q-97 -13 -133 69q-9 34 -2 76q6 53 25 101q-32 -21 -71 -4q-40 16 -81 128q-5 18 -12 19z" />
    <glyph glyph-name="uni043E_uni0439" unicode="&#x43e;&#x439;" horiz-adv-x="1408" 
d="M1447 361v0q5 -4 6 -10t-3 -11q-20 -27 -43 -49q-115 -114 -247 -206q-11 -7 -21 -14q-43 -29 -90 -53t-99 -28q-54 4 -76 46t-18 90q2 53 15 104q-26 -30 -52 -56q-34 -39 -81 -65q-60 -22 -87 12.5t-17 91.5q3 19 10 48q9 33 14.5 64.5t-2.5 46.5q-55 49 -162.5 51
t-211.5 -10q-39 -4 -71 -6q32 -49 26.5 -120.5t-26.5 -120.5q-20 -51 -60 -89t-95 -50q-56 0 -80.5 39t-25.5 91.5t12 93.5q17 63 57 115.5t99 81.5q31 11 47 -9q26 1 66 3t74 4q19 1 30 2q24 1 55 2q56 5 119.5 4t117 -17.5t79.5 -60.5l4.5 -9t4 -9.5l1.5 -4.5
q9 -48 -3 -96q-3 -11 -4 -22q-3 -15 -8 -29q-9 -28 -9 -54q0 -1 2.5 -3t5.5 -2.5t6 -0.5q44 17 88.5 74.5t81.5 117.5q22 35 39 58l12 13q14 9 30.5 5.5t25.5 -16.5q8 -11 7 -23t-9 -22q-4 -5 -7 -9l-0.5 -1t-1 -1.5t-1 -1.5t-1.5 -1q-13 -19 -24 -38q-15 -28 -25 -57
q-22 -59 -27 -120.5t25.5 -90t116.5 10.5q99 50 186.5 118.5t164.5 147.5q22 23 39 47q4 5 10 6.5t11 -2.5zM162 439v0v2t0 0.5v-1v-1.5v0zM51 73v0q75 17 111.5 85.5t38.5 142.5q0 25 -5 52t-23 43q-5 -12 -20 -20q-55 -28 -89 -80.5t-43 -114.5q-3 -16 -3 -40t7 -44
t26 -24zM105 314q1 0 1 1q0 -1 -1 -1zM104 796l1 2q0 -1 -1 -1v-1zM943 509q15 19 0 35q-15 12 -29 3q-16 -17 -31 -30q-30 -26 -53 -16q-10 24 -7 52q-2 24 -35 19q-32 -10 -28 -32q0 -4 1 -9q9 -51 44 -73t95 14q22 18 43 37z" />
    <glyph glyph-name="uni043E_uni044D" unicode="&#x43e;&#x44d;" horiz-adv-x="935" 
d="M51 73q75 17 111.5 85.5t38.5 142.5q0 25 -5 52t-23 43q-5 -12 -20 -20q-55 -28 -89 -80.5t-43 -114.5q-3 -16 -3 -40t7 -44t26 -24zM444 155l-1 -1q1 0 1 -1v2zM-283 116l-1 -1q1 0 1 -1v2zM606 425q-48 8 -119 4q-101 -4 -205 -16q-39 -4 -71 -6q32 -49 26.5 -120.5
t-26.5 -120.5q-20 -51 -60 -89t-95 -50q-56 0 -80.5 39t-25.5 91.5t12 93.5q17 63 57 115.5t99 81.5q31 11 47 -9q26 1 66 3t74 4q19 1 30 2q24 1 55 2q56 5 117 6q48 4 100 0q27 -2 49 -10q39 -13 56 -52q5 -11 8 -25q15 -111 -65 -203q-31 -34 -65 -57q-20 -15 -35 -21
q-52 -28 -102 -12q-39 13 -99 74q-13 13 -2 24q11 7 22 -4q44 -46 102 -58q30 -6 83 47q32 29 58 72q3 5 5 9q-77 -1 -113 -2q-6 1 -9 2q-4 3 -4 7t3 7t8 3q48 2 126 4q13 28 19 60l1 7q2 17 1 35l-1 16q-4 26 -11 30q-16 13 -36 16z" />
    <glyph glyph-name=".null" 
 />
    <glyph glyph-name="nonmarkingreturn" horiz-adv-x="682" 
 />
    <glyph glyph-name="space" unicode=" " horiz-adv-x="300" 
 />
    <glyph glyph-name="space" unicode="&#xa0;" horiz-adv-x="300" 
 />
    <glyph glyph-name="exclam" unicode="!" horiz-adv-x="434" 
d="M250 874v0q14 25 36 23.5t35 -19.5t-1 -43q-48 -78 -81.5 -163t-59.5 -171q-56 -177 -76 -360q-1 -10 -8.5 -12.5t-14.5 1t-7 13.5q17 187 62 369q39 187 115 362zM40 -21v0q2 24 19 32t34.5 0t19.5 -32q-2 -24 -19.5 -32t-34.5 0t-19 32z" />
    <glyph glyph-name="quotedbl" unicode="&#x22;" horiz-adv-x="397" 
d="M211 728v0q11 28 34 29t37.5 -17t1.5 -45l-84 -133q-6 -8 -14.5 -8t-14.5 6.5t-4 16.5l4.5 15.5t11 37.5t13 44.5t11 38zM87 728v0q11 28 34 29t37.5 -17t1.5 -45l-84 -133q-6 -8 -14.5 -8t-15 6.5t-3.5 16.5l4.5 15.5t11 37.5t13 44.5t11 38z" />
    <glyph glyph-name="numbersign" unicode="#" horiz-adv-x="801" 
d="M682 374v0q11 0 15 -9t0 -17.5t-15 -9.5q-54 -1 -107 -4q-37 -80 -71 -162q39 -4 79 -11q11 -2 17 -11t5 -21q-3 -11 -12 -17t-20 -4q-45 8 -90 12q-18 -43 -34 -87q-34 -88 -52 -180q-9 -30 -32 -33t-39.5 14t-4.5 46q52 106 91 218q4 12 9 25q-105 0 -207 -28l-78 -153
q-5 -9 -13.5 -8.5t-14 6.5t-1.5 15l14 34t37 88q-42 -15 -83 -34q-15 -6 -25 2.5t-10 22t14 20.5q63 31 130 51q15 36 31 74l34 82q-65 -12 -128 -29q-14 -3 -21 5.5t-5.5 20t15.5 16.5q78 19 158 33q34 81 57.5 137l23.5 56q12 24 33.5 24t35.5 -16.5t4 -41.5l-76 -148
q86 12 173 17q19 45 39 91q25 59 49 117q13 24 34.5 24t35 -16.5t2.5 -42.5q-44 -84 -86 -170q44 2 89 2zM462 229v0q20 50 41 100q-91 -7 -180 -21l-78 -152q96 22 195 19z" />
    <glyph glyph-name="percent" unicode="%" horiz-adv-x="617" 
d="M326 161v0q12 16 31.5 23.5t37.5 -12.5q13 -24 5 -59t-24 -69t-28 -53q-17 -25 -38.5 -46t-54.5 -26q-18 0 -30.5 14.5t-12.5 31.5q3 48 20.5 88.5t39.5 79.5q3 6 7 13q21 25 47 15zM258 -38v0q32 13 58 47.5t41 76.5q-4 -4 -9 -8q-65 -42 -90 -116zM365 115v0q5 20 6 37
q-9 -5 -15 -14q8 -11 9 -23zM447 550v0q19 9 37 -1t25.5 -28.5t-5.5 -34.5q-230 -273 -418 -579q-8 -10 -19.5 -8t-19 12t-1.5 23q142 261 314 502q-66 -17 -128 -20v-1v0q6 -51 -20 -105t-67 -78q-15 -8 -35.5 -5t-36.5 17q-23 28 -21 60.5t11 60.5q1 5 2 9
q11 38 35.5 71.5t67.5 41.5q23 2 37 -12t16 -32q61 15 121.5 47t104.5 60zM155 316v0q7 7 19.5 24.5t22 37t9.5 34.5q-7 -4 -17 -5q-28 -10 -46 -46t-21 -70q8 3 15.5 9t13.5 13q2 2 4 3z" />
    <glyph glyph-name="quotesingle" unicode="'" horiz-adv-x="273" 
d="M87 718v0q11 28 34 29t37.5 -17t1.5 -45l-84 -133q-6 -8 -14.5 -8t-15 6.5t-3.5 16.5l4.5 15.5t11 37.5t13 44.5t11 38z" />
    <glyph glyph-name="parenleft" unicode="(" horiz-adv-x="591" 
d="M486 761v0q5 -7 3.5 -15.5t-9.5 -13.5q-236 -158 -332 -426q-43 -128 -33 -266t93 -248q16 -25 4 -44t-34.5 -21.5t-37.5 22.5q-100 208 -67.5 426.5t175.5 395.5q90 114 209 196q8 5 16 3.5t13 -9.5z" />
    <glyph glyph-name="parenright" unicode=")" horiz-adv-x="603" 
d="M427 725v0q76 -162 65 -333t-91.5 -325t-213.5 -266q-55 -47 -117 -85q-7 -4 -14.5 -2t-11.5 8q-4 7 -2 14.5t8 11.5v0q136 85 233.5 216.5t135.5 287.5t-5 315q-19 64 -56 119q-15 25 -2 43t35 19.5t36 -23.5z" />
    <glyph glyph-name="asterisk" unicode="*" horiz-adv-x="378" 
d="M257 720v0q7 4 13 0.5t7 -10t-5 -11.5q-30 -22 -61 -45q-20 -14 -40 -29q33 -33 74 -55q5 -3 7 -8.5t-1 -10.5q-5 -8 -13 -6.5t-18 7.5t-19 12t-14 9q-15 10 -29 22q-6 -35 -5 -71q0 -6 -5 -9t-10.5 -1.5t-7.5 8.5q-8 34 -7 69q-32 -23 -66 -43q-6 -3 -10.5 0t-5.5 8t3 9
q38 33 79 62q-8 8 -21.5 26t-20.5 34.5t5 22.5q4 2 8.5 0.5t7.5 -4.5q17 -23 35 -44q8 19 19 41.5t23 36t21 6.5q4 -3 5 -7.5t0 -9.5q-17 -32 -29 -65l6 4q11 7 21 14l5.5 4t13.5 9.5l16 11t13.5 9.5z" />
    <glyph glyph-name="plus" unicode="+" horiz-adv-x="560" 
d="M441 302v0q10 1 14.5 -6.5t2 -15t-13.5 -9.5q-82 -4 -167 -3q-15 -66 -37.5 -130.5t-59.5 -121.5q-8 -11 -19.5 -9.5t-18 11t-0.5 22.5q25 50 26.5 121.5t-38.5 110.5h-16q-25 0 -49 7q-2 1 -4 1q-5 1 -10 3.5t-8 7.5t-0.5 10.5t7.5 6.5q59 12 93 -16h18q26 -1 52 -1
q2 9 3 19q9 66 23 131q8 27 29.5 30.5t38 -10.5t10.5 -40q-18 -60 -33 -122l-2 -8q81 0 159 11zM196 192v0q8 38 14 78h-18q-14 1 -28 1q24 -33 32 -79z" />
    <glyph glyph-name="comma" unicode="," horiz-adv-x="391" 
d="M148 -15v0q3 16 -7.5 27t-26.5 9q-18 -4 -22.5 -14.5t-4.5 -23.5q0 -16 -6 -32.5t-29 -31.5q-11 -6 -11.5 -16t7 -17t19.5 -4q16 5 30 15q44 33 51 88z" />
    <glyph glyph-name="period" unicode="." horiz-adv-x="398" 
d="M42 -17v0q5 24 25.5 34t38.5 2.5t17 -36.5q-5 -24 -25.5 -34t-39 -2.5t-16.5 36.5z" />
    <glyph glyph-name="slash" unicode="/" horiz-adv-x="733" 
d="M555 710v0q18 20 38.5 14.5t30 -24.5t-6.5 -41q-168 -203 -301 -431t-245 -466q-4 -8 -12 -8.5t-13.5 5.5t-2.5 16q102 247 226 484t286 451z" />
    <glyph glyph-name="zero" unicode="0" horiz-adv-x="361" 
d="M341 480v0q10 -96 -18 -198.5t-71 -188.5q-20 -41 -49.5 -77.5t-72.5 -56.5q-66 -25 -93 21t-17 105q30 183 137 335q20 22 42 15l1 1q0 1 1 2l7 14q7 14 13 25q24 44 63.5 50.5t56.5 -47.5zM308 349v0q2 13 5.5 41t2.5 56.5t-10.5 43t-33.5 0.5q-22 -20 -34 -52
q-4 -8 -8 -15q-1 -3 -3 -6q-1 -2 -1 -4q12 -22 -9 -46q-13 -14 -25 -28q-8 -17 -15 -34q-7 -14 -20 -12q-68 -99 -94 -214q-13 -87 25.5 -92t89.5 52q53 66 83.5 146.5t46.5 163.5z" />
    <glyph glyph-name="one" unicode="1" horiz-adv-x="303" 
d="M216 527v0q16 19 36 15t30.5 -21t-0.5 -39q-150 -250 -242 -529q-4 -9 -11.5 -10t-13 4t-4.5 14q43 181 111 355v0v0q-21 -15 -40 -6.5t-25 28.5t13 39q81 61 141 142v1v0v0l1 1z" />
    <glyph glyph-name="two" unicode="2" horiz-adv-x="558" 
d="M482 531v0q30 -1 48 -23.5t11 -52.5q-14 -47 -45 -83q-2 -2 -4 -5q-67 -88 -145.5 -165t-161.5 -150q-14 -12 -27 -24q63 8 127 10.5t127 -10.5q13 -4 16 -14.5t-3.5 -20t-19.5 -7.5q-42 5 -86 2q-90 -8 -178 -28q-42 -9 -85 -17h-1.5t-3 0.5t-3.5 0.5h-3h-1
q-17 0 -25.5 12.5t-6.5 27.5t16 23q237 169 426 390q49 59 42 77.5t-45 11t-83 -29.5q-62 -33 -111 -84t-76 -115q-5 -11 -14 -11.5t-15.5 6t-3.5 17.5q40 101 132 178t202 84z" />
    <glyph glyph-name="three" unicode="3" horiz-adv-x="438" 
d="M230 504v0q80 46 139 14t44 -127q-18 -64 -61.5 -110t-98.5 -80q40 -30 41 -79q-4 -66 -52 -111q-47 -46 -94 -55t-82 2t-45.5 25t15.5 15q70 -32 138 8t78 115q-4 31 -16.5 41t-25.5 12q-10 2 -16.5 6t-7.5 15q1 11 10 17q11 10 23 19q41 32 77 69q28 28 48.5 63
t17.5 75q-3 21 -17.5 32t-34.5 8q-46 -7 -84.5 -36t-68.5 -65q-28 -31 -43 -70q-5 -12 -15 -13.5t-18.5 5t-6.5 18.5q20 60 61.5 107.5t94.5 79.5z" />
    <glyph glyph-name="four" unicode="4" horiz-adv-x="495" 
d="M459 485v0q15 -6 20.5 -20t-1.5 -29q-53 -108 -100 -219q2 1 5 1l8 2q13 2 19 -6.5t4 -18.5t-14 -14q-21 -4 -41 -8q-44 -106 -83 -214q-5 -12 -15 -13t-17.5 6t-4.5 19q28 95 59 190q-131 -24 -263 -33q-14 0 -19.5 12t4.5 22q81 84 156 175q76 90 143 186
q12 16 28 12.5t24 -17.5t-3 -31q-129 -168 -281 -315q114 11 225 32q1 2 2 5l4 12q45 123 94 244q6 14 19.5 20t27.5 0z" />
    <glyph glyph-name="five" unicode="5" horiz-adv-x="426" 
d="M411 490v0q5 -13 -1 -25t-20 -16q-53 -15 -109 -13q-21 1 -41 6l-1 -1q-5 -8 -9 -15l-42 -60q-16 -21 -31 -43q62 14 116 -18q65 -50 57.5 -128.5t-58.5 -134.5q-39 -43 -93.5 -64.5t-113.5 -12.5q-2 1 -5 2q-11 2 -23.5 6.5t-19.5 12t-2 20.5q4 6 10 8t12 -1
q71 -19 135.5 20.5t88.5 108.5q24 84 -27 117t-125 -3q-8 -3 -15 -0.5t-11 9.5q-5 12 3 21q22 24 41 51q37 53 67 111l4 6q-12 4 -23 10q-13 7 -12.5 19t9.5 19.5t22 2.5q14 -6 30 -10q3 4 7 7q8 5 17 1.5t11 -13.5q58 -3 112 18q13 4 24 -1t16 -17z" />
    <glyph glyph-name="six" unicode="6" horiz-adv-x="456" 
d="M437 534v0q9 -15 4.5 -31.5t-20.5 -25.5q-71 -37 -129 -93q-18 -13 -53 -53.5t-74 -94.5q58 16 109 0t64 -72q1 -39 -17 -72t-42 -62q-56 -69 -143 -88q-33 -7 -65.5 0.5t-47.5 41.5q-13 33 -1 81t40 103q1 4 3 7l2 2v1q42 78 93 147.5t85 105.5q59 65 136 116
q15 9 30.5 5.5t25.5 -18.5zM285 91v0q38 59 17 89.5t-70 34t-95 -18.5q-43 -63 -66.5 -118.5t-7.5 -84t91 -10.5q84 30 131 108z" />
    <glyph glyph-name="seven" unicode="7" horiz-adv-x="455" 
d="M398 535v0q17 7 29.5 -2t15 -24t-9.5 -27q-109 -100 -199 -216q29 2 48 -3t18 -19q-1 -8 -7 -13t-14 -4q-35 5 -71 4q-98 -132 -168 -281q-3 -6 -8.5 -8t-11.5 1q-6 2 -8 8t0 11q56 138 136 265q-27 -4 -53 -11q-7 -1 -11 4t-3 11t8 9t29 8t50 10q62 94 136 180
q-64 -12 -128 -3q-26 6 -32 26.5t6 38t39 14.5q107 -19 209 21z" />
    <glyph glyph-name="eight" unicode="8" horiz-adv-x="362" 
d="M289 526v0q54 -23 58.5 -79t-23.5 -102q-23 -41 -56 -75q18 -30 26 -66q16 -68 -11 -131t-88 -97q-34 -19 -74 -24.5t-73 17.5q-38 40 -32.5 89.5t35.5 96t64 77.5q34 30 74 52q-1 3 -1 7q-1 3 -3 5q-26 39 -41 78.5t3 84.5q20 39 60 58.5t82 8.5zM172 11v0q77 73 61 179
q-5 33 -22 63q-6 3 -11 8q-2 3 -4 5q-69 -36 -116.5 -101.5t-36.5 -140.5q15 -44 56.5 -42t72.5 29zM301 409v0q18 47 -6.5 74t-72.5 6q-37 -18 -45 -51.5t17 -68.5q10 -13 21 -27l8 -10q1 1 2 1q13 6 24 15q34 24 52 61z" />
    <glyph glyph-name="nine" unicode="9" horiz-adv-x="410" 
d="M384 507v0q13 -11 14.5 -26.5t-7.5 -28.5v0v0l-1 -1v0q-45 -59 -89 -119q-44 -61 -85 -123q-81 -125 -144 -261q-4 -7 -10.5 -7t-11.5 4.5t-2 12.5q56 158 137 304q-37 -27 -76.5 -49.5t-66.5 -22.5q-27 5 -29.5 28t7.5 44q58 143 190 226q49 32 107 50q18 5 30 -2
t18 -20q10 -2 19 -9zM50 229v0h2q145 82 241 220q-168 -61 -243 -220z" />
    <glyph glyph-name="colon" unicode=":" horiz-adv-x="262" 
d="M42 172v0q5 24 25.5 34t38.5 2.5t16 -36.5q-4 -24 -24.5 -34t-39 -2t-16.5 36zM80 389v0q5 24 25.5 34t38.5 2.5t17 -36.5q-5 -24 -25.5 -34t-39 -2.5t-16.5 36.5z" />
    <glyph glyph-name="semicolon" unicode=";" horiz-adv-x="298" 
d="M113 210v0q16 2 26.5 -9t8.5 -27q-8 -55 -52 -88q-14 -10 -30 -15q-12 -3 -19 4t-6.5 17t10.5 16q23 15 29 32t6 32q1 14 5.5 24t21.5 14zM116 389v0q5 24 25.5 34t38.5 2.5t16 -36.5q-5 -24 -25.5 -34t-38.5 -2.5t-16 36.5z" />
    <glyph glyph-name="less" unicode="&#x3c;" horiz-adv-x="570" 
d="M418 453v0q27 4 39.5 -13.5t7 -38.5t-32.5 -27q-165 -25 -304 -118q-9 -6 -18 -14t-14 -16q-7 -12 0 -18.5t21 -9.5t28 -5q11 -1 17 -3l27 -4.5t61 -10.5t60.5 -11l26.5 -5q7 -1 9 -7t-1 -11t-11 -5l-18 1.5t-44 4t-52.5 5t-44.5 4.5l-18 2q-6 0 -17 1q-10 1 -16 2
q-69 6 -76.5 50.5t42.5 86.5q145 117 328 160z" />
    <glyph glyph-name="equal" unicode="=" horiz-adv-x="462" 
d="M61 315v0q-12 2 -16.5 11t-0.5 18.5t16 11.5q143 15 285 0q8 -1 12.5 -7t3.5 -14q-2 -14 -22.5 -17.5t-42.5 -4.5q-14 0 -22 -1q-107 -5 -213 3zM345 248v0q8 -2 12.5 -8t3.5 -14q-2 -13 -22.5 -17t-42.5 -4q-14 -1 -22 -2q-107 -5 -213 3q-12 2 -16.5 11.5t-0.5 18.5
t16 11q143 15 285 1z" />
    <glyph glyph-name="greater" unicode="&#x3e;" horiz-adv-x="570" 
d="M385 405v0q69 -6 77 -50.5t-43 -86.5q-145 -117 -327 -160q-27 -4 -39.5 13.5t-7 38.5t31.5 27q160 24 295 112q11 7 23 16.5t19 19.5q7 12 -0.5 18.5t-21.5 9.5t-27 5q-12 1 -18 3l-26.5 4.5t-60.5 10.5t-61 11l-27 5q-7 1 -8.5 7t1.5 11t10 5l18 -1.5t44.5 -4t52.5 -5
t44 -4.5l18 -2q7 0 18 -1q10 -1 15 -2z" />
    <glyph glyph-name="question" unicode="?" horiz-adv-x="579" 
d="M272 883v0q110 11 158.5 -63t15.5 -174q-17 -46 -46 -85t-62 -75q-13 -15 -25 -30q-73 -81 -121 -178q-30 -66 -39 -138q-1 -6 -5.5 -10t-10.5 -3t-10 6t-3 11q7 37 16 74q17 74 52 141.5t78 129.5q15 20 29 40q29 38 54 78q39 67 34 122.5t-50 82.5t-125 6
q-67 -24 -105 -84q-13 -22 -14 -47q1 -3 1 -5q3 -14 1 -25.5t-18 -17.5q-16 -4 -26.5 7.5t-6.5 27.5q24 79 85.5 137t142.5 72zM101 -21v0q2 24 19.5 32t34.5 0t19 -32q-2 -24 -19 -32t-34.5 0t-19.5 32z" />
    <glyph glyph-name="at" unicode="@" horiz-adv-x="943" 
d="M594 620v0q132 -45 190.5 -165.5t9.5 -251.5q-24 -65 -79.5 -107t-125.5 -33q-50 7 -79.5 42.5t-35.5 83.5q-30 -40 -66 -73q-39 -38 -95 -33.5t-73 61.5q-5 43 15 79.5t49 65.5q33 33 76 52.5t92 15.5q32 -6 37 -31.5t-14 -43.5q7 0 12 -5t3 -13v0v0v0
q-11 -50 9.5 -97.5t74.5 -54.5q61 0 98 40t50 97.5t1 109.5q-24 108 -114 161t-197 45q-110 -6 -190 -77.5t-117 -172.5q-55 -144 20 -277q42 -78 118 -120t161 -40t156 57q27 23 43 52q8 16 24.5 21.5t33.5 -2.5q21 -12 23 -35t-17 -38q-90 -74 -201 -88.5t-212.5 29
t-162.5 144.5q-71 110 -57.5 234t88.5 228q77 110 201 146t251 -6zM369 142v0q34 25 65 55.5t47 69.5v2q1 1 1 3q1 2 2 3q-10 -4 -24 -2q-45 6 -86 -19.5t-65 -64.5q-17 -27 -9.5 -41.5t28 -16t41.5 10.5z" />
    <glyph glyph-name="A" unicode="A" horiz-adv-x="1888" 
d="M1858 1763v0q73 -5 103 -53.5t32 -114.5t-7 -122q-37 -223 -102 -438q-4 -14 -8 -29q-38 -133 -77 -266q-77 -258 -147 -517q19 -2 37 -4q15 -4 18.5 -15.5t-3.5 -21.5t-22 -8q-21 4 -41 7q-36 -134 -67 -270q-57 -250 -89 -506.5t14 -510.5q10 -44 25 -85q7 -21 -1 -39
t-28 -26q-21 -7 -40 2.5t-26 31.5q-13 49 -21 99q-23 168 -9 337.5t44 335.5q60 323 146 640q-351 56 -708 49q-198 -281 -377.5 -535t-296 -419.5l-116.5 -165.5q-21 -25 -46.5 -20.5t-38.5 27t4 51.5q9 14 225 320t521 739q-69 -3 -138 -8q-224 -16 -440 -81
q-36 -8 -53.5 14t-11 49.5t43.5 34.5q314 32 629 33q121 173 243 346q319 452 548.5 777.5t240.5 341.5q16 20 40 20zM1816 1023v0q2 7 5 19q17 66 46 199t39.5 256t-26.5 159q-30 -41 -314 -444t-658 -935q347 -5 692 -47q43 159 87 317q67 237 129 476z" />
    <glyph glyph-name="B" unicode="B" horiz-adv-x="2305" 
d="M1931 -194v0q177 -108 217.5 -224t-38 -221t-257.5 -180q-271 -99 -622.5 -138.5t-713.5 -10.5q-15 -60 -30 -121q-9 -36 -17 -73q-27 -124 -72 -244q-4 -10 -13.5 -14t-19.5 0q-16 7 -16 24q-1 3 -1 7q-36 224 -65 449q-404 62 -693 232q-14 9 -17 24t5 29q9 14 25 17
t30 -6q101 -71 217 -120q195 -78 427 -121q-13 112 -21 224q-31 374 31.5 744.5t251.5 698.5q144 251 361.5 453.5t495.5 290.5q66 151 131 301q16 29 42 29.5t43 -19.5t4 -52q-60 -116 -118 -234q27 6 54 10q123 16 247 -15t205 -132q61 -82 75 -182t2 -199
q-33 -224 -186.5 -411t-366 -333t-423.5 -248q43 -1 86 -5q195 -21 382.5 -76.5t357.5 -153.5zM587 755v0q-149 -251 -215 -524t-71 -557t28 -569q62 -10 124 -17q147 501 337 987.5t395 966.5q88 204 178 408q-251 -91 -447 -279t-329 -416zM410 -1070v0q14 55 30 109
q-53 6 -104 13q16 -136 38 -269q14 65 31 131q2 8 5 16zM2062 -506v0q4 48 -23.5 88t-62.5 72q-111 97 -284.5 180t-359 127.5t-332.5 26.5l-22 -6q-14 -6 -27 -12l-1 1q-3 -2 -7 -4q-16 -3 -29 5t-17 23t2.5 27t19.5 18q165 79 322 173q152 90 316.5 213.5t288 278
t154.5 338.5q34 242 -82 359t-359 95q-50 -7 -98 -18q-288 -578 -528 -1176.5t-404 -1223.5q342 -32 679.5 11.5t609.5 167.5q78 38 150.5 94t93.5 142z" />
    <glyph glyph-name="C" unicode="C" horiz-adv-x="2142" 
d="M1951 -159v0q7 41 36.5 48t52.5 -13.5t9 -59.5q-107 -179 -286.5 -358t-401 -326t-454.5 -229.5t-448 -67.5q-104 9 -201 48q-121 49 -172 156t-56 230q-12 218 43 428.5t154 402.5q196 380 466.5 713t618.5 584q100 70 218.5 125t243.5 39q47 -9 85.5 -39.5t56.5 -75.5
q18 -56 12.5 -114t-20.5 -113q-111 -422 -393 -759q-14 -16 -34 -17.5t-37 11.5q-17 15 -18 36t15 38q160 165 270.5 371t151.5 434q5 46 -9 90q-31 61 -88.5 72t-121.5 -7.5t-114 -45.5q-196 -110 -379 -280t-343 -365.5t-287 -380.5q-123 -183 -226 -384t-154.5 -416.5
t-20.5 -440.5q11 -63 41.5 -118.5t85.5 -89.5q58 -30 120 -46q182 -42 368.5 -2t361 128t321.5 192q87 63 206.5 164t215 217t111.5 221z" />
    <glyph glyph-name="D" unicode="D" horiz-adv-x="2410" 
d="M1919 1121v0q192 -210 248.5 -486.5t-3.5 -550.5q-66 -311 -241 -556t-426 -413.5t-546.5 -250.5t-601.5 -67q-221 7 -297 100t-35.5 228t169.5 269q58 61 123 113q58 311 176.5 660.5t296 670.5t410.5 548q-14 2 -29 3q-247 19 -475 -77q-197 -85 -340.5 -252
t-176.5 -381q-14 -121 38 -230q12 -30 -5.5 -48t-42.5 -14.5t-34 35.5q-33 174 16 340t158 304t254 231q151 94 325 133q188 41 381 17q124 106 263.5 170.5t292.5 78.5q110 7 218 -15q21 -5 32 -21.5t7 -37.5q-5 -21 -22 -32t-39 -7q-179 37 -340.5 -6.5t-302.5 -148.5
q320 -72 549 -307zM2070 103v0q41 207 15.5 417t-130.5 395q-108 180 -281.5 296t-377.5 159q-207 -182 -367.5 -439t-272.5 -526t-173 -485q-48 -170 -81 -345q218 145 475 197q191 39 385 14q65 -9 128 -25q18 -5 26.5 -20t4.5 -33q-5 -18 -20.5 -26.5t-33.5 -3.5
q-58 17 -117 27q-227 35 -449.5 -21t-411.5 -186q-26 -163 -26 -328q-2 -34 -26.5 -45t-48.5 0.5t-25 46.5q9 117 32 254q-38 -32 -73 -67q-77 -73 -131 -165q-71 -125 -42 -223.5t179 -129.5q153 -24 308 -12q272 18 526 117q384 147 655 448.5t353 708.5z" />
    <glyph glyph-name="E" unicode="E" horiz-adv-x="1771" 
d="M2448 1581v0q4 -40 -22 -54.5t-53 -2t-26 52.5q2 40 -33.5 56.5t-70.5 21.5q-80 10 -160.5 0t-159.5 -26q-129 -26 -255 -63q-508 -147 -906 -499.5t-602 -840.5q-25 -66 -37 -136t-4 -141q15 -116 86.5 -186.5t189.5 -73.5q124 2 240 48q119 45 234 107q19 10 38 4
t30 -25q9 -18 3.5 -37t-23.5 -29v-1h-1v0q-5 -3 -10 -5q-76 -42 -184.5 -129t-210 -197.5t-157 -220t-25.5 -195.5q30 -62 95.5 -78t130.5 -9q164 21 317 87.5t294 152.5q85 53 176 123t164.5 154t107.5 182q11 31 37.5 35t46.5 -13t13 -50q-43 -80 -105 -143t-130 -120
l-10 -8q-87 -75 -222.5 -164.5t-292.5 -165.5t-306.5 -109.5t-263.5 4.5q-72 28 -106 98q-37 88 1.5 197t123.5 221t187 211q-86 -24 -172 -26t-170 30q-91 38 -147.5 117t-71.5 174q-20 125 12 245.5t89 230.5q235 455 633.5 777t891.5 459q142 40 286.5 68.5t293.5 28.5
q72 1 135.5 -28.5t80.5 -108.5z" />
    <glyph glyph-name="F" unicode="F" horiz-adv-x="2046" 
d="M1881 237v0q33 0 46 -22.5t4 -47.5t-42 -31q-263 26 -528 1q-115 -327 -261 -643q-56 -191 -158 -376t-192 -314l-28 -40q-16 -19 -35.5 -16t-30 19.5t0.5 39.5q235 442 432 902q1 128 -83.5 210.5t-283.5 94.5q-27 1 -54 1q-40 -1 -80 4q-9 2 -17 6t-13 12q-8 20 4.5 32
t29.5 16q200 44 405 61q59 6 119 13q72 7 155 15q94 261 167 528t114 541q1 8 3 17q12 66 9.5 138.5t-54.5 115.5q-60 21 -126 15h-9q-130 -8 -257 -39q-164 -39 -333.5 -100.5t-322.5 -152.5t-267 -218q-56 -63 -95 -140.5t-37 -162.5q9 -108 78 -190.5t164 -127.5
q118 -54 247 -70q86 -11 175 -16q35 -6 43.5 -32t-6.5 -48.5t-50 -18.5q-119 21 -240.5 54.5t-226 95.5t-172.5 172q-105 177 -16 361q87 161 228 275t308.5 193.5t334.5 136.5q75 25 200 57.5t247 41.5t187 -35q71 -67 75.5 -161t-11.5 -185q-2 -16 -4 -31
q-78 -513 -247 -1003q45 5 91 10q228 24 413 42zM1163 -111v0q47 119 91 239q-67 -6 -133 -13q-58 -8 -117 -15q-135 -15 -268 -38q182 -18 273.5 -91t112.5 -183q21 50 41 101z" />
    <glyph glyph-name="G" unicode="G" horiz-adv-x="1817" 
d="M1732 385v0q13 1 18.5 -8.5t2 -19.5t-17.5 -13q-81 -4 -160 -23q-85 -20 -167 -49q-91 -367 -236 -715t-365 -655q-3 -4 -5 -7q-62 -88 -133.5 -169t-167.5 -134q-98 -50 -195 -28.5t-163 109.5q-78 117 -62.5 274t81.5 310t140 259q136 198 313 361q91 78 192 142
t207 120q159 81 327 147q169 571 265 1158q-42 -19 -77 -54q-8 -7 -15 -13q-75 -72 -147 -149q32 -109 9.5 -226.5t-77.5 -226.5q-16 -28 -40.5 -26.5t-38.5 22t1 48.5q55 80 86 173t17 189q-197 -217 -382 -445q-88 -106 -174 -208q-73 -87 -145 -174
q-100 -122 -203.5 -240t-218.5 -226q-64 -55 -119 -33.5t-70 105.5q-13 172 51.5 407t184.5 473.5t275 419.5t322 244q106 33 213 3.5t190 -99.5q70 -62 103 -136q65 70 134 136l18 16q42 44 99 65q19 4 35 -7t15 -31q-30 -149 -58 -298l-14 -74q-53 -279 -113 -556
q-23 -105 -49 -209q153 53 314 71zM308 69v0q276 303 537 618q153 183 309 363q16 19 32 37q62 72 126 143q-35 97 -117.5 158.5t-183.5 76.5q-115 17 -213 -50q-155 -111 -295.5 -329t-246.5 -460.5t-157 -428.5q-9 -32 -21 -103.5t-5.5 -130.5t53.5 -57q31 15 58 40
q6 6 11 10q59 54 113 113zM1613 1446v0v0v0v0v0zM773 -1019v0q179 297 316 614t239 647q-186 -71 -359.5 -168.5t-321.5 -230.5q-100 -98 -186 -209q-99 -128 -173.5 -272.5t-111.5 -301.5q-19 -90 -21 -185.5t42 -178.5q69 -99 170 -92t184 83q65 59 116.5 132t96.5 148
q5 7 9 14z" />
    <glyph glyph-name="H" unicode="H" horiz-adv-x="1959" 
d="M2165 1706v0q57 29 97 0.5t43 -77t-49 -81.5q-51 -44 -93 -100q-9 -11 -19 -22q-187 -243 -343 -509q-162 -272 -297 -559q131 66 258 138q30 14 51.5 -1t24 -41t-24.5 -45q-177 -69 -351 -144q-189 -417 -284 -864q-39 -201 -40 -406t60 -401q6 -20 -3 -38t-29 -25
t-38 2t-25 29q-38 217 -28 432q18 317 91 623t187 601q-392 -174 -778 -360q-202 -95 -403 -190q-33 -184 -54 -370q-6 -32 -31 -40.5t-47 5.5t-21 47q0 2 1 4l13 65q25 125 53 249q-153 -73 -299 -145q-21 -8 -35.5 3.5t-14.5 30t21 30.5q171 75 344 154q74 322 167 639
q139 475 330 932q13 31 27 62q12 22 32.5 21.5t33 -16t2.5 -39.5q-159 -323 -272 -664q-150 -440 -238 -898q231 105 457 210q144 68 288 135q229 105 455 215q140 347 311 678q5 9 9 18q91 172 189 340t217 322q23 29 55 50z" />
    <glyph glyph-name="I" unicode="I" horiz-adv-x="947" 
d="M806 1492v0q23 -69 25.5 -141t-2.5 -144q-1 -12 -1 -23q-56 -521 -193 -1027t-326 -993q-56 -139 -123 -274q-10 -19 -29 -25.5t-38 2.5q-19 10 -25 29t3 38q131 263 231 541q150 416 266.5 845t167.5 869q11 108 1 215l-2 14q-4 25 -12 49t-28 36q-50 8 -96.5 -8
t-88.5 -46q-116 -88 -201 -207.5t-150 -249.5q-77 -145 -113 -306t2 -324q28 -121 102.5 -221t192.5 -145q33 -15 33 -43t-22 -45.5t-55 -1.5q-172 108 -248.5 292.5t-62.5 381.5q10 114 46.5 221.5t85.5 209.5q50 102 123.5 219t168.5 210t211 122q52 10 94 -3.5t63 -66.5z
" />
    <glyph glyph-name="J" unicode="J" horiz-adv-x="1483" 
d="M1157 -99v0q33 10 52 -9.5t15.5 -46t-35.5 -39.5q-111 -34 -214 -101q-92 -253 -201 -499t-246 -478q-7 -12 -15 -24q-49 -80 -112 -159t-145 -121q-13 -4 -26.5 0t-24.5 11q-44 38 -43.5 98t13.5 112q0 4 1 7q61 225 175 428t258 384q103 126 226 234h-3h-3
q-192 3 -367 86.5t-294.5 231.5t-143.5 345q-20 212 67 394t236.5 328.5t318.5 252.5q123 81 257 140.5t278 86.5q107 17 148 -72.5t33.5 -249t-44.5 -350t-86 -373.5t-91.5 -320.5t-60.5 -191.5q-29 -86 -59 -173q65 39 136 68zM734 -210v0q90 -6 178 8q206 584 322 1189
q26 143 33 288q3 70 -8 137q-3 17 -10 33.5t-17 26.5q-5 4 -11 5t-13 0q-10 -1 -20 -3q-8 -2 -15 -3q-261 -52 -512.5 -207t-418.5 -363q-140 -177 -166.5 -391t98.5 -407q96 -140 244 -220.5t316 -92.5zM645 -887v0q105 244 198 493q-179 -157 -317.5 -360t-225.5 -395
q-16 -33 -45 -116t-40 -161.5t27 -98.5q75 49 145.5 151.5t130.5 221t103 215.5q13 27 24 50z" />
    <glyph glyph-name="K" unicode="K" horiz-adv-x="1476" 
d="M1636 1297v0q15 -16 14 -36.5t-17 -35.5q-304 -274 -584 -576.5t-504 -646.5q353 -113 565 -393t251 -644q9 -80 10 -162q-2 -33 -25 -44.5t-47.5 -1.5t-27.5 43q9 110 1 219q-28 329 -223 584.5t-514 352.5q-47 -224 -88 -449q-2 -10 -10.5 -16t-18.5 -4q-11 2 -16.5 10
t-4.5 19q36 227 79 454q-207 43 -407 -12q-21 -5 -38.5 4.5t-23.5 30.5q-6 24 7.5 43t38.5 21q220 15 432 -38q81 420 199 831.5t314 793.5q18 28 44.5 26t42 -22.5t2.5 -51.5q-186 -341 -306 -711.5t-206 -749.5q211 320 462.5 609t527.5 554q16 15 36 14.5t35 -15.5z" />
    <glyph glyph-name="L" unicode="L" horiz-adv-x="1146" 
d="M1405 -446v0q30 18 53.5 4t27 -41t-26.5 -48q-73 -36 -206 -114q-140 -81 -314 -175t-346.5 -168.5t-309 -98t-203.5 36.5q-58 68 -69 176.5t-5 196.5q9 134 35.5 266t60.5 262q104 389 260 761t386 703q80 111 179 207q16 15 35.5 15t35.5 -15q24 -27 8 -59
q0 -1 -16 -30t-40 -73.5t-50 -91.5q-31 -59 -53.5 -100.5t-23.5 -43.5q-11 -18 -30 -23.5t-38 3.5q-8 5 -13 11q-258 -421 -436.5 -938.5t-225.5 -925.5q-12 -95 1 -189q7 -44 32 -79q40 -37 95 -37.5t105 10.5q177 43 338.5 125t315.5 176q227 136 438 297z" />
    <glyph glyph-name="M" unicode="M" horiz-adv-x="2416" 
d="M2494 1890v0q-130 -259 -257 -528q-79 -165 -158 -329q-128 -443 -184 -897t-39 -783q7 -140 27.5 -287t70 -284t143.5 -246q14 -17 7.5 -34.5t-23.5 -24t-35 9.5q-41 44 -73 94q-136 234 -174 589.5t0.5 764t130.5 801.5q-106 -211 -218 -419t-238 -407q-9 -13 -19 -27
q-45 -70 -113 -159t-147 -148t-158 -41q-38 15 -50 68.5t-10.5 119t7.5 117.5q2 25 3 42q24 223 60 443q21 140 45 281q32 184 58.5 368.5t36.5 371.5q1 12 2 26q2 23 2 44t-7 30q-80 33 -166.5 -26t-170 -174.5t-156 -249.5t-126 -250.5t-79.5 -178.5q-239 -569 -414 -1162
q-7 -19 -24.5 -22.5t-31.5 7t-12 31.5l6 40.5t14.5 99.5t17.5 117.5t15 99l6 40.5q29 197 53 395t36 397q11 198 -6 395q0 23 16 32t33.5 3t20.5 -29q22 -310 -9.5 -624.5t-81.5 -626.5q150 417 326 823q85 195 183 385.5t225 363.5q40 55 94.5 107t119.5 77t138 -2l7 -4.5
t18 -17.5t22 -39t21 -68q13 -82 0 -164q-2 -14 -3 -28q-32 -271 -83 -537q-5 -27 -10 -53q-14 -76 -29 -158q-57 -294 -95 -571q-16 -108 -14 -216v0q1 -17 4 -34t10 -29q85 -4 196.5 114.5t237 320.5t253 448.5t246.5 497.5q135 477 307 769q57 99 138 185q11 11 25 11
t25 -10q17 -19 7 -41z" />
    <glyph glyph-name="N" unicode="N" horiz-adv-x="2198" 
d="M2103 1810v0q32 -138 25 -279q-6 -183 -33 -363t-66 -359q-58 -263 -153 -577t-230 -607t-314 -493q-153 -143 -259 -126.5t-176.5 132t-116.5 270.5q-83 281 -131 569.5t-84 579.5q-14 107 -29 214q-10 -17 -19 -34q-150 -365 -241.5 -752t-154.5 -776
q-15 -98 -24.5 -196.5t-4.5 -196.5q-1 -34 -25 -44t-46 3t-19 47q29 147 52 295l16 100q56 327 132 651q16 62 31 126q50 212 110.5 422t150.5 409q1 1 1 2q9 19 23 37t37 25q46 11 60 -35q34 -201 64 -409q22 -156 46 -307q8 -43 15 -86q32 -199 75 -396.5t118 -383.5
q2 -4 4 -7q22 -50 53.5 -98.5t81.5 -66.5q84 -4 161.5 63t140 157t101.5 157q239 440 402 998t193 1058q2 76 -3.5 152.5t-31.5 148.5q-44 107 -115.5 130t-172.5 -32q-74 -44 -127 -112t-98 -147q-17 -24 -40.5 -22t-37 21.5t-0.5 46.5q57 75 126 149t153.5 120t187.5 36
q79 -15 125.5 -78.5t66.5 -135.5zM564 804v0q4 0 7 1t4 3q0 2 -1.5 1.5l-4.5 -1.5q-2 -2 -5 -4z" />
    <glyph glyph-name="O" unicode="O" horiz-adv-x="2032" 
d="M1766 895v0q48 -327 -21 -650.5t-225 -612.5q-92 -171 -213 -324t-280 -266q-127 -91 -279 -130t-304 6q-182 63 -280 192t-128.5 296t-10.5 342.5t73 331.5q78 258 227 482q13 18 26 35q17 227 104.5 443.5t245.5 380.5q125 125 298 164q120 22 241 -0.5t222 -94.5
q139 -107 209 -266t95 -329zM1675 374v0q32 172 24.5 374.5t-71 385.5t-199 295.5t-358.5 104.5q-149 -11 -267.5 -96.5t-204.5 -218t-138.5 -283t-70.5 -290.5q54 63 120 116q12 9 26 7.5t23 -13.5t7.5 -26t-13.5 -23q-97 -81 -171 -184q4 -114 46.5 -229.5t111.5 -197.5
q85 -102 214 -123q129 -14 243.5 49t166.5 182q12 23 32 22t31.5 -17.5t-1.5 -38.5q-83 -113 -209 -175t-266 -49q-104 14 -182.5 82.5t-125.5 159.5q-72 138 -91 291q-99 -152 -161.5 -325t-95.5 -344q-25 -133 -20.5 -274.5t54.5 -269t162 -217.5q125 -94 254.5 -104
t253 45t229.5 156q252 242 419 563t228 665z" />
    <glyph glyph-name="P" unicode="P" horiz-adv-x="3246" 
d="M2773 1695v0q193 -57 289.5 -174.5t115 -270t-22.5 -315t-123 -310.5q-121 -221 -315 -411.5t-434.5 -324.5t-501 -183t-515.5 14q-115 -371 -240 -739q-31 -90 -61 -181q-7 -20 -25 -29t-38 -2q-22 7 -30.5 27t0.5 41q133 290 233 592q51 154 98 309q-73 24 -143 58
q-268 137 -418 399q-94 170 -125 363q-4 33 17 48.5t46.5 9.5t34.5 -38q-5 -137 35 -270q40 -126 120 -232q83 -110 197.5 -186.5t245.5 -117.5q101 337 172 680q28 137 48 276t23 279q3 33 27.5 44t48 -1t24.5 -47q-18 -216 -64 -428q-89 -415 -215 -821q24 -6 49 -11
q268 -46 539 34t511.5 252t416.5 401t253 480q74 259 17.5 423t-204.5 246t-348 95t-412 -29q-264 -51 -510 -159q-305 -135 -584 -320t-512 -424q-89 -92 -173 -209t-139 -247t-57 -263t75 -257q57 -87 150 -126.5t195 -22.5q33 3 47.5 -19t7.5 -47t-39 -33
q-204 -25 -336.5 77.5t-178 274t10.5 352.5q79 241 252 449.5t392 377t435 290.5q330 181 692 283q230 69 470 100t476 -27z" />
    <glyph glyph-name="Q" unicode="Q" horiz-adv-x="2417" 
d="M2319 -935v0q33 -5 42.5 -29.5t-3 -47.5t-46.5 -23q-280 46 -564 63q-247 16 -495 13q-198 -100 -419 -115q-176 -4 -288 66q-70 -9 -139 -19v-1v-3q0 -21 -13.5 -35.5t-34.5 -16.5l-300 -10h-4q-32 1 -44 23.5t-3 46.5t41 29q210 22 426 42q-144 151 -131 424
q7 202 69 395q41 126 100 244q-80 64 -143 149q-102 135 -125 294.5t39 316.5q88 210 259 357.5t382 224.5q249 87 460 44t372 -182t259.5 -339t122.5 -428t-40 -451q-89 -291 -263.5 -543t-428.5 -424q-27 -18 -56 -35q485 6 968 -30zM432 -798v0q36 -95 106 -149
q111 10 219 17q234 17 469 23q263 145 447.5 388.5t289.5 523.5q134 345 48 707q-59 249 -212.5 432.5t-372.5 255t-476 -15.5q-173 -60 -320.5 -170.5t-243.5 -266.5q-100 -167 -92 -342.5t126 -330.5q53 -66 116 -119q144 268 358 484q216 218 477 379q16 9 33 5t27 -19
q10 -17 5.5 -34t-20.5 -27q-255 -151 -467 -359t-356 -468q-1 -1 -1 -2t-1 -1q226 -153 505.5 -174.5t536.5 65.5q69 23 129 59q16 10 33.5 6t27.5 -20t6 -33t-20 -27q-39 -19 -79 -32h-1q-185 -58 -378 -69q-204 -15 -408 27t-374 155q-134 -258 -164 -546q-8 -81 -4 -163
t31 -159zM976 -1005v0q68 17 131 42q-173 -6 -346 -21q-65 -6 -131 -14q81 -29 170.5 -29.5t175.5 22.5z" />
    <glyph glyph-name="R" unicode="R" horiz-adv-x="2802" 
d="M2651 -329v0q20 5 36.5 -4t22.5 -29q6 -23 -7 -41t-37 -19q-41 -2 -81 -4q-67 -2 -133 -4q-182 -7 -379.5 14t-378.5 90.5t-312 206.5q-59 -29 -119 -57q-29 -102 -53 -204q-19 -77 -39 -153q-16 -58 -33 -116q-2 -26 -7 -51q-27 -147 -94 -278q-6 -12 -18 -16t-24 1
q-11 6 -15 16.5t-1 21.5q3 9 6 19q54 186 102 373q-5 91 -38 156t-82 103q-106 -42 -216 -69q-54 -14 -112 -14q-20 3 -16 21t17.5 38.5t21.5 30.5q0 1 1 1q56 68 138.5 78t158.5 -29l74 34q76 37 152 75q46 175 96 349q2 9 5 18l1 -1q0 1 1 2v4q13 26 37 28t41 -14.5
t11 -46.5q-21 -64 -41 -129q4 -28 13 -54q12 -29 27 -55q391 214 754 471q172 122 333.5 257.5t296.5 296.5q166 200 144 347t-284 232q-313 96 -655.5 49t-670 -201.5t-597 -382.5t-438.5 -495q-60 -99 -100 -207.5t-47 -224.5q-3 -75 13 -147q4 -31 -16 -46t-44.5 -9.5
t-32.5 36.5q-28 189 30.5 364t169 329t239.5 281q279 269 636.5 468.5t751.5 276t782 -21.5q98 -26 188 -77.5t140 -144.5q45 -109 12.5 -222.5t-111 -220.5t-171.5 -198t-170 -156q-514 -420 -1108 -716q78 -88 186.5 -142.5t220.5 -85.5q202 -51 411.5 -53.5t410.5 51.5z
M1311 -12v0q-11 -36 -21 -72q23 12 46 25q-15 24 -25 47zM839 -297v0q34 13 67 27q-65 25 -128.5 6t-105.5 -84q76 15 149 44q9 4 18 7zM1132 -366v0q16 73 33 145q-53 -24 -107 -47q-21 -9 -42 -17q72 -65 100 -154q9 36 16 73z" />
    <glyph glyph-name="S" unicode="S" horiz-adv-x="1527" 
d="M2554 1834v0q88 -19 114.5 -81.5t12 -139t-50.5 -138.5q-20 -29 -46.5 -26t-41 25.5t2.5 51.5q21 31 38.5 73.5t18 83.5t-32.5 66q-23 13 -50.5 13.5t-54.5 -3.5q-43 -6 -85 -14q-259 -56 -505 -154q-267 -106 -573 -262.5t-576.5 -358t-433.5 -440.5q-41 -66 -63 -142
t-7 -147.5t85 -124.5q69 -49 149 -79.5t163 -54.5q85 -24 167 -55q11 -5 22 -9q276 233 590 386q62 28 129 48q18 5 28 -6.5t7.5 -26.5t-20.5 -21q-128 -34 -245.5 -95t-226.5 -135q-114 -80 -224 -168q53 -25 94 -66q62 -67 78.5 -155t-7.5 -174q-27 -95 -85.5 -173.5
t-130.5 -143.5q-120 -107 -258 -190t-293 -130q-51 -14 -114.5 -15t-98.5 44q-27 58 11 144.5t99.5 172t106.5 140.5q7 9 13 17q203 239 444 458q-46 16 -95 32q-138 43 -264 103t-191.5 164t-21.5 278q61 189 246.5 372.5t445.5 350t545.5 304.5t546.5 235.5t448 142.5
q16 3 32 7q77 22 158 16zM851 -250v0q-46 42 -109 65q-354 -299 -607 -683q-1 -3 -3 -6q-16 -26 -36 -67t-29 -80t9 -62q63 -24 153 10t185.5 98t176 132.5t123.5 114.5q64 64 116.5 138t68.5 163q7 47 -4 94.5t-44 82.5z" />
    <glyph glyph-name="T" unicode="T" horiz-adv-x="1304" 
d="M2821 1465v0q21 -3 33 -19t10 -37q-3 -21 -19 -33.5t-37 -9.5q-366 57 -737.5 51.5t-739.5 -48.5q-49 -6 -117 -16q-347 -787 -535 -1628q61 -177 41.5 -388t-159.5 -464q-19 -22 -44 -21t-43 19t-15 47q1 4 1.5 10.5t1.5 13.5q1 15 2 22q23 217 58 433q31 192 71 383
q-79 201 -228 394q-47 67 -99 133q-82 104 -152.5 215t-104.5 239q-15 85 26 159.5t107 124.5q167 122 418.5 204t535.5 131q47 111 97 220q19 35 51 35.5t52.5 -23.5t6.5 -63q-34 -72 -67 -146q479 68 833 82q188 8 375.5 5t376.5 -25zM564 -948v0q124 276 83 524
q-55 -270 -91 -543q4 10 8 19zM757 431v0q135 459 319 900q-152 -25 -324 -67.5t-328 -103.5t-260 -144.5t-120 -190.5q8 -125 87.5 -251.5t191.5 -263.5q78 -98 154.5 -204.5t137.5 -225.5q62 278 142 551z" />
    <glyph glyph-name="U" unicode="U" horiz-adv-x="2327" 
d="M2515 1672v0q21 -11 28.5 -32.5t-1.5 -43.5q0 -2 -1 -3q0 -1 -1 -2v0v-1l-1 -1l-44 -106q-13 -29 -25 -58q-75 -169 -158 -334q-16 -32 -33 -65q-155 -338 -287 -685t-220 -705.5t-110 -731.5q-6 -46 1.5 -113.5t37 -116t91.5 -38.5q23 3 34 -11.5t7.5 -32.5t-25.5 -25
q-82 -16 -132 29.5t-72 118.5t-20 140q12 402 100 789t226 762q-240 -357 -522 -682q-151 -173 -311.5 -338.5t-339.5 -310.5q-75 -57 -162 -97q-121 -58 -244.5 -38.5t-206.5 130.5q-81 120 -104 263t-18 286q8 395 105.5 778t271.5 738q17 28 43 27.5t42.5 -21t3.5 -51.5
q-165 -323 -264.5 -672t-121.5 -711q-9 -132 -2.5 -266.5t58.5 -257.5q59 -134 169.5 -171t242.5 22q82 36 154 89t139 112q708 624 1172 1447q176 432 369 853q24 53 47 106q12 25 35.5 34t48.5 -3z" />
    <glyph glyph-name="V" unicode="V" horiz-adv-x="1771" 
d="M2081 2099v0q78 -6 112 -50.5t32.5 -106.5t-28.5 -123q-139 -299 -296.5 -589t-322.5 -575q-194 -333 -398 -660q1 -38 4 -76q5 -54 17.5 -123t40 -128.5t77.5 -88.5q28 -14 30.5 -39.5t-15.5 -43.5t-51.5 -9t-77.5 62q-49 71 -70.5 156.5t-27.5 175.5
q-215 -340 -454 -664q-13 -16 -33 -43q-42 -56 -101 -126t-118 -117.5t-100 -34.5q-47 21 -83 91.5t-60 150t-34 129.5q-125 712 -55 1432q15 145 42.5 287.5t79.5 280.5q8 20 26.5 27.5t38.5 0.5q19 -8 27 -26t1 -38q-87 -268 -115.5 -615.5t-12.5 -699t60 -632.5
q6 -35 11 -71q9 -59 21.5 -117t36.5 -112q6 -14 15.5 -26.5t22.5 -14.5q54 22 94 69l18 18q96 104 181 217t166 229q164 241 322 486q-1 50 -1 96q7 232 56.5 510t143.5 557t235.5 513t332.5 378q47 33 99 58t111 25zM2138 1806v0q27 54 38.5 120.5t-41.5 106.5
q-61 30 -122.5 4.5t-112.5 -63.5q-85 -61 -154 -139.5t-125 -166.5q-205 -333 -322.5 -757.5t-120.5 -831.5q532 835 960 1727z" />
    <glyph glyph-name="W" unicode="W" horiz-adv-x="2024" 
d="M1953 2004v0q21 -137 8 -274t-37 -272q-10 -57 -18 -114q-130 -734 -349 -1446q-70 -223 -155 -441t-205 -419q-38 -61 -84 -118t-106 -99q-76 -51 -154 -38t-130 90q-79 135 -103 361.5t-7 498.5t59.5 543.5t95.5 497.5q-215 -298 -491 -541q-13 -10 -29 -24
q-17 -15 -31 -26q-74 -61 -128.5 -58t-76 56t4.5 142q95 385 302 724q72 118 155 229q22 26 48.5 20t38.5 -30t-9 -52q-161 -190 -278 -409q-118 -220 -185 -460q0 -3 -1 -7q-11 -36 -18.5 -79.5t7.5 -63.5t72 15q458 360 709 886q16 28 41.5 29t42.5 -18t8 -50
q-96 -280 -169 -632.5t-96.5 -708.5t27.5 -646q21 -100 65 -164t109.5 -66t152.5 86q92 101 157 222.5t119 246.5q209 514 344 1053t205 1089l4 40q14 123 13.5 247.5t-47.5 239.5q-12 30 5 50t43.5 20.5t42.5 -29.5q19 -50 28 -101z" />
    <glyph glyph-name="X" unicode="X" horiz-adv-x="1888" 
d="M2077 1464v0q18 24 14.5 51.5t-26.5 45.5q-24 18 -51 14t-46 -26q-1 -3 -33 -45t-74.5 -97t-74.5 -97t-34 -44q-271 -353 -547 -701q-249 -317 -507 -629q-254 -307 -498 -617q-68 -85 -142 -169q-16 -17 -31 -35q-2 -2 -4 -5q-10 -9 -17 -21t-2 -26q6 -17 23.5 -22
t31.5 6q72 57 140 121q193 179 290 412t128.5 490t26.5 509q-9 402 -51 803q-5 31 -28.5 40.5t-46 -2t-24.5 -41.5q2 -77 11 -153l2 -24q98 -801 368 -1561l6 -14q35 -92 87 -206.5t123 -219.5t163 -166.5t206 -45.5q28 5 53 15q19 10 26 28.5t-1 38.5q-10 19 -28.5 25.5
t-38.5 -1.5q-31 -15 -64 -17q-55 -3 -103.5 24t-86.5 66q-148 162 -260 440t-189 604.5t-120.5 634.5t-54.5 529l-99 -9q71 -346 97.5 -701t-24.5 -706q-44 -287 -169.5 -502t-358.5 -389q-2 0 -3.5 0.5t-2.5 2t0 3.5v0v0v0v1q1 0 1 1q1073 1149 2043 2387z" />
    <glyph glyph-name="Y" unicode="Y" horiz-adv-x="1641" 
d="M875 -98v0q-15 -33 -38 -86q-56 -123 -128 -298t-120.5 -343t-33.5 -267q61 235 159 457.5t222 431.5q160 265 347 514q12 15 29.5 17.5t33.5 -8.5q16 -13 17.5 -32.5t-13.5 -35.5q-54 -53 -104 -110q-227 -260 -391 -564.5t-253 -638.5q-12 -49 -21 -98q-1 -9 -7.5 -14
t-14.5 -4q-17 6 -27.5 22.5t-16.5 31.5q-18 60 -14 121.5t15 121.5q0 2 1 4q33 165 87.5 323.5t116.5 314.5q219 536 482 1052q-197 -272 -400.5 -488t-378.5 -285q-57 -20 -114.5 -11t-108.5 39q-96 58 -140.5 173.5t-53 257.5t3.5 278t28 234q17 107 44 213
q9 27 31.5 31.5t40.5 -10t14 -42.5q-21 -107 -43.5 -262.5t-27 -323t28 -308t121.5 -217.5q95 -60 224 9t275.5 223.5t291.5 352t271.5 395t216.5 351.5q59 106 120 212v0v0v0v0q16 25 39.5 23.5t37.5 -20.5t1 -46q-32 -62 -64 -123q-204 -387 -403.5 -778.5t-382.5 -789.5z
" />
    <glyph glyph-name="Z" unicode="Z" horiz-adv-x="1860" 
d="M1613 357v0q36 6 52 -17t8 -50t-45 -32q-126 -9 -248 -37q21 -81 11 -165q-16 -235 -111 -449.5t-260 -382.5q-150 -150 -341 -249t-407 -106q-50 -1 -109.5 13.5t-105 47.5t-55.5 90q-5 126 69 266.5t180.5 266t197.5 207.5q308 279 692 440q64 27 130 51
q-41 79 -104 141q-141 142 -328 215q-39 16 -92 27t-95 -5q-7 -5 -15 -10v1l-4 -4q-31 -11 -51.5 4t-22 40.5t25.5 43.5q103 57 195 130q285 220 443 542q27 76 -15 98.5t-108.5 15t-113.5 -24.5q-236 -78 -419 -248q-108 -100 -178 -230q-93 -174 -62 -366q4 -36 -19.5 -51
t-49.5 -5t-30 46q-2 180 74 335.5t203 278.5t278 206q60 34 150.5 70t180.5 43.5t148 -42.5q35 -42 26.5 -98t-39.5 -114.5t-63 -107.5q-16 -25 -28 -45q-169 -254 -411 -440q38 -11 75 -25q19 -6 37 -12q142 -55 280 -149.5t215 -230.5q128 43 259 77zM1299 132v0
q1 34 -8 66q-345 -101 -632 -323.5t-478 -524.5q-2 -2 -3 -4q-42 -72 -77 -152t-31 -164q3 -23 19 -36t35 -22q3 -2 5 -3q70 -29 146 -26.5t149 21.5q309 89 530 323t303 543q37 148 42 302z" />
    <glyph glyph-name="bracketleft" unicode="[" horiz-adv-x="564" 
d="M453 729v0q11 -6 10.5 -16.5t-8.5 -17t-19 -1.5q-73 27 -152 14q11 -56 4 -113q-9 -97 -23 -192q-52 -323 -173 -627q61 28 126 34q13 2 23 -5.5t12 -20.5q1 -14 -8 -24.5t-24 -10.5q-42 3 -82 -2q-39 -5 -72 -27q-7 -4 -13.5 -2.5t-10 7t-1.5 13.5q123 392 165 801
q2 20 3 41q3 42 9 83t24 77q4 6 10 6q103 22 200 -17z" />
    <glyph glyph-name="backslash" unicode="\" horiz-adv-x="733" 
d="M630 -225v0q3 -6 0.5 -12t-8.5 -9q-6 -2 -12 0t-8 8q-166 361 -387 690q-74 108 -159 207q-16 22 -6.5 41t30 24.5t38.5 -14.5q163 -215 286 -453q125 -236 226 -482z" />
    <glyph glyph-name="bracketright" unicode="]" horiz-adv-x="565" 
d="M437 762v0q7 5 14 3.5t10.5 -7.5t0.5 -14q-104 -332 -151 -676q-12 -93 -19 -187q-2 -73 -31 -139q-4 -6 -10 -6q-103 -22 -200 17q-11 6 -10.5 16t8.5 16.5t19 1.5q73 -27 152 -13q-11 56 -4 113q9 96 23 191q51 322 172 625q-60 -33 -127 -41q-13 -1 -22.5 6.5
t-11.5 19.5q-2 15 7.5 25t23.5 10q41 -2 81 7t75 32z" />
    <glyph glyph-name="asciicircum" unicode="^" horiz-adv-x="365" 
d="M259 574v0q6 -7 3 -14t-10 -10t-14 3q-43 35 -59 88q-32 -34 -68 -64q-6 -4 -14 -11q-14 -12 -29 -20t-25 5q-3 6 -1.5 12t6.5 10q76 65 125 153v0q8 12 20.5 15t24.5 -5q13 -12 10 -28q-7 -36 -1 -70q9 -36 32 -64z" />
    <glyph glyph-name="underscore" unicode="_" horiz-adv-x="721" 
d="M590 -64v0q15 -1 23 -7t6 -14q-2 -10 -20.5 -14t-45 -5.5t-52.5 -2.5q-25 0 -39 -1q-195 -5 -389 3q-33 3 -33 20t33 21q259 15 517 0z" />
    <glyph glyph-name="grave" unicode="`" horiz-adv-x="281" 
d="M176 583v0q5 -7 1.5 -13.5t-10.5 -8t-13 3.5l-10 10.5t-25 25.5t-29.5 30t-25 25.5l-10.5 10.5q-14 17 -6.5 32t24 18.5t29.5 -13.5z" />
    <glyph glyph-name="a" unicode="a" horiz-adv-x="699" 
d="M709 355v0q4 7 11 6t11 -6.5t0 -12.5q-29 -41 -67 -72.5t-79 -59.5q-7 -5 -13 -9q-99 -68 -191 -104.5t-159.5 -14t-94.5 133.5q-66 -98 -142 -189q-40 -40 -82.5 -22.5t-33.5 75.5q41 182 171 316q42 43 103 69q24 9 39.5 -6t14.5 -36.5t-25 -31.5
q-75 -38 -125.5 -107.5t-78.5 -150.5q82 106 153 220q11 17 29.5 18t32 -11t12.5 -32q-20 -61 -10.5 -125.5t75.5 -90.5q99 1 200 56t180 116q41 30 69 71z" />
    <glyph glyph-name="b" unicode="b" horiz-adv-x="552" 
d="M574 358v0q5 5 10 3t6.5 -7t-3.5 -9q-91 -69 -192 -120t-205 -91q-23 -8 -48 -18h-1q20 -30 26 -64q-1 -76 -39.5 -146t-91.5 -127l-3 -3q-17 -17 -46.5 -42t-59 -39t-46.5 4q-34 70 1 233t106.5 359t146 365t117.5 251q9 15 17 30q21 40 46 77.5t62 65.5q19 14 37 4
t16 -32q-22 -110 -57 -215q-72 -199 -191 -377q-1 -2 -5 -7q-11 -16 -35.5 -51.5t-51.5 -69.5q-33 -87 -64 -175l6 2q38 11 68 -6q113 5 258 72.5t216 132.5zM366 946v0q-48 -80 -85 -166q-16 -34 -33 -68q-69 -154 -130 -310q155 203 226 442q2 8 4 17q13 42 18 85zM55 85
v0l-1 1q-8 -2 -17 -4q-22 2 -30 19q-10 -29 -19 -59q-12 -40 -25 -80q-19 -56 -33 -112.5t-15 -113.5q65 44 110 109t66 138q7 25 6 49q-3 16 -15.5 33t-26.5 20z" />
    <glyph glyph-name="c" unicode="c" horiz-adv-x="631" 
d="M648 346v0q5 5 10.5 3t7.5 -7t-2 -11q-82 -79 -205 -173t-257.5 -160t-249.5 -61q-79 16 -85.5 83.5t31.5 153.5t92 158.5t95 99.5q27 20 62.5 28t67.5 -12q20 -15 17 -35.5t-20.5 -32t-39.5 -0.5q-49 -12 -95.5 -64t-82.5 -116t-53 -110q-3 -10 -6 -21
q-12 -33 -13 -64.5t35 -37.5q107 -7 206 37.5t188 101.5q9 6 17 11q115 74 216 165q34 30 64 64z" />
    <glyph glyph-name="d" unicode="d" horiz-adv-x="542" 
d="M500 975v0q11 -6 14.5 -16.5t-0.5 -22.5q-122 -287 -211 -584t-153 -598q-4 -17 -17.5 -26.5t-30.5 -8.5q-16 3 -25 16t-5 30q92 410 232 811q-71 -128 -148.5 -250.5t-172.5 -234.5q-32 -36 -75.5 -48.5t-65.5 37.5q-11 47 10 93t50 86q41 56 100.5 101.5t130.5 41.5
q13 -2 20 -9q89 152 169 310q45 87 91 172l7 13t15.5 29.5t15 29l6.5 12.5q7 12 19.5 16.5t23.5 -0.5zM-20 141v0q70 87 129 181q-64 -15 -114.5 -67.5t-81.5 -109.5q-21 -53 -12 -61.5t33 10.5t46 47z" />
    <glyph glyph-name="e" unicode="e" horiz-adv-x="635" 
d="M665 360v0q10 -12 -2.5 -27t-29.5 -29q-12 -10 -17 -16q-38 -34 -126 -90t-193 -104t-192 -58t-122 47q-33 84 -14.5 175.5t72.5 162.5q32 38 77 42t56 -54q7 -29 -17 -63.5t-59.5 -63.5t-61.5 -40q-12 -63 -7 -107q8 -64 76.5 -62t160 39.5t170.5 82.5t109 68
q57 40 101 94q4 5 9.5 5.5t9.5 -2.5zM112 388v0q-45 -31 -65 -102q25 23 46 51.5t19 50.5z" />
    <glyph glyph-name="f" unicode="f" horiz-adv-x="515" 
d="M554 356v0q3 -4 2.5 -8.5t-4.5 -7.5q-93 -79 -191 -151q-99 -72 -203.5 -140t-215.5 -120q-19 -71 -34 -143q45 -55 35.5 -126.5t-90.5 -151.5q-8 -8 -18 -8t-17 7t-5 18q14 132 39 264q-15 13 -34 24q-49 30 -106 45q-8 2 -9.5 9t2 13.5t11.5 7.5q86 15 168 47
q57 240 155 469q60 145 152 277q17 21 38 17t30.5 -22.5t-7.5 -40.5q-105 -154 -179 -323.5t-122 -347.5q105 50 203.5 114t192.5 131q98 71 190 148q5 3 9.5 3t7.5 -4zM-127 -401v0q45 68 23 130q-13 -65 -23 -130zM-140 -170v0l16 72q-48 -18 -96 -31q45 -16 80 -41z" />
    <glyph glyph-name="g" unicode="g" horiz-adv-x="474" 
d="M227 434v0q12 19 31.5 20.5t33 -11t8.5 -34.5q-70 -304 -165 -603q16 2 27.5 -1t12.5 -18q-2 -6 -7 -10t-11 -3q-16 3 -32 2q-60 -181 -144 -355q-78 -159 -182 -306q-12 -16 -30.5 -17.5t-32.5 11.5q-23 26 -28.5 94.5t13.5 135.5q35 124 118.5 247t202.5 189
q73 214 127 433q-37 -59 -84 -110q-65 -69 -126.5 -59t-58.5 108q12 77 51 146t97 125q61 54 103 62t61 -9t11 -39.5t-46 -29.5q-46 -10 -97.5 -68.5t-82 -128t-13.5 -111.5l-5 2q38 -16 73.5 18t65 87t48.5 95q7 15 13 26q13 30 26 61q11 25 22 51zM-240 -807v0
q171 258 270 546q-105 -66 -176.5 -179.5t-97.5 -225.5q-1 -1 -1 -3q-5 -31 -7 -70t12 -68z" />
    <glyph glyph-name="h" unicode="h" horiz-adv-x="726" 
d="M739 353v0q8 8 16 6t11 -9.5t-5 -15.5l-44 -42q-72 -72 -153 -133t-177 -80q-104 5 -130.5 82t-2.5 172q-72 -49 -141.5 -108t-117.5 -127q-28 -80 -56 -159q-3 -11 -12 -14.5t-17.5 0.5t-8.5 15q-6 88 42 166q101 370 235 732q-16 6 -23.5 21t4.5 35q51 81 104 159
q14 20 33.5 19.5t32 -15t4.5 -36.5v0q-156 -386 -290 -785q65 69 138 128q67 55 135 105q18 13 35.5 7t24.5 -22.5t-5 -35.5q-43 -49 -69 -110t-15 -123q20 -69 79.5 -78t120.5 28q97 56 177 136q40 39 75 82z" />
    <glyph glyph-name="i" unicode="i" horiz-adv-x="523" 
d="M538 357v0q25 3 17.5 -10.5t-35.5 -36.5t-61.5 -47.5t-60.5 -42t-33 -20.5q-75 -47 -154 -87.5t-166 -63.5q-71 -21 -98 24t-16 108q11 99 69 180q17 19 37.5 13.5t30.5 -24t-5 -39.5q-33 -47 -55 -104.5t-14 -114.5q21 -20 58 -13t70 21q16 6 28 9q107 44 206.5 105
t181.5 143zM63 456v0q-37 5 -38.5 33t20 49t51.5 3q18 -13 16 -32.5t-16 -35.5t-33 -17z" />
    <glyph glyph-name="j" unicode="j" horiz-adv-x="268" 
d="M1 360v0q6 26 27 32t38.5 -4.5t12.5 -36.5q-52 -279 -138 -553q35 8 71 9q12 -1 15 -10t-1.5 -18t-17.5 -9q-25 2 -52 -2q-13 -1 -26 -4q-9 -26 -18 -51q-56 -159 -136 -310t-190 -284q-15 -17 -36.5 -16t-30.5 21q-6 21 -1 42q2 11 2 23q-6 157 85 322t242 251
q48 140 83 282q39 157 71 316zM-441 -792v0q178 238 274 515q-12 -7 -23 -15q-89 -65 -150.5 -158.5t-89.5 -197.5l-4 -20q-7 -30 -10.5 -63t3.5 -61zM105 576v0q13 -9 15 -25t-8 -30q-3 -5 -7 -10q-9 -14 -21.5 -26.5t-28.5 -11.5q-24 1 -33.5 21t5.5 40q13 23 33 40t45 2z
" />
    <glyph glyph-name="k" unicode="k" horiz-adv-x="651" 
d="M687 357v0q11 -9 -4.5 -33t-43 -52t-53.5 -51.5t-36 -31.5q-80 -64 -174 -100q-95 -35 -192 -41t-192 8q-5 0 -8 4q-10 -22 -19 -45q-10 -36 -21 -72q-2 -10 -10.5 -15t-17.5 -4q-18 8 -16 28t11 42q6 17 8 30q3 12 7 24q100 393 231 779q-12 7 -15.5 20t4.5 29l93 173
q13 22 33.5 23t34 -13.5t4.5 -37.5v0q-157 -376 -273 -764q40 51 86 95q42 39 83 74q16 14 31 27q17 15 34.5 11t26.5 -19t0 -35q-53 -92 -123 -172t-146 -154q181 -23 349 43t284 226q5 6 11.5 7t12.5 -3zM134 267v0q-70 -68 -120 -151q21 25 43 51q40 48 77 100z" />
    <glyph glyph-name="l" unicode="l" horiz-adv-x="787" 
d="M757 196v0q7 11 17 10t15.5 -9t-1.5 -18q-51 -78 -149.5 -193t-219.5 -222t-240.5 -161t-213.5 -8q-72 59 -68 210t58 350t132.5 402t155 366t126.5 242q46 79 102 154q10 12 23.5 15.5t26.5 -2.5q24 -16 17.5 -44.5t-22.5 -58.5q-9 -19 -14 -34q-31 -66 -62 -133
q-55 -123 -115.5 -243.5t-137.5 -231.5q-81 -216 -144 -433q-3 -8 -5 -18q-18 -67 -40 -171.5t-23.5 -199t41.5 -130.5q71 -26 161 13.5t182.5 114t170 155t123.5 135.5q57 68 104 143z" />
    <glyph glyph-name="m" unicode="m" horiz-adv-x="1010" 
d="M1030 357v0q6 5 11.5 2.5t7.5 -8t-3 -10.5q-137 -122 -319 -148q-23 -3 -47 -2t-44 15q-37 30 -59 71q-4 6 -9 14q-10 17 -22.5 33t-27.5 19q-34 -21 -58 -58q-6 -9 -12 -17q-16 -21 -31 -43q-26 -39 -56 -77q-26 -36 -53 -34.5t-42 46.5q-23 106 -18 214
q-77 -101 -150 -205q-33 -45 -65 -90q-5 -8 -11 -15q-26 -37 -54 -73q-2 -3 -4 -5q-6 -9 -17 -15q-10 -4 -18 2t-7 17q4 28 8 57q4 30 9 60q9 48 21 96q4 12 7 25q2 10 5 21q14 53 27 98q9 26 30 29t37 -11t9 -41q-25 -74 -54 -152q-4 -12 -8 -23q-10 -32 -25 -64l-2 -6
q7 12 14 23q91 147 182 300l10 18q6 10 13 21q27 46 54 87q16 20 36 19.5t34 -16t11 -39.5q-18 -46 -22 -125.5t9 -143.5q21 22 40 44q36 43 79 82q34 32 67 35.5t56 -43.5q7 -13 16 -28q17 -35 41 -66.5t57 -34.5q68 -1 133.5 20t123.5 55q50 30 90 70z" />
    <glyph glyph-name="n" unicode="n" horiz-adv-x="847" 
d="M859 356v0q5 6 11 4.5t9 -6.5t-1 -11q-10 -12 -21 -21q-61 -47 -156.5 -106t-194 -83.5t-168.5 32.5q-26 27 -34.5 86.5t-0.5 115.5q-95 -72 -182.5 -164.5t-137.5 -188.5v0q-13 -15 -31 -14t-30 14.5t-8 33.5q18 81 45 161q10 32 19 64v1q11 35 19 71q7 25 28 29.5
t38 -8t12 -38.5q-17 -72 -40 -144q-6 -17 -11 -33q68 63 133 130q88 92 183 174q12 10 22.5 3t17.5 -23q11 -27 5.5 -57t-16.5 -60q-12 -34 -17.5 -67.5t11.5 -64.5q44 -41 103.5 -37t120 30t105.5 52q7 4 15 9q86 47 152 116z" />
    <glyph glyph-name="o" unicode="o" horiz-adv-x="671" 
d="M702 353v0q3 -12 -13.5 -19t-35.5 -11q-15 -4 -22 -7q-100 -26 -203 -27h-10q-39 1 -92 5t-101 19q2 -76 -26.5 -148t-79.5 -109q-60 -43 -110 -24t-64 91q-15 132 65 241q41 53 101 83q28 11 45 -8q9 9 23 2q34 -39 43 -97q50 -20 112 -25.5t94 -5.5q135 -1 260 46
q4 2 8 0t6 -6zM181 371v0q-3 15 -9 29q0 -16 9 -29zM44 72v0q77 18 114.5 95t30.5 162q-31 17 -43 46v0v0q-56 -29 -89.5 -81.5t-43.5 -113.5q0 -4 -1 -8q-3 -29 0.5 -60t31.5 -40z" />
    <glyph glyph-name="p" unicode="p" horiz-adv-x="763" 
d="M51 156v0v-2q0 1 -1 1v0l1 1v0zM771 357v0q6 6 12 4t8.5 -8t-3.5 -12q-75 -72 -165 -123t-188 -86q-203 -72 -419 -48l1 1h-1v1q-32 -153 -77.5 -300.5t-129.5 -279.5q-4 -7 -12.5 -9t-15.5 2q-9 5 -10 30t2.5 56t6.5 54l3 18q43 245 169 460q21 115 46 229q8 25 29 29
t37.5 -9t11.5 -40l-14 -48q57 72 126.5 118.5t137.5 14.5q85 -66 68.5 -126t-85.5 -104.5t-140 -65.5q140 -6 279 43t250 131q40 31 73 68zM-180 -383v0q65 147 95 306l8 42q-78 -167 -103 -348zM50 155v0q-2 -2 -1 -4l2 3q9 -7 20 -14q31 -3 64 8q10 3 21 5q49 13 108.5 47
t80.5 79t-45 93q-34 13 -71.5 -7t-70.5 -52.5t-54 -56.5q-35 -44 -67 -91q3 -1 6 -3q3 -4 7 -7z" />
    <glyph glyph-name="q" unicode="q" horiz-adv-x="460" 
d="M270 326v0q-62 -111 -117 -225q-87 -183 -151 -372q27 23 62 39q10 4 34.5 10.5t52 11t47.5 2.5t21 -14q0 -6 -4.5 -9.5t-10.5 -3.5q-66 6 -128.5 -21.5t-96.5 -91.5q-3 -5 -6 -11v0q-39 -125 -73 -252v0v0v-1q-3 -12 -13 -19.5t-23 -6.5q-14 2 -20 13t-3 24
q90 389 257 758q-30 -29 -64 -56q-53 -43 -97.5 -31.5t-40.5 83.5q6 51 29.5 96.5t54.5 86.5q29 38 69.5 75t87.5 54t95 -3q21 -13 18 -34t-20.5 -34.5t-40.5 -2.5v0q-45 7 -104.5 -45t-101 -120.5t-32.5 -113.5q50 -14 108 44t101 129q19 37 40 75l1 -1l2 6q16 20 36 18
t31 -18t0 -39z" />
    <glyph glyph-name="r" unicode="r" horiz-adv-x="536" 
d="M343 313v0q7 -5 17.5 -6t22.5 -1q13 1 22.5 -0.5t10.5 -9.5q-4 -12 -22.5 -16.5t-39.5 -3.5t-33 6q-32 16 -45 44.5t-12 62.5q-101 -87 -174.5 -200t-125.5 -235q-3 -8 -10.5 -12t-16.5 0q-8 4 -10.5 12.5t-2.5 17.5t-2 16q-12 197 87 367q14 20 34 18t33 -18t3 -38
q-26 -52 -42 -106q99 182 265 305q18 12 35.5 5t25 -24t-5.5 -35q-21 -32 -34 -77t20 -72z" />
    <glyph glyph-name="s" unicode="s" horiz-adv-x="598" 
d="M632 354v0q11 -3 -9 -19t-55.5 -37t-68.5 -40q-39 -22 -51 -30l-134 -72q-83 -44 -166 -90q-3 -28 -24 -60q-30 -42 -75 -66t-95 -34q-6 0 -14 -2q-15 -3 -30.5 -1.5t-19.5 16.5q23 39 64 62q12 7 22 15q48 31 97 60q7 21 0 45q-10 18 -21 37q-33 50 -46 110
q-15 91 14 142t70.5 68.5t66 9t-0.5 -37.5q-52 -27 -66 -79.5t2 -105.5q10 -31 25 -61q23 -43 31 -86q36 19 72 39l30 16q52 28 105 55q114 57 220 123q6 3 11 7q11 8 22 13t24 3zM41 5v0q-45 -25 -86 -56q49 21 86 56z" />
    <glyph glyph-name="t" unicode="t" horiz-adv-x="336" 
d="M757 648v0q24 -17 19.5 -41t-25 -36.5t-45.5 5.5q-25 37 -69.5 48.5t-91.5 13.5q-18 1 -35 3q-163 6 -327 -8q-55 -161 -117 -321q-9 -25 -19 -51q-12 -136 -49 -246q-7 -21 -15 -42q-17 -51 -40.5 -99.5t-63.5 -85.5q-17 -9 -30 1t-9 28q75 272 172 540l12 34
q-10 65 -42 114.5t-96 68.5q-11 5 -30 5q-14 0 -25 2.5t-11 13.5q1 4 4 7.5t7 4.5q114 27 228 44q25 3 55 7q0 1 1 3t1 4q8 24 15 48q39 113 58 228q3 26 23.5 34.5t39 0t17.5 -35.5q-30 -137 -74 -272q98 14 206.5 22.5t203.5 0.5t152 -43zM-79 -100v0q39 59 62.5 136.5
t34.5 147.5q-53 -141 -97 -284zM36 427v0q35 99 67 198q-102 -12 -204 -31q57 -21 90.5 -64.5t46.5 -102.5z" />
    <glyph glyph-name="u" unicode="u" horiz-adv-x="761" 
d="M72 305v0v0v0v0q0 -1 -1 -1v0q1 0 1 1zM774 357v0q31 9 26 -6.5t-32 -45t-62 -61t-62.5 -55t-33.5 -27.5q-23 -17 -47 -36q-60 -48 -125 -87.5t-141 -48.5q-57 7 -77 47t-17 93t15 100q-49 -60 -110 -108q-60 -36 -95 -14t-44 73t9 102q16 61 40.5 80t45 11t25 -29.5
t-20.5 -42.5q1 0 2 0.5t1 1.5v0q-1 -1 -2 -3q-19 -32 -32.5 -73.5t1.5 -76.5q23 -10 53 15.5t59 65t50 71.5q12 18 19 28q8 11 16 25q17 33 44 52q18 11 34.5 3.5t22.5 -25t-7 -33.5q-4 -5 -7 -9h-1l1 -1l-3 -3q-1 -1 -1 -2q-14 -18 -24 -37q-44 -83 -53 -176
q-2 -108 68.5 -102t170 74t184.5 146t110 114z" />
    <glyph glyph-name="v" unicode="v" horiz-adv-x="786" 
d="M822 357v0q7 -10 -6 -22t-34 -23.5t-39 -20.5q-15 -7 -21 -10q-155 -74 -326 -97q-102 -6 -112 44q-71 -79 -130 -167q-50 -72 -88 -151q-11 -17 -29 -18.5t-32.5 9.5t-13.5 32q6 105 6 210q1 107 6 214q3 26 23 33.5t39 -2t18 -35.5q-5 -106 -6 -212q0 -40 -1 -81
q104 129 221 246q27 58 77.5 110.5t95.5 71.5q16 9 36.5 8.5t33.5 -12.5t8 -37q-6 -15 -20 -21q-81 -37 -145 -98q-39 -36 -75 -74q-2 -12 1 -21q17 -31 71.5 -29t116.5 18t100 29q8 3 14 4q79 28 151 70q11 5 23 17q10 9 20 15t17 0z" />
    <glyph glyph-name="w" unicode="w" horiz-adv-x="828" 
d="M844 356v0q33 -5 -7 -28.5t-120.5 -49.5t-169 -38t-151.5 5q-42 -115 -124 -202q-56 -25 -84 3.5t-37 84.5t-7 114q-44 -65 -100 -121q-14 -11 -31.5 -5t-26.5 20q-26 52 -13.5 109.5t36.5 107.5q14 23 35.5 20.5t34.5 -20t0 -40.5q-11 -18 -26 -49.5t-24 -64t-2 -50.5
q42 41 72.5 94t54.5 107q8 14 21 15t23.5 -7.5t9.5 -24.5q0 -15 -2 -43q-2 -42 -2 -93t7 -91t27 -50q38 21 73 74t63 122q-58 26 -44 107q13 81 67 142q7 7 20 17t26.5 13t21.5 -11q0 -57 -14 -110q-1 -2 -1 -3q-20 -70 -44 -140q59 -20 150 -6.5t173 41.5t115 51zM25 149v0
v0v0v0v0zM356 335v0q1 -36 28 -54q44 123 50 213q-37 -26 -56 -70.5t-22 -88.5z" />
    <glyph glyph-name="x" unicode="x" horiz-adv-x="836" 
d="M850 358v0q31 6 24 -10.5t-37 -45t-68 -59.5t-68 -52.5t-37 -24.5q-100 -66 -217.5 -109.5t-237.5 -3.5q-45 16 -85 43q-43 -55 -81 -113q-10 -14 -25.5 -17.5t-30.5 5.5q-27 19 -1.5 67t79.5 109q-16 19 -28 41q-38 70 -33 148q3 25 22 32.5t38 -1t20 -32.5
q4 -73 34 -131q68 69 129 123t84 71q16 11 30 4t18 -22.5t-10 -28.5q-113 -95 -207 -208q45 -46 108.5 -63.5t139.5 3.5q259 74 440 275z" />
    <glyph glyph-name="y" unicode="y" horiz-adv-x="515" 
d="M190 -198v0q5 0 8.5 -3.5t2.5 -8.5q0 -5 -4 -8.5t-9 -3.5q-26 0 -52 -4q-131 -343 -325 -660q-24 -28 -42 -20.5t-29.5 30t-14.5 42.5q-23 126 27.5 252t135.5 228q71 83 170 128q116 277 163 531q-74 -108 -156 -213q-5 -7 -11 -13q-16 -24 -40 -36q-67 -2 -76 60.5
t14.5 138.5t53.5 114q23 34 50 32t35.5 -24t-21.5 -50q-22 -17 -42 -59t-28.5 -86.5t4.5 -68.5q30 33 69 82t70 93q14 21 32 44q20 26 37.5 53.5t22.5 54.5q2 15 14 23q56 37 59 -30t-22.5 -178.5t-56 -209t-40.5 -120.5q-21 -57 -43 -113q22 3 44 3zM-233 -809v0
q147 246 279 553q-131 -72 -203 -204q-56 -98 -77 -205q-1 -4 -2 -10q-5 -30 -7 -68.5t10 -65.5z" />
    <glyph glyph-name="z" unicode="z" horiz-adv-x="432" 
d="M229 -137v0q4 -1 4.5 -3.5t-0.5 -5t-5 -2.5q-32 -3 -63 -12q-31 -83 -88 -160t-114 -133q-67 -70 -157 -104q-8 -2 -19.5 -4t-19.5 1t-5 16q40 100 116.5 194.5t176.5 155.5q38 72 40 134t-52 103q-27 21 -12 47t49 59q33 32 62.5 72t35.5 90q5 66 -23 87t-87 -26
q-14 -11 -25 -23q-4 -4 -9 -3t-7 5.5t2 9.5q56 71 104.5 76t75 -40t16.5 -122q-11 -52 -39.5 -98.5t-62.5 -88.5q52 -48 60.5 -108.5t-13.5 -126.5q29 8 59 10zM-189 -499v0q54 50 117 123.5t111 152.5q-151 -112 -228 -276z" />
    <glyph glyph-name="braceleft" unicode="{" horiz-adv-x="495" 
d="M281 744v0q13 7 39 16.5t48.5 10t25.5 -20.5q1 -8 -4 -14t-13 -7q-54 -14 -96 -53.5t-58 -93.5q-10 -56 2 -114q3 -22 5 -43q8 -60 -15 -117t-76 -88q26 -26 34 -65.5t-1 -74.5q-12 -46 -32 -90q-27 -54 -36 -113q-1 -19 7.5 -39t23.5 -30q10 -7 19 -6t18 5q11 4 22 3.5
t22 -17.5q6 -12 2 -24.5t-16 -18.5q-69 -28 -115.5 20.5t-36.5 117.5q12 60 42 114q32 56 42 119q2 27 -8 52.5t-36 32.5q-11 -1 -20 3t-10 14q-1 8 3.5 13t12.5 6h1h1v0q34 9 54.5 39t27.5 64q10 54 -1 106q-5 25 -7 52q-9 75 27 140.5t102 100.5z" />
    <glyph glyph-name="bar" unicode="|" horiz-adv-x="377" 
d="M218 705v0q5 18 20 21.5t27 -5.5t9 -28l-211 -925q-1 -5 -5 -7.5t-9 -1.5q-4 2 -6.5 5.5t-1.5 8.5z" />
    <glyph glyph-name="braceright" unicode="}" horiz-adv-x="535" 
d="M424 611v0q-16 -57 -47 -107q-34 -56 -47 -119q-3 -26 5.5 -52.5t33.5 -34.5q11 0 19.5 -4.5t9.5 -14.5q0 -8 -5 -13t-12 -5h-1h-1v0q-35 -8 -56 -37.5t-31 -62.5q-11 -54 -3 -107q3 -25 4 -52q5 -75 -33.5 -139.5t-105.5 -96.5q-13 -7 -39.5 -15.5t-49 -7.5t-25.5 21
q1 8 6 14t12 7q56 11 99.5 49.5t60.5 91.5q12 56 4 115q-2 21 -3 44q-5 60 20.5 116t80.5 85q-25 27 -30.5 67.5t4.5 75.5q13 46 36 88q34 59 41 126q-1 22 -12.5 41.5t-32.5 23.5q-10 0 -19 -4q-13 -6 -25 -1t-18 17q-5 13 -0.5 25t17.5 18q47 18 83.5 -3t53.5 -63.5
t6 -85.5z" />
    <glyph glyph-name="asciitilde" unicode="~" horiz-adv-x="481" 
d="M378 303v0q3 -5 1.5 -12.5t-4.5 -14.5q-1 -3 -2 -5q-13 -28 -41.5 -41t-58.5 -8q-37 8 -72 30q-37 24 -71.5 29.5t-64.5 -42.5q-3 -7 -9 -8t-11 2.5t-5 10.5q3 47 41 72t83 14q38 -12 68 -35q20 -14 42 -25q27 -13 54 -4t42 35q2 2 4 2.5t4 -0.5z" />
    <glyph glyph-name="gravecomb" unicode="&#x300;" 
d="M-70 583v0q5 -7 1.5 -13.5t-10.5 -8t-13 3.5l-10 10.5t-25 25.5t-29.5 30t-25 25.5l-10.5 10.5q-14 17 -6.5 32t24 18.5t29.5 -13.5z" />
    <glyph glyph-name="acutecomb" unicode="&#x301;" 
d="M-124 704v0q14 17 30.5 13.5t24 -18.5t-6.5 -32l-100 -102q-6 -5 -13 -3.5t-10.5 8t0.5 13.5l8 12.5t19 30t22 35.5t18.5 30.5z" />
    <glyph glyph-name="uni0302" unicode="&#x302;" 
d="M-75 591v0q5 -7 2 -14t-10 -10t-14 3q-34 27 -49 66q-25 -24 -52 -47q-6 -3 -13 -9q-12 -11 -25 -17t-23 6q-3 6 -1.5 12t5.5 10q62 54 101 127v0q10 14 24 15.5t24 -7.5t8 -27q-15 -60 23 -108z" />
    <glyph glyph-name="tildecomb" unicode="&#x303;" 
d="M-83 659v0q4 -11 -0.5 -23t-12.5 -21q-17 -19 -41.5 -23t-46.5 5q-18 7 -34 17q-22 15 -46 19q-25 -1 -41 -24q-4 -5 -10 -5t-11 3.5t-5 10.5q0 41 35 61t73 6q23 -10 40 -24q19 -15 43 -23q17 -2 27.5 3.5t16.5 11.5q4 4 7 6t6 0z" />
    <glyph glyph-name="uni0304" unicode="&#x304;" 
d="M-76 656v0q11 -3 14.5 -12.5t0 -18.5t-14.5 -12q-102 -18 -205 -3q-13 2 -17.5 12.5t-0.5 20.5t17 13q77 11 155 7q25 -2 51 -7z" />
    <glyph glyph-name="uni0307" unicode="&#x307;" 
d="M-201 643v0q5 24 25.5 34t38.5 2.5t17 -36.5q-5 -24 -25.5 -34t-39 -2.5t-16.5 36.5z" />
    <glyph glyph-name="uni0308" unicode="&#x308;" 
d="M-271 643v0q5 24 25.5 34t38.5 2.5t17 -36.5q-5 -24 -25.5 -34t-39 -2.5t-16.5 36.5zM-151 643v0q5 24 25.5 34t38.5 2.5t16 -36.5q-5 -24 -25 -34t-38.5 -2.5t-16.5 36.5z" />
    <glyph glyph-name="uni030A" unicode="&#x30a;" 
d="M-144 718v0q52 -4 69.5 -41.5t0 -74.5t-69.5 -41q-51 4 -68.5 41t0 74.5t68.5 41.5zM-144 589v0q34 3 45 26.5t0 47.5t-45 27q-33 -3 -44 -27t0 -47.5t44 -26.5z" />
    <glyph glyph-name="uni030C" unicode="&#x30c;" 
d="M-55 711v0q3 -5 2 -11t-5 -10q-52 -49 -83 -113q-14 -19 -33 -15.5t-22 27.5q-2 54 -42 96q-4 5 -3 11t6 11q7 6 19.5 -1t25 -19.5t19.5 -21.5l3 -3q5 -6 10 -13q18 20 39.5 39t38.5 27t25 -4z" />
    <glyph glyph-name="uni0315" unicode="&#x315;" 
d="M-83 445v0v-7l-1 -2q-3 -26 -13 -47t-24 -38q-15 -18 -33 -31q-19 -12 -40 -19q-5 -1 -9.5 1.5t-6.5 7.5q-1 4 1 8t5 6h1q31 19 46 51q8 15 11 31q3 17 2 31q-2 13 5.5 23t20.5 12q13 1 22.5 -6.5t12.5 -20.5z" />
    <glyph glyph-name="uni0327" unicode="&#x327;" 
d="M-89 -44v0q23 -17 18 -43.5t-28 -40.5q-13 -7 -27.5 -7t-26.5 3q-9 1 -17.5 0t-15.5 -6q-3 -3 -7.5 -3t-7.5 3q-4 11 5 19t22 12.5t22 3.5q16 -1 30 2.5t17 20.5q0 10 -7.5 11.5t-17 -1.5t-14.5 -7q-3 -2 -6 -0.5t-4 4.5t1 6q5 42 26 79q9 13 20 10.5t16.5 -13
t-4.5 -21.5q-13 -13 -24 -28q16 3 30 -4z" />
    <glyph glyph-name="uni0401" unicode="&#x401;" horiz-adv-x="1771" 
d="M2448 1581v0q4 -40 -22 -54.5t-53 -2t-26 52.5q2 40 -33.5 56.5t-70.5 21.5q-80 10 -160.5 0t-159.5 -26q-129 -26 -255 -63q-508 -147 -906 -499.5t-602 -840.5q-25 -66 -37 -136t-4 -141q15 -116 86.5 -186.5t189.5 -73.5q124 2 240 48q119 45 234 107q19 10 38 4
t30 -25q9 -18 3.5 -37t-23.5 -29v-1h-1v0q-5 -3 -10 -5q-76 -42 -184.5 -129t-210 -197.5t-157 -220t-25.5 -195.5q30 -62 95.5 -78t130.5 -9q164 21 317 87.5t294 152.5q85 53 176 123t164.5 154t107.5 182q11 31 37.5 35t46.5 -13t13 -50q-43 -80 -105 -143t-130 -120
l-10 -8q-87 -75 -222.5 -164.5t-292.5 -165.5t-306.5 -109.5t-263.5 4.5q-72 28 -106 98q-37 88 1.5 197t123.5 221t187 211q-86 -24 -172 -26t-170 30q-91 38 -147.5 117t-71.5 174q-20 125 12 245.5t89 230.5q235 455 633.5 777t891.5 459q142 40 286.5 68.5t293.5 28.5
q72 1 135.5 -28.5t80.5 -108.5zM1179 1810q41 -16 88 5q46 22 57 74q2 64 -38 80q-41 16 -87 -6q-46 -21 -58 -74q-4 -63 38 -79zM467 1782q41 -16 88 5q46 22 57 74q2 64 -38 80q-41 16 -87 -6q-46 -21 -58 -74q-4 -63 38 -79z" />
    <glyph glyph-name="uni0410" unicode="&#x410;" horiz-adv-x="1888" 
d="M1858 1763v0q73 -5 103 -53.5t32 -114.5t-7 -122q-37 -223 -102 -438q-4 -14 -8 -29q-38 -133 -77 -266q-77 -258 -147 -517q19 -2 37 -4q15 -4 18.5 -15.5t-3.5 -21.5t-22 -8q-21 4 -41 7q-36 -134 -67 -270q-57 -250 -89 -506.5t14 -510.5q10 -44 25 -85q7 -21 -1 -39
t-28 -26q-21 -7 -40 2.5t-26 31.5q-13 49 -21 99q-23 168 -9 337.5t44 335.5q60 323 146 640q-351 56 -708 49q-198 -281 -377.5 -535t-296 -419.5l-116.5 -165.5q-21 -25 -46.5 -20.5t-38.5 27t4 51.5q9 14 225 320t521 739q-69 -3 -138 -8q-224 -16 -440 -81
q-36 -8 -53.5 14t-11 49.5t43.5 34.5q314 32 629 33q121 173 243 346q319 452 548.5 777.5t240.5 341.5q16 20 40 20zM1816 1023v0q2 7 5 19q17 66 46 199t39.5 256t-26.5 159q-30 -41 -314 -444t-658 -935q347 -5 692 -47q43 159 87 317q67 237 129 476z" />
    <glyph glyph-name="uni0411" unicode="&#x411;" horiz-adv-x="3488" 
d="M3146 1498q-187 3 -375 -5q-354 -14 -833 -82q33 74 67 146q14 39 -6 63q-21 24 -53 24q-32 -1 -51 -36q-50 -109 -97 -220q-284 -49 -536 -131q-251 -82 -418 -204q-66 -50 -107 -124q-41 -75 -26 -160q34 -128 104 -239q71 -111 153 -215q52 -66 99 -133
q149 -193 228 -394q-40 -191 -71 -383q-35 -216 -58 -433q-1 -7 -2 -22l-2 -13q0 -7 -1 -11q-3 -29 15 -47t43 -19t44 21q140 253 159 464q20 211 -41 388q188 841 535 1628q68 10 117 16q368 43 739 49q372 5 738 -52q21 -3 37 10q16 12 19 33q2 21 -10 37t-33 19
q-189 22 -377 25zM1258 -959q36 273 91 543q41 -248 -83 -524zM1317 -112q-61 119 -137 226q-77 106 -155 204q-112 137 -192 264q-79 126 -87 251q16 107 120 191q104 83 260 144t328 104q172 42 324 67q-184 -441 -319 -900q-80 -273 -142 -551zM2197 892
q-240 -31 -470 -100q-362 -102 -692 -283q-216 -122 -435 -290q-219 -169 -392 -377q-173 -209 -252 -450q-56 -181 -10 -352q45 -172 177 -274q133 -103 337 -78q32 8 39 33t-8 47q-14 22 -47 19q-102 -17 -195 23q-93 39 -150 126q-77 124 -75 257t57 263t139 247t173 209
q233 239 512 424t584 320q246 108 510 159q212 42 412 29t348 -95t204 -246q57 -164 -17 -423q-77 -251 -253 -480t-416 -401q-241 -172 -512 -252t-539 -34q-25 5 -49 11l-64 18q-131 41 -245 118q-115 76 -198 186q-80 106 -120 232q-40 133 -35 270q-9 32 -35 38
q-25 6 -46 -9q-21 -16 -17 -49q31 -193 125 -363q150 -262 418 -399q70 -34 143 -58l63 -18q255 -63 515 -14q261 49 501 183q241 134 435 325q194 190 315 411q82 148 123 311q41 162 23 315q-19 152 -116 270q-96 117 -289 174q-236 58 -476 27z" />
    <glyph glyph-name="uni0412" unicode="&#x412;" horiz-adv-x="2305" 
d="M1931 -194v0q177 -108 217.5 -224t-38 -221t-257.5 -180q-271 -99 -622.5 -138.5t-713.5 -10.5q-15 -60 -30 -121q-9 -36 -17 -73q-27 -124 -72 -244q-4 -10 -13.5 -14t-19.5 0q-16 7 -16 24q-1 3 -1 7q-36 224 -65 449q-404 62 -693 232q-14 9 -17 24t5 29q9 14 25 17
t30 -6q101 -71 217 -120q195 -78 427 -121q-13 112 -21 224q-31 374 31.5 744.5t251.5 698.5q144 251 361.5 453.5t495.5 290.5q66 151 131 301q16 29 42 29.5t43 -19.5t4 -52q-60 -116 -118 -234q27 6 54 10q123 16 247 -15t205 -132q61 -82 75 -182t2 -199
q-33 -224 -186.5 -411t-366 -333t-423.5 -248q43 -1 86 -5q195 -21 382.5 -76.5t357.5 -153.5zM587 755v0q-149 -251 -215 -524t-71 -557t28 -569q62 -10 124 -17q147 501 337 987.5t395 966.5q88 204 178 408q-251 -91 -447 -279t-329 -416zM410 -1070v0q14 55 30 109
q-53 6 -104 13q16 -136 38 -269q14 65 31 131q2 8 5 16zM2062 -506v0q4 48 -23.5 88t-62.5 72q-111 97 -284.5 180t-359 127.5t-332.5 26.5l-22 -6q-14 -6 -27 -12l-1 1q-3 -2 -7 -4q-16 -3 -29 5t-17 23t2.5 27t19.5 18q165 79 322 173q152 90 316.5 213.5t288 278
t154.5 338.5q34 242 -82 359t-359 95q-50 -7 -98 -18q-288 -578 -528 -1176.5t-404 -1223.5q342 -32 679.5 11.5t609.5 167.5q78 38 150.5 94t93.5 142z" />
    <glyph glyph-name="uni0413" unicode="&#x413;" horiz-adv-x="1789" 
d="M483 830q18 313 19 491l122 26q2 0 4 1q-3 -27 -7 -54q-20 -139 -48 -276q-63 -303 -149 -601q49 234 59 413zM542 1384l1 -1q-32 -6 -63 -13q-17 -4 -30 -16q-10 -10 -6 -27q-1 -5 -1 -10q3 -206 3 -346q-26 -450 -214 -1158q-6 -19 -11 -37q-153 -454 -261 -690
q-9 -21 -1 -41q9 -20 31 -27q20 -7 38 2t25 29q30 91 61 181q225 685 340 1056l11 34q126 406 215 821q24 110 40 221q350 39 703 45q372 5 738 -52q21 -3 37 10q16 12 19 33q2 21 -10 37t-33 19q-189 22 -377 25q-187 3 -375 -5q-302 -12 -695 -63v3q11 77 17 155
q-1 35 -25 47q-23 12 -48 1q-24 -11 -27 -44q-2 -87 -10 -173q-25 -4 -49 -9z" />
    <glyph glyph-name="uni0414" unicode="&#x414;" horiz-adv-x="2410" 
d="M1919 1121v0q192 -210 248.5 -486.5t-3.5 -550.5q-66 -311 -241 -556t-426 -413.5t-546.5 -250.5t-601.5 -67q-221 7 -297 100t-35.5 228t169.5 269q58 61 123 113q58 311 176.5 660.5t296 670.5t410.5 548q-14 2 -29 3q-247 19 -475 -77q-197 -85 -340.5 -252
t-176.5 -381q-14 -121 38 -230q12 -30 -5.5 -48t-42.5 -14.5t-34 35.5q-33 174 16 340t158 304t254 231q151 94 325 133q188 41 381 17q124 106 263.5 170.5t292.5 78.5q110 7 218 -15q21 -5 32 -21.5t7 -37.5q-5 -21 -22 -32t-39 -7q-179 37 -340.5 -6.5t-302.5 -148.5
q320 -72 549 -307zM2070 103v0q41 207 15.5 417t-130.5 395q-108 180 -281.5 296t-377.5 159q-207 -182 -367.5 -439t-272.5 -526t-173 -485q-48 -170 -81 -345q218 145 475 197q191 39 385 14q65 -9 128 -25q18 -5 26.5 -20t4.5 -33q-5 -18 -20.5 -26.5t-33.5 -3.5
q-58 17 -117 27q-227 35 -449.5 -21t-411.5 -186q-26 -163 -26 -328q-2 -34 -26.5 -45t-48.5 0.5t-25 46.5q9 117 32 254q-38 -32 -73 -67q-77 -73 -131 -165q-71 -125 -42 -223.5t179 -129.5q153 -24 308 -12q272 18 526 117q384 147 655 448.5t353 708.5z" />
    <glyph glyph-name="uni0415" unicode="&#x415;" horiz-adv-x="1771" 
d="M2448 1581v0q4 -40 -22 -54.5t-53 -2t-26 52.5q2 40 -33.5 56.5t-70.5 21.5q-80 10 -160.5 0t-159.5 -26q-129 -26 -255 -63q-508 -147 -906 -499.5t-602 -840.5q-25 -66 -37 -136t-4 -141q15 -116 86.5 -186.5t189.5 -73.5q124 2 240 48q119 45 234 107q19 10 38 4
t30 -25q9 -18 3.5 -37t-23.5 -29v-1h-1v0q-5 -3 -10 -5q-76 -42 -184.5 -129t-210 -197.5t-157 -220t-25.5 -195.5q30 -62 95.5 -78t130.5 -9q164 21 317 87.5t294 152.5q85 53 176 123t164.5 154t107.5 182q11 31 37.5 35t46.5 -13t13 -50q-43 -80 -105 -143t-130 -120
l-10 -8q-87 -75 -222.5 -164.5t-292.5 -165.5t-306.5 -109.5t-263.5 4.5q-72 28 -106 98q-37 88 1.5 197t123.5 221t187 211q-86 -24 -172 -26t-170 30q-91 38 -147.5 117t-71.5 174q-20 125 12 245.5t89 230.5q235 455 633.5 777t891.5 459q142 40 286.5 68.5t293.5 28.5
q72 1 135.5 -28.5t80.5 -108.5z" />
    <glyph glyph-name="uni0416" unicode="&#x416;" horiz-adv-x="3771" 
d="M1918 622q-204 -260 -333 -413q-152 -179 -310 -352q-102 -164 -223 -316q-208 -261 -475 -457q-77 -55 -168 -98t-187 -30q-36 7 -66 31q-29 24 -43 59q-14 43 -10 89q5 45 16 88q85 330 302 594q11 12 26 13t29 -9q13 -11 13 -28q1 -16 -11 -30q-123 -129 -208 -290
t-116 -339q-4 -36 7 -70q23 -48 68 -57q44 -8 93 6q49 15 88 36q150 86 291 219q140 133 263 285q123 153 220 298q95 143 174 300t119 326q39 168 15 344q-8 49 -31 93q-24 43 -66 70q-45 23 -92 36q-140 33 -283 1q-144 -31 -278 -100t-246 -150q-67 -49 -159 -128
t-165 -170q-74 -90 -86 -173q-5 -32 -28 -37q-23 -6 -40 11q-18 16 -7 46q82 140 220 280t308 255t349 179q179 65 344 53q80 -7 154 -38q93 -38 133 -122q39 -83 43 -179q9 -171 -33 -335q-43 -165 -119 -315q177 195 337 402q66 85 256 329q52 122 114 242q18 28 44.5 26
t42 -22.5t2.5 -51.5q-186 -341 -306 -711q-113 -349 -196 -705q276 355 436 545q140 165 286 325q68 98 144 191q221 273 507 478q82 58 179 103t199 32q39 -8 71 -33q31 -25 46 -62q15 -45 10 -93q-4 -48 -17 -93q-91 -346 -322 -622q-11 -13 -28 -14q-16 -1 -30 9
q-14 13 -15 30t12 31q132 135 222 304q91 169 124 356q4 38 -7 74q-25 50 -73 59q-47 9 -99 -6q-53 -16 -94 -38q-160 -90 -310 -229q-150 -140 -282 -300q-131 -160 -235 -312q-101 -150 -185 -315q-85 -165 -127 -341q-42 -177 -17 -361q9 -52 34 -98q25 -45 71 -73
q47 -24 98 -38q149 -34 302 -1t296 105t264 157q71 52 169 135q98 82 176 177q78 96 92 182q5 33 29 39q25 6 43 -11q19 -17 8 -49q-88 -147 -235 -293q-147 -147 -329 -268q-181 -120 -372 -188q-191 -67 -368 -55q-85 7 -164 39q-100 40 -141 128q-42 88 -46 189
q-10 178 35 351t126 330q24 47 50 93q-134 -154 -259 -315q-73 -93 -257 -318l-45 -60l-12 -54l-10 -46q-47 -224 -88 -449q-2 -10 -10.5 -16t-18.5 -4q-11 2 -16.5 10t-4.5 19q36 227 79 454l9 49q81 420 199 832q50 174 115 344z" />
    <glyph glyph-name="uni0417" unicode="&#x417;" horiz-adv-x="1860" 
d="M327 621q4 -36 -19.5 -51t-49.5 -5t-30 46q-1 133 40 253l65 -25q-24 -106 -6 -218zM319 -458q-75 -92 -138 -192q-2 -2 -3 -4q-42 -72 -77 -152t-31 -164q3 -23 19 -36t35 -22q3 -2 5 -3q70 -29 146 -26.5t149 21.5q309 89 530 323t303 543q37 148 42 302q1 34 -8 66
l-20 53q-41 79 -104 141q-141 142 -328 215q-39 16 -92 27t-95 -5q-7 -5 -15 -10v1l-4 -4q-31 -11 -51.5 4t-22 40.5t25.5 43.5q103 57 195 130q285 220 443 542q27 76 -15 98.5t-108.5 15t-113.5 -24.5q-236 -78 -419 -248q-108 -100 -178 -230q-39 -73 -56 -148l-65 25
q14 42 34 83q76 155 203 278t278 206q60 34 150.5 70t180.5 43.5t148 -42.5q35 -42 26.5 -98t-39.5 -114.5t-63 -107.5q-16 -25 -28 -45q-169 -254 -411 -440q38 -11 75 -25q19 -6 37 -12q142 -55 280 -149.5t215 -230.5l26 -59q21 -81 11 -165q-16 -235 -111 -449.5
t-260 -382.5q-150 -150 -341 -249t-407 -106q-50 -1 -109.5 13.5t-105 47.5t-55.5 90q-5 126 69 266.5t181 266.5q10 12 21 24q63 82 107 186q16 32 42.5 32t41.5 -22.5t0 -54.5q-68 -84 -145 -176z" />
    <glyph glyph-name="uni0418" unicode="&#x418;" horiz-adv-x="2327" 
d="M2515 1672v0q21 -11 28.5 -32.5t-1.5 -43.5q0 -2 -1 -3q0 -1 -1 -2v0v-1l-1 -1l-44 -106q-13 -29 -25 -58q-75 -169 -158 -334q-16 -32 -33 -65q-155 -338 -287 -685t-220 -705.5t-110 -731.5q-6 -46 1.5 -113.5t37 -116t91.5 -38.5q23 3 34 -11.5t7.5 -32.5t-25.5 -25
q-82 -16 -132 29.5t-72 118.5t-20 140q12 402 100 789t226 762q-240 -357 -522 -682q-151 -173 -311.5 -338.5t-339.5 -310.5q-75 -57 -162 -97q-121 -58 -244.5 -38.5t-206.5 130.5q-81 120 -104 263t-18 286q8 395 105.5 778t271.5 738q17 28 43 27.5t42.5 -21t3.5 -51.5
q-165 -323 -264.5 -672t-121.5 -711q-9 -132 -2.5 -266.5t58.5 -257.5q59 -134 169.5 -171t242.5 22q82 36 154 89t139 112q708 624 1172 1447q176 432 369 853q24 53 47 106q12 25 35.5 34t48.5 -3z" />
    <glyph glyph-name="uni0419" unicode="&#x419;" horiz-adv-x="2327" 
d="M2515 1672q21 -11 28.5 -32.5t-1.5 -43.5q0 -2 -1 -3q0 -1 -1 -2v-1l-1 -1l-44 -106q-13 -29 -25 -58q-75 -169 -158 -334q-16 -32 -33 -65q-155 -338 -287 -685t-220 -705.5t-110 -731.5q-6 -46 1.5 -113.5t37 -116t91.5 -38.5q23 3 34 -11.5t7.5 -32.5t-25.5 -25
q-82 -16 -132 29.5t-72 118.5t-20 140q12 402 100 789t226 762q-240 -357 -522 -682q-151 -173 -311.5 -338.5t-339.5 -310.5q-75 -57 -162 -97q-121 -58 -244.5 -38.5t-206.5 130.5q-81 120 -104 263t-18 286q8 395 105.5 778t271.5 738q17 28 43 27.5t42.5 -21t3.5 -51.5
q-165 -323 -264.5 -672t-121.5 -711q-9 -132 -2.5 -266.5t58.5 -257.5q59 -134 169.5 -171t242.5 22q82 36 154 89t139 112q708 624 1172 1447q176 432 369 853q24 53 47 106q12 25 35.5 34t48.5 -3zM961 2167q30 -167 128 -296t280 -192q152 -45 304 -6t279 130
q159 113 280 266q41 51 59.5 78t-17.5 63t-79 -27q-82 -123 -242 -276q-106 -101 -229 -156q-124 -55 -253 -45q-130 10 -255 104q-112 90 -162 218q-50 127 -56 253q-6 38 -31.5 30t-20.5 -41q-1 -18 15 -103z" />
    <glyph glyph-name="uni041A" unicode="&#x41a;" horiz-adv-x="1476" 
d="M1636 1297v0q15 -16 14 -36.5t-17 -35.5q-304 -274 -584 -576.5t-504 -646.5q353 -113 565 -393t251 -644q9 -80 10 -162q-2 -33 -25 -44.5t-47.5 -1.5t-27.5 43q9 110 1 219q-28 329 -223 584.5t-514 352.5q-47 -224 -88 -449q-2 -10 -10.5 -16t-18.5 -4q-11 2 -16.5 10
t-4.5 19q36 227 79 454q-207 43 -407 -12q-21 -5 -38.5 4.5t-23.5 30.5q-6 24 7.5 43t38.5 21q220 15 432 -38q81 420 199 831.5t314 793.5q18 28 44.5 26t42 -22.5t2.5 -51.5q-186 -341 -306 -711.5t-206 -749.5q211 320 462.5 609t527.5 554q16 15 36 14.5t35 -15.5z" />
    <glyph glyph-name="uni041B" unicode="&#x41b;" horiz-adv-x="1629" 
d="M1316 1542q-19 -8 -38 -22q-87 -59 -170.5 -174.5t-156 -249.5t-126 -250.5t-79.5 -178.5q-132 -386 -230 -729q-44 -139 -91 -230q-34 -70 -83 -144q-49 -75 -99 -88q-49 -1 -91 107q-41 107 -74 276q-6 28 -11 57q-17 102 -29 168q-6 35 -1 54q6 19 13 14q9 -3 14 -36
q7 -100 25 -198q27 -149 70 -284q14 -41 34 -77q21 -36 51 -34q24 9 45 38q44 62 79 141q99 215 161.5 458.5t181.5 522.5q85 195 183 385.5t225 363.5q40 55 95 107q9 9 19 17q78 65 101 60l16 -8q7 -5 16 -16q11 -13 22 -39t21 -68q13 -82 0 -164q-2 -14 -3 -28
q-32 -271 -83 -537q-5 -27 -10 -53q-14 -76 -29 -158q-23 -116 -42 -230q-65 -555 -88 -723q-2 -15 -4 -29v-1q-4 -39 -8 -87q-12 -130 -32 -328q-2 -26 -21 -34q-17 -8 -36 1q-18 9 -19 34l5 68q12 141 29 281q9 77 20 153q51 530 73 676q8 50 16 99q21 140 45 281
q32 184 58.5 368.5t36.5 371.5q1 12 2 26q2 23 2 44q0 17 -5 26z" />
    <glyph glyph-name="uni041C" unicode="&#x41c;" horiz-adv-x="2384" 
d="M2494 1890v0q-130 -259 -257 -528q-79 -165 -158 -329q-128 -443 -184 -897t-39 -783q7 -140 27.5 -287t70 -284t143.5 -246q14 -17 7.5 -34.5t-23.5 -24t-35 9.5q-41 44 -73 94q-136 234 -174 589.5t0.5 764t130.5 801.5q-106 -211 -218 -419t-238 -407q-9 -13 -19 -27
q-45 -70 -113 -159t-147 -148t-158 -41q-38 15 -50 68.5t-10.5 119t7.5 117.5q2 25 3 42q24 223 60 443q21 140 45 281q32 184 58.5 368.5t36.5 371.5q1 12 2 26q2 23 2 44t-7 30q-80 33 -166.5 -26t-170 -174.5t-156 -249.5t-126 -250.5t-79.5 -178.5q-239 -569 -414 -1162
q-7 -19 -24.5 -22.5t-27 7t-7.5 31.5l11 41t31.5 93t69.5 205q150 417 326 823q85 195 183 385.5t225 363.5q40 55 94.5 107t119.5 77t138 -2l7 -4.5t18 -17.5t22 -39t21 -68q13 -82 0 -164q-2 -14 -3 -28q-32 -271 -83 -537q-5 -27 -10 -53q-14 -76 -29 -158
q-57 -294 -95 -571q-16 -108 -14 -216v0q1 -17 4 -34t10 -29q85 -4 196.5 114.5t237 320.5t253 448.5t246.5 497.5q135 477 307 769q57 99 138 185q11 11 25 11t25 -10q17 -19 7 -41z" />
    <glyph glyph-name="uni041D" unicode="&#x41d;" horiz-adv-x="1959" 
d="M2165 1706v0q57 29 97 0.5t43 -77t-49 -81.5q-51 -44 -93 -100q-9 -11 -19 -22q-187 -243 -343 -509q-162 -272 -297 -559q131 66 258 138q30 14 51.5 -1t24 -41t-24.5 -45q-177 -69 -351 -144q-189 -417 -284 -864q-39 -201 -40 -406t60 -401q6 -20 -3 -38t-29 -25
t-38 2t-25 29q-38 217 -28 432q18 317 91 623t187 601q-392 -174 -778 -360q-202 -95 -403 -190q-33 -184 -54 -370q-6 -32 -31 -40.5t-47 5.5t-21 47q0 2 1 4l13 65q25 125 53 249q-153 -73 -299 -145q-21 -8 -35.5 3.5t-14.5 30t21 30.5q171 75 344 154q74 322 167 639
q139 475 330 932q13 31 27 62q12 22 32.5 21.5t33 -16t2.5 -39.5q-159 -323 -272 -664q-150 -440 -238 -898q231 105 457 210q144 68 288 135q229 105 455 215q140 347 311 678q5 9 9 18q91 172 189 340t217 322q23 29 55 50z" />
    <glyph glyph-name="uni041E" unicode="&#x41e;" horiz-adv-x="2032" 
d="M1766 895v0q48 -327 -21 -650.5t-225 -612.5q-92 -171 -213 -324t-280 -266q-127 -91 -279 -130t-304 6q-182 63 -280 192t-128.5 296t-10.5 342.5t73 331.5q78 258 227 482q13 18 26 35q17 227 104.5 443.5t245.5 380.5q125 125 298 164q120 22 241 -0.5t222 -94.5
q139 -107 209 -266t95 -329zM1675 374v0q32 172 24.5 374.5t-71 385.5t-199 295.5t-358.5 104.5q-149 -11 -267.5 -96.5t-204.5 -218t-138.5 -283t-70.5 -290.5q54 63 120 116q12 9 26 7.5t23 -13.5t7.5 -26t-13.5 -23q-97 -81 -171 -184q4 -114 46.5 -229.5t111.5 -197.5
q85 -102 214 -123q129 -14 243.5 49t166.5 182q12 23 32 22t31.5 -17.5t-1.5 -38.5q-83 -113 -209 -175t-266 -49q-104 14 -182.5 82.5t-125.5 159.5q-72 138 -91 291q-99 -152 -161.5 -325t-95.5 -344q-25 -133 -20.5 -274.5t54.5 -269t162 -217.5q125 -94 254.5 -104
t253 45t229.5 156q252 242 419 563t228 665z" />
    <glyph glyph-name="uni041F" unicode="&#x41f;" horiz-adv-x="1959" 
d="M2110 1656q23 29 55 50q57 29 97 0.5t43 -77t-49 -81.5q-51 -44 -93 -100q-9 -11 -19 -22q-187 -243 -343 -509q-162 -272 -297 -559l-42 -93q-189 -417 -284 -864q-39 -201 -40 -406t60 -401q6 -20 -3 -38t-29 -25t-38 2t-25 29q-38 217 -28 432q18 317 91 623t187 601
l31 80q140 347 311 678q5 9 9 18q91 172 189 340q47 80 98 157q-98 -6 -196 -15l-88 -8q-317 -33 -634 -80q-165 -22 -329 -44l-51 -7q10 -15 1 -37q-159 -323 -272 -664q-150 -440 -238 -898l-12 -70q-33 -184 -54 -370q-6 -32 -31 -40.5t-47 5.5t-21 47q0 2 1 4l13 65
q25 125 53 249l16 73q74 322 167 639q139 475 330 932l24 56q-99 -15 -194 -30q-17 -1 -24.5 15t-2.5 33t22 22q139 13 279 30l67 8q188 22 372 45q118 16 235 31q186 23 372 51l99 17q108 18 215 44q23 31 47 62z" />
    <glyph glyph-name="uni0420" unicode="&#x420;" horiz-adv-x="3246" 
d="M2773 1695v0q193 -57 289.5 -174.5t115 -270t-22.5 -315t-123 -310.5q-121 -221 -315 -411.5t-434.5 -324.5t-501 -183t-515.5 14q-115 -371 -240 -739q-31 -90 -61 -181q-7 -20 -25 -29t-38 -2q-22 7 -30.5 27t0.5 41q133 290 233 592q51 154 98 309q-73 24 -143 58
q-268 137 -418 399q-94 170 -125 363q-4 33 17 48.5t46.5 9.5t34.5 -38q-5 -137 35 -270q40 -126 120 -232q83 -110 197.5 -186.5t245.5 -117.5q101 337 172 680q28 137 48 276t23 279q3 33 27.5 44t48 -1t24.5 -47q-18 -216 -64 -428q-89 -415 -215 -821q24 -6 49 -11
q268 -46 539 34t511.5 252t416.5 401t253 480q74 259 17.5 423t-204.5 246t-348 95t-412 -29q-264 -51 -510 -159q-305 -135 -584 -320t-512 -424q-89 -92 -173 -209t-139 -247t-57 -263t75 -257q57 -87 150 -126.5t195 -22.5q33 3 47.5 -19t7.5 -47t-39 -33
q-204 -25 -336.5 77.5t-178 274t10.5 352.5q79 241 252 449.5t392 377t435 290.5q330 181 692 283q230 69 470 100t476 -27z" />
    <glyph glyph-name="uni0421" unicode="&#x421;" horiz-adv-x="2142" 
d="M1951 -159v0q7 41 36.5 48t52.5 -13.5t9 -59.5q-107 -179 -286.5 -358t-401 -326t-454.5 -229.5t-448 -67.5q-104 9 -201 48q-121 49 -172 156t-56 230q-12 218 43 428.5t154 402.5q196 380 466.5 713t618.5 584q100 70 218.5 125t243.5 39q47 -9 85.5 -39.5t56.5 -75.5
q18 -56 12.5 -114t-20.5 -113q-111 -422 -393 -759q-14 -16 -34 -17.5t-37 11.5q-17 15 -18 36t15 38q160 165 270.5 371t151.5 434q5 46 -9 90q-31 61 -88.5 72t-121.5 -7.5t-114 -45.5q-196 -110 -379 -280t-343 -365.5t-287 -380.5q-123 -183 -226 -384t-154.5 -416.5
t-20.5 -440.5q11 -63 41.5 -118.5t85.5 -89.5q58 -30 120 -46q182 -42 368.5 -2t361 128t321.5 192q87 63 206.5 164t215 217t111.5 221z" />
    <glyph glyph-name="uni0422" unicode="&#x422;" horiz-adv-x="1304" 
d="M2821 1465v0q21 -3 33 -19t10 -37q-3 -21 -19 -33.5t-37 -9.5q-366 57 -737.5 51.5t-739.5 -48.5q-49 -6 -117 -16q-347 -787 -535 -1628q61 -177 41.5 -388t-159.5 -464q-19 -22 -44 -21t-43 19t-15 47q1 4 1.5 10.5t1.5 13.5q1 15 2 22q23 217 58 433q31 192 71 383
q-79 201 -228 394q-47 67 -99 133q-82 104 -152.5 215t-104.5 239q-15 85 26 159.5t107 124.5q167 122 418.5 204t535.5 131q47 111 97 220q19 35 51 35.5t52.5 -23.5t6.5 -63q-34 -72 -67 -146q479 68 833 82q188 8 375.5 5t376.5 -25zM564 -948v0q124 276 83 524
q-55 -270 -91 -543q4 10 8 19zM757 431v0q135 459 319 900q-152 -25 -324 -67.5t-328 -103.5t-260 -144.5t-120 -190.5q8 -125 87.5 -251.5t191.5 -263.5q78 -98 154.5 -204.5t137.5 -225.5q62 278 142 551z" />
    <glyph glyph-name="uni0423" unicode="&#x423;" horiz-adv-x="1641" 
d="M676 -355q22 59 45 117q219 536 482 1052q-197 -272 -400.5 -488t-378.5 -285q-57 -20 -114.5 -11t-108.5 39q-96 58 -140.5 173.5t-53 257.5t3.5 278t28 234q17 107 44 213q9 27 31.5 31.5t40.5 -10t14 -42.5q-21 -107 -43.5 -262.5t-27 -323t28 -308t121.5 -217.5
q95 -60 224 9t275.5 223.5t291.5 352t271.5 395t216.5 351.5q59 106 120 212q16 25 39.5 23.5t37.5 -20.5t1 -46q-32 -62 -64 -123q-204 -387 -403.5 -778.5t-382.5 -789.5q-15 -33 -38 -86q-34 -76 -74 -170l-39 -94q-55 -122 -119 -242q-62 -119 -139 -229
q-51 -72 -128 -149q-78 -78 -165 -94q-90 -4 -181 101q-91 104 -178 270q-24 46 -44 86q-44 113 -81 211q-51 139 -80 210q-11 34 0 54q10 21 28 18q18 -2 29 -34q61 -218 139 -438q4 -8 7 -16q74 -165 184 -310q31 -40 75 -74q43 -35 97 -31q41 11 75 41q69 64 120 146
q205 322 313 573z" />
    <glyph glyph-name="uni0424" unicode="&#x424;" horiz-adv-x="2810" 
d="M1129 -332q-33 -184 -54 -370q-6 -32 -31 -40.5t-47 5.5t-21 47q0 2 1 4l13 65q25 125 53 249l16 73q74 322 167 639q139 475 330 932q13 31 27 62q12 22 32.5 21.5t33 -16t2.5 -39.5q-159 -323 -272 -664q-150 -440 -238 -898zM2440 473q-231 -237 -530 -378t-624 -191
q-191 -31 -386 -27q-195 3 -382 62q-149 45 -272 143q-123 97 -179 245q-61 183 -17 339q43 157 157 282q115 125 267 216q151 90 308 142q252 95 521 112h43q191 124 416 186q226 61 452 35q175 -24 311 -138q90 -82 145 -192q56 -110 60 -234q-1 -175 -85 -327t-205 -275z
M1971 230q156 78 313 207q156 129 263 290t115 337q7 176 -134 349q-99 112 -239 154q-140 43 -297 31q-158 -12 -309 -61q-152 -50 -274 -120q83 -5 165 -25q14 -4 22 -17q7 -12 3 -26t-16 -22q-12 -7 -27 -3q-123 28 -250 25q-88 -72 -154 -176q-67 -104 -90 -209
q-30 -129 32 -244q67 -112 186 -164q120 -53 246 -23q25 5 37 -12q11 -16 5 -36q-6 -19 -32 -22q-140 -2 -265 61q-126 62 -201 182q-51 91 -44 195t51 196q66 141 176 249q-181 -13 -356 -68q-176 -55 -332 -133q-121 -60 -231 -150q-110 -89 -181 -206t-75 -261
q1 -156 71 -265q71 -109 190 -174q118 -65 263 -88q345 -54 701 7q357 62 668 222z" />
    <glyph glyph-name="uni0425" unicode="&#x425;" horiz-adv-x="1888" 
d="M2077 1464v0q18 24 14.5 51.5t-26.5 45.5q-24 18 -51 14t-46 -26q-1 -3 -33 -45t-74.5 -97t-74.5 -97t-34 -44q-271 -353 -547 -701q-249 -317 -507 -629q-254 -307 -498 -617q-68 -85 -142 -169q-16 -17 -31 -35q-2 -2 -4 -5q-10 -9 -17 -21t-2 -26q6 -17 23.5 -22
t31.5 6q72 57 140 121q193 179 290 412t128.5 490t26.5 509q-9 402 -51 803q-5 31 -28.5 40.5t-46 -2t-24.5 -41.5q2 -77 11 -153l2 -24q98 -801 368 -1561l6 -14q35 -92 87 -206.5t123 -219.5t163 -166.5t206 -45.5q28 5 53 15q19 10 26 28.5t-1 38.5q-10 19 -28.5 25.5
t-38.5 -1.5q-31 -15 -64 -17q-55 -3 -103.5 24t-86.5 66q-148 162 -260 440t-189 604.5t-120.5 634.5t-54.5 529l-99 -9q71 -346 97.5 -701t-24.5 -706q-44 -287 -169.5 -502t-358.5 -389q-2 0 -3.5 0.5t-2.5 2t0 3.5v0v0v0v1q1 0 1 1q1073 1149 2043 2387z" />
    <glyph glyph-name="uni0426" unicode="&#x426;" horiz-adv-x="2869" 
d="M1777 -1992q-45 -75 -96 -148q-52 -73 -117 -132q-83 -76 -184 -83t-170 92q-44 83 -42 178q2 96 21 186q37 157 112 301q74 145 173 273q86 111 186 209q148 133 322 230q173 98 359 169q-102 -330 -239 -647t-316 -614zM1992 341q132 347 287 685q17 33 33 65
q83 165 158 334q12 29 25 58l44 106l1 1v1q1 1 1 2q1 1 1 3q9 22 1.5 43.5t-28.5 32.5q-25 12 -48.5 3t-35.5 -34q-23 -53 -47 -106q-193 -421 -369 -853q-464 -823 -1172 -1447q-67 -59 -139 -112t-154 -89q-132 -59 -242.5 -22t-169.5 171q-52 123 -58.5 257.5t2.5 266.5
q22 362 121.5 711t264.5 672q13 31 -3.5 51.5t-42.5 21t-43 -27.5q-174 -355 -271.5 -738t-105.5 -778q-5 -143 18 -286t104 -263q83 -111 206.5 -130.5t244.5 38.5q87 40 162 97q179 145 339.5 310.5t311.5 338.5q282 325 522 682q-125 -340 -180 -562q-15 -70 -23 -142
q-15 -139 7 -253q23 -113 100 -170q65 -43 141 -30q118 25 229 130t208 251q42 63 78 126q-53 -216 -116 -429q-168 -66 -327 -147q-106 -56 -207 -120t-192 -142q-177 -163 -313 -361q-74 -106 -140 -259t-82 -310q-15 -157 63 -274q66 -88 163 -110q97 -21 195 29
q96 53 168 134q71 81 133 169q2 3 5 7q220 307 365 655t236 715q82 29 167 49q79 19 160 23q14 3 17 13q4 10 -2 19q-5 10 -18 9q-161 -18 -314 -71q26 104 49 209q37 172 71 343q12 34 -11 38q-19 5 -30 -20l-20 -40q-78 -145 -175 -280q-99 -135 -229 -238
q-51 -39 -117 -58q-64 -20 -121 19q-70 58 -78 181q-8 122 22 268q11 51 24 100q85 269 176 464z" />
    <glyph glyph-name="uni0427" unicode="&#x427;" horiz-adv-x="1641" 
d="M875 -98v0q-15 -33 -38 -86q-56 -123 -128 -298t-120.5 -343t-33.5 -267q61 235 159 457.5t222 431.5q160 265 347 514q12 15 29.5 17.5t33.5 -8.5q16 -13 17.5 -32.5t-13.5 -35.5q-54 -53 -104 -110q-227 -260 -391 -564.5t-253 -638.5q-12 -49 -21 -98q-1 -9 -7.5 -14
t-14.5 -4q-17 6 -27.5 22.5t-16.5 31.5q-18 60 -14 121.5t15 121.5q0 2 1 4q33 165 87.5 323.5t116.5 314.5q219 536 482 1052q-197 -272 -400.5 -488t-378.5 -285q-57 -20 -114.5 -11t-108.5 39q-96 58 -140.5 173.5t-53 257.5t3.5 278t28 234q17 107 44 213
q9 27 31.5 31.5t40.5 -10t14 -42.5q-21 -107 -43.5 -262.5t-27 -323t28 -308t121.5 -217.5q95 -60 224 9t275.5 223.5t291.5 352t271.5 395t216.5 351.5q59 106 120 212v0v0v0v0q16 25 39.5 23.5t37.5 -20.5t1 -46q-32 -62 -64 -123q-204 -387 -403.5 -778.5t-382.5 -789.5z
" />
    <glyph glyph-name="uni0428" unicode="&#x428;" horiz-adv-x="3982" 
d="M1659 55q-130 -169 -271 -331q-151 -173 -311.5 -338.5t-339.5 -310.5q-75 -57 -162 -97q-121 -58 -244.5 -38.5t-206.5 130.5q-81 120 -104 263t-18 286q8 395 105.5 778t436.5 1188q17 28 43 27.5t42.5 -21t3.5 -51.5q-330 -773 -429.5 -1122t-121.5 -711
q-9 -132 -2.5 -266.5t58.5 -257.5q59 -134 169.5 -171t242.5 22q82 36 154 89t139 112q469 413 831 913q22 125 54 249q97 383 271 738q17 28 43 27.5t42.5 -21t3.5 -51.5q-165 -323 -264.5 -672t-121.5 -711q-9 -132 -2.5 -266.5t58.5 -257.5q59 -134 169.5 -171t242.5 22
q82 36 154 89t139 112q708 624 1172 1447q176 432 320 755q24 53 47 106q12 25 35.5 34t48.5 -3q21 -11 28.5 -32.5t-1.5 -43.5q0 -2 -1 -3q0 -1 -1 -2v-1l-1 -1l-44 -106q-13 -29 -25 -58q-26 -71 -109 -236q-16 -32 -33 -65q-155 -338 -287 -685t-220 -705.5t-110 -731.5
q-6 -46 1.5 -113.5t37 -116t91.5 -38.5q23 3 34 -11.5t7.5 -32.5t-25.5 -25q-82 -16 -132 29.5t-72 118.5t-20 140q12 402 100 789t226 762q-240 -357 -522 -682q-151 -173 -311.5 -338.5t-339.5 -310.5q-75 -57 -162 -97q-121 -58 -244.5 -38.5t-206.5 130.5
q-81 120 -104 263t-18 286q4 220 37 436z" />
    <glyph glyph-name="uni0429" unicode="&#x429;" horiz-adv-x="4502" 
d="M3735 -1363q137 317 239 647q-186 -71 -359 -169q-174 -97 -322 -230q-100 -98 -186 -209q-99 -128 -173 -273q-75 -144 -112 -301q-19 -90 -21 -186q-2 -95 42 -178q69 -99 170 -92t184 83q65 59 117 132q51 73 96 148l9 14q179 297 316 614zM3378 -98q79 281 152 504
q-240 -357 -522 -682q-151 -173 -311.5 -338.5t-339.5 -310.5q-75 -57 -162 -97q-121 -58 -244.5 -38.5t-206.5 130.5q-81 120 -104 263t-18 286q4 220 37 436q-130 -169 -271 -331q-151 -173 -311.5 -338.5t-339.5 -310.5q-75 -57 -162 -97q-121 -58 -244.5 -38.5
t-206.5 130.5q-81 120 -104 263t-18 286q8 395 105.5 778t436.5 1188q17 28 43 27.5t42.5 -21t3.5 -51.5q-330 -773 -429.5 -1122t-121.5 -711q-9 -132 -2.5 -266.5t58.5 -257.5q59 -134 169.5 -171t242.5 22q82 36 154 89t139 112q469 413 831 913q22 125 54 249
q97 383 271 738q17 28 43 27.5t42.5 -21t3.5 -51.5q-165 -323 -264.5 -672t-121.5 -711q-9 -132 -2.5 -266.5t58.5 -257.5q59 -134 169.5 -171t242.5 22q82 36 154 89t139 112q708 624 1172 1447q176 432 320 755q24 53 47 106q12 25 35.5 34t48.5 -3q21 -11 28.5 -32.5
t-1.5 -43.5q0 -2 -1 -3q0 -1 -1 -2v-1l-1 -1l-44 -106q-13 -29 -25 -58q-26 -71 -109 -236q-16 -32 -33 -65q-155 -338 -287 -685q-89 -214 -161 -457l-2 -6q-13 -49 -24 -100q-30 -146 -22 -268q8 -123 78 -181q57 -39 121 -19q66 19 117 58q130 103 229 238
q97 135 175 280l20 40q11 25 30 20q23 -4 11 -38q-34 -170 -71 -343q-23 -105 -49 -209q153 53 314 71q13 1 18 -9q6 -9 2 -19q-3 -10 -17 -13q-81 -4 -160 -23q-85 -20 -167 -49q-91 -367 -236 -715t-365 -655q-3 -4 -5 -7q-62 -88 -133 -169q-72 -81 -168 -134
q-98 -50 -195 -29q-97 22 -163 110q-78 117 -63 274q16 157 82 310t140 259q136 198 313 361q91 78 192 142t207 120q159 81 327 147q63 213 116 429q-36 -63 -78 -126q-97 -146 -208 -251t-229 -130q-76 -13 -141 30q-77 57 -100 170q-22 114 -7 253q8 72 23 142
q7 27 15 57z" />
    <glyph glyph-name="uni042A" unicode="&#x42a;" horiz-adv-x="3496" 
d="M2099 815q212 42 412 29t348 -95t204 -246q57 -164 -17 -423q-77 -251 -253 -480t-416 -401q-241 -172 -512 -252q-262 -77 -375 -44t-110 286q14 125 69 395l32 149q113 506 284 992q163 57 334 90zM1832 1413q-91 -70 -176 -123q-141 -86 -294 -152q-153 -67 -317 -88
q-65 -7 -131 9q-65 16 -95 78q-30 86 25 196q16 31 36 62q37 55 100 103q87 51 163 93l10 5h1v1q18 10 23 29q6 19 -3 37q-11 19 -30 25t-38 -4q-115 -62 -234 -107q-116 -46 -240 -48q-64 6 -66 -55t86 -46q86 2 192 40q-11 -14 -22 -39q-34 -60 -55 -119q-39 -109 -2 -197
q34 -70 106 -98q114 -38 263 -4q150 33 307 109t292 166q101 66 174 124q-4 -11 -9 -22l-20 -49q-124 -297 -225 -601q-268 -92 -518 -229q-216 -122 -435 -290q-219 -169 -392 -377q-173 -209 -252 -450q-56 -181 -10 -352q45 -172 177 -274q133 -103 337 -78q32 8 39 33
t-8 47q-14 22 -47 19q-102 -17 -195 23q-93 39 -150 126q-77 124 -75 257t57 263t139 247t173 209q233 239 512 424t584 320q21 9 43 18q-38 -117 -73 -235q-80 -273 -142 -551l-22 -100q-40 -191 -71 -383q-35 -216 -6.5 -373t143.5 -180.5t320 24.5q261 49 501 183
q241 134 435 325q194 190 315 411q82 148 123 311q41 162 23 315q-19 152 -116 270q-96 117 -289 174q-236 58 -476 27t-470 -100q-22 -6 -43 -12q105 294 232 581l22 50q33 74 67 146q14 39 -6 63q-21 24 -53 24q-32 -1 -51 -36l-38 -84q-58 -59 -125 -111z" />
    <glyph glyph-name="uni042B" unicode="&#x42b;" horiz-adv-x="4205" 
d="M3502 -543q-15 -215 42 -432q10 -20 37 -29t56 -2q30 7 44 25q13 18 4 38q-91 196 -89 401q1 205 59 406q64 221 108 331q215 605 473 1026q148 251 233 330q24 28 30 45t-7 32q-16 15 -36 15q-19 0 -35 -15q-99 -96 -179 -207q-230 -331 -386 -703t-260 -761
q-5 -17 -9 -35q-65 -230 -85 -465zM1753 736q101 304 225 601l20 49q47 111 97 220q19 35 51 36q32 0 53 -24q20 -24 6 -63q-34 -72 -67 -146l-22 -50q-127 -287 -232 -581l43 12q230 69 470 100t476 -27q193 -57 289 -174q97 -118 116 -270q18 -153 -23 -315
q-41 -163 -123 -311q-121 -221 -315 -411q-194 -191 -435 -325q-240 -134 -501 -183q-205 -48 -320 -25q-115 24 -144 181q-28 157 7 373q31 192 71 383l22 100q62 278 142 551q35 118 73 235l-43 -18q-305 -135 -584 -320t-512 -424q-89 -92 -173 -209t-139 -247t-57 -263
t75 -257q57 -87 150 -126q93 -40 195 -23q33 3 47 -19q15 -22 8 -47t-39 -33q-204 -25 -337 78q-132 102 -177 274q-46 171 10 352q79 241 252 450q173 208 392 377q219 168 435 290q250 137 518 229zM1865 723q-171 -486 -284 -992l-32 -149q-55 -270 -69 -395
q-3 -253 110 -286t375 44q271 80 512 252q240 172 416 401t253 480q74 259 17 423q-56 164 -204 246t-348 95t-412 -29q-171 -33 -334 -90z" />
    <glyph glyph-name="uni042C" unicode="&#x42c;" horiz-adv-x="3596" 
d="M1235 509q-216 -122 -435 -290q-219 -169 -392 -377q-173 -209 -252 -450q-56 -181 -10 -352q45 -172 177 -274q133 -103 337 -78q32 8 39 33t-8 47q-14 22 -47 19q-102 -17 -195 23q-93 39 -150 126q-77 124 -75 257t57 263t139 247t173 209q233 239 512 424t584 320
q21 9 43 18q-38 -117 -73 -235q-80 -273 -142 -551l-22 -100q-40 -191 -71 -383q-35 -216 -6.5 -373t143.5 -180.5t320 24.5q261 49 501 183q241 134 435 325q194 190 315 411q82 148 123 311q41 162 23 315q-19 152 -116 270q-96 117 -289 174q-236 58 -476 27t-470 -100
q-22 -6 -43 -12q105 294 232 581l22 50q33 74 67 146q14 39 -6 63q-21 24 -53 24q-32 -1 -51 -36q-50 -109 -97 -220l-20 -49q-124 -297 -225 -601q-268 -92 -518 -229zM2199 815q212 42 412 29t348 -95t204 -246q57 -164 -17 -423q-77 -251 -253 -480t-416 -401
q-241 -172 -512 -252q-262 -77 -375 -44t-110 286q14 125 69 395l32 149q113 506 284 992q163 57 334 90z" />
    <glyph glyph-name="uni042D" unicode="&#x42d;" horiz-adv-x="2032" 
d="M372 857q-7 -39 9 -60q17 -19 36 -11q20 8 23 49q6 106 65 225q30 60 52 96l-40 14q-90 -157 -145 -313zM1772 337q91 11 183 15q15 9 18 34q4 25 -4 47q-7 21 -23 18q-69 -24 -139 -41l-35 -8q30 245 -6 493q-25 170 -95 329t-209 266q-101 72 -222 94.5t-241 0.5
q-173 -39 -298 -164q-102 -106 -175 -235q-5 -8 -9 -16l40 -14q21 30 42 64q86 132 204.5 217.5t267.5 96.5q223 8 358.5 -104.5t199 -295.5t71.5 -385q7 -199 -24 -368q-87 -17 -175 -32l-153 -28q-120 -21 -241 -41l-44 -6q-91 -15 -181 -27q-11 -4 -14 -21q-3 -18 1 -33
q5 -17 16 -16q78 17 159 33l46 9l213 40q181 37 362 64q-63 -317 -218 -614q-167 -321 -419 -563q-106 -101 -229.5 -156t-253 -45t-254.5 104q-112 90 -162 217.5t-54.5 269t20.5 274.5q2 17 4 30q4 43 20 110q30 134 113 229q31 37 14 55q-16 16 -52 8q-37 -10 -61 -47
q-67 -164 -94 -349q-8 -48 -14 -97q-20 -176 10.5 -343t128.5 -296t280 -192q152 -45 304 -6t279 130q159 113 280 266t213 324q156 289 225 613q10 45 17 91z" />
    <glyph glyph-name="uni042E" unicode="&#x42e;" horiz-adv-x="2844" 
d="M2259 -290q-167 -321 -419 -563q-106 -101 -229 -156q-124 -55 -253 -45q-130 10 -255 104q-112 90 -162 218q-50 127 -55 269q-4 141 21 274q33 171 95 344q63 173 162 325q19 -153 91 -291q47 -91 126 -159q78 -69 182 -83q140 -13 266 49t209 175q13 22 2 39
q-12 16 -32 17t-32 -22q-52 -119 -166 -182q-115 -63 -244 -49q-129 21 -214 123q-69 82 -111 198q-43 115 -47 229q74 103 171 184q12 9 14 23q1 14 -8 26t-23 14q-14 1 -26 -8q-66 -53 -120 -116q18 140 70 291q53 150 139 283q86 132 204 218q119 85 268 96
q223 8 359 -104q135 -113 199 -296q63 -183 71 -385q7 -203 -25 -375q-61 -344 -228 -665zM248 285q69 5 138 8l125 3q328 6 470 -20q-41 -95 -71 -195q-53 -156 -73 -331q-20 -176 11 -343q30 -167 128 -296t280 -192q152 -45 304 -6t279 130q159 113 280 266t213 324
q156 289 225 613q69 323 21 650q-25 170 -95 329t-209 266q-101 72 -222 95q-121 22 -241 0q-173 -39 -298 -164q-158 -164 -245 -380q-88 -217 -105 -444l-26 -35q-82 -123 -142 -256l-579 28q-95 0 -191 -3q44 153 96 304q113 341 323 784q10 24 -2.5 39.5t-33 16
t-32.5 -21.5q-14 -31 -27 -62q-242 -577 -381 -1052q-2 -5 -3 -11q-189 -8 -378 -27q-37 -7 -44 -35q-6 -27 11 -49q18 -22 54 -14q168 51 341 72q-82 -286 -148 -575l-16 -73q-51 -264 -76 -389l-13 -65q-1 -2 -1 -4q-1 -33 21 -47t47 -5.5t31 40.5q21 186 77 510l12 70
q53 275 128 544q19 2 37 3z" />
    <glyph glyph-name="uni042F" unicode="&#x42f;" horiz-adv-x="2180" 
d="M809 -39q-148 81 -244 221q-125 193 -98 407q26 214 166 391q167 208 418 363q252 155 513 207q7 1 15 3l20 3q7 1 13 0t11 -5q10 -10 17 -26q7 -17 10 -34q11 -67 8 -137q-7 -145 -33 -288q-116 -605 -322 -1189q-88 -14 -178 -8q-168 12 -316 92zM1468 -60zM1383 -411
q-27 -132 -36 -266q-6 -88 5 -196.5t69 -176.5q67 -60 203.5 -36.5t309 98t346.5 168.5t314 175q133 78 206 114q30 21 26.5 48t-27 41t-53.5 -4q-211 -161 -438 -297q-154 -94 -315.5 -176t-338.5 -125q-50 -11 -105 -10.5t-95 37.5q-25 35 -32 79q-13 94 -1 189
q32 278 128 617q77 27 116 38q32 13 35 40q4 26 -15 46q-19 19 -52 9q-12 -4 -49 -17q32 103 63 193q178 517 436 938q5 -6 13 -11q19 -9 38 -3.5t30 23.5q1 2 23.5 43.5t53.5 100.5q26 47 50 91.5t40 73.5t16 30q16 32 -8 59q-16 15 -35.5 15t-35.5 -15q-99 -96 -179 -207
q-230 -331 -386 -703q-138 -329 -235 -672q-34 -15 -56 -28q30 87 59 173q18 54 60 192q43 137 92 320t86 374q37 190 44 350q8 159 -33 249q-41 89 -148 72q-144 -27 -278 -86q-134 -60 -257 -141q-169 -106 -318 -253q-150 -146 -237 -328t-67 -394q24 -197 144 -345
q119 -148 294 -232q175 -83 367 -86l54 7l-40 -99q-10 -28 -21 -55q-115 -214 -258 -417q-52 -72 -109 -141q-58 -68 -130 -122q-114 -88 -230 -78q-116 11 -205 128q-79 107 -116 236q-34 117 -56 235q-21 140 -35 280q-5 33 -23 40q-19 8 -35 -6q-16 -15 -15 -48
q13 -120 32 -238l15 -107q28 -140 84 -274q55 -134 162 -232q106 -88 231 -79q124 10 229 94q75 45 140 103q155 164 253 322q87 140 156 290q32 84 73 181q26 15 61 31q-30 -119 -54 -239z" />
    <glyph glyph-name="uni0430" unicode="&#x430;" horiz-adv-x="699" 
d="M709 355v0q4 7 11 6t11 -6.5t0 -12.5q-29 -41 -67 -72.5t-79 -59.5q-7 -5 -13 -9q-99 -68 -191 -104.5t-159.5 -14t-94.5 133.5q-66 -98 -142 -189q-40 -40 -82.5 -22.5t-33.5 75.5q41 182 171 316q42 43 103 69q24 9 39.5 -6t14.5 -36.5t-25 -31.5
q-75 -38 -125.5 -107.5t-78.5 -150.5q82 106 153 220q11 17 29.5 18t32 -11t12.5 -32q-20 -61 -10.5 -125.5t75.5 -90.5q99 1 200 56t180 116q41 30 69 71z" />
    <glyph glyph-name="uni0431" unicode="&#x431;" horiz-adv-x="598" 
d="M626 223l-1 -1q1 0 1 -1v2zM536 157l-1 -1q1 0 1 -1v2zM249 879l-35 3l-78 1q-56 -4 -98 -26q-45 -22 -68 -84q-22 -53 1 -86.5t60.5 -55t79.5 -71.5q44 -60 57 -91l17 -30l3 -6q4 -8 8 -14q20 -31 26 -75q2 -13 3 -31q2 -76 -26 -148q-13 -31 -29 -56q5 3 11 5
q91 37 156 69.5t129 65.5q99 46 143 100q4 5 9.5 5.5t9.5 -2.5q10 -12 -2.5 -27t-29.5 -29q-12 -10 -35 -23q-79 -43 -161.5 -86.5t-187.5 -91.5q-45 -20 -86 -34q-4 -3 -7 -5q-60 -43 -110 -24t-64 91q-15 132 65 241q32 43 51 54q32 20 52 2q30 -37 -4 -65
q-20 -14 -53 -64t-43 -111q0 -4 -1 -8q-3 -29 0.5 -60t31.5 -40q77 18 114.5 95t30.5 162q-1 1 -4.5 22t-3.5 20l-2 8q-2 7 -11 25l-9 17l-4 8l-17 34q-20 40 -64 92q-30 32 -91 70q-49 20 -78 72q-25 54 -16 98q8 62 82 95q19 9 51 15q23 6 98 7h70l50 -3q54 -8 75 -7
q26 -2 57.5 10.5t52.5 31.5q34 31 48 32q11 -10 7 -25l-11 -14q-53 -39 -91 -54.5t-129 -3.5z" />
    <glyph glyph-name="uni0432" unicode="&#x432;" horiz-adv-x="552" 
d="M574 358v0q5 5 10 3t6.5 -7t-3.5 -9q-91 -69 -192 -120t-205 -91q-23 -8 -48 -18h-1q20 -30 26 -64q-1 -76 -39.5 -146t-91.5 -127l-3 -3q-17 -17 -46.5 -42t-59 -39t-46.5 4q-34 70 1 233t106.5 359t146 365t117.5 251q9 15 17 30q21 40 46 77.5t62 65.5q19 14 37 4
t16 -32q-22 -110 -57 -215q-72 -199 -191 -377q-1 -2 -5 -7q-11 -16 -35.5 -51.5t-51.5 -69.5q-33 -87 -64 -175l6 2q38 11 68 -6q113 5 258 72.5t216 132.5zM366 946v0q-48 -80 -85 -166q-16 -34 -33 -68q-69 -154 -130 -310q155 203 226 442q2 8 4 17q13 42 18 85zM55 85
v0l-1 1q-8 -2 -17 -4q-22 2 -30 19q-10 -29 -19 -59q-12 -40 -25 -80q-19 -56 -33 -112.5t-15 -113.5q65 44 110 109t66 138q7 25 6 49q-3 16 -15.5 33t-26.5 20z" />
    <glyph glyph-name="uni0433" unicode="&#x433;" horiz-adv-x="571" 
d="M17 357l-7 -8l-24 -25q-12 -11 -3.5 -15.5t19.5 2.5l10 10l17 15q50 56 81.5 73t38 16t1.5 -12q-83 -165 -55 -247t132 -87q96 19 177 80t153 133l44 42q8 8 5 15.5t-11 9.5t-16 -6q-35 -43 -75 -82q-80 -80 -177 -136q-61 -37 -120.5 -28t-79.5 78q-11 62 15 123t69 110
q12 19 5 35.5t-24.5 22.5t-36.5 -2q-32 -19 -76 -58q-41 -37 -62 -59zM-733 156l-1 -1q1 0 1 -1v2z" />
    <glyph glyph-name="uni0434" unicode="&#x434;" horiz-adv-x="474" 
d="M227 434v0q12 19 31.5 20.5t33 -11t8.5 -34.5q-70 -304 -165 -603q16 2 27.5 -1t12.5 -18q-2 -6 -7 -10t-11 -3q-16 3 -32 2q-60 -181 -144 -355q-78 -159 -182 -306q-12 -16 -30.5 -17.5t-32.5 11.5q-23 26 -28.5 94.5t13.5 135.5q35 124 118.5 247t202.5 189
q73 214 127 433q-37 -59 -84 -110q-65 -69 -126.5 -59t-58.5 108q12 77 51 146t97 125q61 54 103 62t61 -9t11 -39.5t-46 -29.5q-46 -10 -97.5 -68.5t-82 -128t-13.5 -111.5l-5 2q38 -16 73.5 18t65 87t48.5 95q7 15 13 26q13 30 26 61q11 25 22 51zM-240 -807v0
q171 258 270 546q-105 -66 -176.5 -179.5t-97.5 -225.5q-1 -1 -1 -3q-5 -31 -7 -70t12 -68z" />
    <glyph glyph-name="uni0435" unicode="&#x435;" horiz-adv-x="635" 
d="M665 360v0q10 -12 -2.5 -27t-29.5 -29q-12 -10 -17 -16q-38 -34 -126 -90t-193 -104t-192 -58t-122 47q-33 84 -14.5 175.5t72.5 162.5q32 38 77 42t56 -54q7 -29 -17 -63.5t-59.5 -63.5t-61.5 -40q-12 -63 -7 -107q8 -64 76.5 -62t160 39.5t170.5 82.5t109 68
q57 40 101 94q4 5 9.5 5.5t9.5 -2.5zM112 388v0q-45 -31 -65 -102q25 23 46 51.5t19 50.5z" />
    <glyph glyph-name="uni0436" unicode="&#x436;" horiz-adv-x="1184" 
d="M328 228q38 86 31 154q-6 67 -74 88q-44 13 -96 6q-42 -10 -75 -33q-31 -18 -55 -43q-14 -15 -29 -32l-13 -12l-29 -31q-8 -12 -4 -15q6 -7 17 -1l12 12l21 18q44 45 83 70q35 23 53 31q42 16 97 0q38 -11 37 -42q-1 -32 -13 -65l-6 -21q-17 -46 -53 -110
q-16 -36 -38 -65q-51 -74 -100 -63q-66 9 -94 75q-7 45 -42 29q-38 -25 -15 -75q56 -93 139 -103q79 0 109 25q22 14 45 45q11 15 21 30q77 79 127 125q-5 -16 -11 -33q-4 -12 -7 -23q-11 -32 -24 -92q-4 -20 -6 -32.5t11.5 -14.5t26.5 13q34 65 115 164q-9 -98 33 -149
q32 -43 125 -46q105 1 175 31q66 24 189 118t205 173q4 6 2 11t-7 7q-6 2 -11 -3q-30 -34 -64 -64q-100 -91 -216 -165q-8 -5 -17 -11q-58 -34 -81 -44q-111 -30 -172 -21q-53 6 -83 37q-42 55 -21 122q36 64 83 116q46 52 95 64q22 -11 40 1q17 11 20 32q3 20 -17 35
q-32 20 -67 12q-36 -8 -63 -28q-41 -27 -95 -99q-13 -18 -25 -36q-58 -90 -109 -144q3 9 5 16q26 75 34 111q17 47 -1 48t-31 -14q-30 -33 -96 -109q5 10 9 20zM-733 155l-1 -1q1 0 1 -1v2z" />
    <glyph glyph-name="uni0437" unicode="&#x437;" horiz-adv-x="769" 
d="M36 -228l13 32q36 74 38 136q0 13 -2 25q-71 -55 -124 -136q-71 -107 -97 -214q-1 -1 -1 -3q-5 -30 -7 -67t12 -65q119 171 168 292zM243 65q65 10 157 47q91 38 170 83t109 68q57 40 101 94q4 5 10 5q5 1 9 -2q10 -12 -2 -27q-13 -15 -30 -29q-12 -10 -17 -16
q-38 -34 -126 -90t-193 -104t-192 -58q-5 -1 -24 -5t-48 -17q6 -16 9 -34q8 -61 -14 -127l-5 -13q-16 -43 -37 -86q-15 -33 -30 -59q-79 -149 -183 -289q-12 -15 -31 -17q-18 -1 -32 11q-23 25 -29 90q-5 66 14 130q35 118 118 235q57 80 131 135q-12 30 -43 53
q-27 21 -12 47t49 59q33 32 62.5 72t35.5 90q5 66 -23 87t-87 -26q-14 -11 -25 -23q-4 -4 -9 -3t-7 5.5t2 9.5q56 71 104.5 76t75 -40t16.5 -122q-11 -52 -39.5 -98.5t-62.5 -88.5q26 -24 41 -50q38 20 87 27z" />
    <glyph glyph-name="uni0438" unicode="&#x438;" horiz-adv-x="761" 
d="M72 305v0v0v0v0q0 -1 -1 -1v0q1 0 1 1zM774 357v0q31 9 26 -6.5t-32 -45t-62 -61t-62.5 -55t-33.5 -27.5q-23 -17 -47 -36q-60 -48 -125 -87.5t-141 -48.5q-57 7 -77 47t-17 93t15 100q-49 -60 -110 -108q-60 -36 -95 -14t-44 73t9 102q16 61 40.5 80t45 11t25 -29.5
t-20.5 -42.5q1 0 2 0.5t1 1.5v0q-1 -1 -2 -3q-19 -32 -32.5 -73.5t1.5 -76.5q23 -10 53 15.5t59 65t50 71.5q12 18 19 28q8 11 16 25q17 33 44 52q18 11 34.5 3.5t22.5 -25t-7 -33.5q-4 -5 -7 -9h-1l1 -1l-3 -3q-1 -1 -1 -2q-14 -18 -24 -37q-44 -83 -53 -176
q-2 -108 68.5 -102t170 74t184.5 146t110 114z" />
    <glyph glyph-name="uni0439" unicode="&#x439;" horiz-adv-x="761" 
d="M72 305q0 -1 -1 -1q1 0 1 1zM774 357q31 9 26 -6.5t-32 -45t-62 -61t-62.5 -55t-33.5 -27.5q-23 -17 -47 -36q-60 -48 -125 -87.5t-141 -48.5q-57 7 -77 47t-17 93t15 100q-49 -60 -110 -108q-60 -36 -95 -14t-44 73t9 102q16 61 40.5 80t45 11t25 -29.5t-20.5 -42.5
q1 0 2 0.5t1 1.5q-1 -1 -2 -3q-19 -32 -32.5 -73.5t1.5 -76.5q23 -10 53 15.5t59 65t50 71.5q12 18 19 28q8 11 16 25q17 33 44 52q18 11 34.5 3.5t22.5 -25t-7 -33.5q-4 -5 -7 -9h-1l1 -1l-3 -3q-1 -1 -1 -2q-14 -18 -24 -37q-44 -83 -53 -176q-2 -108 68.5 -102t170 74
t184.5 146t110 114zM70 786v1q1 0 1 1q-1 -1 -1 -2zM260 464q-60 -36 -95 -14t-44 73q-1 5 -1 9q-4 22 28 32q33 5 35 -19q-3 -28 7 -52q23 -10 53 16q15 13 31 30q14 9 29 -3q15 -16 0 -35q-21 -19 -43 -37z" />
    <glyph glyph-name="uni043A" unicode="&#x43a;" horiz-adv-x="651" 
d="M687 357v0q11 -9 -4.5 -33t-43 -52t-53.5 -51.5t-36 -31.5q-80 -64 -174 -100q-95 -35 -192 -41t-192 8q-5 0 -8 4q-10 -22 -19 -45q-10 -36 -21 -72q-2 -10 -10.5 -15t-17.5 -4q-18 8 -16 28t11 42q6 17 8 30q3 12 7 24l90 313q17 47 35.5 54t32 -7.5t4.5 -37.5v0
l-50 -113q40 51 86 95q42 39 83 74q16 14 31 27q17 15 34.5 11t26.5 -19t0 -35q-53 -92 -123 -172t-146 -154q181 -23 349 43t284 226q5 6 11.5 7t12.5 -3zM134 267v0q-70 -68 -120 -151q21 25 43 51q40 48 77 100z" />
    <glyph glyph-name="uni043B" unicode="&#x43b;" horiz-adv-x="847" 
d="M100 368q1 0 1 1q0 -1 -1 -1zM321 362q-68 -106 -127 -192q-50 -64 -111 -112q-60 -36 -95 -14t-44 73t11 126q36 101 61 120q24 19 44 11q21 -8 26 -30q4 -21 -21 -42h2l-1 -1q-36 -72 -56 -127q-12 -52 3 -87q23 -10 53 16q30 25 59 64q29 40 50 72q12 18 19 28
q8 11 16 25q68 102 130 163q12 10 22.5 3t17.5 -23q6 -20 -15 -91q-11 -46 -15 -86.5t13 -71.5q44 -41 103.5 -37t120 30t105.5 52q7 4 15 9q86 47 152 116q5 6 11 4.5t9 -6.5t-1 -11q-10 -12 -21 -21q-61 -47 -156.5 -106t-194 -83.5t-168.5 32.5q-26 27 -30 87
q-4 49 13 110z" />
    </font>
</defs>
</svg>
