<svg width="16" height="20" fill="none" xmlns="http://www.w3.org/2000/svg"><path d="M15.26 4.688h-2.258C12.708 2.051 10.577 0 8 0S3.292 2.052 2.998 4.688H.741c-.41 0-.741.35-.741.78v13.75c0 .432.332.782.74.782h14.52c.408 0 .74-.35.74-.781V5.469c0-.432-.332-.782-.74-.782zM8 1.563c1.759 0 3.223 1.353 3.506 3.125H4.494C4.777 2.915 6.241 1.563 8 1.563zm6.518 16.875H1.481V6.25h1.482v2.344c0 .431.332.781.74.781.41 0 .741-.35.741-.781V6.25h7.112v2.344c0 .431.331.781.74.781.41 0 .741-.35.741-.781V6.25h1.481v12.188z" fill="#111"/></svg>