<svg width="11" height="7" fill="none" xmlns="http://www.w3.org/2000/svg"><path fill-rule="evenodd" clip-rule="evenodd" d="M6.295 6.087c-.096.102-.284.123-.284.123H5.39s-1.374.081-2.584-1.16C1.485 3.694.32 1.006.32 1.006S.253.83.326.745C.408.65.632.643.632.643L2.12.634s.14.023.24.095c.083.06.13.173.13.173s.24.6.559 1.142c.622 1.06.911 1.291 1.122 1.177.308-.165.215-1.497.215-1.497s.006-.483-.154-.699C4.107.86 3.872.81 3.769.796c-.084-.01.054-.203.232-.289.268-.129.741-.136 1.3-.13.436.004.56.03.731.071.395.094.383.395.356 1.045-.008.194-.017.42-.017.68 0 .06-.002.122-.004.186-.009.333-.02.714.203.856.114.072.393.01 1.09-1.157.331-.554.579-1.204.579-1.204s.054-.116.138-.166c.086-.05.202-.035.202-.035l1.567-.01s.47-.055.546.155c.08.22-.175.733-.815 1.574-.607.797-.903 1.091-.876 1.351.02.19.212.362.58.699.77.704.976 1.074 1.026 1.163l.009.017c.345.564-.383.608-.383.608l-1.391.019s-.299.058-.692-.208c-.206-.14-.407-.367-.6-.584-.292-.33-.563-.637-.793-.564-.388.121-.376.945-.376.945s.003.176-.086.27z" fill="#4D4D4D"/></svg>