<svg width="11" height="11" fill="none" xmlns="http://www.w3.org/2000/svg"><path fill-rule="evenodd" clip-rule="evenodd" d="M5.29.293h.21C7.198.293 7.4.3 8.07.33c.62.028.955.132 1.18.219.296.115.507.253.73.475.222.222.36.434.475.73.087.224.19.56.219 1.18.03.67.037.871.037 2.567 0 1.696-.007 1.897-.037 2.567-.028.62-.132.956-.219 1.18a1.964 1.964 0 01-.475.73c-.223.222-.434.36-.73.474-.224.088-.56.191-1.18.22-.67.03-.871.036-2.568.036s-1.898-.006-2.568-.037c-.62-.028-.955-.132-1.18-.219a1.969 1.969 0 01-.73-.475 1.97 1.97 0 01-.476-.73c-.087-.224-.19-.56-.218-1.18-.03-.67-.037-.87-.037-2.568 0-1.696.006-1.897.037-2.566.028-.62.131-.956.218-1.18.116-.297.253-.508.476-.73.222-.223.434-.361.73-.476.225-.088.56-.191 1.18-.22.587-.026.814-.034 1.998-.035v.001h.358zm2.84 1.818a.762.762 0 111.525 0 .762.762 0 01-1.525 0zm-2.629.128a3.263 3.263 0 100 6.527 3.263 3.263 0 000-6.527z" fill="#4D4D4D"/><path d="M5.501 3.384a2.118 2.118 0 110 4.236 2.118 2.118 0 010-4.236z" fill="#4D4D4D"/></svg>