<svg width="19" height="18" fill="none" xmlns="http://www.w3.org/2000/svg"><path d="M1.705 0a.75.75 0 000 1.5h.37a.75.75 0 01.72.545l2.378 8.325A2.25 2.25 0 007.336 12h6.854a2.25 2.25 0 002.09-1.415l2.21-5.529A1.5 1.5 0 0017.098 3H4.628l-.392-1.368A2.25 2.25 0 002.074 0h-.369zm4.911 9.956L5.056 4.5h12.04l-2.21 5.529a.75.75 0 01-.696.471H7.336a.75.75 0 01-.72-.544zM7.705 18a2.25 2.25 0 100-4.5 2.25 2.25 0 000 4.5zm0-1.5a.75.75 0 110-1.5.75.75 0 010 1.5zm6 1.5a2.25 2.25 0 100-4.499 2.25 2.25 0 000 4.499zm0-1.5a.75.75 0 110-1.5.75.75 0 010 1.5z" fill="#000"/></svg>