<svg width="16" height="20" fill="none" xmlns="http://www.w3.org/2000/svg"><path fill-rule="evenodd" clip-rule="evenodd" d="M7.903 0c-2.632 0-4.8 2.247-4.8 4.975 0 2.728 2.168 4.975 4.8 4.975 2.632 0 4.8-2.247 4.8-4.975 0-2.728-2.168-4.975-4.8-4.975zM4.558 4.975c0-1.896 1.516-3.467 3.345-3.467 1.829 0 3.346 1.571 3.346 3.467 0 1.895-1.517 3.467-3.346 3.467-1.829 0-3.345-1.572-3.345-3.467zm-1.183 9.477a6.529 6.529 0 012.121-1.472A6.34 6.34 0 018 12.462c1.744 0 3.402.724 4.626 1.99a6.798 6.798 0 011.42 2.2c.33.822.5 1.704.5 2.594 0 .2.076.392.213.533a.71.71 0 001.028.001.768.768 0 00.213-.534 8.435 8.435 0 00-2.347-5.86 7.98 7.98 0 00-2.593-1.798A7.75 7.75 0 008 10.955c-2.134 0-4.161.884-5.653 2.432A8.31 8.31 0 00.61 16.075a8.546 8.546 0 00-.61 3.17c0 .2.077.392.213.533a.71.71 0 001.029.001.768.768 0 00.213-.534c0-1.808.698-3.526 1.92-4.794z" fill="#111"/></svg>