<svg width="122" height="48" fill="none" xmlns="http://www.w3.org/2000/svg"><path d="M1.364 35.2h.742V45h-.742v-9.8zm6.238 2.646c.831 0 1.489.257 1.974.77.495.504.742 1.18.742 2.03V45h-.714v-4.354c0-.653-.182-1.171-.546-1.554-.354-.383-.858-.574-1.512-.574-.718 0-1.306.238-1.764.714-.457.476-.686 1.167-.686 2.072V45h-.7v-7h.7v1.33c.504-.99 1.34-1.484 2.506-1.484zm8.28.84h-2.085v4.55c0 .401.074.69.224.868.149.177.378.28.686.308.308.019.7.005 1.176-.042V45c-.943.14-1.648.075-2.114-.196-.458-.27-.686-.793-.686-1.568v-4.55h-1.54V38h1.54v-1.75l.714-.21V38h2.086v.686zm6.72-.686h.7v7h-.7v-1.33c-.504.99-1.339 1.484-2.506 1.484-.83 0-1.493-.252-1.988-.756-.485-.513-.728-1.195-.728-2.044V38h.714v4.354c0 .653.178 1.171.532 1.554.364.383.873.574 1.526.574.719 0 1.307-.238 1.764-.714.458-.476.686-1.167.686-2.072V38zm3.605-1.848a.562.562 0 01-.392.154.553.553 0 01-.56-.56c0-.15.056-.275.168-.378a.537.537 0 01.392-.168c.15 0 .28.056.392.168a.493.493 0 01.168.378.553.553 0 01-.168.406zM25.465 45v-7h.7v7h-.7zm6.441-6.314H29.82v4.55c0 .401.075.69.224.868.15.177.378.28.686.308.308.019.7.005 1.176-.042V45c-.942.14-1.647.075-2.114-.196-.457-.27-.686-.793-.686-1.568v-4.55h-1.54V38h1.54v-1.75l.714-.21V38h2.086v.686zm2.422-2.534a.562.562 0 01-.392.154.553.553 0 01-.56-.56c0-.15.056-.275.168-.378a.537.537 0 01.392-.168c.15 0 .28.056.392.168a.493.493 0 01.168.378.553.553 0 01-.168.406zM33.586 45v-7h.7v7h-.7zm7.995-7h.742l-2.954 7h-.854l-2.968-7h.756l2.632 6.272L41.581 38zm4.89-.154c1.026 0 1.857.364 2.491 1.092.644.728.966 1.591.966 2.59 0 .037-.005.093-.014.168v.168h-6.342c.084.784.397 1.419.938 1.904.55.476 1.227.714 2.03.714.56 0 1.05-.117 1.47-.35a2.39 2.39 0 00.952-.924l.616.364c-.29.485-.7.873-1.232 1.162-.532.28-1.138.42-1.82.42-1.073 0-1.955-.34-2.646-1.022-.69-.69-1.036-1.568-1.036-2.632 0-1.045.336-1.913 1.008-2.604.681-.7 1.554-1.05 2.618-1.05zm0 .672c-.794 0-1.457.247-1.989.742s-.835 1.134-.91 1.918H49.2c-.075-.83-.373-1.48-.896-1.946a2.605 2.605 0 00-1.834-.714zm13.502 6.636c-1.475 0-2.693-.485-3.654-1.456-.962-.98-1.442-2.18-1.442-3.598 0-1.419.48-2.613 1.442-3.584.961-.98 2.18-1.47 3.654-1.47a4.86 4.86 0 012.464.644c.746.42 1.325.99 1.736 1.708l-.658.378a3.665 3.665 0 00-1.442-1.456 4.066 4.066 0 00-2.1-.56c-1.27 0-2.315.42-3.136 1.26-.812.83-1.218 1.857-1.218 3.08s.406 2.254 1.218 3.094c.821.83 1.866 1.246 3.136 1.246.765 0 1.47-.187 2.114-.56a3.683 3.683 0 001.456-1.498l.658.378a4.531 4.531 0 01-1.736 1.75 4.96 4.96 0 01-2.492.644zm8.975 0c-1.027 0-1.9-.35-2.618-1.05-.71-.71-1.064-1.577-1.064-2.604 0-1.027.355-1.89 1.064-2.59.719-.71 1.591-1.064 2.618-1.064 1.017 0 1.88.355 2.59 1.064.719.7 1.078 1.563 1.078 2.59s-.36 1.895-1.078 2.604c-.71.7-1.573 1.05-2.59 1.05zm-2.114-1.54c.579.579 1.283.868 2.114.868.83 0 1.53-.29 2.1-.868.57-.579.854-1.283.854-2.114 0-.83-.285-1.535-.854-2.114-.57-.579-1.27-.868-2.1-.868-.83 0-1.535.29-2.114.868-.57.579-.854 1.283-.854 2.114 0 .83.285 1.535.854 2.114zm7.806-3.78a.93.93 0 00.434.812c.29.196.644.345 1.064.448.42.093.835.2 1.246.322.42.121.775.327 1.064.616.29.28.434.658.434 1.134 0 .579-.233 1.055-.7 1.428-.457.373-1.06.56-1.806.56-.672 0-1.241-.14-1.708-.42-.457-.29-.775-.667-.952-1.134l.602-.35c.13.383.373.686.728.91.364.215.807.322 1.33.322s.952-.112 1.288-.336c.345-.233.518-.56.518-.98a.963.963 0 00-.434-.826 2.908 2.908 0 00-1.064-.448c-.42-.103-.84-.215-1.26-.336a2.503 2.503 0 01-1.05-.602c-.29-.28-.434-.653-.434-1.12 0-.56.22-1.031.658-1.414.448-.383 1.022-.574 1.722-.574.56 0 1.045.126 1.456.378.42.252.728.593.924 1.022l-.588.336a1.513 1.513 0 00-.7-.784 2.161 2.161 0 00-1.092-.28c-.476 0-.877.121-1.204.364a1.12 1.12 0 00-.476.952zm13.412-1.988c.765 0 1.381.238 1.848.714.467.476.7 1.143.7 2.002V45h-.7v-4.438c0-.653-.173-1.157-.518-1.512-.336-.355-.784-.532-1.344-.532-.625 0-1.134.215-1.526.644-.383.43-.574 1.073-.574 1.932V45h-.7v-4.438c0-.653-.163-1.157-.49-1.512-.317-.355-.751-.532-1.302-.532-.616 0-1.134.22-1.554.658-.41.43-.616 1.069-.616 1.918V45h-.7v-7h.7v1.204c.485-.905 1.237-1.358 2.254-1.358.513 0 .961.126 1.344.378a2.1 2.1 0 01.84 1.05c.243-.476.57-.83.98-1.064.42-.243.873-.364 1.358-.364zm7.678 0c1.027 0 1.857.364 2.492 1.092.644.728.966 1.591.966 2.59 0 .037-.005.093-.014.168v.168h-6.342c.084.784.397 1.419.938 1.904.55.476 1.227.714 2.03.714.56 0 1.05-.117 1.47-.35a2.39 2.39 0 00.952-.924l.616.364c-.29.485-.7.873-1.232 1.162-.532.28-1.139.42-1.82.42-1.073 0-1.955-.34-2.646-1.022-.69-.69-1.036-1.568-1.036-2.632 0-1.045.336-1.913 1.008-2.604.681-.7 1.554-1.05 2.618-1.05zm0 .672c-.793 0-1.456.247-1.988.742s-.835 1.134-.91 1.918h5.628c-.075-.83-.373-1.48-.896-1.946a2.605 2.605 0 00-1.834-.714zm8.473.168h-2.086v4.55c0 .401.075.69.224.868.149.177.378.28.686.308.308.019.7.005 1.176-.042V45c-.943.14-1.647.075-2.114-.196-.457-.27-.686-.793-.686-1.568v-4.55h-1.54V38h1.54v-1.75l.714-.21V38h2.086v.686zm2.422-2.534a.562.562 0 01-.392.154.553.553 0 01-.56-.56c0-.15.056-.275.168-.378a.538.538 0 01.784 0 .493.493 0 01.168.378.553.553 0 01-.168.406zM105.883 45v-7h.7v7h-.7zm6.063.154c-1.055 0-1.932-.35-2.632-1.05-.7-.7-1.05-1.568-1.05-2.604s.35-1.904 1.05-2.604c.7-.7 1.577-1.05 2.632-1.05.681 0 1.297.163 1.848.49a2.84 2.84 0 011.204 1.302l-.574.336a2.342 2.342 0 00-.98-1.064 2.871 2.871 0 00-1.498-.392c-.84 0-1.545.29-2.114.868-.569.57-.854 1.274-.854 2.114 0 .84.285 1.55.854 2.128.569.57 1.274.854 2.114.854.56 0 1.059-.13 1.498-.392a2.604 2.604 0 001.022-1.064l.588.35c-.28.541-.7.975-1.26 1.302a3.636 3.636 0 01-1.848.476zm5.049-5.32a.93.93 0 00.434.812c.29.196.644.345 1.064.448.42.093.836.2 1.246.322.42.121.775.327 1.064.616.29.28.434.658.434 1.134 0 .579-.233 1.055-.7 1.428-.457.373-1.059.56-1.806.56-.672 0-1.241-.14-1.708-.42-.457-.29-.774-.667-.952-1.134l.602-.35c.131.383.374.686.728.91.364.215.808.322 1.33.322.523 0 .952-.112 1.288-.336.346-.233.518-.56.518-.98a.962.962 0 00-.434-.826 2.906 2.906 0 00-1.064-.448c-.42-.103-.84-.215-1.26-.336a2.51 2.51 0 01-1.05-.602c-.289-.28-.434-.653-.434-1.12 0-.56.22-1.031.658-1.414.448-.383 1.022-.574 1.722-.574.56 0 1.046.126 1.456.378.42.252.728.593.924 1.022l-.588.336a1.512 1.512 0 00-.7-.784 2.158 2.158 0 00-1.092-.28c-.476 0-.877.121-1.204.364a1.12 1.12 0 00-.476.952zM18 23.642v-.573l2.95-1.469V2.042L18 .573V0h10.379v.573l-2.95 1.469V21.6l2.95 1.469v.573H18zm13.73 0v-.573l2.31-1.147V11.104l-2.203-1.611v-.359l5.616-2.113h.355l.32 2.65h.178c.877-.86 1.718-1.516 2.523-1.97.83-.453 1.766-.68 2.808-.68 1.422 0 2.583.37 3.483 1.11.925.74 1.387 1.815 1.387 3.224v10.567l2.31 1.147v.573h-8.53v-.573l2.097-1.147v-9.027c0-.907-.273-1.6-.818-2.077-.545-.502-1.256-.752-2.132-.752-.545 0-1.126.095-1.742.286-.616.191-1.126.454-1.528.788v10.782l2.097 1.147v.573h-8.53zm21.417 0v-.573l2.31-1.147V11.104l-2.204-1.611v-.359l5.616-2.113h.355l.32 2.65h.178c.877-.86 1.718-1.516 2.523-1.97.83-.453 1.766-.68 2.809-.68 1.421 0 2.582.37 3.483 1.11.924.74 1.386 1.815 1.386 3.224v10.567l2.31 1.147v.573h-8.53v-.573l2.097-1.147v-9.027c0-.907-.273-1.6-.818-2.077-.545-.502-1.255-.752-2.132-.752-.545 0-1.126.095-1.742.286-.616.191-1.125.454-1.528.788v10.782l2.097 1.147v.573h-8.53zM82.453 24c-2.37 0-4.253-.704-5.651-2.113-1.374-1.41-2.062-3.284-2.062-5.624 0-1.815.38-3.415 1.138-4.8.758-1.385 1.753-2.472 2.985-3.26 1.256-.788 2.642-1.182 4.159-1.182 1.896 0 3.377.657 4.443 1.97 1.066 1.314 1.611 3.164 1.635 5.552l-.142.18H78.72c0 1.074.19 2.065.569 2.972.38.884.995 1.6 1.848 2.15.853.525 1.979.788 3.377.788.663 0 1.374-.096 2.132-.287.759-.19 1.552-.513 2.382-.967h.106v.502c-.568 1.17-1.433 2.149-2.594 2.937-1.16.788-2.523 1.182-4.087 1.182zm-.142-15.367c-.948 0-1.73.394-2.346 1.182-.616.788-1.007 1.886-1.173 3.295h6.86c-.213-1.647-.604-2.805-1.173-3.474-.568-.669-1.291-1.003-2.168-1.003zM98.17 24c-1.16 0-2.155-.108-2.985-.322a13.181 13.181 0 01-2.488-.932v-4.12h.498l1.208 1.935c.83 1.314 2.038 1.97 3.626 1.97.924 0 1.635-.19 2.132-.573.498-.406.747-.955.747-1.648 0-.597-.142-1.062-.427-1.397-.284-.358-.734-.68-1.35-.967a70.446 70.446 0 00-2.275-1.039c-1.28-.549-2.24-1.17-2.88-1.862-.639-.717-.959-1.636-.959-2.758 0-.98.249-1.863.746-2.651a5.454 5.454 0 012.062-1.899 5.85 5.85 0 012.843-.716c.83 0 1.624.095 2.382.286.758.192 1.516.478 2.275.86v4.12h-.533l-1.138-1.756c-.829-1.313-1.824-1.97-2.986-1.97-.734 0-1.338.191-1.812.573-.45.359-.675.884-.675 1.576 0 .693.248 1.242.746 1.648.521.406 1.445.884 2.772 1.433.664.31 1.327.633 1.991.967a4.316 4.316 0 011.635 1.433c.45.62.675 1.493.675 2.615 0 1.098-.296 2.042-.889 2.83a5.52 5.52 0 01-2.203 1.755 6.604 6.604 0 01-2.737.609z" fill="#111"/></svg>