<svg width="86" height="28" fill="none" xmlns="http://www.w3.org/2000/svg"><path d="M42.336 8.351c-.777 0-3.48.055-6.991 3.776l-.296-3.776-4.435 1.059v18.192h4.73V12.765a6.573 6.573 0 014.537-2.008c1.794 0 3.387 1.027 3.387 4.491v12.354h4.73V14.306c0-3.627-2.516-5.955-5.647-5.955h-.015zm18.962-.218c-5.438 0-10.433 3.488-10.309 10.602.086 4.757 2.921 9.085 9.384 9.085a10.578 10.578 0 007.986-3.776l-.225-.288c-2.882 1.799-5.912 2.297-8.91.374-2.696-1.736-3.294-4.468-3.294-7.629h12.553a7.249 7.249 0 00-1.662-5.86 7.217 7.217 0 00-5.539-2.508h.016zm2.509 7.006c-2.587.677-7.877.779-7.877.779.155-4.25 2.152-7.115 4.195-7.115 2.726.046 3.814 3.176 3.666 6.367l.016-.03zM2.82 0A2.675 2.675 0 00.228 1.596 2.69 2.69 0 000 2.646 2.69 2.69 0 001.758 5.14c.34.124.7.179 1.062.16a2.675 2.675 0 002.6-1.601 2.69 2.69 0 00.226-1.054A2.69 2.69 0 003.882.155 2.675 2.675 0 002.82 0zm6.385 22.403v5.2h4.723V12.765a6.596 6.596 0 014.544-2.008c1.787 0 3.38 1.027 3.38 4.491v12.354h4.723V14.306c0-3.627-2.517-5.955-5.648-5.955-.777 0-3.48.055-6.991 3.776L13.64 8.35 9.213 9.41v12.992h-.008zm76.764-.047v-.062c.163-2.172-.956-3.651-2.804-4.67-1.049-.577-2.183-1.02-3.263-1.558-.948-.467-1.91-.918-2.796-1.47a3.297 3.297 0 01-1.678-2.819v-.1a.473.473 0 010-.11.6.6 0 010-.109.463.463 0 010-.101v-.218l.07-.218v-.101l.093-.203a.61.61 0 00.054-.093l.117-.187a.34.34 0 01.062-.085l.14-.172.07-.078.077-.085.086-.078.077-.078.18-.14.294-.28.093-.062.094-.047.1-.055.102-.046h.1l.11-.04h1.024c3.03 0 4.466 3.114 5.111 5.154l.497-.132 1.406-4.936a30.693 30.693 0 00-6.657-.778 8.631 8.631 0 00-4.156 1.05l-.077.048h-.187l-.046.038a5.214 5.214 0 00-1.725 3.682c-.132 2.281 1.142 3.737 3.107 4.749 1.072.56 2.214.973 3.302 1.494.945.417 1.855.912 2.718 1.48 2.533 1.805 1.476 5.666-2.09 5.666-3.565 0-5.491-4.406-6.16-5.861l-.504.132-1.445 5.107a27.034 27.034 0 007.457 1.315 10.09 10.09 0 004.661-1.043c.917-.296 2.183-1.751 2.385-3.9zM.459 27.602h4.73V8.352L.459 9.41v18.192z" fill="#000"/></svg>