<svg width="65" height="40" fill="none" xmlns="http://www.w3.org/2000/svg"><path d="M65 19.943c0 10.943-8.7 19.943-19.5 19.943-10.7 0-19.5-9-19.5-19.943C26 9 34.7 0 45.4 0 56.3 0 65 9 65 19.943z" fill="#F9B50B"/><path d="M38.9 20.046c0-1.432-.2-2.864-.4-4.194h-12c.1-.716.3-1.33.5-2.148h10.7c-.2-.715-.5-1.431-.8-2.147h-9.1c.3-.716.7-1.33 1.1-2.148h6.9c-.4-.716-.9-1.432-1.5-2.148h-3.8c.6-.716 1.2-1.33 2-2.045C29.1 1.943 24.5 0 19.4 0 8.8.307 0 9 0 19.943c0 10.943 8.7 19.943 19.5 19.943 5.1 0 9.6-2.045 13.1-5.216.7-.613 1.3-1.33 2-2.147h-4c-.5-.614-1-1.33-1.4-2.046H36c.4-.613.8-1.33 1.1-2.148H28c-.3-.613-.6-1.329-.8-2.147h10.7c.6-1.841 1-3.886 1-6.136z" fill="#C8191C"/><path d="M26.4 25.057l.3-1.841c-.1 0-.3.102-.5.102-.7 0-.8-.409-.7-.614l.6-3.681h1.1l.3-2.046h-1l.2-1.227h-2.1s-1.2 6.954-1.2 7.773c0 1.227.7 1.84 1.7 1.84.6 0 1.1-.204 1.3-.306zm.7-3.375c0 2.966 2 3.682 3.6 3.682 1.5 0 2.2-.307 2.2-.307l.4-2.046s-1.1.512-2.2.512c-2.3 0-1.9-1.739-1.9-1.739h4.2s.3-1.33.3-1.943c0-1.33-.7-3.068-3-3.068-2-.102-3.6 2.25-3.6 4.909zm3.6-3.068c1.1 0 .9 1.33.9 1.431h-2.3c.1-.102.3-1.431 1.4-1.431zm13.1 6.443l.4-2.353s-1 .512-1.8.512c-1.4 0-2.1-1.125-2.1-2.455 0-2.557 1.2-3.886 2.7-3.886 1 0 1.9.613 1.9.613l.3-2.25s-1.2-.51-2.4-.51c-2.4 0-4.7 2.147-4.7 6.135 0 2.66 1.2 4.398 3.7 4.398.9.102 2-.204 2-.204zM15.1 16.67c-1.4 0-2.5.41-2.5.41l-.3 1.84s.9-.409 2.3-.409c.7 0 1.3.103 1.3.716 0 .41-.1.512-.1.512h-.9c-1.8 0-3.7.715-3.7 3.17 0 1.943 1.2 2.352 2 2.352 1.4 0 2.1-.92 2.2-.92l-.1.818H17l.8-5.83c0-2.556-2-2.659-2.7-2.659zm.4 4.705c0 .307-.2 2.045-1.4 2.045-.6 0-.8-.511-.8-.818 0-.511.3-1.227 1.9-1.227h.3zm4.3 3.887c.5 0 3.1.102 3.1-2.762 0-2.659-2.5-2.148-2.5-3.17 0-.512.4-.716 1.1-.716.3 0 1.4.102 1.4.102l.3-1.943s-.7-.205-2-.205c-1.5 0-3.1.614-3.1 2.762 0 2.454 2.6 2.25 2.6 3.17 0 .614-.7.716-1.2.716-.9 0-1.9-.307-1.9-.307l-.3 1.944c.2.204.8.409 2.5.409zM61 15.034l-.4 2.864s-.8-1.023-2-1.023c-1.9 0-3.5 2.352-3.5 5.114 0 1.738.8 3.477 2.6 3.477 1.2 0 2-.818 2-.818l-.1.716h2.1l1.5-10.125-2.2-.205zm-1 5.523c0 1.125-.5 2.659-1.7 2.659-.7 0-1.1-.614-1.1-1.739 0-1.738.7-2.761 1.7-2.761.7.102 1.1.614 1.1 1.84zM3.8 25.16L5 17.59l.2 7.568h1.4l2.7-7.568-1.1 7.568h2.2l1.7-10.125H8.7l-2.1 6.239-.1-6.239h-3L1.8 25.16h2z" fill="#fff"/><path d="M35.8 25.16c.6-3.478.7-6.342 2.2-5.83.2-1.33.5-1.944.7-2.455h-.4c-.9 0-1.7 1.227-1.7 1.227l.2-1.125h-2l-1.3 8.182h2.3zm12.8-8.49c-1.4 0-2.5.41-2.5.41l-.3 1.84s.9-.409 2.3-.409c.7 0 1.3.103 1.3.716 0 .41-.1.512-.1.512h-.9c-1.8 0-3.7.715-3.7 3.17 0 1.943 1.2 2.352 2 2.352 1.4 0 2.1-.92 2.2-.92l-.1.818h1.9l.8-5.83c0-2.556-2.2-2.659-2.9-2.659zm.5 4.705c0 .307-.2 2.045-1.4 2.045-.6 0-.8-.511-.8-.818 0-.511.3-1.227 1.9-1.227h.3zm4 3.785c.6-3.478.7-6.342 2.2-5.83.2-1.33.5-1.944.7-2.455h-.4c-.9 0-1.7 1.227-1.7 1.227l.2-1.125h-2l-1.3 8.182h2.3z" fill="#fff"/></svg>