<svg width="6" height="13" viewBox="0 0 6 13" fill="none" xmlns="http://www.w3.org/2000/svg">
<path d="M5.02473 0.666761C4.90023 0.666338 4.77723 0.693814 4.66474 0.747171C4.55226 0.800529 4.45316 0.878411 4.37473 0.975095L0.34973 5.97509C0.227161 6.12421 0.160156 6.31124 0.160156 6.50426C0.160156 6.69728 0.227161 6.88432 0.34973 7.03343L4.5164 12.0334C4.65784 12.2036 4.8611 12.3106 5.08146 12.3309C5.30181 12.3513 5.52121 12.2832 5.6914 12.1418C5.86158 12.0003 5.9686 11.7971 5.98891 11.5767C6.00923 11.3563 5.94118 11.1369 5.79973 10.9668L2.07473 6.5001L5.67473 2.03343C5.77663 1.91111 5.84136 1.76216 5.86126 1.6042C5.88116 1.44624 5.8554 1.28589 5.78702 1.14212C5.71864 0.998343 5.6105 0.877166 5.47541 0.792924C5.34032 0.708682 5.18392 0.664902 5.02473 0.666761Z" fill="black"/>
</svg>
