<svg width="25" height="14" fill="none" xmlns="http://www.w3.org/2000/svg"><path fill-rule="evenodd" clip-rule="evenodd" d="M14.408 13.649c-.23.243-.682.293-.682.293h-1.494s-3.297.194-6.2-2.773C2.863 7.932.067 1.509.067 1.509s-.16-.421.013-.624C.278.655.815.641.815.641L4.387.62s.336.054.577.228c.2.144.31.411.31.411s.578 1.434 1.342 2.73C8.109 6.519 8.803 7.072 9.309 6.8c.739-.395.518-3.578.518-3.578s.013-1.154-.372-1.67c-.298-.398-.86-.514-1.11-.547-.2-.026.13-.485.557-.69.643-.308 1.778-.326 3.12-.313 1.045.01 1.346.074 1.754.172.948.224.918.944.855 2.497-.02.464-.042 1.003-.042 1.625 0 .14-.004.29-.008.443-.022.795-.048 1.706.486 2.046.274.172.943.025 2.617-2.765.794-1.322 1.388-2.877 1.388-2.877s.13-.277.332-.396c.207-.12.486-.084.486-.084L23.649.64s1.13-.133 1.312.369c.192.524-.422 1.751-1.958 3.76-1.457 1.907-2.166 2.609-2.1 3.23.047.453.508.863 1.392 1.669 1.846 1.682 2.341 2.567 2.46 2.78l.022.039c.828 1.348-.918 1.454-.918 1.454l-3.34.045s-.716.14-1.66-.497c-.494-.333-.978-.877-1.438-1.395-.703-.79-1.352-1.521-1.906-1.349-.93.29-.902 2.258-.902 2.258s.007.421-.205.645z" fill="#4D4D4D"/></svg>