<svg width="69" height="22" fill="none" xmlns="http://www.w3.org/2000/svg"><path d="M63.8.307h-4.3c-1.3 0-2.3.409-2.9 1.738L48.4 21.17h5.8s1-2.557 1.2-3.17h7.1c.2.716.7 3.068.7 3.068h5.2L63.8.307zM57 13.704c.5-1.227 2.2-5.83 2.2-5.83 0 .103.5-1.226.7-1.942l.4 1.84s1.1 5.012 1.3 6.035H57v-.103zm-8.2.614c0 4.296-3.8 7.16-9.7 7.16-2.5 0-4.9-.512-6.2-1.126l.8-4.704.7.306c1.8.819 3 1.125 5.2 1.125 1.6 0 3.3-.613 3.3-2.045 0-.92-.7-1.534-2.9-2.557-2.1-1.023-4.9-2.659-4.9-5.625C35.1 2.762 39 0 44.5 0c2.1 0 3.9.41 5 .92l-.8 4.5-.4-.409c-1-.409-2.3-.818-4.2-.818C42 4.295 41 5.216 41 6.034c0 .92 1.2 1.636 3.1 2.557 3.2 1.534 4.7 3.273 4.7 5.727z" fill="#3362AB"/><path d="M0 .511L.1.102h8.6c1.2 0 2.1.41 2.4 1.739l1.9 9.204C11.1 6.136 6.7 2.147 0 .511z" fill="#F9B50B"/><path d="M25.1.307l-8.7 20.761h-5.9l-5-17.386c3.6 2.352 6.6 6.034 7.7 8.59l.6 2.149L19.2.205h5.9v.102zm2.3-.102h5.5l-3.5 20.863h-5.5L27.4.205z" fill="#3362AB"/></svg>