<svg width="20" height="20" viewBox="0 0 20 20" fill="none" xmlns="http://www.w3.org/2000/svg">
<path d="M19.7486 18.5799L14.1062 12.8994C15.1641 11.4793 15.8694 9.82248 15.8694 7.92899C15.8694 3.5503 12.3429 0 7.99349 0C3.52654 0 0 3.5503 0 7.92899C0 12.3077 3.52654 15.858 7.87594 15.858C9.75676 15.858 11.52 15.1479 12.8131 14.0828L18.4556 19.7633C18.5731 19.8817 18.8082 20 19.0433 20C19.2784 20 19.5135 19.8817 19.6311 19.7633C20.1013 19.5266 20.1013 18.9349 19.7486 18.5799ZM7.87594 14.2012C4.46695 14.2012 1.76327 11.4793 1.76327 8.04734C1.76327 4.61539 4.46695 1.89349 7.87594 1.89349C11.2849 1.89349 14.1062 4.49704 14.1062 7.92899C14.1062 11.3609 11.2849 14.2012 7.87594 14.2012Z" fill="#111111"/>
</svg>
