<svg width="11" height="11" viewBox="0 0 11 11" fill="none" xmlns="http://www.w3.org/2000/svg">
<path fill-rule="evenodd" clip-rule="evenodd" d="M5.28931 0.293287L5.50113 0.293336C7.19768 0.293336 7.39878 0.299443 8.06874 0.329873C8.68827 0.358218 9.02449 0.461719 9.24848 0.54869C9.54503 0.663857 9.75641 0.801561 9.9787 1.02395C10.2011 1.24634 10.3388 1.45816 10.4542 1.75467C10.5412 1.9784 10.6448 2.31462 10.673 2.93414C10.7035 3.60399 10.7101 3.80519 10.7101 5.50093C10.7101 7.19671 10.7035 7.39791 10.673 8.06776C10.6447 8.68728 10.5412 9.0235 10.4542 9.24723C10.3391 9.54374 10.2011 9.75491 9.9787 9.97715C9.75631 10.1995 9.54513 10.3373 9.24848 10.4524C9.02479 10.5398 8.68827 10.643 8.06874 10.6713C7.39888 10.7018 7.19768 10.7084 5.50113 10.7084C3.80443 10.7084 3.60333 10.7018 2.93347 10.6713C2.31394 10.6427 1.97772 10.5392 1.75359 10.4523C1.45708 10.3371 1.24526 10.1994 1.02286 9.977C0.800471 9.75461 0.662814 9.54334 0.547348 9.24669C0.460376 9.023 0.356725 8.68674 0.328528 8.06722C0.298098 7.39741 0.291992 7.19617 0.291992 5.49934C0.291992 3.80256 0.298098 3.60241 0.328528 2.93255C0.356874 2.31303 0.460376 1.97681 0.547348 1.75283C0.662517 1.45628 0.800471 1.24451 1.02286 1.02212C1.24526 0.799724 1.45708 0.66202 1.75359 0.546605C1.97757 0.459237 2.31394 0.355983 2.93347 0.327489C3.51964 0.301031 3.74685 0.293088 4.9311 0.291748V0.293336C5.03946 0.293191 5.15591 0.293236 5.28134 0.293284L5.28931 0.293287ZM8.1304 2.11064C8.1304 1.68954 8.47198 1.34841 8.89294 1.34841C9.3139 1.34841 9.65544 1.68969 9.65544 2.11064C9.65544 2.5316 9.3139 2.87313 8.89294 2.87313C8.47198 2.87313 8.1304 2.5316 8.1304 2.11064ZM5.50098 2.23931C3.69894 2.23936 2.23799 3.7004 2.23799 5.50241C2.23799 7.30448 3.69904 8.76487 5.50113 8.76487C7.30317 8.76487 8.76373 7.30448 8.76373 5.50241C8.76373 3.70035 7.30307 2.23931 5.50098 2.23931Z" fill="#4D4D4D"/>
<path d="M5.50108 3.38433C6.67079 3.38433 7.61914 4.33257 7.61914 5.50236C7.61914 6.67206 6.67079 7.6204 5.50108 7.6204C4.33128 7.6204 3.38302 6.67206 3.38302 5.50236C3.38302 4.33257 4.33128 3.38433 5.50108 3.38433Z" fill="#4D4D4D"/>
</svg>
