<svg width="11" height="7" viewBox="0 0 11 7" fill="none" xmlns="http://www.w3.org/2000/svg">
<path fill-rule="evenodd" clip-rule="evenodd" d="M6.29545 6.08731C6.19918 6.18928 6.01119 6.20988 6.01119 6.20988H5.38859C5.38859 6.20988 4.01501 6.29126 2.80501 5.04949C1.48547 3.69468 0.320271 1.00666 0.320271 1.00666C0.320271 1.00666 0.253051 0.83034 0.325886 0.745449C0.407918 0.649523 0.631591 0.643475 0.631591 0.643475L2.11975 0.633952C2.11975 0.633952 2.25989 0.656554 2.36023 0.729387C2.44328 0.789673 2.48966 0.901703 2.48966 0.901703C2.48966 0.901703 2.73014 1.5015 3.04854 2.04399C3.67061 3.10342 3.96 3.335 4.17094 3.22146C4.47868 3.05622 4.38643 1.724 4.38643 1.724C4.38643 1.724 4.39205 1.24077 4.23157 1.02526C4.10726 0.858501 3.87288 0.809741 3.76945 0.796212C3.68538 0.785136 3.82296 0.593243 4.00126 0.507372C4.26925 0.378258 4.74207 0.370737 5.30094 0.376255C5.73657 0.380751 5.8619 0.407399 6.03206 0.448066C6.427 0.54203 6.41467 0.843174 6.38806 1.49312C6.38009 1.6875 6.37085 1.91303 6.37085 2.17359C6.37085 2.23216 6.36914 2.29457 6.36735 2.35878C6.35811 2.69172 6.34753 3.07302 6.57007 3.21496C6.6842 3.28727 6.96289 3.22551 7.66036 2.05805C7.99101 1.50448 8.23861 0.853964 8.23861 0.853964C8.23861 0.853964 8.29313 0.737929 8.3772 0.688188C8.4633 0.637467 8.57947 0.653039 8.57947 0.653039L10.1456 0.643475C10.1456 0.643475 10.6164 0.587725 10.6923 0.797725C10.7723 1.01721 10.5165 1.5306 9.87659 2.37153C9.26957 3.16943 8.9742 3.46318 9.0013 3.723C9.02112 3.91285 9.21314 4.08455 9.58163 4.42154C10.3508 5.12572 10.557 5.49618 10.6065 5.5852C10.6106 5.59256 10.6136 5.59799 10.6158 5.60155C10.9608 6.16566 10.2332 6.20988 10.2332 6.20988L8.84184 6.22897C8.84184 6.22897 8.54329 6.28725 8.14998 6.02102C7.94393 5.88164 7.74259 5.65407 7.55086 5.43728C7.25798 5.10622 6.98747 4.80042 6.75655 4.87264C6.36881 4.99423 6.38053 5.81756 6.38053 5.81756C6.38053 5.81756 6.38359 5.99388 6.29545 6.08731Z" fill="#4D4D4D"/>
</svg>
