<svg width="16" height="20" viewBox="0 0 16 20" fill="none" xmlns="http://www.w3.org/2000/svg">
<path d="M15.2593 4.6875H13.002C12.7077 2.05164 10.5769 0 8 0C5.42307 0 3.29226 2.05164 2.998 4.6875H0.740741C0.33163 4.6875 0 5.03727 0 5.46875V19.2188C0 19.6502 0.33163 20 0.740741 20H15.2593C15.6684 20 16 19.6502 16 19.2188V5.46875C16 5.03727 15.6684 4.6875 15.2593 4.6875ZM8 1.5625C9.75867 1.5625 11.2229 2.91621 11.5059 4.6875H4.49411C4.77707 2.91621 6.24133 1.5625 8 1.5625ZM14.5185 18.4375H1.48148V6.25H2.96296V8.59375C2.96296 9.02523 3.29459 9.375 3.7037 9.375C4.11281 9.375 4.44444 9.02523 4.44444 8.59375V6.25H11.5556V8.59375C11.5556 9.02523 11.8872 9.375 12.2963 9.375C12.7054 9.375 13.037 9.02523 13.037 8.59375V6.25H14.5185V18.4375Z" fill="#111111"/>
</svg>
