<svg width="18" height="13" viewBox="0 0 18 13" fill="none" xmlns="http://www.w3.org/2000/svg">
<path d="M8.9999 3.68178C7.64579 3.68178 6.54535 4.78222 6.54535 6.13632C6.54535 7.49043 7.64579 8.59087 8.9999 8.59087C10.354 8.59087 11.4544 7.49043 11.4544 6.13632C11.4544 4.78222 10.354 3.68178 8.9999 3.68178Z" fill="#4D4D4D"/>
<path d="M9.00002 0C4.90909 0 1.41547 2.54452 0 6.13637C1.41547 9.72818 4.90909 12.2727 9.00002 12.2727C13.095 12.2727 16.5846 9.72818 18 6.13637C16.5846 2.54452 13.095 0 9.00002 0ZM9.00002 10.2273C6.74184 10.2273 4.90909 8.39451 4.90909 6.13633C4.90909 3.87815 6.74184 2.04544 9.00002 2.04544C11.2582 2.04544 13.0909 3.87818 13.0909 6.13637C13.0909 8.39455 11.2582 10.2273 9.00002 10.2273Z" fill="#4D4D4D"/>
</svg>
