<svg width="19" height="18" viewBox="0 0 19 18" fill="none" xmlns="http://www.w3.org/2000/svg">
<path d="M1.70508 0C1.50617 0 1.3154 0.0790178 1.17475 0.21967C1.0341 0.360322 0.955078 0.551088 0.955078 0.75C0.955078 0.948912 1.0341 1.13968 1.17475 1.28033C1.3154 1.42098 1.50617 1.5 1.70508 1.5H2.07408C2.23694 1.50028 2.39527 1.55357 2.52517 1.6518C2.65506 1.75003 2.74946 1.88788 2.79408 2.0445L5.17308 10.3695C5.30763 10.8393 5.59149 11.2525 5.98173 11.5467C6.37197 11.8409 6.84738 12 7.33608 12H14.1896C14.6393 12.0001 15.0788 11.8654 15.4513 11.6132C15.8237 11.3611 16.1121 11.0031 16.2791 10.5855L18.4901 5.0565C18.581 4.82899 18.6148 4.58268 18.5885 4.3391C18.5622 4.09551 18.4766 3.86208 18.3393 3.65919C18.202 3.4563 18.0171 3.29014 17.8007 3.17523C17.5843 3.06032 17.3431 3.00015 17.0981 3H4.62708L4.23558 1.632C4.10137 1.16216 3.81785 0.748779 3.42789 0.454345C3.03793 0.15991 2.56271 0.000426552 2.07408 0H1.70508ZM6.61608 9.9555L5.05608 4.5H17.0966L14.8856 10.029C14.8299 10.168 14.7338 10.2872 14.6097 10.3711C14.4857 10.4551 14.3394 10.5 14.1896 10.5H7.33608C7.17322 10.4997 7.01488 10.4464 6.88499 10.3482C6.75509 10.25 6.6607 10.1121 6.61608 9.9555Z" fill="black"/>
<path d="M7.70508 18C8.00055 18 8.29313 17.9418 8.56612 17.8287C8.8391 17.7157 9.08714 17.5499 9.29607 17.341C9.505 17.1321 9.67073 16.884 9.78381 16.611C9.89688 16.3381 9.95508 16.0455 9.95508 15.75C9.95508 15.4545 9.89688 15.1619 9.78381 14.889C9.67073 14.616 9.505 14.3679 9.29607 14.159C9.08714 13.9501 8.8391 13.7843 8.56612 13.6713C8.29313 13.5582 8.00055 13.5 7.70508 13.5C7.10834 13.5 6.53604 13.7371 6.11409 14.159C5.69213 14.581 5.45508 15.1533 5.45508 15.75C5.45508 16.3467 5.69213 16.919 6.11409 17.341C6.53604 17.7629 7.10834 18 7.70508 18ZM7.70508 16.5C7.50617 16.5 7.3154 16.421 7.17475 16.2803C7.0341 16.1397 6.95508 15.9489 6.95508 15.75C6.95508 15.5511 7.0341 15.3603 7.17475 15.2197C7.3154 15.079 7.50617 15 7.70508 15C7.90399 15 8.09476 15.079 8.23541 15.2197C8.37606 15.3603 8.45508 15.5511 8.45508 15.75C8.45508 15.9489 8.37606 16.1397 8.23541 16.2803C8.09476 16.421 7.90399 16.5 7.70508 16.5Z" fill="black"/>
<path d="M13.7051 18C14.0006 18 14.2931 17.9418 14.5661 17.8287C14.8391 17.7157 15.0871 17.5499 15.2961 17.341C15.505 17.1321 15.6707 16.884 15.7838 16.611C15.8969 16.3381 15.9551 16.0455 15.9551 15.75C15.9551 15.4545 15.8969 15.1619 15.7838 14.889C15.6707 14.616 15.505 14.3679 15.2961 14.159C15.0871 13.9501 14.8391 13.7843 14.5661 13.6713C14.2931 13.5582 14.0006 13.5 13.7051 13.5C13.1083 13.5 12.536 13.7371 12.1141 14.159C11.6921 14.581 11.4551 15.1533 11.4551 15.75C11.4551 16.3467 11.6921 16.919 12.1141 17.341C12.536 17.7629 13.1083 18 13.7051 18ZM13.7051 16.5C13.5062 16.5 13.3154 16.421 13.1747 16.2803C13.0341 16.1397 12.9551 15.9489 12.9551 15.75C12.9551 15.5511 13.0341 15.3603 13.1747 15.2197C13.3154 15.079 13.5062 15 13.7051 15C13.904 15 14.0948 15.079 14.2354 15.2197C14.3761 15.3603 14.4551 15.5511 14.4551 15.75C14.4551 15.9489 14.3761 16.1397 14.2354 16.2803C14.0948 16.421 13.904 16.5 13.7051 16.5Z" fill="black"/>
</svg>
