<svg width="16" height="20" viewBox="0 0 16 20" fill="none" xmlns="http://www.w3.org/2000/svg">
<path fill-rule="evenodd" clip-rule="evenodd" d="M7.90303 0C5.27127 0 3.10303 2.24724 3.10303 4.97487C3.10303 7.70251 5.27127 9.94975 7.90303 9.94975C10.5348 9.94975 12.703 7.70251 12.703 4.97487C12.703 2.24724 10.5348 0 7.90303 0ZM4.55758 4.97487C4.55758 3.0794 6.07418 1.50754 7.90303 1.50754C9.73188 1.50754 11.2485 3.0794 11.2485 4.97487C11.2485 6.87035 9.73188 8.44221 7.90303 8.44221C6.07418 8.44221 4.55758 6.87035 4.55758 4.97487ZM3.37455 14.4523C3.98155 13.8218 4.70249 13.3216 5.49617 12.9801C6.28984 12.6387 7.14067 12.4627 8 12.4623C9.74448 12.4623 11.4017 13.1859 12.6255 14.4523C13.2337 15.0814 13.7164 15.8286 14.0458 16.6512C14.3753 17.4738 14.5451 18.3556 14.5455 19.2462C14.5455 19.4461 14.6221 19.6379 14.7585 19.7792C14.8949 19.9206 15.0798 20 15.2727 20C15.4656 20 15.6506 19.9206 15.787 19.7792C15.9234 19.6379 16 19.4461 16 19.2462C16 17.0342 15.1467 14.9337 13.6533 13.3869C12.9114 12.6164 12.0303 12.005 11.0602 11.5877C10.0902 11.1704 9.05029 10.9553 8 10.9548C5.8657 10.9548 3.83903 11.8392 2.34667 13.3869C1.60324 14.1559 1.01333 15.0691 0.610673 16.0745C0.208015 17.0799 0.000502463 18.1577 0 19.2462C2.87421e-09 19.4461 0.0766232 19.6379 0.213013 19.7792C0.349403 19.9206 0.534388 20 0.727273 20C0.920157 20 1.10514 19.9206 1.24153 19.7792C1.37792 19.6379 1.45455 19.4461 1.45455 19.2462C1.45455 17.4382 2.15273 15.7196 3.37455 14.4523Z" fill="#111111"/>
</svg>
