<svg width="86" height="28" viewBox="0 0 86 28" fill="none" xmlns="http://www.w3.org/2000/svg">
<path d="M42.3358 8.35123C41.559 8.35123 38.8557 8.40572 35.3446 12.1266L35.0494 8.35123L30.6139 9.40989V27.6017H35.3446V12.7649C36.5375 11.5281 38.1654 10.8074 39.8811 10.7566C41.6755 10.7566 43.268 11.7841 43.268 15.2481V27.6017H47.9987V14.3062C47.9987 10.6787 45.4819 8.35123 42.3514 8.35123H42.3358ZM61.2976 8.13327C55.86 8.13327 50.8651 11.6206 50.9894 18.7354C51.0749 23.4916 53.9102 27.8197 60.3732 27.8197C61.8969 27.8028 63.399 27.4568 64.7771 26.8053C66.1552 26.1537 67.3769 25.212 68.3588 24.0443L68.1335 23.7563C65.2516 25.5545 62.222 26.0526 59.2236 24.1299C56.528 22.394 55.9299 19.6618 55.9299 16.5014H68.4831C68.6481 15.4624 68.5849 14.3998 68.298 13.3877C68.011 12.3757 67.5071 11.4386 66.8214 10.6419C66.1358 9.84512 65.2849 9.20787 64.3282 8.77459C63.3715 8.34132 62.3319 8.12245 61.2821 8.13327H61.2976ZM63.8067 15.1391C61.2199 15.8163 55.9299 15.9175 55.9299 15.9175C56.0853 11.6673 58.0817 8.80272 60.1246 8.80272C62.8512 8.84943 63.9388 11.9787 63.7912 15.1702L63.8067 15.1391ZM2.8198 -0.00128273C2.45952 -0.020176 2.09914 0.0340193 1.76027 0.158055C1.4214 0.28209 1.111 0.473412 0.847695 0.720553C0.584386 0.967693 0.373583 1.26556 0.22792 1.59631C0.0822579 1.92706 0.00473558 2.28387 0 2.64537C0.00369711 3.00752 0.0804549 3.36518 0.225657 3.69684C0.370858 4.0285 0.581503 4.3273 0.844922 4.57527C1.10834 4.82324 1.41909 5.01525 1.75848 5.13977C2.09786 5.26428 2.45888 5.31872 2.8198 5.2998C3.18136 5.3198 3.54321 5.26617 3.88351 5.14215C4.22381 5.01813 4.5355 4.82629 4.79976 4.57821C5.06402 4.33013 5.27537 4.03096 5.42105 3.69875C5.56673 3.36655 5.64372 3.00821 5.64737 2.64537C5.64268 2.28318 5.56492 1.92569 5.41878 1.5944C5.27264 1.26311 5.06113 0.964867 4.79698 0.717617C4.53283 0.470367 4.22149 0.279219 3.88171 0.155673C3.54192 0.0321281 3.18071 -0.0212613 2.8198 -0.00128273ZM9.20513 22.4018V27.6017H13.9281V12.7649C15.1243 11.5283 16.7545 10.8079 18.4724 10.7566C20.2591 10.7566 21.8515 11.7841 21.8515 15.2481V27.6017H26.5745V14.3062C26.5745 10.6787 24.0576 8.35123 20.9271 8.35123C20.1503 8.35123 17.447 8.40572 13.9359 12.1266L13.6407 8.35123L9.2129 9.40989V22.4018H9.20513ZM85.9689 22.3551V22.2928C86.132 20.121 85.0135 18.642 83.1647 17.6223C82.116 17.0463 80.9818 16.6026 79.9021 16.0654C78.9544 15.5984 77.9911 15.1469 77.1056 14.5942C76.605 14.3119 76.1867 13.9033 75.8924 13.409C75.5981 12.9147 75.4379 12.3518 75.4277 11.7763C75.4277 11.7763 75.4277 11.7062 75.4277 11.6751C75.4235 11.6389 75.4235 11.6023 75.4277 11.5661C75.4244 11.5299 75.4244 11.4934 75.4277 11.4572C75.424 11.4235 75.424 11.3896 75.4277 11.356V11.247V11.138L75.4976 10.92C75.4976 10.92 75.4976 10.85 75.4976 10.8188L75.5908 10.6165C75.6118 10.5871 75.63 10.5558 75.6452 10.523L75.7617 10.3362C75.7779 10.3046 75.7988 10.2757 75.8239 10.2506L75.9637 10.0793L76.0336 10.0015L76.1113 9.91587L76.1967 9.83803L76.2744 9.76018L76.4531 9.62007L76.7483 9.33983L76.8415 9.27756L76.9347 9.23085L77.0357 9.17636L77.1367 9.12966H77.2376L77.3464 9.09074H77.4474H77.5484H77.6649H77.7892H77.9135H78.3718C81.4013 9.09074 82.8384 12.2044 83.4831 14.2439L83.9803 14.1116L85.3863 9.17636C83.2022 8.67463 80.9698 8.4136 78.7291 8.39794C77.2777 8.39312 75.8485 8.75452 74.5732 9.44881L74.4955 9.49552H74.4256H74.3712H74.3091L74.2625 9.53444C73.7436 10.0011 73.3235 10.5675 73.0273 11.2C72.731 11.8325 72.5647 12.5182 72.538 13.2164C72.4059 15.4972 73.6799 16.9528 75.6452 17.9648C76.7172 18.5253 77.8591 18.9378 78.9466 19.4594C79.8922 19.876 80.8016 20.3708 81.6654 20.9384C84.1978 22.7443 83.1414 26.6053 79.5758 26.6053C76.0103 26.6053 74.0838 22.1994 73.4158 20.7438L72.9108 20.8761L71.466 25.9826C73.878 26.7688 76.3883 27.2117 78.9233 27.2981C80.5378 27.3289 82.1361 26.9712 83.5841 26.255C84.5008 25.9592 85.767 24.5036 85.9689 22.3551ZM0.458314 27.6017H5.18905V8.35123L0.458314 9.40989V14.2673V27.6017Z" fill="black"/>
</svg>
