<svg width="122" height="48" viewBox="0 0 122 48" fill="none" xmlns="http://www.w3.org/2000/svg">
<path d="M1.36448 35.2H2.10648V45H1.36448V35.2ZM7.60236 37.846C8.43303 37.846 9.09103 38.1027 9.57636 38.616C10.071 39.12 10.3184 39.7967 10.3184 40.646V45H9.60436V40.646C9.60436 39.9927 9.42236 39.4747 9.05836 39.092C8.70369 38.7093 8.19969 38.518 7.54636 38.518C6.82769 38.518 6.23969 38.756 5.78236 39.232C5.32503 39.708 5.09636 40.3987 5.09636 41.304V45H4.39636V38H5.09636V39.33C5.60036 38.3407 6.43569 37.846 7.60236 37.846ZM15.8827 38.686H13.7967V43.236C13.7967 43.6373 13.8714 43.9267 14.0207 44.104C14.17 44.2813 14.3987 44.384 14.7067 44.412C15.0147 44.4307 15.4067 44.4167 15.8827 44.37V45C14.94 45.14 14.2354 45.0747 13.7687 44.804C13.3114 44.5333 13.0827 44.0107 13.0827 43.236V38.686H11.5427V38H13.0827V36.25L13.7967 36.04V38H15.8827V38.686ZM22.6024 38H23.3024V45H22.6024V43.67C22.0984 44.6593 21.263 45.154 20.0964 45.154C19.2657 45.154 18.603 44.902 18.1084 44.398C17.623 43.8847 17.3804 43.2033 17.3804 42.354V38H18.0944V42.354C18.0944 43.0073 18.2717 43.5253 18.6264 43.908C18.9904 44.2907 19.499 44.482 20.1524 44.482C20.871 44.482 21.459 44.244 21.9164 43.768C22.3737 43.292 22.6024 42.6013 22.6024 41.696V38ZM26.2067 36.152C26.0947 36.2547 25.9641 36.306 25.8147 36.306C25.6654 36.306 25.5347 36.2547 25.4227 36.152C25.3107 36.04 25.2547 35.9047 25.2547 35.746C25.2547 35.5967 25.3107 35.4707 25.4227 35.368C25.5347 35.256 25.6654 35.2 25.8147 35.2C25.9641 35.2 26.0947 35.256 26.2067 35.368C26.3187 35.4707 26.3747 35.5967 26.3747 35.746C26.3747 35.9047 26.3187 36.04 26.2067 36.152ZM25.4647 45V38H26.1647V45H25.4647ZM31.9061 38.686H29.8201V43.236C29.8201 43.6373 29.8948 43.9267 30.0441 44.104C30.1935 44.2813 30.4221 44.384 30.7301 44.412C31.0381 44.4307 31.4301 44.4167 31.9061 44.37V45C30.9635 45.14 30.2588 45.0747 29.7921 44.804C29.3348 44.5333 29.1061 44.0107 29.1061 43.236V38.686H27.5661V38H29.1061V36.25L29.8201 36.04V38H31.9061V38.686ZM34.3278 36.152C34.2158 36.2547 34.0851 36.306 33.9358 36.306C33.7865 36.306 33.6558 36.2547 33.5438 36.152C33.4318 36.04 33.3758 35.9047 33.3758 35.746C33.3758 35.5967 33.4318 35.4707 33.5438 35.368C33.6558 35.256 33.7865 35.2 33.9358 35.2C34.0851 35.2 34.2158 35.256 34.3278 35.368C34.4398 35.4707 34.4958 35.5967 34.4958 35.746C34.4958 35.9047 34.4398 36.04 34.3278 36.152ZM33.5858 45V38H34.2858V45H33.5858ZM41.5812 38H42.3232L39.3692 45H38.5152L35.5472 38H36.3032L38.9352 44.272L41.5812 38ZM46.4702 37.846C47.4969 37.846 48.3275 38.21 48.9622 38.938C49.6062 39.666 49.9282 40.5293 49.9282 41.528C49.9282 41.5653 49.9235 41.6213 49.9142 41.696C49.9142 41.7707 49.9142 41.8267 49.9142 41.864H43.5722C43.6562 42.648 43.9689 43.2827 44.5102 43.768C45.0609 44.244 45.7375 44.482 46.5402 44.482C47.1002 44.482 47.5902 44.3653 48.0102 44.132C48.4302 43.8987 48.7475 43.5907 48.9622 43.208L49.5782 43.572C49.2889 44.0573 48.8782 44.4447 48.3462 44.734C47.8142 45.014 47.2075 45.154 46.5262 45.154C45.4529 45.154 44.5709 44.8133 43.8802 44.132C43.1895 43.4413 42.8442 42.564 42.8442 41.5C42.8442 40.4547 43.1802 39.5867 43.8522 38.896C44.5335 38.196 45.4062 37.846 46.4702 37.846ZM46.4702 38.518C45.6769 38.518 45.0142 38.7653 44.4822 39.26C43.9502 39.7547 43.6469 40.394 43.5722 41.178H49.2002C49.1255 40.3473 48.8269 39.6987 48.3042 39.232C47.7909 38.756 47.1795 38.518 46.4702 38.518ZM59.9728 45.154C58.4981 45.154 57.2801 44.6687 56.3188 43.698C55.3574 42.718 54.8768 41.5187 54.8768 40.1C54.8768 38.6813 55.3574 37.4867 56.3188 36.516C57.2801 35.536 58.4981 35.046 59.9728 35.046C60.8688 35.046 61.6901 35.2607 62.4368 35.69C63.1834 36.11 63.7621 36.6793 64.1728 37.398L63.5148 37.776C63.1881 37.1693 62.7074 36.684 62.0728 36.32C61.4381 35.9467 60.7381 35.76 59.9728 35.76C58.7034 35.76 57.6581 36.18 56.8368 37.02C56.0248 37.8507 55.6188 38.8773 55.6188 40.1C55.6188 41.3227 56.0248 42.354 56.8368 43.194C57.6581 44.0247 58.7034 44.44 59.9728 44.44C60.7381 44.44 61.4428 44.2533 62.0868 43.88C62.7308 43.5067 63.2161 43.0073 63.5428 42.382L64.2008 42.76C63.7994 43.488 63.2208 44.0713 62.4648 44.51C61.7088 44.9393 60.8781 45.154 59.9728 45.154ZM68.9481 45.154C67.9214 45.154 67.0487 44.804 66.3301 44.104C65.6207 43.3947 65.2661 42.5267 65.2661 41.5C65.2661 40.4733 65.6207 39.61 66.3301 38.91C67.0487 38.2007 67.9214 37.846 68.9481 37.846C69.9654 37.846 70.8287 38.2007 71.5381 38.91C72.2567 39.61 72.6161 40.4733 72.6161 41.5C72.6161 42.5267 72.2567 43.3947 71.5381 44.104C70.8287 44.804 69.9654 45.154 68.9481 45.154ZM66.8341 43.614C67.4127 44.1927 68.1174 44.482 68.9481 44.482C69.7787 44.482 70.4787 44.1927 71.0481 43.614C71.6174 43.0353 71.9021 42.3307 71.9021 41.5C71.9021 40.6693 71.6174 39.9647 71.0481 39.386C70.4787 38.8073 69.7787 38.518 68.9481 38.518C68.1174 38.518 67.4127 38.8073 66.8341 39.386C66.2647 39.9647 65.9801 40.6693 65.9801 41.5C65.9801 42.3307 66.2647 43.0353 66.8341 43.614ZM74.6399 39.834C74.6399 40.1793 74.7846 40.45 75.0739 40.646C75.3633 40.842 75.7179 40.9913 76.1379 41.094C76.5579 41.1873 76.9733 41.2947 77.3839 41.416C77.8039 41.5373 78.1586 41.7427 78.4479 42.032C78.7373 42.312 78.8819 42.69 78.8819 43.166C78.8819 43.7447 78.6486 44.2207 78.1819 44.594C77.7246 44.9673 77.1226 45.154 76.3759 45.154C75.7039 45.154 75.1346 45.014 74.6679 44.734C74.2106 44.4447 73.8933 44.0667 73.7159 43.6L74.3179 43.25C74.4486 43.6327 74.6913 43.936 75.0459 44.16C75.4099 44.3747 75.8533 44.482 76.3759 44.482C76.8986 44.482 77.3279 44.37 77.6639 44.146C78.0093 43.9127 78.1819 43.586 78.1819 43.166C78.1819 42.8207 78.0373 42.5453 77.7479 42.34C77.4586 42.1347 77.1039 41.9853 76.6839 41.892C76.2639 41.7893 75.8439 41.6773 75.4239 41.556C75.0133 41.4347 74.6633 41.234 74.3739 40.954C74.0846 40.674 73.9399 40.3007 73.9399 39.834C73.9399 39.274 74.1593 38.8027 74.5979 38.42C75.0459 38.0373 75.6199 37.846 76.3199 37.846C76.8799 37.846 77.3653 37.972 77.7759 38.224C78.1959 38.476 78.5039 38.8167 78.6999 39.246L78.1119 39.582C77.9719 39.2367 77.7386 38.9753 77.4119 38.798C77.0853 38.6113 76.7213 38.518 76.3199 38.518C75.8439 38.518 75.4426 38.6393 75.1159 38.882C74.7986 39.1153 74.6399 39.4327 74.6399 39.834ZM88.052 37.846C88.8174 37.846 89.4334 38.084 89.9 38.56C90.3667 39.036 90.6 39.7033 90.6 40.562V45H89.9V40.562C89.9 39.9087 89.7274 39.4047 89.382 39.05C89.046 38.6953 88.598 38.518 88.038 38.518C87.4127 38.518 86.904 38.7327 86.512 39.162C86.1294 39.5913 85.938 40.2353 85.938 41.094V45H85.238V40.562C85.238 39.9087 85.0747 39.4047 84.748 39.05C84.4307 38.6953 83.9967 38.518 83.446 38.518C82.83 38.518 82.312 38.7373 81.892 39.176C81.4814 39.6053 81.276 40.2447 81.276 41.094V45H80.576V38H81.276V39.204C81.7614 38.2987 82.5127 37.846 83.53 37.846C84.0434 37.846 84.4914 37.972 84.874 38.224C85.2567 38.4667 85.5367 38.8167 85.714 39.274C85.9567 38.798 86.2834 38.4433 86.694 38.21C87.114 37.9673 87.5667 37.846 88.052 37.846ZM95.73 37.846C96.7566 37.846 97.5873 38.21 98.222 38.938C98.866 39.666 99.188 40.5293 99.188 41.528C99.188 41.5653 99.1833 41.6213 99.174 41.696C99.174 41.7707 99.174 41.8267 99.174 41.864H92.832C92.916 42.648 93.2286 43.2827 93.77 43.768C94.3206 44.244 94.9973 44.482 95.8 44.482C96.36 44.482 96.85 44.3653 97.27 44.132C97.69 43.8987 98.0073 43.5907 98.222 43.208L98.838 43.572C98.5486 44.0573 98.138 44.4447 97.606 44.734C97.074 45.014 96.4673 45.154 95.786 45.154C94.7126 45.154 93.8306 44.8133 93.14 44.132C92.4493 43.4413 92.104 42.564 92.104 41.5C92.104 40.4547 92.44 39.5867 93.112 38.896C93.7933 38.196 94.666 37.846 95.73 37.846ZM95.73 38.518C94.9366 38.518 94.274 38.7653 93.742 39.26C93.21 39.7547 92.9066 40.394 92.832 41.178H98.46C98.3853 40.3473 98.0866 39.6987 97.564 39.232C97.0506 38.756 96.4393 38.518 95.73 38.518ZM104.203 38.686H102.117V43.236C102.117 43.6373 102.192 43.9267 102.341 44.104C102.49 44.2813 102.719 44.384 103.027 44.412C103.335 44.4307 103.727 44.4167 104.203 44.37V45C103.26 45.14 102.556 45.0747 102.089 44.804C101.632 44.5333 101.403 44.0107 101.403 43.236V38.686H99.863V38H101.403V36.25L102.117 36.04V38H104.203V38.686ZM106.625 36.152C106.513 36.2547 106.382 36.306 106.233 36.306C106.083 36.306 105.953 36.2547 105.841 36.152C105.729 36.04 105.673 35.9047 105.673 35.746C105.673 35.5967 105.729 35.4707 105.841 35.368C105.953 35.256 106.083 35.2 106.233 35.2C106.382 35.2 106.513 35.256 106.625 35.368C106.737 35.4707 106.793 35.5967 106.793 35.746C106.793 35.9047 106.737 36.04 106.625 36.152ZM105.883 45V38H106.583V45H105.883ZM111.946 45.154C110.891 45.154 110.014 44.804 109.314 44.104C108.614 43.404 108.264 42.536 108.264 41.5C108.264 40.464 108.614 39.596 109.314 38.896C110.014 38.196 110.891 37.846 111.946 37.846C112.627 37.846 113.243 38.0093 113.794 38.336C114.345 38.6533 114.746 39.0873 114.998 39.638L114.424 39.974C114.219 39.526 113.892 39.1713 113.444 38.91C113.005 38.6487 112.506 38.518 111.946 38.518C111.106 38.518 110.401 38.8073 109.832 39.386C109.263 39.9553 108.978 40.66 108.978 41.5C108.978 42.34 109.263 43.0493 109.832 43.628C110.401 44.1973 111.106 44.482 111.946 44.482C112.506 44.482 113.005 44.3513 113.444 44.09C113.892 43.8287 114.233 43.474 114.466 43.026L115.054 43.376C114.774 43.9173 114.354 44.3513 113.794 44.678C113.243 44.9953 112.627 45.154 111.946 45.154ZM116.995 39.834C116.995 40.1793 117.14 40.45 117.429 40.646C117.719 40.842 118.073 40.9913 118.493 41.094C118.913 41.1873 119.329 41.2947 119.739 41.416C120.159 41.5373 120.514 41.7427 120.803 42.032C121.093 42.312 121.237 42.69 121.237 43.166C121.237 43.7447 121.004 44.2207 120.537 44.594C120.08 44.9673 119.478 45.154 118.731 45.154C118.059 45.154 117.49 45.014 117.023 44.734C116.566 44.4447 116.249 44.0667 116.071 43.6L116.673 43.25C116.804 43.6327 117.047 43.936 117.401 44.16C117.765 44.3747 118.209 44.482 118.731 44.482C119.254 44.482 119.683 44.37 120.019 44.146C120.365 43.9127 120.537 43.586 120.537 43.166C120.537 42.8207 120.393 42.5453 120.103 42.34C119.814 42.1347 119.459 41.9853 119.039 41.892C118.619 41.7893 118.199 41.6773 117.779 41.556C117.369 41.4347 117.019 41.234 116.729 40.954C116.44 40.674 116.295 40.3007 116.295 39.834C116.295 39.274 116.515 38.8027 116.953 38.42C117.401 38.0373 117.975 37.846 118.675 37.846C119.235 37.846 119.721 37.972 120.131 38.224C120.551 38.476 120.859 38.8167 121.055 39.246L120.467 39.582C120.327 39.2367 120.094 38.9753 119.767 38.798C119.441 38.6113 119.077 38.518 118.675 38.518C118.199 38.518 117.798 38.6393 117.471 38.882C117.154 39.1153 116.995 39.4327 116.995 39.834Z" fill="#111111"/>
<path d="M18 23.6418V23.0687L20.9501 21.6V2.04179L18 0.573133V0H28.3786V0.573133L25.4285 2.04179V21.6L28.3786 23.0687V23.6418H18Z" fill="#111111"/>
<path d="M31.7303 23.6418V23.0687L34.0406 21.9224V11.1045L31.8369 9.49254V9.13433L37.4527 7.0209H37.8082L38.128 9.67164H38.3058C39.1825 8.81194 40.0237 8.15522 40.8293 7.70149C41.6587 7.24776 42.5946 7.0209 43.6373 7.0209C45.059 7.0209 46.2201 7.39105 47.1205 8.13134C48.0446 8.87164 48.5067 9.94627 48.5067 11.3552V21.9224L50.817 23.0687V23.6418H42.2866V23.0687L44.3837 21.9224V12.8955C44.3837 11.9881 44.1112 11.2955 43.5662 10.8179C43.0212 10.3164 42.3103 10.0657 41.4336 10.0657C40.8886 10.0657 40.308 10.1612 39.6919 10.3522C39.0759 10.5433 38.5664 10.806 38.1636 11.1403V21.9224L40.2606 23.0687V23.6418H31.7303Z" fill="#111111"/>
<path d="M53.1465 23.6418V23.0687L55.4568 21.9224V11.1045L53.2531 9.49254V9.13433L58.8689 7.0209H59.2244L59.5443 9.67164H59.722C60.5987 8.81194 61.4399 8.15522 62.2455 7.70149C63.0749 7.24776 64.0109 7.0209 65.0535 7.0209C66.4752 7.0209 67.6363 7.39105 68.5367 8.13134C69.4608 8.87164 69.9229 9.94627 69.9229 11.3552V21.9224L72.2332 23.0687V23.6418H63.7028V23.0687L65.7999 21.9224V12.8955C65.7999 11.9881 65.5274 11.2955 64.9824 10.8179C64.4374 10.3164 63.7265 10.0657 62.8498 10.0657C62.3048 10.0657 61.7242 10.1612 61.1082 10.3522C60.4921 10.5433 59.9826 10.806 59.5798 11.1403V21.9224L61.6768 23.0687V23.6418H53.1465Z" fill="#111111"/>
<path d="M82.4533 24C80.0837 24 78.1999 23.2955 76.8019 21.8866C75.4276 20.4776 74.7404 18.603 74.7404 16.2627C74.7404 14.4478 75.1195 12.8478 75.8778 11.4627C76.636 10.0776 77.6312 8.99104 78.8634 8.20299C80.1193 7.41493 81.5055 7.0209 83.022 7.0209C84.9176 7.0209 86.3986 7.67761 87.4649 8.99104C88.5312 10.3045 89.0762 12.1552 89.0999 14.5433L88.9577 14.7224H78.7212C78.7212 15.797 78.9108 16.7881 79.2899 17.6955C79.6691 18.5791 80.2851 19.2955 81.1382 19.8448C81.9912 20.3701 83.1168 20.6328 84.5148 20.6328C85.1783 20.6328 85.8891 20.5373 86.6474 20.3463C87.4056 20.1552 88.1994 19.8328 89.0288 19.3791H89.1354V19.8806C88.5667 21.0507 87.7018 22.0299 86.5408 22.8179C85.3797 23.606 84.0172 24 82.4533 24ZM82.3111 8.63284C81.3633 8.63284 80.5813 9.02687 79.9653 9.81493C79.3492 10.603 78.9582 11.7015 78.7923 13.1104H85.6522C85.4389 11.4627 85.0479 10.3045 84.4792 9.63582C83.9106 8.96716 83.1878 8.63284 82.3111 8.63284Z" fill="#111111"/>
<path d="M98.1709 24C97.0098 24 96.0146 23.8925 95.1853 23.6776C94.3559 23.4627 93.5266 23.1522 92.6972 22.7463V18.6269H93.1948L94.4033 20.5612C95.2327 21.8746 96.4411 22.5313 98.0287 22.5313C98.9529 22.5313 99.6637 22.3403 100.161 21.9582C100.659 21.5522 100.908 21.003 100.908 20.3104C100.908 19.7134 100.766 19.2478 100.481 18.9134C100.197 18.5552 99.7467 18.2328 99.1306 17.9463C98.5382 17.6597 97.7799 17.3134 96.8558 16.9075C95.5762 16.3582 94.6166 15.7373 93.9768 15.0448C93.337 14.3284 93.0171 13.409 93.0171 12.2866C93.0171 11.3075 93.2659 10.4239 93.7635 9.63582C94.2848 8.82388 94.972 8.19104 95.8251 7.73731C96.7018 7.2597 97.6496 7.0209 98.6685 7.0209C99.4978 7.0209 100.292 7.11642 101.05 7.30746C101.808 7.49851 102.566 7.78507 103.325 8.16716V12.2866H102.792L101.654 10.5313C100.825 9.21791 99.8296 8.56119 98.6685 8.56119C97.9339 8.56119 97.3297 8.75224 96.8558 9.13433C96.4056 9.49254 96.1805 10.0179 96.1805 10.7104C96.1805 11.403 96.4293 11.9522 96.9269 12.3582C97.4482 12.7642 98.3723 13.2418 99.6993 13.791C100.363 14.1015 101.026 14.4239 101.69 14.7582C102.353 15.0925 102.898 15.5702 103.325 16.191C103.775 16.8119 104 17.6836 104 18.806C104 19.9045 103.704 20.8478 103.111 21.6358C102.543 22.4 101.808 22.9851 100.908 23.391C100.007 23.797 99.095 24 98.1709 24Z" fill="#111111"/>
</svg>
