<svg width="65" height="40" viewBox="0 0 65 40" fill="none" xmlns="http://www.w3.org/2000/svg">
<path d="M65 19.9432C65 30.8864 56.3 39.8864 45.5 39.8864C34.8 39.8864 26 30.8864 26 19.9432C26 9 34.7 0 45.4 0C56.3 0 65 9 65 19.9432Z" fill="#F9B50B"/>
<path d="M38.9 20.0455C38.9 18.6136 38.7 17.1818 38.5 15.8523H26.5C26.6 15.1364 26.8 14.5227 27 13.7045H37.7C37.5 12.9886 37.2 12.2727 36.9 11.5568H27.8C28.1 10.8409 28.5 10.2273 28.9 9.40909H35.8C35.4 8.69318 34.9 7.97727 34.3 7.26136H30.5C31.1 6.54545 31.7 5.93182 32.5 5.21591C29.1 1.94318 24.5 0 19.4 0C8.8 0.306818 0 9 0 19.9432C0 30.8864 8.7 39.8864 19.5 39.8864C24.6 39.8864 29.1 37.8409 32.6 34.6705C33.3 34.0568 33.9 33.3409 34.6 32.5227H30.6C30.1 31.9091 29.6 31.1932 29.2 30.4773H36C36.4 29.8636 36.8 29.1477 37.1 28.3295H28C27.7 27.7159 27.4 27 27.2 26.1818H37.9C38.5 24.3409 38.9 22.2955 38.9 20.0455Z" fill="#C8191C"/>
<path d="M26.4004 25.0568L26.7004 23.2159C26.6004 23.2159 26.4004 23.3182 26.2004 23.3182C25.5004 23.3182 25.4004 22.9091 25.5004 22.7045L26.1004 19.0227H27.2004L27.5004 16.9773H26.5004L26.7004 15.75H24.6004C24.6004 15.75 23.4004 22.7045 23.4004 23.5227C23.4004 24.75 24.1004 25.3636 25.1004 25.3636C25.7004 25.3636 26.2004 25.1591 26.4004 25.0568Z" fill="white"/>
<path d="M27.0996 21.6818C27.0996 24.6477 29.0996 25.3637 30.6996 25.3637C32.1996 25.3637 32.8996 25.0568 32.8996 25.0568L33.2996 23.0114C33.2996 23.0114 32.1996 23.5227 31.0996 23.5227C28.7996 23.5227 29.1996 21.7841 29.1996 21.7841H33.3996C33.3996 21.7841 33.6996 20.4546 33.6996 19.8409C33.6996 18.5114 32.9996 16.7727 30.6996 16.7727C28.6996 16.6705 27.0996 19.0227 27.0996 21.6818ZM30.6996 18.6137C31.7996 18.6137 31.5996 19.9432 31.5996 20.0455H29.2996C29.3996 19.9432 29.5996 18.6137 30.6996 18.6137Z" fill="white"/>
<path d="M43.7996 25.0566L44.1996 22.7043C44.1996 22.7043 43.1996 23.2157 42.3996 23.2157C40.9996 23.2157 40.2996 22.0907 40.2996 20.7611C40.2996 18.2043 41.4996 16.8748 42.9996 16.8748C43.9996 16.8748 44.8996 17.4884 44.8996 17.4884L45.1996 15.2384C45.1996 15.2384 43.9996 14.7271 42.7996 14.7271C40.3996 14.7271 38.0996 16.8748 38.0996 20.8634C38.0996 23.5225 39.2996 25.2611 41.7996 25.2611C42.6996 25.3634 43.7996 25.0566 43.7996 25.0566Z" fill="white"/>
<path d="M15.1002 16.6704C13.7002 16.6704 12.6002 17.0795 12.6002 17.0795L12.3002 18.9204C12.3002 18.9204 13.2002 18.5113 14.6002 18.5113C15.3002 18.5113 15.9002 18.6136 15.9002 19.2272C15.9002 19.6363 15.8002 19.7386 15.8002 19.7386H14.9002C13.1002 19.7386 11.2002 20.4545 11.2002 22.909C11.2002 24.8522 12.4002 25.2613 13.2002 25.2613C14.6002 25.2613 15.3002 24.3409 15.4002 24.3409L15.3002 25.159H17.0002L17.8002 19.3295C17.8002 16.7727 15.8002 16.6704 15.1002 16.6704ZM15.5002 21.3749C15.5002 21.6818 15.3002 23.4204 14.1002 23.4204C13.5002 23.4204 13.3002 22.909 13.3002 22.6022C13.3002 22.0909 13.6002 21.3749 15.2002 21.3749C15.4002 21.3749 15.5002 21.3749 15.5002 21.3749Z" fill="white"/>
<path d="M19.7998 25.2615C20.2998 25.2615 22.8998 25.3638 22.8998 22.5002C22.8998 19.8411 20.3998 20.3525 20.3998 19.3297C20.3998 18.8184 20.7998 18.6138 21.4998 18.6138C21.7998 18.6138 22.8998 18.7161 22.8998 18.7161L23.1998 16.7729C23.1998 16.7729 22.4998 16.5684 21.1998 16.5684C19.6998 16.5684 18.0998 17.182 18.0998 19.3297C18.0998 21.7843 20.6998 21.5797 20.6998 22.5002C20.6998 23.1138 19.9998 23.2161 19.4998 23.2161C18.5998 23.2161 17.5998 22.9093 17.5998 22.9093L17.2998 24.8525C17.4998 25.057 18.0998 25.2615 19.7998 25.2615Z" fill="white"/>
<path d="M60.9996 15.0342L60.5996 17.8978C60.5996 17.8978 59.7996 16.8751 58.5996 16.8751C56.6996 16.8751 55.0996 19.2274 55.0996 21.9887C55.0996 23.7274 55.8996 25.466 57.6996 25.466C58.8996 25.466 59.6996 24.6478 59.6996 24.6478L59.5996 25.3637H61.6996L63.1996 15.2387L60.9996 15.0342ZM59.9996 20.5569C59.9996 21.6819 59.4996 23.216 58.2996 23.216C57.5996 23.216 57.1996 22.6024 57.1996 21.4774C57.1996 19.7387 57.8996 18.716 58.8996 18.716C59.5996 18.8183 59.9996 19.3296 59.9996 20.5569Z" fill="white"/>
<path d="M3.79981 25.1592L4.99981 17.591L5.19981 25.1592H6.59981L9.29981 17.591L8.19981 25.1592H10.3998L12.0998 15.0342H8.69981L6.59981 21.2728L6.49981 15.0342H3.49981L1.7998 25.1592H3.79981Z" fill="white"/>
<path d="M35.8 25.1591C36.4 21.6818 36.5 18.8182 38 19.3295C38.2 18 38.5 17.3864 38.7 16.875H38.3C37.4 16.875 36.6 18.1023 36.6 18.1023L36.8 16.9773H34.8L33.5 25.1591H35.8Z" fill="white"/>
<path d="M48.6002 16.6704C47.2002 16.6704 46.1002 17.0795 46.1002 17.0795L45.8002 18.9204C45.8002 18.9204 46.7002 18.5113 48.1002 18.5113C48.8002 18.5113 49.4002 18.6136 49.4002 19.2272C49.4002 19.6363 49.3002 19.7386 49.3002 19.7386H48.4002C46.6002 19.7386 44.7002 20.4545 44.7002 22.909C44.7002 24.8522 45.9002 25.2613 46.7002 25.2613C48.1002 25.2613 48.8002 24.3409 48.9002 24.3409L48.8002 25.159H50.7002L51.5002 19.3295C51.5002 16.7727 49.3002 16.6704 48.6002 16.6704ZM49.1002 21.3749C49.1002 21.6818 48.9002 23.4204 47.7002 23.4204C47.1002 23.4204 46.9002 22.909 46.9002 22.6022C46.9002 22.0909 47.2002 21.3749 48.8002 21.3749C49.0002 21.3749 49.0002 21.3749 49.1002 21.3749Z" fill="white"/>
<path d="M53.0998 25.1591C53.6998 21.6818 53.7998 18.8182 55.2998 19.3295C55.4998 18 55.7998 17.3864 55.9998 16.875H55.5998C54.6998 16.875 53.8998 18.1023 53.8998 18.1023L54.0998 16.9773H52.0998L50.7998 25.1591H53.0998Z" fill="white"/>
</svg>
