<svg width="52" height="52" viewBox="0 0 52 52" fill="none" xmlns="http://www.w3.org/2000/svg">
<path d="M26 2C29.1517 2 32.2726 2.62078 35.1844 3.82689C38.0962 5.033 40.742 6.80083 42.9706 9.02944C45.1992 11.258 46.967 13.9038 48.1731 16.8156C49.3792 19.7274 50 22.8483 50 26C50 29.1517 49.3792 32.2726 48.1731 35.1844C46.967 38.0962 45.1992 40.742 42.9706 42.9706C40.742 45.1992 38.0962 46.967 35.1844 48.1731C32.2726 49.3792 29.1517 50 26 50C22.8483 50 19.7274 49.3792 16.8156 48.1731C13.9038 46.967 11.258 45.1992 9.02943 42.9706C6.80082 40.7419 5.033 38.0962 3.82689 35.1844C2.62078 32.2726 2 29.1517 2 26C2 22.8483 2.62078 19.7274 3.8269 16.8156C5.03301 13.9038 6.80084 11.258 9.02945 9.02943C11.2581 6.80082 13.9038 5.033 16.8156 3.82689C19.7274 2.62077 22.8483 2 26 2L26 2Z" stroke="#111111" stroke-opacity="0.25" stroke-width="4" stroke-dasharray="2 3"/>
</svg>
