<svg width="25" height="14" viewBox="0 0 25 14" fill="none" xmlns="http://www.w3.org/2000/svg">
<path fill-rule="evenodd" clip-rule="evenodd" d="M14.4083 13.6486C14.1772 13.8923 13.7261 13.9415 13.7261 13.9415H12.2318C12.2318 13.9415 8.93525 14.1359 6.03125 11.1689C2.86435 7.93181 0.0678687 1.50925 0.0678687 1.50925C0.0678687 1.50925 -0.0934588 1.08796 0.0813459 0.885127C0.278221 0.655927 0.815037 0.641476 0.815037 0.641476L4.38662 0.618722C4.38662 0.618722 4.72295 0.672725 4.96377 0.846749C5.16308 0.990792 5.27441 1.25847 5.27441 1.25847C5.27441 1.25847 5.85156 2.69157 6.61572 3.98777C8.10869 6.51911 8.80322 7.07243 9.30947 6.80115C10.048 6.40632 9.82666 3.22321 9.82666 3.22321C9.82666 3.22321 9.84014 2.06862 9.45498 1.55368C9.15664 1.15524 8.59414 1.03874 8.3459 1.00642C8.14414 0.979952 8.47432 0.521456 8.90225 0.31628C9.54541 0.00778385 10.6802 -0.0101857 12.0215 0.00299793C13.067 0.0137401 13.3678 0.0774113 13.7762 0.174579C14.724 0.399091 14.6944 1.11862 14.6306 2.67155C14.6114 3.13601 14.5893 3.67488 14.5893 4.29743C14.5893 4.43738 14.5852 4.5865 14.5809 4.73991C14.5587 5.53542 14.5333 6.44646 15.0674 6.78562C15.3413 6.95837 16.0102 6.81081 17.6841 4.02136C18.4776 2.6987 19.0719 1.14441 19.0719 1.14441C19.0719 1.14441 19.2027 0.867159 19.4045 0.748312C19.6111 0.62712 19.8899 0.664327 19.8899 0.664327L23.6486 0.641476C23.6486 0.641476 24.7785 0.508272 24.9606 1.01003C25.1526 1.53444 24.5389 2.7611 23.003 4.77038C21.5462 6.67683 20.8373 7.37869 20.9023 7.99949C20.9499 8.4531 21.4107 8.86335 22.2951 9.66853C24.1411 11.3511 24.636 12.2362 24.7549 12.4489C24.7647 12.4665 24.772 12.4795 24.7772 12.488C25.6051 13.8358 23.859 13.9415 23.859 13.9415L20.5196 13.9871C20.5196 13.9871 19.8031 14.1263 18.8592 13.4902C18.3646 13.1572 17.8814 12.6135 17.4213 12.0955C16.7184 11.3045 16.0691 10.5738 15.5149 10.7464C14.5844 11.0369 14.6125 13.0041 14.6125 13.0041C14.6125 13.0041 14.6198 13.4254 14.4083 13.6486Z" fill="#4D4D4D"/>
</svg>
