<svg width="69" height="22" viewBox="0 0 69 22" fill="none" xmlns="http://www.w3.org/2000/svg">
<path d="M63.8004 0.306641H59.5004C58.2004 0.306641 57.2004 0.715731 56.6004 2.04528L48.4004 21.1703H54.2004C54.2004 21.1703 55.2004 18.6135 55.4004 17.9998C56.0004 17.9998 61.7004 17.9998 62.5004 17.9998C62.7004 18.7157 63.2004 21.068 63.2004 21.068H68.4004L63.8004 0.306641ZM57.0004 13.7044C57.5004 12.4771 59.2004 7.87482 59.2004 7.87482C59.2004 7.97709 59.7004 6.64755 59.9004 5.93164L60.3004 7.77255C60.3004 7.77255 61.4004 12.7839 61.6004 13.8066H57.0004V13.7044Z" fill="#3362AB"/>
<path d="M48.8004 14.3182C48.8004 18.6136 45.0004 21.4773 39.1004 21.4773C36.6004 21.4773 34.2004 20.9659 32.9004 20.3523L33.7004 15.6477L34.4004 15.9545C36.2004 16.7727 37.4004 17.0795 39.6004 17.0795C41.2004 17.0795 42.9004 16.4659 42.9004 15.0341C42.9004 14.1136 42.2004 13.5 40.0004 12.4773C37.9004 11.4545 35.1004 9.81818 35.1004 6.85227C35.1004 2.76136 39.0004 0 44.5004 0C46.6004 0 48.4004 0.409091 49.5004 0.920454L48.7004 5.42045L48.3004 5.01136C47.3004 4.60227 46.0004 4.19318 44.1004 4.19318C42.0004 4.29545 41.0004 5.21591 41.0004 6.03409C41.0004 6.95454 42.2004 7.67045 44.1004 8.59091C47.3004 10.125 48.8004 11.8636 48.8004 14.3182Z" fill="#3362AB"/>
<path d="M0 0.511142L0.1 0.102051H8.7C9.9 0.102051 10.8 0.511141 11.1 1.84069L13 11.0452C11.1 6.13614 6.7 2.1475 0 0.511142Z" fill="#F9B50B"/>
<path d="M25.1 0.306863L16.4 21.0682H10.5L5.5 3.68186C9.1 6.03414 12.1 9.71596 13.2 12.2728L13.8 14.4205L19.2 0.20459H25.1V0.306863Z" fill="#3362AB"/>
<path d="M27.4004 0.20459H32.9004L29.4004 21.0682H23.9004L27.4004 0.20459Z" fill="#3362AB"/>
</svg>
