<svg width="15" height="15" viewBox="0 0 15 15" fill="none" xmlns="http://www.w3.org/2000/svg">
<path d="M3.14064 12.9841C3.11923 13.0758 3.11884 13.1711 3.13952 13.263C3.16019 13.3548 3.20138 13.4408 3.26 13.5145C3.31863 13.5881 3.39317 13.6475 3.47803 13.6883C3.56289 13.729 3.65588 13.7501 3.75002 13.7498C3.87347 13.7498 3.99417 13.7133 4.09689 13.6448L7.50002 11.376L10.9031 13.6448C11.0096 13.7154 11.1352 13.7518 11.2629 13.749C11.3907 13.7462 11.5145 13.7044 11.6178 13.6291C11.721 13.5538 11.7988 13.4487 11.8405 13.3279C11.8822 13.2072 11.886 13.0765 11.8513 12.9535L10.7081 8.95352L13.5431 6.40227C13.6339 6.32051 13.6988 6.21393 13.7297 6.09571C13.7605 5.97749 13.7561 5.85282 13.7168 5.7371C13.6776 5.62139 13.6053 5.51972 13.5089 5.44465C13.4125 5.36959 13.2962 5.32443 13.1744 5.31476L9.61127 5.03101L8.06939 1.61789C8.02029 1.50796 7.94042 1.41459 7.83942 1.34905C7.73842 1.28351 7.62062 1.2486 7.50022 1.24854C7.37982 1.24847 7.26198 1.28325 7.16091 1.34868C7.05984 1.41411 6.97987 1.50739 6.93064 1.61726L5.38877 5.03101L1.82564 5.31414C1.70593 5.32362 1.59148 5.3674 1.49599 5.44022C1.4005 5.51305 1.32801 5.61184 1.2872 5.72478C1.24639 5.83773 1.23898 5.96004 1.26586 6.07708C1.29274 6.19412 1.35277 6.30094 1.43877 6.38476L4.07252 8.95164L3.14064 12.9841ZM7.50002 3.39289L8.77627 6.21851L9.14377 6.24789L11.6269 6.44477L9.58252 8.28476L9.58189 8.28602L9.29252 8.54601L9.39939 8.91914V8.92101L10.1825 11.6616L7.50002 10L4.5 12L5.38877 8.54601L3.13952 6.38476L6.17794 6.21851L7.50002 3.39289Z" fill="#111111"/>
</svg>
